<svg width="42" height="41" viewBox="0 0 42 41" fill="none" xmlns="http://www.w3.org/2000/svg">
<rect width="42" height="41" fill="#ECEBF3"/>
<path d="M21 5.125C12.3149 5.125 5.25 12.0217 5.25 20.5C5.25 28.9783 12.3149 35.875 21 35.875C29.6851 35.875 36.75 28.9783 36.75 20.5C36.75 12.0217 29.6851 5.125 21 5.125ZM21 7.6875C28.2649 7.6875 34.125 13.4081 34.125 20.5C34.125 27.5919 28.2649 33.3125 21 33.3125C13.7351 33.3125 7.875 27.5919 7.875 20.5C7.875 13.4081 13.7351 7.6875 21 7.6875ZM19.6875 10.25V21.7812H28.875V19.2188H22.3125V10.25H19.6875Z" fill="#0C0F12"/>
</svg>
