<svg width="314" height="314" viewBox="0 0 314 314" fill="none" xmlns="http://www.w3.org/2000/svg">
<path d="M227.069 76.93C229.618 78.5361 231.639 80.8566 232.878 83.6025C234.542 87.4976 235.712 91.585 236.364 95.77C235.402 95.7954 234.444 95.9164 233.506 96.1311C233.396 96.1311 232.768 96.4608 232.659 96.8062C232.156 98.5468 231.773 100.32 231.512 102.113L200.112 102.301C199.751 102.301 199.798 102.725 200.112 102.741C200.112 102.741 228.781 103.18 231.512 103.196C230.822 108.911 231.403 115.191 235.453 119.241C239.268 123.009 252.236 123.543 257.056 119.948C261.06 116.949 262.049 108.283 261.766 103.196C262.708 103.196 283.935 102.819 286.038 102.741C286.097 102.741 286.153 102.718 286.194 102.676C286.235 102.635 286.258 102.579 286.258 102.521C286.258 102.463 286.235 102.407 286.194 102.366C286.153 102.324 286.097 102.301 286.038 102.301C282.459 102.301 261.719 102.144 261.719 102.144C261.295 97.4342 260.149 96.9632 260.149 96.7434C260.136 96.598 260.078 96.4605 259.982 96.3505C259.886 96.2405 259.758 96.1637 259.615 96.1311C258.25 95.8642 256.862 95.7223 255.471 95.7072C257.669 92.1747 259.553 82.5663 263.007 76.1293C268.125 66.5366 287.389 75.674 287.075 67.196C286.698 57.776 276.242 52.4851 265.016 57.4777C254.356 62.1877 251.577 84.1677 251.389 95.6444C248.17 95.6444 249.724 95.7386 245.109 95.6444C249.143 90.275 254.277 72.377 253.382 59.8641C252.357 51.56 248.862 43.7551 243.35 37.4602C238.515 32.0437 232.847 29.7515 228.577 34.1004C222.297 40.3804 228.074 47.3983 233.444 54.5104C239.347 62.3604 241.56 66.2697 242.361 77.4481C242.736 83.5129 242.621 89.5982 242.016 95.6444H240.273C241.623 91.2327 239.881 81.5144 238.609 76.9457C236.788 70.493 233.679 63.9932 228.749 59.5187C222.925 54.4901 215.843 51.1415 208.261 49.8318C203.629 49.0468 199.673 49.3451 197.522 50.6325C196.731 51.0439 196.12 51.7334 195.807 52.5682C195.494 53.403 195.501 54.3241 195.826 55.1541C198.433 63.6792 216.864 70.65 227.069 76.93ZM265.33 58.4825C275.833 53.7725 285.505 58.718 285.834 67.2588C286.086 73.8057 267.199 65.6888 262.049 75.7211C258.469 82.6605 256.884 92.3631 254.717 95.7229H253.602C255.172 88.7992 259.019 73.3975 263.54 67.9496C269.318 60.9003 279.382 65.0137 279.821 64.9038C279.994 64.9038 280.167 64.6212 279.649 64.4328C273.369 62.1563 266.979 62.2034 262.708 67.2588C257.574 73.319 254.34 87.92 252.99 95.77H251.64C252.064 84.78 255.141 62.957 265.33 58.4825ZM243.162 77.4324C242.534 66.3482 240.493 62.2819 234.291 53.8824C229.204 47.0529 223.757 40.5374 229.377 34.8383C233.208 30.9447 238.201 33.2683 242.534 38.1667C247.84 44.3088 251.186 51.8983 252.142 59.9583C253.163 72.6753 247.982 90.9344 244.292 95.6601H243.46C245.139 88.4712 246.226 81.1566 246.71 73.79C247.071 67.51 246.961 63.1454 245.14 57.6818C243.644 53.5219 241.567 49.5946 238.97 46.0167C237.731 44.2519 236.366 42.5782 234.888 41.0084C234.85 40.9626 234.796 40.9336 234.737 40.9277C234.679 40.9218 234.62 40.9395 234.574 40.977C234.528 41.0145 234.499 41.0686 234.493 41.1275C234.487 41.1864 234.505 41.2452 234.543 41.291C234.936 41.7019 235.303 42.1372 235.642 42.5941C240.54 48.8741 245.376 58.0429 245.752 66.1441C246.129 74.2453 244.512 87.763 243.02 95.77H242.581C243.274 89.6835 243.469 83.5505 243.162 77.4324ZM259.16 97.4656C261.751 99.8363 260.934 115.583 256.24 119.1C251.546 122.617 239.315 121.785 235.987 118.566C230.743 113.527 231.277 104.091 233.067 97.0888C233.178 97.2355 233.331 97.345 233.506 97.4028C234.713 97.6814 235.943 97.8496 237.18 97.9052C235.643 103.603 235.912 109.637 237.949 115.175C238.024 115.333 238.159 115.455 238.324 115.514C238.489 115.573 238.67 115.564 238.829 115.489C238.987 115.414 239.109 115.28 239.168 115.115C239.227 114.95 239.218 114.768 239.143 114.61C237.164 110.654 236.631 101.862 237.777 98.0151C242.675 98.2349 255.785 98.3291 259.16 97.4656ZM228.074 60.3194C238.719 69.7394 241.451 90.6047 239.802 95.6915H238.829C238.606 91.3288 237.846 87.0102 236.568 82.8332C233.177 71.8432 227.493 65.0922 218.78 60.0054C214.228 57.4018 209.357 55.4016 204.289 54.0551C204.23 54.0405 204.169 54.0497 204.117 54.0806C204.066 54.1115 204.028 54.1617 204.014 54.22C203.999 54.2783 204.008 54.3399 204.039 54.3915C204.07 54.443 204.12 54.4801 204.179 54.4947C210.095 56.3706 215.71 59.0884 220.852 62.5645C226.554 66.3601 231.005 71.7569 233.648 78.0761C236.155 83.6619 237.745 89.6153 238.358 95.7072H236.882C236.301 91.398 235.183 87.1785 233.553 83.1472C232.28 80.2483 230.191 77.7826 227.54 76.0508C217.163 69.6609 199.28 62.6587 196.894 54.8087C194.68 47.6024 216.017 49.5178 228.074 60.3194ZM92.3162 141.159C71.4038 133.89 52.658 130.64 40.9929 127.704C40.8484 127.663 40.6973 127.652 40.5484 127.671C40.3996 127.691 40.2562 127.74 40.1268 127.816C39.9974 127.892 39.8847 127.993 39.7954 128.114C39.7061 128.234 39.6421 128.372 39.6072 128.518C39.5723 128.664 39.5673 128.815 39.5923 128.963C39.6174 129.111 39.672 129.252 39.7531 129.379C39.8341 129.505 39.9398 129.614 40.0638 129.698C40.1878 129.783 40.3276 129.841 40.4748 129.87C47.9794 131.676 59.3148 133.748 71.5765 136.59C91.8295 141.3 92.2691 142.697 92.5988 141.724C92.634 141.611 92.6242 141.49 92.5715 141.384C92.5188 141.279 92.4273 141.198 92.3162 141.159ZM258.03 153.86C258.03 153.823 258.022 153.786 258.008 153.752C257.994 153.718 257.973 153.686 257.947 153.66C257.921 153.634 257.89 153.613 257.855 153.599C257.821 153.585 257.784 153.577 257.747 153.577C243.978 153.577 230.586 156.717 223.003 157.424C222.911 157.432 222.821 157.458 222.739 157.501C222.657 157.544 222.585 157.604 222.526 157.675C222.467 157.747 222.424 157.83 222.398 157.919C222.372 158.008 222.364 158.101 222.375 158.193C222.383 158.286 222.409 158.377 222.452 158.459C222.495 158.542 222.554 158.615 222.626 158.675C222.697 158.735 222.78 158.78 222.869 158.808C222.958 158.836 223.051 158.846 223.144 158.837C228.702 158.287 238.326 156.184 247.338 155.022C257.339 153.86 258.045 154.566 258.03 153.86ZM210.6 186.532C210.614 186.506 210.622 186.478 210.625 186.449C210.627 186.42 210.624 186.391 210.615 186.363C210.606 186.335 210.592 186.309 210.574 186.287C210.555 186.265 210.532 186.247 210.506 186.233L210.113 186.029L210.019 186.5C210.286 186.626 210.49 186.83 210.6 186.532Z" fill="#D9D9D9"/>
<path d="M305.962 190.457C301.927 189.625 291.957 189.954 287.844 190.315C291.235 178.729 294.736 163.625 296.149 155.304C296.661 153.002 296.883 150.644 296.809 148.286C296.757 148.075 296.662 147.876 296.53 147.703C296.397 147.53 296.23 147.387 296.039 147.282C289.759 143.341 223.961 151.992 219.376 154.268C218.01 154.943 216.786 158.35 216.236 159.889C212.17 153.201 212.594 151.615 208.057 141.049C205.229 134.167 201.643 127.621 197.365 121.534C197.475 120.702 201.824 88.2183 197.161 79.5362C194.021 73.7272 177.018 71.6862 170.471 71.1367C170.471 70.7913 169.654 64.8567 169.309 62.172C174.835 57.5562 177.159 49.0625 171.161 47.6338C166.907 46.629 150.108 43.4262 137.595 46.6604C129.745 48.7014 123.465 53.2858 122.931 62.3604C122.72 65.8062 122.931 69.2649 123.559 72.6596C115.442 73.5545 101.469 74.889 94.3414 77.5737C85.1726 81.0277 89.0348 121.141 90.0082 124.391C89.4744 125.71 88.972 127.044 88.5167 128.285C65.6732 122.46 14.5383 111.596 12.2618 111.8C11.6689 111.792 11.0833 111.932 10.5574 112.206C10.0314 112.48 9.58142 112.88 9.24741 113.37C8.63511 113.511 8.41531 114.374 8.30541 114.94C6.73541 123.292 9.57711 173.171 10.0795 181.633C10.9116 184.679 35.1053 191.289 38.2453 192.152C38.4023 196.281 39.2344 216.786 39.4071 220.993C38.0412 220.744 36.6892 220.425 35.3565 220.035C32.5619 218.889 21.8545 229.314 22.7965 228.451C18.6988 232.093 63.2868 244.072 66.8507 243.067C70.4146 242.063 77.4639 235.327 76.2707 231.575C75.9408 230.907 75.3843 230.379 74.7007 230.083C71.3252 228.309 62.3919 226.127 58.671 225.232C59.0321 217.633 59.0321 205.168 59.0164 197.6C63.4281 198.699 88.4696 204.759 92.9912 204.681C93.3153 204.686 93.6349 204.604 93.9175 204.445C95.3619 204.241 97.0575 203.88 97.1988 202.404C97.1988 201.965 97.5599 198.134 98.0152 192.451C109.084 196.674 122.507 196.36 124.894 195.386C125.537 195.076 126.081 194.592 126.464 193.989C126.574 194.13 126.621 194.099 127.453 194.225C130.593 194.727 135.617 195.198 138.443 193.722C142.446 194.366 154.049 195.292 154.912 191.414C155.022 190.896 155.179 189.844 155.336 188.573C166.954 189.201 208.214 188.918 208.37 188.918L207.413 193.236C207.389 193.2 207.356 193.171 207.317 193.152C207.279 193.133 207.236 193.124 207.193 193.126C207.193 193 207.193 193.031 207.193 193.126C200.764 192.619 194.313 192.451 187.866 192.623C185.574 192.733 179.53 193.016 179.42 195.245C178.617 197.14 178.5 199.255 179.09 201.227C179.435 202.467 182.356 204.477 183.439 205.215C177.3 204.602 173.721 204.838 171.868 205.497C171.427 205.574 171.017 205.772 170.682 206.068C170.347 206.364 170.1 206.748 169.97 207.176C169.84 207.603 169.831 208.059 169.944 208.492C170.058 208.924 170.289 209.317 170.612 209.626C172.716 212.515 177.096 213.489 177.567 217.272C178.462 224.447 160.219 232.564 153.562 235.406C156.906 231.01 165.871 217.178 161.522 213.834C156.686 210.113 115.222 208.48 111.407 209.454C108.723 210.145 88.9877 224.73 89.3488 229.864C89.6 233.208 109.021 236.489 112.632 237.117C116.698 237.808 145.712 242.329 149.182 240.116C149.917 239.819 150.586 239.377 151.147 238.816C151.708 238.255 152.15 237.586 152.447 236.85C158.459 234.784 164.246 232.111 169.717 228.875C178.352 223.521 183.188 216.896 174.647 211.322C173.626 210.663 170.832 208.653 171.24 207.523C172.119 205.026 184.255 205.953 184.428 205.953C190.064 209.626 200.85 215.294 207.209 216.943C213.928 218.717 245.328 215.278 252.911 214.321C253.775 217.461 254.607 220.381 255.156 222.171C253.979 222.265 250.619 222.563 249.677 223.301C249.159 223.709 249.175 224.4 250.007 224.871C250.007 230.131 249.363 245.862 250.933 252.958C251.53 255.612 252.221 256.711 254.968 257.668C260.165 259.348 270.15 258.752 275.378 257.354C278.628 256.475 279.052 255.784 279.57 254.057C281.36 248.186 281.266 230.853 281.14 224.698C281.241 224.626 281.322 224.53 281.379 224.42C281.435 224.309 281.465 224.187 281.465 224.063C281.465 223.938 281.435 223.816 281.379 223.706C281.322 223.595 281.241 223.499 281.14 223.427C279.979 222.888 278.728 222.569 277.451 222.485C277.67 220.726 278.848 210.898 279.02 209.171C279.841 208.679 280.573 208.053 281.187 207.318C282.147 206.152 282.771 204.746 282.993 203.252C284.563 201.196 286.823 193.518 287.561 191.006C294.564 191.305 304.831 190.896 305.789 191.006C305.862 191.029 305.941 191.022 306.009 190.987C306.076 190.951 306.127 190.891 306.15 190.818C306.173 190.745 306.166 190.666 306.131 190.598C306.095 190.531 306.035 190.48 305.962 190.457ZM93.7448 224.337C94.7967 223.175 96.037 221.967 97.3558 220.742C102.961 215.561 110.089 210.349 111.643 209.956C115.411 208.983 156.796 211.526 161.004 214.666C161.71 215.2 161.851 216.236 161.71 217.476C161.145 222.406 155.995 230.539 152.997 234.511C149.605 231.591 98.235 224.95 93.7448 224.337ZM170.675 72.2671C176.672 72.8323 193.487 74.7634 196.376 80.0072C200.458 87.3862 197.946 112.553 196.941 120.827C196.062 119.65 195.151 118.535 194.225 117.514C188.902 111.674 179.765 108.738 172.025 107.247C167.053 106.381 162.037 105.789 157 105.473C156.843 105.473 157.094 105.708 155.854 103.165C154.001 99.3496 153.892 99.4124 154.08 99.3025C156.138 99.1929 158.177 98.8452 160.156 98.2663C165.462 96.6963 168.618 93.5563 170.11 85.9261C170.919 81.4036 171.089 76.7896 170.612 72.22L170.675 72.2671ZM157.157 105.959C158.146 106.101 158.413 106.085 158.492 106.132C158.492 106.524 161.93 124.972 150.155 125.82C140.421 126.62 134.015 112.961 130.561 103.84C131.817 103.636 132.822 103.494 133.497 103.4C133.827 110.559 144.126 123.543 149.841 122.633C156.262 121.581 159.418 111.815 157.157 105.959ZM133.717 77.0713C133.858 76.3709 134.171 75.7167 134.629 75.1683C135.087 74.6199 135.675 74.1947 136.339 73.9313C139.479 73.162 139.479 77.0713 141.975 76.8515C145.115 76.6474 141.614 69.3626 144.314 64.9195C147.25 60.0211 159.151 69.9278 168.775 62.5802C169.937 70.8541 171.209 77.2911 169.434 85.7377C167.865 93.1481 164.944 95.8799 159.905 97.3557C157.834 97.8324 155.737 98.1889 153.625 98.4233C153.456 98.5185 153.314 98.6548 153.213 98.8195C153.111 98.9842 153.053 99.172 153.044 99.3653C153.044 99.9148 154.614 102.725 156.074 106.006C158.256 111.156 155.414 120.513 149.668 121.408C145.586 122.052 137.595 112.899 135.318 106.43C134.314 103.573 134.612 103.463 136.386 92.3003C138.882 92.473 139.4 87.5903 139.526 85.0626C139.552 84.5267 139.366 84.0022 139.008 83.6025C137.878 82.3622 136.951 83.8066 134.753 81.0591C134.274 80.5261 133.929 79.8856 133.749 79.1916C133.568 78.4976 133.558 77.7704 133.717 77.0713ZM123.779 73.79C125.883 83.3984 131.409 90.0709 135.209 91.9235C134.518 96.3352 133.733 101.249 133.529 102.741C124.469 103.195 115.535 105.049 107.043 108.236C103.272 109.68 99.757 111.721 96.6336 114.28C94.9066 105.331 99.3497 87.8415 98.8002 82.8803C98.549 80.7765 97.9524 78.5471 95.8957 78.0918C102.929 75.8781 115.96 74.6221 123.779 73.79ZM94.9537 78.5C95.3289 78.5128 95.6976 78.6014 96.0376 78.7606C96.3776 78.9198 96.6818 79.1463 96.9319 79.4263C97.6397 80.4944 97.9964 81.7567 97.9524 83.0373C98.2978 87.7473 93.4151 105.111 96.1626 114.736C93.5161 117.217 91.5119 120.304 90.3222 123.732C89.0662 116.086 86.9781 81.2789 94.9537 78.5ZM38.5436 150.029C38.6692 149.291 40.0194 148.962 40.7573 148.836C46.2052 147.941 57.5249 151.05 57.2737 154.833C56.8969 160.438 58.6239 228.356 57.1481 230.853C55.3897 233.851 45.7813 232.187 41.9505 229.518C40.2078 228.309 40.2392 227.273 40.2863 227.477C38.9518 174.019 38.3238 151.254 38.5436 150.029ZM74.9362 232.093C75.7369 234.762 69.4412 240.901 66.521 241.717C63.6008 242.534 20.5514 231.387 23.3617 228.843C22.0586 230.021 30.3639 222.375 34.022 221.15C34.3136 221.005 34.6468 220.966 34.964 221.04C35.3879 221.229 37.0521 221.653 39.4542 222.218C39.5955 225.53 39.6897 227.493 39.6897 227.493C40.616 232.109 55.3897 235.594 57.9645 231.34C58.3587 229.832 58.5696 228.282 58.5925 226.724C60.9946 227.32 73.3191 230.319 74.9362 232.093ZM92.9912 203.346C88.8621 203.503 63.1612 197.475 59.0164 196.501C58.9379 178.101 58.5611 157.471 58.7495 154.928C59.1263 149.15 44.4311 146.01 39.2501 147.706C38.7367 147.818 38.2649 148.072 37.8877 148.438C37.5105 148.804 37.2429 149.268 37.1149 149.778C36.7695 151.866 38.1197 189.028 38.1982 191.257C35.6391 190.567 11.6652 184.177 10.6761 181.618C10.4092 175.84 7.85011 119.979 9.67131 114.688C18.2121 116.824 91.1543 131.535 96.2882 135.098C97.5756 138.631 94.6397 198.354 92.9912 203.346ZM96.6807 202.42C96.6807 203.472 95.2834 203.833 94.2472 203.99C95.9428 199.924 99.3183 138.05 97.5913 134.408C95.8643 130.765 17.0974 115.458 9.73411 113.401C10.0616 113.047 10.4603 112.766 10.904 112.576C11.3477 112.387 11.8265 112.293 12.3089 112.302C14.4912 112.145 95.0322 130.137 99.7108 132.712C100.496 134.973 99.7108 150.72 99.6009 153.311C99.3183 159.559 96.7435 201.572 96.6807 202.42ZM139.071 191.791C137.234 194.24 130.718 193.942 127.657 193.66H126.903C128.3 190.851 129.092 187.781 129.227 184.648C130.797 184.208 136.543 182.874 137.422 184.287C137.689 184.695 136.841 185.181 136.402 185.417C135.241 185.956 134.025 186.366 132.775 186.642C132.59 186.677 132.426 186.785 132.32 186.941C132.214 187.097 132.174 187.288 132.21 187.474C132.245 187.659 132.353 187.823 132.509 187.929C132.665 188.035 132.857 188.074 133.042 188.039C134.612 187.819 138.898 187.223 140.421 187.741C139.794 188.611 138.893 189.247 137.862 189.546C136.394 189.536 134.928 189.657 133.481 189.907C133.273 189.947 133.086 190.061 132.957 190.229C132.828 190.398 132.765 190.607 132.781 190.819C132.796 191.03 132.889 191.229 133.041 191.376C133.194 191.524 133.395 191.61 133.607 191.618C135.202 191.665 136.793 191.447 138.317 190.975C138.714 190.991 139.104 191.087 139.463 191.257C139.363 191.469 139.212 191.652 139.024 191.791H139.071ZM153.923 191.242C153.856 191.486 153.732 191.711 153.56 191.897C153.387 192.083 153.173 192.224 152.934 192.309C150.029 193.879 142.697 193.597 139.432 193.267C140.641 192.341 141.347 190.833 140.123 190.001C142.54 188.431 142.289 186.751 140.704 186.265C139.677 186.016 138.615 185.942 137.564 186.045C138.553 185.307 138.914 184.475 138.317 183.58C137.454 182.355 135.177 182.512 133.764 182.748C133.092 176.532 132.746 170.286 132.728 164.034C136.92 167.079 150.814 167.174 155.666 164.285C155.901 169.56 154.315 188.949 153.86 191.242H153.923ZM140.452 187.678C140.452 187.678 140.405 187.709 140.405 187.678H140.452ZM174.145 188.023C177.049 179.529 177.457 161.537 177.285 152.541C179.718 156.451 192.985 175.196 193.079 175.353C193.401 175.846 193.78 176.3 194.209 176.704C197.373 179.594 200.924 182.03 204.76 183.941C208.857 186.108 209.187 185.998 209.155 186.171L208.606 188.526C208.339 188.51 176.547 188.023 174.097 188.023H174.145ZM180.911 195.072C184.287 192.717 207.24 193.785 207.491 193.628V193.801C205.293 204.32 204.446 208.119 204.179 209.501C204.32 208.889 205.183 204.791 206.173 200.253C206.863 196.925 207.743 192.969 208.637 188.777C209.046 186.861 209.312 185.637 209.328 185.543C205.026 183.266 198.464 179.341 195.026 175.871C194.162 174.992 177.473 151.866 177.316 151.599C177.159 151.332 177.159 144.44 176.986 144.126C176.953 144.09 176.91 144.066 176.863 144.056C176.815 144.045 176.766 144.05 176.721 144.069C176.677 144.088 176.639 144.12 176.613 144.161C176.588 144.202 176.575 144.25 176.578 144.299C176.421 144.299 176.578 177.865 173.674 187.976L155.587 188.149C155.697 187.27 155.807 186.249 155.933 185.15C163.217 186.076 166.53 178.085 164.599 171.57C163.453 167.99 160.501 167.44 157.126 169.167C157.283 167.077 157.283 164.978 157.126 162.887C157.271 162.527 157.296 162.129 157.197 161.752C157.098 161.376 156.881 161.042 156.576 160.799C154.237 158.601 147.69 158.366 144.503 158.366C141.316 158.366 134.753 158.617 132.43 160.799C132.226 160.957 132.064 161.162 131.959 161.396C130.765 163.547 133.058 182.403 133.34 182.811C131.973 183.083 130.625 183.445 129.305 183.894V181.382C129.211 175.903 111.69 172.857 111.093 169.733C110.889 168.665 110.56 166.279 110.183 163.453C108.063 147.941 108.377 148.538 108.032 148.538C107.974 148.538 107.918 148.561 107.876 148.602C107.835 148.643 107.812 148.699 107.812 148.757C107.812 149.181 109.508 166.263 110.12 169.89C110.732 173.516 128.128 177.033 128.206 181.382C128.206 184.773 127.453 193.188 124.517 194.397C122.743 195.151 109.021 195.842 98.078 191.995C98.3135 188.949 102.678 134.423 100.574 132.006C99.7736 131.079 90.3693 128.724 89.1761 128.426C93.8861 117.75 97.3715 108.958 130.122 103.824C131.031 106.873 132.143 109.857 133.45 112.757C136.779 119.869 142.415 127.547 150.218 126.887C159.182 126.118 160.627 116.4 159.198 107.529C159.104 106.901 159.01 106.493 158.931 106.132C163.239 106.563 167.521 107.223 171.758 108.11C179.153 109.68 188.243 112.663 193.314 118.284C198.794 124.313 203.582 133.623 206.942 141.064C211.777 151.772 211.746 154.535 215.906 160.705C212.981 169.936 210.528 179.311 208.559 188.792C207.931 191.728 206.989 196.203 206.094 200.269C204.791 206.549 204.006 210.521 204.084 209.689C203.943 210.537 204.084 210.506 204.084 210.71C198.966 208.427 194.027 205.761 189.311 202.734C187.662 201.635 179.247 196.25 180.911 195.041V195.072ZM157 172.37C157 171.554 157.094 170.8 157.126 170.015C159.967 168.869 162.495 169.042 163.264 172.009C164.834 177.394 162.354 184.569 156.027 184.569C156.027 183.816 156.294 181.665 156.325 181.429C163.547 182.403 163.5 169.183 157 172.37ZM156.388 180.754C156.608 178.273 156.796 175.652 156.953 173.187C157.705 172.954 158.509 172.954 159.261 173.187C161.129 173.862 160.831 180.346 156.309 180.754H156.388ZM207.743 215.592C201.701 213.616 195.857 211.083 190.284 208.025C188.714 207.193 180.581 202.765 180.032 201.054C179.557 199.526 179.508 197.898 179.891 196.344C181.995 200.442 195.34 207.334 199.626 209.36C201.588 210.285 203.613 211.072 205.686 211.715C212.939 214.305 244.057 210.145 251.702 209.202C251.797 209.532 252.456 212.06 252.707 212.97C246.051 213.74 213.991 217.241 207.664 215.592H207.743ZM277.89 255.078C275.598 257.025 261.845 258.657 255.361 256.648C253.006 255.91 252.535 255.156 251.969 252.77C251.454 250.18 251.129 247.557 250.996 244.92C254.214 246.898 260.118 247.401 263.901 247.51C269.6 247.636 275.205 247.51 279.79 244.92C279.696 246.584 279.162 253.995 277.89 255.078ZM279.837 244.308C276.74 245.633 273.408 246.322 270.04 246.333C265.55 246.553 255.031 246.521 250.965 244.355C250.792 241.403 250.682 238.247 250.635 235.312C252.205 237.196 260.573 238.043 263.917 238.153C269.883 238.279 275.425 238.153 280.198 235.327C280.198 235.17 280.151 238.891 279.853 244.308H279.837ZM280.198 234.778C272.348 238.734 252.864 236.944 250.619 234.778V225.122C255.612 226.896 275.347 226.771 280.292 225.122C280.261 226.928 280.276 230.602 280.214 234.778H280.198ZM277.058 224.212C277.114 224.227 277.174 224.222 277.227 224.195C277.279 224.169 277.319 224.125 277.341 224.07C277.341 224.07 277.341 223.788 277.435 223.285C278.447 223.425 279.445 223.65 280.418 223.96C276.979 225.53 256.287 225.672 251.122 224.149C251.086 224.138 251.056 224.116 251.034 224.086C251.012 224.057 251 224.021 251 223.984C251 223.947 251.012 223.911 251.034 223.882C251.056 223.852 251.086 223.83 251.122 223.819C252.561 223.428 254.032 223.165 255.518 223.034C255.621 223.471 255.78 223.893 255.989 224.29C256.114 224.416 256.318 224.431 256.303 224.117C256.287 223.803 251.137 203.472 250.352 198.997C251.155 199.265 252.011 199.332 252.846 199.193C253.681 199.053 254.469 198.711 255.141 198.197C256.868 203.032 262.378 224.793 262.708 224.793C262.768 224.789 262.824 224.762 262.865 224.718C262.905 224.675 262.928 224.617 262.928 224.557L262.473 222.438H264.639C264.639 222.736 264.812 224.259 264.828 224.369C264.843 224.479 265.299 224.745 265.267 224.165C265.267 222.752 263.948 199.343 263.917 198.919C264.143 198.81 264.38 198.726 264.624 198.668C264.796 199.516 270.323 221.904 270.747 223.646C270.747 223.803 270.747 224.07 271.045 224.008C271.343 223.945 271.218 223.662 271.045 222.642L273.447 222.814V223.081C273.447 223.332 273.839 223.27 273.887 223.081C273.887 223.254 276.807 193.126 277.027 190.724C277.44 191.037 277.916 191.26 278.422 191.376C278.928 191.492 279.453 191.5 279.962 191.399C279.931 191.634 276.713 224.102 277.042 224.212H277.058ZM262.928 193C262.742 191.49 262.082 190.078 261.044 188.965C263.195 189.609 263.65 190.08 264.184 191.556C264.609 192.731 264.722 193.997 264.514 195.229C264.301 196.005 264.301 196.824 264.514 197.6C264.257 197.659 264.005 197.738 263.76 197.836C262.787 195.057 260.62 195.088 260.62 192.294C260.617 191.283 260.469 190.279 260.18 189.311C260.941 190.688 261.774 192.025 262.677 193.314C262.834 193.518 263.132 193.22 262.944 193H262.928ZM263.713 212.814C263.791 213.583 264.404 220.255 264.561 221.951H262.316C261.845 219.831 261.138 216.691 260.337 213.332L263.713 212.814ZM263.619 211.605L260.039 212.076C259.725 210.772 259.395 209.454 259.066 208.151C260.51 207.947 261.923 207.727 263.289 207.507C263.352 208.182 263.572 210.914 263.634 211.605H263.619ZM268.501 210.882C268.25 209.689 267.638 206.989 267.591 206.832C268.957 206.596 273.604 205.796 274.562 205.607C274.562 206.282 274.295 209.14 274.232 209.862C272.709 210.192 270.762 210.537 268.47 210.882H268.501ZM274.169 210.882C273.887 214.949 273.447 221.747 273.431 222.124C272.615 222.124 271.751 222.092 270.841 222.029C270.464 220.13 268.847 212.515 268.737 211.997C270.856 211.573 272.678 211.196 274.185 210.835L274.169 210.882ZM277.168 189.421C277.359 187.431 277.669 185.455 278.094 183.502C278.513 183.376 278.955 183.346 279.387 183.414C279.819 183.482 280.23 183.646 280.59 183.894C280.496 185.867 280.287 187.833 279.962 189.782C279.821 190.331 279.79 190.472 279.429 190.52C278.722 190.567 277.293 189.97 277.184 189.373L277.168 189.421ZM279.225 208.135C279.366 206.973 279.507 205.796 279.633 204.618C280.563 204.423 281.476 204.155 282.365 203.817C281.87 205.57 280.761 207.086 279.24 208.088L279.225 208.135ZM281.846 202.514C281.184 202.778 280.502 202.988 279.805 203.142C280.088 200.505 281.752 185.15 281.752 184.067C281.752 182.497 278.958 181.916 277.513 182.497C277.027 182.717 276.885 183.643 276.744 184.459C275.959 188.84 275.033 199.767 274.672 204.21L267.308 205.56C265.471 197.553 265.628 197.993 265.424 197.789C265.284 197.655 265.1 197.577 264.906 197.569C264.761 196.87 264.799 196.145 265.016 195.465C265.341 194.107 265.297 192.687 264.891 191.352C264.681 190.38 264.123 189.52 263.32 188.934C262.043 188.257 260.665 187.79 259.238 187.552C259.164 187.532 259.085 187.53 259.009 187.546C258.934 187.563 258.863 187.597 258.803 187.646C258.743 187.695 258.696 187.758 258.665 187.829C258.634 187.9 258.621 187.977 258.626 188.055C258.66 188.188 258.702 188.319 258.752 188.447C259.976 191.367 259.129 192.702 259.976 194.444C260.824 196.187 262.253 196.454 262.771 198.464C262.771 198.621 263.211 205.874 263.226 206.314L258.783 207.02C258.469 205.827 256.318 197.333 255.47 196.501C253.9 194.931 249.41 196.69 249.19 198.071C249.049 198.856 251.2 207.271 251.404 208.072C243.319 209.25 234.746 210.317 227.163 211.024C223.851 211.322 203.613 213.175 204.744 209.862C206.314 202.608 209.454 189.295 210.082 186.5V186.281C210.082 186.045 210.192 185.809 210.082 186.5C210.082 186.265 210.176 186.123 210.207 186.045L214.132 170.863C214.65 168.995 218.214 156.294 220.02 155.399C224.023 153.42 289.822 144.911 295.38 148.632C296.322 152.667 284.751 200.599 281.862 202.53L281.846 202.514Z" fill="#D9D9D9"/>
<path d="M154.661 76.2392V75.0303C154.661 74.8346 154.583 74.6469 154.444 74.5085C154.306 74.3701 154.118 74.2924 153.923 74.2924C153.726 74.2924 153.536 74.3696 153.395 74.5075C153.254 74.6455 153.173 74.8332 153.169 75.0303V76.4433C153.204 76.63 153.309 76.7962 153.463 76.9071C153.618 77.0181 153.809 77.0654 153.997 77.0391C154.185 77.0128 154.356 76.915 154.473 76.766C154.591 76.617 154.647 76.4283 154.629 76.2392H154.661ZM254.999 172.857C254.544 172.417 253.9 171.899 253.304 172.088C252.315 172.402 251.326 174.914 250.902 175.95C249.711 179.042 248.766 182.223 248.076 185.464C248.719 187.128 259.584 184.946 261.06 184.224C261.531 184.004 261.468 183.439 261.311 182.936C259.757 179.262 257.626 175.859 254.999 172.857ZM248.5 185.26C248.782 183.957 252.362 173.972 253.586 173.061C255.486 174.144 259.301 180.801 260.322 183.313C258.909 183.878 249.316 186.312 248.5 185.26ZM120.67 218.56C120.513 218.67 117.091 220.836 116.934 220.993C116.896 221.009 116.865 221.035 116.842 221.068C116.82 221.102 116.808 221.141 116.808 221.182C116.808 221.222 116.82 221.261 116.842 221.295C116.865 221.328 116.896 221.355 116.934 221.37C117.813 221.621 120.749 221.951 121.644 222.045C143.121 216.66 143.262 216.66 142.996 216.66C143.14 216.64 143.271 216.566 143.362 216.452C143.453 216.338 143.496 216.193 143.482 216.048C143.482 215.781 143.058 213.928 142.933 213.363L120.67 218.56ZM162.275 69.6766C162.715 69.6766 163.578 69.8807 163.751 69.8964C164.704 69.9953 165.648 70.1632 166.577 70.3988L167.99 70.65C168.044 70.6634 168.1 70.6574 168.15 70.6331C168.2 70.6088 168.24 70.5677 168.262 70.5171C168.285 70.4665 168.288 70.4096 168.273 70.3564C168.258 70.3031 168.224 70.257 168.178 70.2261C167.359 69.5321 166.365 69.076 165.305 68.9073C164.255 68.6821 163.162 68.7751 162.165 69.1742C162.132 69.1814 162.101 69.1951 162.073 69.2143C162.046 69.2336 162.022 69.2582 162.004 69.2866C161.985 69.3151 161.973 69.3468 161.967 69.38C161.961 69.4133 161.962 69.4474 161.969 69.4804C161.976 69.5133 161.99 69.5446 162.009 69.5723C162.028 69.6 162.053 69.6237 162.081 69.6419C162.11 69.6601 162.142 69.6726 162.175 69.6785C162.208 69.6845 162.242 69.6838 162.275 69.6766ZM149.841 71.0582C150.265 70.964 151.175 70.8227 151.411 70.7913C152.362 70.5835 153.328 70.4471 154.3 70.3831L155.87 70.2104C155.932 70.2104 155.992 70.1856 156.036 70.1414C156.08 70.0973 156.105 70.0374 156.105 69.9749C156.105 69.9124 156.08 69.8525 156.036 69.8084C155.992 69.7642 155.932 69.7394 155.87 69.7394C154.857 69.3104 153.747 69.1669 152.659 69.3247C151.572 69.4825 150.548 69.9354 149.699 70.6343C149.662 70.6343 149.625 70.6432 149.592 70.6602C149.559 70.6772 149.53 70.7018 149.508 70.7321C149.487 70.7624 149.472 70.7974 149.467 70.8343C149.461 70.8712 149.464 70.9089 149.476 70.9443C149.488 70.9797 149.508 71.0118 149.534 71.0379C149.561 71.064 149.594 71.0835 149.629 71.0946C149.665 71.1057 149.703 71.1082 149.739 71.1019C149.776 71.0956 149.811 71.0806 149.841 71.0582ZM165.541 73.79C165.345 73.79 165.157 73.8677 165.019 74.0061C164.881 74.1445 164.803 74.3322 164.803 74.5279V75.9409C164.83 76.1366 164.934 76.3135 165.091 76.4328C165.249 76.552 165.447 76.6038 165.643 76.5768C165.838 76.5497 166.015 76.446 166.135 76.2885C166.254 76.1309 166.306 75.9325 166.279 75.7368V74.5279C166.281 74.4304 166.263 74.3335 166.227 74.243C166.19 74.1525 166.136 74.0703 166.067 74.0014C165.998 73.9324 165.916 73.8781 165.826 73.8418C165.735 73.8055 165.638 73.7879 165.541 73.79ZM43.693 210.097C45.8753 210.804 50.9621 212.704 53.3014 212.421C53.584 212.421 53.898 212.138 54.1021 211.636C55.6721 208.104 54.5417 190.143 53.9765 186.673C53.584 184.177 44.5565 181.084 42.3742 182.858C40.9612 184.004 41.6677 197.302 41.8247 199.155C42.2329 203.629 41.809 209.485 43.693 210.097ZM43.0807 183.69C44.7763 182.465 52.642 185.37 52.8932 186.83C53.2857 189.295 54.7458 210.019 53.1758 211.636C51.1505 211.934 45.7811 210.286 43.7558 209.658C42.3271 209.187 42.8138 202.938 42.5783 199.076C42.4684 196.47 42.2957 186.124 43.0807 183.69ZM154.645 85.6435C154.606 85.6241 154.563 85.6141 154.519 85.6141C154.476 85.6141 154.433 85.6241 154.394 85.6435C154.001 85.7848 153.766 86.2244 153.703 86.8681C153.652 88.5314 154.21 90.156 155.273 91.4368C155.522 91.7768 155.837 92.0631 156.199 92.2788C156.561 92.4945 156.963 92.6351 157.38 92.6922C157.798 92.7494 158.223 92.7219 158.629 92.6114C159.036 92.5009 159.416 92.3097 159.747 92.0491C160.694 91.2703 161.437 90.2736 161.914 89.1446C161.957 89.0566 161.979 88.9599 161.979 88.862C161.979 88.7641 161.957 88.6674 161.914 88.5794C161.427 87.8258 160.266 88.8934 154.645 85.6435ZM154.504 86.1773C156.209 87.6298 158.206 88.7004 160.36 89.3173C157 95.0321 153.624 87.3234 154.504 86.1773ZM158.35 82.4878C159.355 82.6762 162.134 82.3308 162.73 81.3103C163.029 80.8236 162.73 80.6666 162.071 78.657C161.477 76.9111 160.78 75.2021 159.983 73.5388C159.7 73.0992 159.339 73.5388 159.543 73.8057C159.98 76.2128 160.674 78.5657 161.616 80.8236C160.479 81.3553 159.316 81.8269 158.13 82.2366C158.128 82.2675 158.132 82.2986 158.142 82.328C158.152 82.3574 158.168 82.3845 158.188 82.4079C158.208 82.4312 158.233 82.4503 158.261 82.464C158.289 82.4777 158.319 82.4858 158.35 82.4878ZM216.252 245.752C222.139 242.016 217.555 238.577 213.661 240.21C212.704 238.467 212.484 238.326 210.521 238.42C200.332 238.938 154.315 249.583 153.876 249.756C151.552 250.713 157.455 264.576 159.795 266.398C160.328 266.806 160.156 266.884 165.918 265.754C166.294 269.177 167.786 275.174 171.271 275.362C172.896 275.065 174.477 274.569 175.981 273.887C178.893 276.783 181.992 279.484 185.26 281.972C188.871 284.39 211.95 257.433 215.404 254.293C216.393 253.963 217.272 253.743 217.162 251.294C220.145 250.745 222.453 248.908 220.868 246.27C219.8 244.669 217.947 244.92 216.252 245.752ZM216.801 241.482C217.445 241.717 217.775 241.968 217.571 242.612C217.148 243.596 216.528 244.483 215.749 245.218C215.333 243.941 214.845 242.689 214.289 241.466C215.102 241.173 215.992 241.179 216.801 241.482ZM200.096 240.964C200.677 243.711 201.07 245.203 201.808 247.73L190.928 249.787C190.302 247.515 189.574 245.273 188.745 243.067C190.802 242.675 198.417 241.246 200.096 240.964ZM184.004 261.923C184.58 263.896 185.431 265.777 186.532 267.512C183.517 268.972 180.676 270.307 178.258 271.406C177.39 268.773 176.17 266.27 174.631 263.964L184.004 261.923ZM179.561 261.923C179.03 259.195 178.359 256.496 177.551 253.838L190.111 251.122C190.796 253.781 191.624 256.401 192.592 258.971C188.274 259.882 183.768 260.903 179.561 261.86V261.923ZM184.789 262.002C184.616 261.75 183.549 262.127 195.104 259.474C195.308 260.641 195.74 261.756 196.376 262.755L187.175 267.261C186.629 265.385 185.826 263.594 184.789 261.939V262.002ZM195.779 259.301C201.745 257.92 207.224 256.601 211.008 255.596L197.145 262.363C196.888 261.248 196.431 260.189 195.795 259.238L195.779 259.301ZM193.126 258.815C192.622 256.136 191.983 253.484 191.21 250.87L201.933 248.233C201.933 248.311 202.656 250.729 202.985 251.765C203.142 252.236 204.477 256.036 204.555 256.098C201.305 256.821 193.377 258.689 193.11 258.752L193.126 258.815ZM188.274 243.224C188.792 246.082 189.279 247.934 189.844 250.07L177.284 252.833C176.546 250.337 176.044 248.704 174.961 245.878C177.41 245.313 186.39 243.523 188.29 243.162L188.274 243.224ZM174.443 245.972C175.055 249.112 175.51 250.76 176.17 253.084C175.118 253.32 166.53 255.47 166.53 255.47C166.216 255.47 166.341 255.957 166.655 255.894C166.655 255.894 175.966 254.167 176.437 254.057C176.437 254.057 177.112 256.758 179.043 262.049L168.916 264.31C167.468 258.833 165.648 253.462 163.468 248.233L174.443 245.972ZM160.234 265.864C157.848 264.074 152.384 250.886 154.033 250.164C154.033 250.164 157.628 249.379 163.029 248.248C164.375 253.751 166.171 259.133 168.398 264.341C160.14 266.193 160.501 266.005 160.25 265.801L160.234 265.864ZM171.224 274.216C168.571 274.216 166.985 268.486 166.514 265.88C166.514 265.581 165.682 265.88 173.893 264.168C174.301 264.09 173.658 263.98 175.62 268.062C176.183 269.344 176.878 270.565 177.693 271.704C175.627 272.693 173.485 273.512 171.287 274.153L171.224 274.216ZM185.857 280.936C182.665 278.699 179.598 276.288 176.672 273.714C179.372 272.599 182.434 271.17 185.072 269.914C187.137 272.315 189.476 274.465 192.042 276.32C190.975 277.231 187.348 280.59 185.919 280.873L185.857 280.936ZM192.498 275.849C190.424 273.534 188.102 271.455 185.574 269.648L195.434 264.796C196.807 266.206 198.397 267.388 200.144 268.297C197.674 270.852 195.146 273.349 192.56 275.786L192.498 275.849ZM200.677 267.795C199.368 266.458 197.878 265.311 196.25 264.388C203.001 260.981 206.879 258.909 213.175 255.423C210.38 257.888 203.284 265.142 200.74 267.732L200.677 267.795ZM215.655 253.037C214.98 253.524 205.733 255.784 204.932 255.973C203.932 250.837 202.466 245.802 200.552 240.932C203.598 240.414 209.626 239.362 211.871 239.613C212.175 239.971 212.438 240.36 212.656 240.775C211.585 241.503 210.698 242.471 210.066 243.601C209.909 243.994 210.317 244.198 210.521 244.009C211.307 243.178 212.225 242.483 213.237 241.953C213.95 243.425 214.568 244.94 215.09 246.49C213.695 247.444 212.438 248.585 211.353 249.881C211.149 250.132 211.212 250.321 211.353 250.399C211.73 250.619 211.762 250.054 215.467 247.856C215.841 249.127 216.052 250.441 216.095 251.765C216.016 252.048 215.969 252.77 215.718 252.974L215.655 253.037ZM219.564 248.829C218.863 249.632 217.981 250.257 216.99 250.65C216.845 249.531 216.619 248.424 216.315 247.338C217.335 246.82 218.921 246.16 219.455 247.118C219.655 247.338 219.781 247.617 219.812 247.914C219.843 248.21 219.778 248.509 219.627 248.767L219.564 248.829Z" fill="#D9D9D9"/>
</svg>
