<svg width="274" height="112" viewBox="0 0 274 112" fill="none" xmlns="http://www.w3.org/2000/svg">
<path d="M4.3418 27.2148C4.3418 28.6445 4.79297 29.8105 5.69531 30.7129C6.59766 31.6152 7.60547 32.0664 8.71875 32.0664C9.83203 32.0664 10.8398 31.6152 11.7422 30.7129C12.6445 29.8105 13.0957 28.6445 13.0957 27.2148H15.9785C15.9785 28.3984 15.6738 29.4941 15.0645 30.502C14.4668 31.5098 13.6113 32.3477 12.498 33.0156C11.3965 33.6719 10.1367 34 8.71875 34C7.30078 34 6.03516 33.6719 4.92188 33.0156C3.82031 32.3477 2.96484 31.5098 2.35547 30.502C1.75781 29.4941 1.45898 28.3984 1.45898 27.2148V15.5781C1.45898 14.3945 1.75781 13.2988 2.35547 12.291C2.96484 11.2832 3.82031 10.4512 4.92188 9.79492C6.03516 9.12695 7.30078 8.79297 8.71875 8.79297C10.1367 8.79297 11.3965 9.12695 12.498 9.79492C13.6113 10.4512 14.4668 11.2832 15.0645 12.291C15.6738 13.2988 15.9785 14.3945 15.9785 15.5781H13.0957C13.0957 14.1484 12.6445 12.9824 11.7422 12.0801C10.8398 11.1777 9.83203 10.7266 8.71875 10.7266C7.60547 10.7266 6.59766 11.1777 5.69531 12.0801C4.79297 12.9824 4.3418 14.1484 4.3418 15.5781V27.2148ZM21.7793 34H18.8965V8.79297H21.7793V34ZM27.5801 34H24.6973V17.1602H27.5801V34ZM27.5801 13.293H24.6973V11.3594H27.5801V13.293ZM33.3809 27.2148C33.3809 28.6445 33.832 29.8105 34.7344 30.7129C35.6367 31.6152 36.6445 32.0664 37.7578 32.0664C38.8711 32.0664 39.8789 31.6152 40.7812 30.7129C41.6836 29.8105 42.1348 28.6445 42.1348 27.2148H45.0176C45.0176 28.3984 44.7129 29.4941 44.1035 30.502C43.5059 31.5098 42.6504 32.3477 41.5371 33.0156C40.4355 33.6719 39.1758 34 37.7578 34C36.3398 34 35.0742 33.6719 33.9609 33.0156C32.8594 32.3477 32.0039 31.5098 31.3945 30.502C30.7969 29.4941 30.498 28.3984 30.498 27.2148V23.9453C30.498 22.7617 30.7969 21.666 31.3945 20.6582C32.0039 19.6504 32.8594 18.8184 33.9609 18.1621C35.0742 17.4941 36.3398 17.1602 37.7578 17.1602C39.1758 17.1602 40.4355 17.4941 41.5371 18.1621C42.6504 18.8184 43.5059 19.6504 44.1035 20.6582C44.7129 21.666 45.0176 22.7617 45.0176 23.9453H42.1348C42.1348 22.5156 41.6836 21.3496 40.7812 20.4473C39.8789 19.5449 38.8711 19.0938 37.7578 19.0938C36.6445 19.0938 35.6367 19.5449 34.7344 20.4473C33.832 21.3496 33.3809 22.5156 33.3809 23.9453V27.2148ZM62.3672 17.1602L56.6719 24.9121L62.3848 34H59.4316L54.1582 25.8789H50.8184V34H47.9355V8.79297H50.8184V23.9453H54.2285L59.4668 17.1602H62.3672ZM74.0918 8.79297H76.9746V18.3555C76.9277 18.4023 76.9043 18.4375 76.9043 18.4609C76.9043 18.4727 76.9102 18.4785 76.9219 18.4785C76.9922 18.4785 77.25 18.3438 77.6953 18.0742C78.7148 17.4648 79.9336 17.1602 81.3516 17.1602C82.7695 17.1602 84.0293 17.4941 85.1309 18.1621C86.2441 18.8184 87.0996 19.6504 87.6973 20.6582C88.3066 21.666 88.6113 22.7617 88.6113 23.9453V34H85.7285V23.9453C85.7285 22.5156 85.2773 21.3496 84.375 20.4473C83.4727 19.5449 82.4648 19.0938 81.3516 19.0938C80.2383 19.0938 79.2305 19.5449 78.3281 20.4473C77.4258 21.3496 76.9746 22.5156 76.9746 23.9453V34H74.0918V8.79297ZM98.7891 32.0664H104.115V34H98.7891C97.3711 34 96.1055 33.6719 94.9922 33.0156C93.8906 32.3477 93.0352 31.5098 92.4258 30.502C91.8281 29.4941 91.5293 28.3984 91.5293 27.2148V23.9453C91.5293 22.7617 91.8281 21.666 92.4258 20.6582C93.0352 19.6504 93.8906 18.8184 94.9922 18.1621C96.1055 17.4941 97.3711 17.1602 98.7891 17.1602C100.207 17.1602 101.467 17.4941 102.568 18.1621C103.682 18.8184 104.537 19.6504 105.135 20.6582C105.744 21.666 106.049 22.7617 106.049 23.9453V26.5469H94.4121V27.2148C94.4121 28.6445 94.8633 29.8105 95.7656 30.7129C96.668 31.6152 97.6758 32.0664 98.7891 32.0664ZM103.166 23.9453C103.166 22.5156 102.715 21.3496 101.812 20.4473C100.91 19.5449 99.9023 19.0938 98.7891 19.0938C97.6758 19.0938 96.668 19.5449 95.7656 20.4473C94.8633 21.3496 94.4121 22.5156 94.4121 23.9453V24.6133H103.166V23.9453ZM111.85 34H108.967V17.1602H111.85V18.373C111.803 18.4199 111.779 18.4551 111.779 18.4785H111.797C111.855 18.4785 112.113 18.3438 112.57 18.0742C113.59 17.4648 114.809 17.1602 116.227 17.1602H119.619V22.9609H116.736V19.0938H116.227C115.113 19.0938 114.105 19.5449 113.203 20.4473C112.301 21.3496 111.85 22.5156 111.85 23.9453V34ZM129.797 32.0664H135.123V34H129.797C128.379 34 127.113 33.6719 126 33.0156C124.898 32.3477 124.043 31.5098 123.434 30.502C122.836 29.4941 122.537 28.3984 122.537 27.2148V23.9453C122.537 22.7617 122.836 21.666 123.434 20.6582C124.043 19.6504 124.898 18.8184 126 18.1621C127.113 17.4941 128.379 17.1602 129.797 17.1602C131.215 17.1602 132.475 17.4941 133.576 18.1621C134.689 18.8184 135.545 19.6504 136.143 20.6582C136.752 21.666 137.057 22.7617 137.057 23.9453V26.5469H125.42V27.2148C125.42 28.6445 125.871 29.8105 126.773 30.7129C127.676 31.6152 128.684 32.0664 129.797 32.0664ZM134.174 23.9453C134.174 22.5156 133.723 21.3496 132.82 20.4473C131.918 19.5449 130.91 19.0938 129.797 19.0938C128.684 19.0938 127.676 19.5449 126.773 20.4473C125.871 21.3496 125.42 22.5156 125.42 23.9453V24.6133H134.174V23.9453ZM5.32617 58.1602V49.793H8.20898V58.1602H14.0449V60.0938H8.20898V71.1328C8.20898 71.7656 8.37305 72.2461 8.70117 72.5742C9.0293 72.9023 9.35156 73.0664 9.66797 73.0664H14.0449V75H9.66797C8.37891 75 7.33008 74.6016 6.52148 73.8047C5.72461 72.9961 5.32617 72.1055 5.32617 71.1328V60.0938H1.45898V58.1602H5.32617ZM19.8457 64.9453V68.2148C19.8457 69.6445 20.2969 70.8105 21.1992 71.7129C22.1016 72.6152 23.1094 73.0664 24.2227 73.0664C25.3359 73.0664 26.3438 72.6152 27.2461 71.7129C28.1484 70.8105 28.5996 69.6445 28.5996 68.2148V64.9453C28.5996 63.5156 28.1484 62.3496 27.2461 61.4473C26.3438 60.5449 25.3359 60.0938 24.2227 60.0938C23.1094 60.0938 22.1016 60.5449 21.1992 61.4473C20.2969 62.3496 19.8457 63.5156 19.8457 64.9453ZM16.9629 68.2148V64.9453C16.9629 63.7617 17.2617 62.666 17.8594 61.6582C18.4688 60.6504 19.3242 59.8184 20.4258 59.1621C21.5391 58.4941 22.8047 58.1602 24.2227 58.1602C25.6406 58.1602 26.9004 58.4941 28.002 59.1621C29.1152 59.8184 29.9707 60.6504 30.5684 61.6582C31.1777 62.666 31.4824 63.7617 31.4824 64.9453V68.2148C31.4824 69.3984 31.1777 70.4941 30.5684 71.502C29.9707 72.5098 29.1152 73.3477 28.002 74.0156C26.9004 74.6719 25.6406 75 24.2227 75C22.8047 75 21.5391 74.6719 20.4258 74.0156C19.3242 73.3477 18.4688 72.5098 17.8594 71.502C17.2617 70.4941 16.9629 69.3984 16.9629 68.2148ZM50.3789 73.0664C51.9844 73.0664 53.2617 72.457 54.2109 71.2383C54.5508 70.8047 54.7324 70.2188 54.7559 69.4805C54.7324 68.7422 54.5508 68.1504 54.2109 67.7051C53.25 66.498 51.9727 65.8945 50.3789 65.8945C48.7852 65.8945 47.5078 66.498 46.5469 67.7051C46.207 68.1504 46.0254 68.7422 46.002 69.4805C46.0254 70.2188 46.207 70.8047 46.5469 71.2383C47.4961 72.457 48.7734 73.0664 50.3789 73.0664ZM57.6387 75H54.7559V74.0332C54.791 74.0098 54.8086 73.9922 54.8086 73.9805C54.8086 73.9688 54.8027 73.9629 54.791 73.9629C54.7324 73.9629 54.4688 74.0742 54 74.2969C52.9688 74.7656 51.7617 75 50.3789 75C48.9961 75 47.7422 74.748 46.6172 74.2441C45.5039 73.7285 44.6426 73.0781 44.0332 72.293C43.4238 71.4961 43.1191 70.6582 43.1191 69.7793V69.1816C43.1191 68.3027 43.4238 67.4707 44.0332 66.6855C44.6426 65.8887 45.5039 65.2383 46.6172 64.7344C47.7422 64.2188 48.9961 63.9609 50.3789 63.9609C51.7617 63.9609 52.9688 64.1953 54 64.6641C54.4688 64.8867 54.7324 64.998 54.791 64.998C54.8027 64.998 54.8086 64.9922 54.8086 64.9805C54.8086 64.9688 54.791 64.9512 54.7559 64.9277C54.7559 63.5098 54.3047 62.3496 53.4023 61.4473C52.5 60.5449 51.4922 60.0938 50.3789 60.0938H45.0527V58.1602H50.3789C51.7969 58.1602 53.0566 58.4941 54.1582 59.1621C55.2715 59.8184 56.127 60.6504 56.7246 61.6582C57.334 62.666 57.6387 63.7617 57.6387 64.9453V75ZM72.1934 64.9453C72.1934 63.5156 71.7422 62.3496 70.8398 61.4473C69.9375 60.5449 68.9297 60.0938 67.8164 60.0938C66.7031 60.0938 65.6953 60.5449 64.793 61.4473C63.8906 62.3496 63.4395 63.5156 63.4395 64.9453V68.2148C63.4395 69.6445 63.8906 70.8105 64.793 71.7129C65.6953 72.6152 66.7031 73.0664 67.8164 73.0664C68.9297 73.0664 69.9375 72.6152 70.8398 71.7129C71.7422 70.8105 72.1934 69.6445 72.1934 68.2148V64.9453ZM75.0762 49.793V75H72.1934V73.8047C72.252 73.7461 72.2812 73.7051 72.2812 73.6816C72.2812 73.6699 72.2754 73.6641 72.2637 73.6641C72.2051 73.6641 72 73.7695 71.6484 73.9805C70.5117 74.6602 69.2344 75 67.8164 75C66.3984 75 65.1328 74.6719 64.0195 74.0156C62.918 73.3477 62.0625 72.5098 61.4531 71.502C60.8555 70.4941 60.5566 69.3984 60.5566 68.2148V64.9453C60.5566 63.7617 60.8555 62.666 61.4531 61.6582C62.0625 60.6504 62.918 59.8184 64.0195 59.1621C65.1328 58.4941 66.3984 58.1602 67.8164 58.1602C69.2344 58.1602 70.5117 58.5 71.6484 59.1797C72 59.3906 72.2051 59.4961 72.2637 59.4961C72.2754 59.4961 72.2812 59.4902 72.2812 59.4785C72.2812 59.4551 72.252 59.4141 72.1934 59.3555V49.793H75.0762ZM89.6309 64.9453C89.6309 63.5156 89.1797 62.3496 88.2773 61.4473C87.375 60.5449 86.3672 60.0938 85.2539 60.0938C84.1406 60.0938 83.1328 60.5449 82.2305 61.4473C81.3281 62.3496 80.877 63.5156 80.877 64.9453V68.2148C80.877 69.6445 81.3281 70.8105 82.2305 71.7129C83.1328 72.6152 84.1406 73.0664 85.2539 73.0664C86.3672 73.0664 87.375 72.6152 88.2773 71.7129C89.1797 70.8105 89.6309 69.6445 89.6309 68.2148V64.9453ZM92.5137 49.793V75H89.6309V73.8047C89.6895 73.7461 89.7188 73.7051 89.7188 73.6816C89.7188 73.6699 89.7129 73.6641 89.7012 73.6641C89.6426 73.6641 89.4375 73.7695 89.0859 73.9805C87.9492 74.6602 86.6719 75 85.2539 75C83.8359 75 82.5703 74.6719 81.457 74.0156C80.3555 73.3477 79.5 72.5098 78.8906 71.502C78.293 70.4941 77.9941 69.3984 77.9941 68.2148V64.9453C77.9941 63.7617 78.293 62.666 78.8906 61.6582C79.5 60.6504 80.3555 59.8184 81.457 59.1621C82.5703 58.4941 83.8359 58.1602 85.2539 58.1602C86.6719 58.1602 87.9492 58.5 89.0859 59.1797C89.4375 59.3906 89.6426 59.4961 89.7012 59.4961C89.7129 59.4961 89.7188 59.4902 89.7188 59.4785C89.7188 59.4551 89.6895 59.4141 89.6309 59.3555V49.793H92.5137ZM108.018 58.1602V49.793H110.9V58.1602H116.736V60.0938H110.9V71.1328C110.9 71.7656 111.064 72.2461 111.393 72.5742C111.721 72.9023 112.043 73.0664 112.359 73.0664H116.736V75H112.359C111.07 75 110.021 74.6016 109.213 73.8047C108.416 72.9961 108.018 72.1055 108.018 71.1328V60.0938H104.15V58.1602H108.018ZM126.914 73.0664C128.52 73.0664 129.797 72.457 130.746 71.2383C131.086 70.8047 131.268 70.2188 131.291 69.4805C131.268 68.7422 131.086 68.1504 130.746 67.7051C129.785 66.498 128.508 65.8945 126.914 65.8945C125.32 65.8945 124.043 66.498 123.082 67.7051C122.742 68.1504 122.561 68.7422 122.537 69.4805C122.561 70.2188 122.742 70.8047 123.082 71.2383C124.031 72.457 125.309 73.0664 126.914 73.0664ZM134.174 75H131.291V74.0332C131.326 74.0098 131.344 73.9922 131.344 73.9805C131.344 73.9688 131.338 73.9629 131.326 73.9629C131.268 73.9629 131.004 74.0742 130.535 74.2969C129.504 74.7656 128.297 75 126.914 75C125.531 75 124.277 74.748 123.152 74.2441C122.039 73.7285 121.178 73.0781 120.568 72.293C119.959 71.4961 119.654 70.6582 119.654 69.7793V69.1816C119.654 68.3027 119.959 67.4707 120.568 66.6855C121.178 65.8887 122.039 65.2383 123.152 64.7344C124.277 64.2188 125.531 63.9609 126.914 63.9609C128.297 63.9609 129.504 64.1953 130.535 64.6641C131.004 64.8867 131.268 64.998 131.326 64.998C131.338 64.998 131.344 64.9922 131.344 64.9805C131.344 64.9688 131.326 64.9512 131.291 64.9277C131.291 63.5098 130.84 62.3496 129.938 61.4473C129.035 60.5449 128.027 60.0938 126.914 60.0938H121.588V58.1602H126.914C128.332 58.1602 129.592 58.4941 130.693 59.1621C131.807 59.8184 132.662 60.6504 133.26 61.6582C133.869 62.666 134.174 63.7617 134.174 64.9453V75ZM144.352 57.8438C145.688 57.8438 146.9 58.0605 147.99 58.4941C149.092 58.9277 149.971 59.5137 150.627 60.252C151.283 60.9902 151.611 61.9102 151.611 63.0117H148.729C148.729 61.9922 148.301 61.1953 147.445 60.6211C146.602 60.0469 145.57 59.7598 144.352 59.7598C143.133 59.7598 142.096 60.0469 141.24 60.6211C140.396 61.1953 139.975 61.8867 139.975 62.6953C139.975 63.5039 140.396 64.1953 141.24 64.7695C142.096 65.332 143.133 65.6133 144.352 65.6133C145.688 65.6133 146.9 65.8359 147.99 66.2812C149.092 66.7148 149.971 67.3008 150.627 68.0391C151.283 68.7656 151.611 69.5742 151.611 70.4648C151.611 71.3555 151.283 72.1699 150.627 72.9082C149.971 73.6465 149.092 74.2324 147.99 74.666C146.9 75.0996 145.688 75.3164 144.352 75.3164C143.016 75.3164 141.797 75.0996 140.695 74.666C139.605 74.2324 138.732 73.6465 138.076 72.9082C137.42 72.1699 137.092 71.25 137.092 70.1484H139.975C139.975 71.168 140.396 71.9648 141.24 72.5391C142.096 73.1133 143.133 73.4004 144.352 73.4004C145.57 73.4004 146.602 73.1133 147.445 72.5391C148.301 71.9648 148.729 71.2734 148.729 70.4648C148.729 69.6562 148.301 68.9707 147.445 68.4082C146.602 67.834 145.57 67.5469 144.352 67.5469C143.016 67.5469 141.797 67.3301 140.695 66.8965C139.605 66.4512 138.732 65.8652 138.076 65.1387C137.42 64.4004 137.092 63.5859 137.092 62.6953C137.092 61.8047 137.42 60.9902 138.076 60.252C138.732 59.5137 139.605 58.9277 140.695 58.4941C141.797 58.0605 143.016 57.8438 144.352 57.8438ZM168.961 58.1602L163.266 65.9121L168.979 75H166.025L160.752 66.8789H157.412V75H154.529V49.793H157.412V64.9453H160.822L166.061 58.1602H168.961ZM179.227 57.8438C180.562 57.8438 181.775 58.0605 182.865 58.4941C183.967 58.9277 184.846 59.5137 185.502 60.252C186.158 60.9902 186.486 61.9102 186.486 63.0117H183.604C183.604 61.9922 183.176 61.1953 182.32 60.6211C181.477 60.0469 180.445 59.7598 179.227 59.7598C178.008 59.7598 176.971 60.0469 176.115 60.6211C175.271 61.1953 174.85 61.8867 174.85 62.6953C174.85 63.5039 175.271 64.1953 176.115 64.7695C176.971 65.332 178.008 65.6133 179.227 65.6133C180.562 65.6133 181.775 65.8359 182.865 66.2812C183.967 66.7148 184.846 67.3008 185.502 68.0391C186.158 68.7656 186.486 69.5742 186.486 70.4648C186.486 71.3555 186.158 72.1699 185.502 72.9082C184.846 73.6465 183.967 74.2324 182.865 74.666C181.775 75.0996 180.562 75.3164 179.227 75.3164C177.891 75.3164 176.672 75.0996 175.57 74.666C174.48 74.2324 173.607 73.6465 172.951 72.9082C172.295 72.1699 171.967 71.25 171.967 70.1484H174.85C174.85 71.168 175.271 71.9648 176.115 72.5391C176.971 73.1133 178.008 73.4004 179.227 73.4004C180.445 73.4004 181.477 73.1133 182.32 72.5391C183.176 71.9648 183.604 71.2734 183.604 70.4648C183.604 69.6562 183.176 68.9707 182.32 68.4082C181.477 67.834 180.445 67.5469 179.227 67.5469C177.891 67.5469 176.672 67.3301 175.57 66.8965C174.48 66.4512 173.607 65.8652 172.951 65.1387C172.295 64.4004 171.967 63.5859 171.967 62.6953C171.967 61.8047 172.295 60.9902 172.951 60.252C173.607 59.5137 174.48 58.9277 175.57 58.4941C176.672 58.0605 177.891 57.8438 179.227 57.8438Z" fill="#C7D6D5"/>
<g clip-path="url(#clip0_112_20)">
<path d="M159.901 41.4843C162.125 38.6739 162.947 36.7773 164.045 36.4328C168.128 35.1314 172.297 33.5266 176.477 33.3991C187.693 32.6421 197.882 36.0173 207.513 41.3639C223.948 50.4378 236.982 63.9547 248.579 79.5218C249.823 81.1843 251.11 82.6951 252.486 84.3951C252.619 84.4325 252.926 84.3557 253.409 84.1647C253.559 80.6037 253.753 76.891 254.036 73.3675C254.286 71.4727 254.887 69.3496 255.931 67.6795C256.496 66.6928 258.38 65.5881 259.306 65.8501C260.497 66.1871 261.652 67.6605 262.452 68.8699C262.899 69.8153 262.645 71.2177 262.566 72.5058C261.975 82.1666 261.649 91.9023 260.883 101.677C260.238 110.013 257.26 111.954 250.642 109.59C243.76 107.151 236.792 105.015 229.999 102.765C227.925 102.014 225.805 100.923 223.51 99.9455C227.826 94.2874 227.826 94.2874 249.9 98.0775C243.344 85.9027 235.093 76.6879 226.449 67.8533C217.805 59.0186 208.073 52.0057 197.166 46.6254C185.861 41.1329 173.887 40.5287 159.901 41.4843Z" fill="white"/>
</g>
<defs>
<clipPath id="clip0_112_20">
<rect width="55.9266" height="114.064" fill="white" transform="translate(273.753 58.0615) rotate(105.802)"/>
</clipPath>
</defs>
</svg>
