<svg width="444" height="375" viewBox="0 0 444 375" fill="none" xmlns="http://www.w3.org/2000/svg">
<path fill-rule="evenodd" clip-rule="evenodd" d="M381.164 109.566L386.086 104.644L388.515 111.34C388.684 111.804 386.952 111.002 412.402 121.541C412.804 121.71 412.55 121.71 418.739 119.429C419.584 126.631 419.499 126.505 419.774 126.8C421.463 128.596 434.77 142.726 436.671 144.352C440.282 147.541 448.182 125.026 440.599 113.051C425.223 88.8669 405.707 81.6224 377.447 79.5736C371.871 79.1934 359.452 81.4111 353.939 82.4672C366.316 75.4339 365.767 76.0253 365.725 75.4972L365.324 69.9002L370.562 70.576C370.9 70.576 368.724 72.0545 404.123 48.42C404.63 48.0821 404.503 48.42 404.503 41.7669C409.446 40.8375 410.058 40.7531 410.269 40.6686C412.128 39.8871 426.723 33.8887 428.349 32.7059C428.549 32.5867 428.695 32.3954 428.758 32.1714C428.821 31.9474 428.795 31.7078 428.687 31.502C422.879 21.2794 414.198 20.6458 402.792 22.6734C381.333 26.4541 367.351 40.2673 353.728 57.1008C349.579 62.6493 347.009 69.2182 346.294 76.1097C338.035 62.2121 323.884 57.2486 309.289 51.3347C287.809 42.654 239.949 42.1259 220.18 55.9814C210.901 62.2839 203.442 70.9153 198.552 81.0098C198.383 81.3478 198.34 82.087 199.333 82.3616C202.86 83.3332 234.479 82.3616 238.154 82.3616C238.661 82.3616 238.682 82.0025 242.99 78.771C243.286 79.8904 243.645 81.559 243.835 82.5728C243.875 82.759 243.98 82.9249 244.131 83.0409C244.282 83.157 244.469 83.2157 244.659 83.2064C277.608 81.8758 275.601 82.0659 275.918 81.728C275.918 81.728 279.403 77.7783 280.987 76.2153C281.189 76.8039 281.359 77.4032 281.494 78.0106C282.402 82.0025 281.938 82.5728 282.677 82.8051C289.309 84.9173 303.418 89.1415 310.43 90.7889C289.605 97.4209 277.185 104.708 264.407 122.83C259.759 129.91 256.133 137.611 253.635 145.704C252.086 145.55 250.529 145.906 249.2 146.717C248.292 147.33 248.609 148.83 248.947 149.865C246.349 149.358 244.933 150.562 245.799 153.202C246.496 155.314 248.714 158.25 248.714 159.749C248.566 159.538 248.207 158.947 248.123 158.841C245.988 157.206 243.328 156.41 240.646 156.602C238.027 156.602 235.894 159.263 234.162 160.51C235.83 155.272 232.81 152.23 225.291 159.306C225.457 158.829 225.508 158.32 225.438 157.821C225.368 157.321 225.18 156.845 224.89 156.433C222.777 154.321 217.708 159.01 215.66 160.235C215.66 159.369 216.314 157.553 214.413 156.602C211.351 155.06 209.175 158.186 207.296 160.826C206.578 157.891 202.86 157.236 200.051 158.355C198.404 159.182 197.12 160.587 196.445 162.302C195.771 164.018 195.754 165.921 196.397 167.648C193.25 166.001 189.512 164.924 189.364 168.472C189.357 169.376 189.463 170.277 189.681 171.155C188.202 170.225 185.921 169.042 184.358 169.824C181.401 171.324 182.246 174.344 183.936 177.174C165.455 177.174 162.595 212.477 153.027 213.005C129.025 243.262 44.2032 179.955 44.0907 180.097L43.917 180.596C17.5397 156.602 -14.387 133.981 7.02697 98.0054C7.02697 98.0054 417.351 -0.0358935 417.527 0.00537109C509.953 -1.13517 303.608 179.265 304.474 179.751C319.259 190.016 292.012 217.241 273.13 221.423C267.205 217.208 261.057 213.316 254.713 209.764C254.185 209.489 254.079 210.376 253.995 210.968C253.91 211.559 253.826 212.193 253.741 213.08C248.303 207.406 241.857 202.794 234.732 199.478C220.665 193.522 211.499 198.316 203.578 211.073C200.177 216.912 197.348 223.066 195.13 229.449C193.217 235.078 191.596 240.803 190.272 246.599C186.872 247.287 183.381 247.401 179.944 246.937C172.045 245.944 184.305 176.038 181.961 176.819C177.441 178.34 173.703 182.057 169.014 183.62C161.512 186.213 153.56 187.251 145.644 186.67C137.728 186.089 130.013 183.901 122.97 180.241C120.858 179.227 107.425 183.451 104.383 184.085C96.8643 185.606 77.7075 180.875 66.7245 172.68C66.6542 172.645 66.5741 172.636 66.4978 172.654C66.4216 172.672 66.354 172.716 66.3066 172.779C66.2592 172.841 66.235 172.918 66.238 172.996C66.241 173.074 66.2711 173.149 66.3232 173.208C77.4751 181.656 96.7798 186.514 104.573 184.993C106.474 184.613 121.048 180.452 122.484 181.17C129.649 184.943 137.507 187.217 145.58 187.853C153.652 188.488 161.769 187.472 169.436 184.866C174.336 183.24 177.885 179.607 182.405 178.129C184.2 177.537 172.34 247.423 179.817 248.373C183.193 248.862 186.627 248.784 189.976 248.141C189.047 252.175 185.963 266.263 185.752 269.03C185.727 269.174 185.733 269.322 185.769 269.464C185.806 269.606 185.872 269.739 185.963 269.853C186.322 270.191 186.998 270.212 191.476 270.297C190.335 277.267 190.441 276.739 189.934 277.372C187.688 279.686 185.281 281.839 182.732 283.814C181.148 285.124 179.12 287.384 180.028 289.242C180.577 290.32 181.95 290.383 183.154 290.277C183.154 290.848 183.154 291.946 183.703 292.094C184.633 292.305 193.757 292.221 195.32 292.199L196.946 294.311C194.602 298.113 178.93 324.071 179.31 328.485C179.437 329.795 181.993 330.492 183.387 330.872C183.112 331.59 182.837 332.308 182.584 332.857C182.331 333.407 182.373 333.428 182.267 333.597C182.162 333.766 174.199 335.709 170.587 338.328C168.222 340.017 168.475 341.834 169.742 342.552C173.206 344.559 192.257 344.136 193.314 343.017C194.707 341.538 195.785 335.265 196.144 333.238C197.629 333.52 199.158 333.47 200.621 333.09C207.588 327.433 214.06 321.194 219.968 314.44C222.418 315.939 225.016 317.376 227.762 318.664C225.65 321.051 203.029 346.269 202.797 348.107C202.48 350.409 209.133 352.965 211.097 351.761C211.689 351.381 213.21 349.649 236.929 322.424C241.34 323.918 245.879 325.006 250.488 325.676C257.785 326.726 265.146 327.276 272.518 327.324C280.839 331.886 290.893 337.356 297.314 340.82C272.18 371.91 273.384 370.284 273.384 370.875C273.384 371.995 275.052 373.135 276.003 373.727C276.953 374.318 278.77 375.205 279.762 374.677C281.22 373.875 303.735 346.227 304.854 344.854C316.893 351.191 327.116 356.555 329.819 357.886C330.685 358.329 331.403 357.463 331.931 356.64C332.577 355.578 333.128 354.461 333.579 353.303C333.639 353.124 333.636 352.93 333.571 352.753C333.506 352.577 333.382 352.427 333.22 352.331L309.543 339.13L324.053 321.431L395.147 360.906C395.322 360.982 395.515 361.004 395.703 360.97C395.891 360.936 396.065 360.848 396.203 360.716C397.513 358.984 398.592 357.088 399.413 355.077C399.667 354.295 399.244 354.021 398.716 353.683C398.61 353.683 356.601 329.985 329.502 314.778L344.519 296.402C348.15 296.554 351.77 295.915 355.128 294.529C358.487 293.143 361.505 291.044 363.972 288.376C364.183 290.827 364.331 292.77 364.437 294.121C364.455 294.194 364.497 294.259 364.557 294.305C364.616 294.351 364.689 294.376 364.764 294.376C364.839 294.376 364.912 294.351 364.971 294.305C365.03 294.259 365.073 294.194 365.091 294.121C364.965 292.009 364.817 289.897 364.669 287.658C370.181 281.322 372.399 271.923 372.484 263.496C374.7 263.082 376.887 262.524 379.031 261.827C379.115 261.827 379.196 261.794 379.255 261.734C379.315 261.675 379.348 261.595 379.348 261.51C379.348 261.426 379.315 261.346 379.255 261.286C379.196 261.227 379.115 261.194 379.031 261.194C376.977 261.22 374.928 261.418 372.906 261.785C381.65 251.077 396.857 232.216 399.434 228.921C405.77 265.925 406.193 293.995 406.996 296.508C406.996 296.952 407.629 297.29 407.629 296.234C407.639 296.178 407.639 296.12 407.629 296.065C406.594 285.251 405.876 260.476 400.511 227.569C419.246 203.977 418.422 204.631 418 203.956C417.155 202.667 413.775 201.548 411.41 201.463C411.177 201.463 411.6 201.02 406.087 207.8C403.827 207.208 400.49 206.532 396.498 205.814C394.766 197.366 392.823 189.065 390.584 180.469C437.241 181.567 434.727 181.757 435.087 181.166L437.389 181.377C437.439 181.39 437.491 181.391 437.541 181.381C437.592 181.37 437.639 181.348 437.68 181.317C437.72 181.285 437.753 181.245 437.776 181.198C437.799 181.152 437.81 181.101 437.81 181.05C437.81 180.998 437.799 180.947 437.776 180.901C437.753 180.855 437.72 180.814 437.68 180.783C437.639 180.751 437.592 180.729 437.541 180.719C437.491 180.708 437.439 180.71 437.389 180.722L435.065 180.511C435.171 177.449 434.727 174.365 431.834 173.309C433.629 172.422 436.565 171.197 435.361 168.937C434.157 166.677 431.137 169.085 429.933 168.937C429.722 167.543 432.045 163.044 427.821 161.988C426.276 161.977 424.732 162.048 423.195 162.199C423.977 160.784 425.519 158.271 425.307 156.729C425.117 155.736 424.273 154.955 421.97 155.525C421.506 155.652 419.858 156.306 418.697 156.602C418.932 156.258 419.13 155.89 419.288 155.504C419.689 153.589 419.342 151.594 418.316 149.928C415.866 146.274 412.297 149.083 409.319 150.456C409.874 149.49 410.179 148.401 410.206 147.288C410.1 145.302 407.861 144.838 405.982 145.387C404.429 145.972 402.925 146.678 401.483 147.499C402.099 146.635 402.367 145.571 402.234 144.518C402.101 143.465 401.576 142.501 400.765 141.817C399.476 140.973 396.224 141.817 394.745 142.388C396.857 138.628 396.097 135.397 394.365 133.665C392.633 131.933 388.641 133.453 386.867 133.285C387.314 132.667 387.703 132.009 388.029 131.32C388.43 129.433 388.081 127.464 387.057 125.829C386.834 125.475 386.52 125.188 386.149 124.995C385.778 124.802 385.363 124.711 384.945 124.73C382.833 124.73 379.221 127.518 378.609 126.843C377.996 126.167 378.609 123.759 376.497 122.618C374.385 121.478 371.913 122.238 371.913 125.892C368.302 117.444 364.796 110.389 361.649 104.56C382.263 110.263 380.784 109.988 381.164 109.566ZM192.384 341.897C190.019 342.446 172.657 342.552 170.355 341.01C169.552 339.067 181.169 335.307 182.647 334.526C183.26 334.188 183.851 332.097 184.168 331.02C187.842 331.971 191.574 332.676 195.341 333.132C194.855 334.653 193.356 340.672 192.384 341.897ZM354.636 57.8189C368.259 41.4289 382.263 27.8481 403.067 24.2364C413.416 22.4411 421.421 22.6734 426.892 31.671C424.082 33.1917 412.698 38.0073 409.741 39.1478L403.574 40.3306C403.393 40.3685 403.23 40.4662 403.111 40.6079C402.992 40.7497 402.925 40.9273 402.919 41.1121V47.3428L370.477 69.4355C364.415 68.7385 364.606 68.6751 364.331 68.9286C364.056 69.182 364.12 68.9286 364.669 75.2649C363.233 76.1097 356.558 79.9749 351.616 82.9108C346.272 83.9668 347.497 83.8401 346.526 83.7345C346.568 74.7791 348.891 64.7255 354.636 57.8189ZM283.501 81.5801C283.274 79.2259 282.742 76.9112 281.917 74.6946C281.867 74.5967 281.795 74.5115 281.707 74.4456C281.619 74.3797 281.518 74.3348 281.41 74.3145C280.924 74.3145 280.544 74.6313 280.142 75.0114C278.791 76.2998 275.918 79.5525 275.031 80.4396L245.25 81.5379C245.06 80.5874 244.532 78.1162 244.215 77.1869C244.179 77.0709 244.116 76.9647 244.032 76.8764C243.949 76.7881 243.846 76.7201 243.732 76.6773C243.618 76.6346 243.496 76.6184 243.375 76.6298C243.253 76.6412 243.137 76.6801 243.033 76.7434C242.378 77.0813 238.428 80.2284 237.837 80.693C232.366 80.862 205.838 81.559 200.431 80.9042C205.215 71.4281 212.321 63.3186 221.088 57.3331C240.076 44.0902 287.429 44.0902 308.804 52.5386C323.757 58.4525 337.93 63.2259 346.146 77.4826C345.918 79.5376 345.805 81.6036 345.808 83.6711C343.801 83.5233 345.195 83.9879 341.816 81.7069C322.807 68.8864 279.635 55.4533 257.796 61.9164C257.714 61.941 257.644 61.9963 257.6 62.0709C257.557 62.1455 257.544 62.2338 257.564 62.3177C257.902 63.5216 264.766 58.3258 292.456 64.2608C308.36 67.6402 329.692 74.9903 342.576 83.5233C332.755 83.3754 325.384 86.0789 312.436 90.0708C305.995 88.6346 289.752 83.5655 283.501 81.5801ZM265.674 123.653C279.826 103.398 293.765 96.8929 317.569 89.6695C324.94 87.4095 333.051 84.347 340.802 84.3047C343.273 84.1979 345.748 84.3252 348.194 84.6849C348.194 84.6849 348.575 84.6849 348.511 84.8116C348.837 88.0917 348.29 91.3996 346.927 94.4006C345.052 99.0166 342.504 103.33 339.366 107.2C331.15 117.761 327.686 121.731 316.28 129.039C315.077 128.786 310.578 127.518 309.437 127.181C309.334 127.152 309.225 127.147 309.119 127.166C309.014 127.185 308.913 127.227 308.826 127.29C308.739 127.353 308.667 127.435 308.616 127.529C308.564 127.623 308.535 127.728 308.529 127.835L307.917 137.023C300.165 140.17 285.042 146.908 278.833 152.441C276.721 147.478 276.488 144.774 275.221 144.774C274.419 144.774 274.419 144.901 271.947 154.955C268.758 156.454 255.41 162.664 251.904 163.171C250.826 159.96 255.748 137.741 265.674 123.653ZM345.385 119.049C343.273 118.035 340.042 119.725 338.12 120.886C338.965 119.387 340.232 116.895 338.584 116.113C336.624 115.618 334.548 115.906 332.797 116.916C335.015 114.36 337.275 111.466 340.084 107.791C342.438 104.754 344.477 101.485 346.167 98.0334C346.568 102.701 347.35 111.319 348.385 122.449C347.309 122.48 346.255 122.754 345.301 123.252C345.934 122.238 347.54 120.126 345.385 119.049ZM185.583 177.153C184.084 175.041 182.626 172.232 184.928 171.07C185.639 170.877 186.396 170.968 187.041 171.324C188.241 171.889 189.369 172.598 190.399 173.436C190.518 173.524 190.662 173.573 190.811 173.574C190.96 173.575 191.105 173.528 191.225 173.441C191.345 173.354 191.434 173.23 191.48 173.089C191.525 172.947 191.523 172.795 191.476 172.654C190.917 171.201 190.672 169.646 190.758 168.092C190.758 167.881 190.758 167.712 191.032 167.648C191.806 167.492 192.608 167.573 193.335 167.881C194.6 168.329 195.811 168.917 196.946 169.634C197.056 169.697 197.179 169.73 197.305 169.73C197.431 169.73 197.555 169.697 197.664 169.634C198.742 168.937 196.482 166.381 197.664 162.854C197.874 162.142 198.239 161.485 198.732 160.93C199.225 160.376 199.834 159.936 200.516 159.644C202.902 158.693 206.092 159.221 206.113 161.988V162.579C206.11 162.708 206.147 162.834 206.218 162.941C206.288 163.049 206.39 163.132 206.509 163.18C206.628 163.228 206.759 163.239 206.885 163.211C207.01 163.183 207.124 163.117 207.211 163.023C208.795 161.439 211.013 156.433 213.843 157.827C214.709 158.271 214.456 159.01 214.392 159.939C214.329 160.869 214.667 161.882 215.512 161.777C216.863 161.608 224.911 153.878 224.15 158.799C223.979 159.717 223.695 160.611 223.305 161.46C223.26 161.589 223.259 161.73 223.302 161.859C223.346 161.989 223.431 162.101 223.546 162.176C223.66 162.251 223.796 162.286 223.932 162.275C224.069 162.264 224.198 162.208 224.298 162.115C226.051 160.15 231.416 155.081 233.148 156.813C233.676 157.341 233.275 159.58 233.021 160.341C232.866 160.606 232.681 160.854 232.472 161.08C232.092 161.65 232.282 162.284 232.979 162.284C235.323 162.284 237.773 157.848 240.625 157.848C243.01 157.677 245.38 158.35 247.32 159.749C247.531 159.96 248.418 162.072 249.263 161.207C250.847 159.644 248.418 156.518 247.151 154.089C246.708 153.202 245.968 151.491 246.898 151.09C247.693 150.869 248.538 150.914 249.306 151.216C249.686 151.998 250.362 153.328 251.08 152.695C251.798 152.061 251.587 151.132 250.066 150.414C249.863 149.928 249.7 149.426 249.58 148.914C249.58 148.618 249.411 147.858 249.58 147.689C250.647 147.046 251.885 146.744 253.129 146.823C252.178 149.822 248.524 162.284 250.721 164.501C251.014 164.749 251.394 164.87 251.777 164.839C254.903 164.692 270.047 157.616 272.898 156.391C273.489 156.116 273.151 156.243 275.306 147.942C277.27 153.096 277.545 154.553 278.537 154.575C279.53 154.596 279.023 152.948 290.323 146.908C299.025 142.261 308.825 138.29 308.825 138.29C308.957 138.24 309.072 138.154 309.158 138.042C309.243 137.93 309.296 137.797 309.311 137.657L309.754 128.955C316.09 130.666 316.302 130.729 316.661 130.497C321.953 127.232 326.813 123.315 331.129 118.838C333.241 117.655 336.514 116.261 338.12 117.064C339.197 117.613 337 121.288 336.177 122.302C336.126 122.39 336.106 122.493 336.12 122.593C336.134 122.694 336.18 122.788 336.252 122.86C336.324 122.932 336.417 122.978 336.518 122.992C336.619 123.005 336.722 122.986 336.81 122.935C337.845 122.175 342.724 118.964 344.878 120.042C347.033 121.119 342.661 123.949 343.991 124.836C344.393 125.09 344.9 124.73 345.343 124.435C346.263 123.884 347.312 123.585 348.385 123.569C349.61 136.453 351.13 152.568 352.757 169.739C349.196 170.625 345.928 172.423 343.273 174.956C339.886 174.65 336.475 175.187 333.346 176.519C332.248 176.984 332.501 178.019 333.6 177.998C333.346 177.998 334.233 177.998 335.712 178.378C336.261 178.209 219.419 177.259 185.583 177.153ZM346.8 221.718C346.8 221.718 347.497 222.077 348.406 222.605C344.604 225.14 336.24 229.681 335.458 231.223C335.362 231.444 335.343 231.692 335.404 231.926C335.466 232.159 335.604 232.366 335.796 232.511C336.324 233.103 336.198 232.659 336.113 233.483V237.137C335.902 239.03 335.506 240.897 334.93 242.713C333.966 242.945 332.952 242.863 332.037 242.48C326.862 240.22 323.905 236.44 324.454 230.779C327.073 231.16 328.573 231.603 329.08 231.645C329.587 231.688 330.96 230.758 329.354 230.146C328.383 229.787 328.425 218.191 329.671 218.74C329.748 218.756 329.828 218.744 329.896 218.707C329.965 218.67 330.019 218.61 330.049 218.538C330.079 218.466 330.083 218.385 330.06 218.311C330.038 218.236 329.99 218.171 329.925 218.128C332.037 214.917 332.037 214.981 332.037 214.537C332.008 214.43 331.954 214.33 331.881 214.246C331.808 214.162 331.717 214.095 331.614 214.051C330.814 213.62 330.138 212.988 329.654 212.218C329.169 211.449 328.891 210.567 328.848 209.658C328.746 208.289 328.903 206.913 329.312 205.603C330.119 205.98 331.004 206.158 331.894 206.121C332.783 206.084 333.651 205.834 334.423 205.392C333.98 206.3 333.494 207.377 334.128 208.138C334.62 208.645 335.265 208.975 335.964 209.078C336.662 209.181 337.376 209.051 337.993 208.708C338.032 208.693 338.067 208.67 338.097 208.641C338.127 208.612 338.151 208.577 338.168 208.539C338.185 208.501 338.194 208.46 338.194 208.418C338.195 208.376 338.188 208.335 338.172 208.296C338.157 208.257 338.134 208.222 338.106 208.192C338.077 208.162 338.042 208.138 338.004 208.121C337.965 208.104 337.924 208.095 337.883 208.094C337.841 208.094 337.799 208.101 337.761 208.116C336.907 208.149 336.071 207.863 335.416 207.314C336.004 205.851 336.71 204.438 337.528 203.09C339.788 204.209 339.64 203.09 339.387 204.23C338.774 209.51 344.794 211.2 348.448 207.694C349.054 207.057 349.579 206.348 350.011 205.582C350.617 205.706 351.245 205.662 351.827 205.455C352.989 206.194 352.841 205.772 352.778 206.406C352.736 206.705 352.772 207.01 352.883 207.292C352.994 207.573 353.176 207.821 353.411 208.011C353.455 208.255 353.455 208.506 353.411 208.75C350.285 210.503 350.476 209.468 349.947 211.052C348.828 211.644 348.87 212.848 348.596 213.925C348.469 214.411 347.117 219.205 346.589 220.937C346.546 221.07 346.543 221.214 346.581 221.349C346.619 221.484 346.695 221.605 346.8 221.697V221.718ZM337.021 233.673C338.188 234.528 339.012 235.771 339.345 237.179C339.64 238.658 339.345 239.017 339.64 239.523C339.743 239.682 339.89 239.806 340.063 239.883C338.877 240.899 337.546 241.732 336.113 242.354C336.553 240.682 336.87 238.981 337.064 237.264C337.148 236.503 336.958 234.919 337.021 233.652V233.673ZM337.021 231.561C339.387 229.449 348.997 223.514 350.18 221.908C351.679 222.817 353.939 224.211 355.354 225.225C351.13 228.604 345.66 232.955 340.929 237.369C340.633 234.454 339.07 233.504 337.106 231.624L337.021 231.561ZM292.224 273.254C298.521 272.967 304.797 272.325 311.021 271.332C313.788 276.212 317.222 280.684 321.223 284.617C325.397 288.465 330.142 291.643 335.289 294.037C332.185 299.528 327.073 306.9 321.856 310.469L307.621 302.506C306.163 297.585 305.635 293.234 304.051 288.482C303.125 285.224 301.294 282.295 298.771 280.034C296.934 278.091 292.435 273.697 292.139 273.296C291.843 272.895 292.118 273.359 292.224 273.254ZM310.536 269.811C306.016 270.487 293.85 271.923 289.668 271.564C290.503 263.503 290.821 255.397 290.618 247.296C293.787 250.021 298.074 253.632 302.193 257.265C300.426 257.811 298.894 258.934 297.842 260.454C297.71 260.721 297.64 261.014 297.64 261.312C297.639 261.609 297.706 261.903 297.837 262.171C297.967 262.438 298.158 262.672 298.393 262.854C298.628 263.036 298.902 263.162 299.194 263.221C299.495 263.265 299.801 263.265 300.102 263.221C300.011 263.522 299.989 263.839 300.036 264.15C300.084 264.461 300.2 264.757 300.376 265.017C300.687 265.503 301.135 265.885 301.665 266.115C301.895 266.158 302.131 266.158 302.362 266.115C302.31 266.323 302.31 266.54 302.362 266.748C302.784 270.212 306.185 268.375 309.437 267.213C311.042 266.664 311.021 266.748 312.014 267.551L310.536 269.811ZM327.601 229.681C325.248 229.081 322.828 228.783 320.399 228.794C319.428 228.794 319.533 229.026 319.575 228.794C319.934 226.006 321.35 218.233 323.25 216.121L328.953 218.233C327.559 219.944 326.947 226.787 327.559 229.766L327.601 229.681ZM327.601 217.008C326.926 216.67 323.926 215.213 323.377 214.896C322.828 214.579 322.596 214.896 322.152 215.467L321.455 215.34L327.285 208.877C327.244 209.954 327.447 211.026 327.879 212.013C328.31 213.001 328.959 213.878 329.777 214.579L327.601 217.008ZM321.455 216.29C320.13 218.665 319.203 221.241 318.709 223.915C318.222 226 317.883 228.118 317.696 230.251C317.69 230.36 317.706 230.469 317.744 230.571C317.782 230.674 317.84 230.767 317.915 230.846C317.99 230.925 318.081 230.988 318.181 231.031C318.281 231.074 318.389 231.096 318.498 231.096C319.796 230.415 321.297 230.228 322.722 230.568C322.471 232.721 322.777 234.903 323.609 236.904C316.989 243.654 310.016 250.048 302.721 256.061L290.492 246.155C290.492 243.663 290.492 241.382 290.323 239.545C290.133 234.771 290.006 234.729 289.415 234.053C287.781 232.406 286.023 230.888 284.155 229.512C294.653 223.239 309.078 214.601 321.561 216.333L321.455 216.29ZM310.789 265.861C309.374 265.861 305.995 267.488 304.199 267.445C303.819 267.445 303.713 266.981 303.692 266.601C305.023 264.995 308.614 264.489 308.614 263.2C308.614 263.2 308.254 262.165 307.452 262.524C305.741 263.378 303.96 264.084 302.129 264.636C301.97 264.506 301.834 264.349 301.728 264.172C301.559 263.855 301.728 263.792 301.728 263.707C303.309 262.632 305.038 261.792 306.861 261.215C307.034 261.118 307.167 260.961 307.234 260.774C307.301 260.587 307.299 260.382 307.227 260.197C307.154 260.012 307.018 259.859 306.842 259.766C306.666 259.674 306.463 259.648 306.269 259.694C303.946 260.476 303.861 260.771 302.045 261.299C301.475 261.447 299.468 262.039 299.215 261.51C298.961 260.982 300.355 259.926 300.947 259.588C303.297 258.254 305.917 257.468 308.614 257.286C310.979 257.286 311.211 257.434 316.154 260.94L312.415 266.854C311.984 266.368 311.418 266.023 310.789 265.861ZM311.655 256.505C309.421 255.8 307.024 255.8 304.791 256.505C311.64 250.755 318.136 244.598 324.243 238.066C325.897 240.77 328.4 242.849 331.361 243.98C332.265 244.371 333.251 244.537 334.233 244.466C331.086 251.351 321.899 255.195 319.765 258.596L318.899 258.068C318.731 257.964 318.528 257.93 318.335 257.974C318.142 258.017 317.973 258.134 317.865 258.3L316.64 260.243C314.76 258.722 312.436 256.948 311.655 256.526V256.505ZM349.673 196.859C349.673 197.577 349.103 198.042 349.124 198.971C349.12 199.321 349.187 199.668 349.321 199.991C349.455 200.315 349.654 200.607 349.905 200.851C350.215 201.094 350.547 201.306 350.898 201.484C351.059 201.541 351.204 201.635 351.32 201.759C351.032 202.434 350.833 203.144 350.729 203.871H350.56C350.919 202.752 350.708 201.759 349.99 201.421C347.209 200.148 344.14 199.638 341.098 199.943C340.549 199.943 339.873 201.696 339.683 202.287C339.026 201.885 338.314 201.579 337.571 201.379C337.951 200.365 337.803 199.52 337.169 199.098C335.607 198.177 333.863 197.607 332.058 197.429L332.501 196.289C333.032 196.06 333.48 195.678 333.79 195.19C334.276 194.536 335.121 192.888 335.395 193.078C336.029 193.268 336.747 194.472 338.373 193.205C338.932 192.677 339.447 192.104 339.915 191.494C340.554 191.907 341.217 192.28 341.9 192.614C343.231 192.909 344.181 191.663 344.731 191.473C345.005 191.811 345.47 192.445 345.597 192.571C345.944 192.827 346.346 193 346.77 193.077C347.195 193.154 347.631 193.133 348.047 193.015C347.624 195.085 348.68 195.423 349.652 196.88L349.673 196.859ZM353.2 182.328C349.096 180.582 344.858 179.169 340.527 178.103C339.662 177.913 333.684 177.237 333.473 177.195L333.726 177.047C337.244 175.674 341.094 175.394 344.773 176.245C352.482 178.357 365.26 184.313 369.696 191.029C371.263 193.15 372.522 195.483 373.434 197.957C371.383 196.237 369.462 194.366 367.689 192.36C363.644 188.001 358.69 184.583 353.179 182.349L353.2 182.328ZM369.59 184.947C369.59 185.897 369.358 186.826 369.252 187.756C363.909 181.863 351.151 176.203 344.329 174.914C351.785 169 360.107 169.444 365.007 173.415C366.623 174.845 367.879 176.637 368.672 178.645C369.464 180.652 369.772 182.819 369.569 184.968L369.59 184.947ZM306.692 179.476C338.183 179.476 335.353 179.476 335.12 179.687H334.107C332.907 179.947 331.828 180.602 331.044 181.546C329.925 183.278 330.242 183.215 330.347 184.651C329.945 185.021 329.59 185.44 329.291 185.897C328.928 186.444 328.724 187.081 328.702 187.738C328.679 188.394 328.839 189.044 329.164 189.614C328.974 190.079 328.573 190.544 328.404 191.051C328.304 191.301 328.277 191.575 328.326 191.84C328.374 192.105 328.497 192.351 328.679 192.55C328.825 192.668 328.98 192.774 329.143 192.867C329.218 192.899 329.284 192.95 329.333 193.015C329.228 193.437 328.953 193.754 328.869 194.177C328.838 194.478 328.886 194.783 329.008 195.061C329.13 195.338 329.322 195.579 329.566 195.761C330.028 196.104 330.523 196.402 331.044 196.648L330.791 197.324H329.249C328.826 197.324 328.214 198.38 328.024 198.76C327.439 199.635 327.127 200.664 327.127 201.717C327.127 202.769 327.439 203.798 328.024 204.674C327.694 205.612 327.46 206.582 327.327 207.567L320.209 215.34C314.164 215.1 308.137 216.151 302.531 218.424C295.684 221.196 289.108 224.597 282.888 228.583C280.332 226.64 277.376 224.485 274.799 222.69C293.47 217.621 320.146 191.494 306.692 179.476ZM254.691 210.503C261.619 214.199 284.62 230.822 288.274 234.94C288.675 235.426 288.718 234.94 288.887 239.629C289.14 246.937 289.203 263.813 288.105 270.973C287.492 270.487 255.22 245.121 253.361 243.769C253.234 240.516 254.058 213.967 254.691 210.503ZM181.612 288.651C181.465 288.651 181.359 288.651 181.296 288.524C181.232 288.398 181.296 287.679 181.591 287.236C182.774 285.124 185.478 283.709 189.237 279.949C190.121 279.155 190.839 278.193 191.349 277.119C191.624 276.063 192.088 271.585 192.215 270.318H204.487C203.791 274.014 202.909 277.672 201.846 281.28C198.847 282.758 184.95 289.39 181.612 288.651ZM198.509 291.355C196.693 291.355 185.435 291.608 183.725 291.355C183.65 290.943 183.65 290.52 183.725 290.108C187.927 289.144 192.013 287.727 195.911 285.884H202.248C200.98 287.574 199.777 289.433 198.573 291.355H198.509ZM214.223 269.283C210.004 274.19 206.149 279.4 202.691 284.87L197.517 284.976C200.326 283.666 202.417 282.568 202.691 282.441C202.92 282.295 203.097 282.081 203.198 281.829C204.187 278.008 204.935 274.128 205.437 270.212C208.098 270.212 209.049 270.212 209.302 269.536C209.978 268.058 222.313 244.952 224.298 241.298C224.974 241.298 223.643 240.157 233.739 253.294C243.793 250.633 252.896 250.485 266.667 255.977L271.356 259.694C262.485 255.702 252.875 252.492 243.054 253.041C238.911 253.259 234.803 253.924 230.803 255.026C224.425 258.448 219.271 263.918 214.287 269.283H214.223ZM221.003 313.151C228.565 304.872 235.091 297.078 240.477 291.629H251.713C243.73 300.606 235.746 309.624 228.776 317.502C226.13 316.192 223.556 314.739 221.067 313.151H221.003ZM210.231 350.346C208.103 350.412 206.03 349.656 204.444 348.234C206.768 344.495 231.754 316.383 253.762 291.502H262.211C217.223 342.658 210.802 349.987 210.231 350.346ZM238.027 321.135C245.652 312.37 254.523 302.232 263.858 291.566C266.857 291.566 268.948 291.692 269.772 291.819C276.404 304.069 290.745 308.716 304.516 310.532L315.816 316.869C309.509 320.366 302.675 322.813 295.582 324.113C277.333 327.683 252.474 325.951 238.027 321.135ZM316.175 317.46L302.045 334.927L286.901 326.479C297.176 325.519 307.141 322.448 316.175 317.46ZM274.757 327.281C278.41 327.281 281.811 327.028 285 326.711L301.158 335.92L298.201 339.574L274.757 327.281ZM331.783 353.345C331.379 354.366 330.847 355.331 330.199 356.217C328.383 355.309 317.738 349.754 305.889 343.545L308.677 340.165L331.783 353.345ZM278.981 373.156C277.514 372.775 276.183 371.992 275.137 370.896C275.263 370.706 294.146 347.283 317.886 317.925L322.786 320.649C292.202 357.632 280.417 371.953 278.981 373.156ZM397.723 354.929C397.057 356.398 396.273 357.811 395.379 359.153C389.043 356.069 274.989 291.566 270.342 290.489C268.019 289.897 243.328 290.489 240.625 290.489L245.525 285.462C248.081 285.462 271.99 285.462 273.933 285.969C280.269 287.827 396.942 354.929 397.702 354.929H397.723ZM328.256 314.039L323.335 311.335C328.573 307.47 333.536 300.289 336.705 294.649C338.658 295.404 340.692 295.929 342.766 296.212C343.062 296.233 343.675 295.431 328.235 314.039H328.256ZM367.689 280.435C365.626 284.898 362.29 288.653 358.1 291.228C345.428 298.958 333.452 293.34 322.194 283.413C318.223 279.491 314.817 275.033 312.077 270.17L318.646 259.715C338.31 271.353 336.282 269.811 341.288 272.705C341.689 272.916 342.133 273.148 343.189 273.761L345.406 275.091C346.927 275.978 346.526 276.19 346.991 276.211C347.814 276.211 346.991 274.605 345.702 273.507C344.059 272.322 342.252 271.382 340.337 270.719C344.234 264.067 348.508 257.643 353.137 251.478C353.19 251.411 353.214 251.325 353.204 251.24C353.195 251.155 353.151 251.077 353.084 251.024C353.017 250.971 352.931 250.946 352.846 250.956C352.761 250.966 352.683 251.009 352.63 251.077C347.814 257.184 343.357 263.567 339.281 270.191C336.683 268.903 323.272 260.75 320.779 259.229C322.744 256.04 332.375 251.9 335.374 244.233C340.211 243.051 345.174 237.221 348.047 233.187L356.073 226.133C360.042 228.895 363.224 232.644 365.302 237.01C368.926 244.978 370.881 253.604 371.047 262.355C371.404 268.565 370.252 274.768 367.689 280.435ZM411.41 202.097C413.057 202.097 416.669 203.216 417.26 204.357C417.408 204.589 413.902 209.658 372.42 260.349C372.269 257.446 371.902 254.559 371.322 251.71C393.457 224.337 410.797 202.857 411.431 202.097H411.41ZM405.073 208.771C398.082 217.22 385.6 232.385 371.005 250.147C369.905 245.493 368.348 240.958 366.359 236.609C364.183 232.182 360.902 228.392 356.833 225.605C356.92 225.477 356.955 225.321 356.931 225.168C356.908 225.015 356.827 224.877 356.706 224.781C355.017 223.662 352.017 222.141 350.37 221.233C350.325 221.208 350.275 221.195 350.224 221.194C350.173 221.193 350.123 221.205 350.077 221.228C350.031 221.25 349.992 221.284 349.962 221.325C349.932 221.367 349.913 221.414 349.905 221.465L348.216 220.536L349.588 216.311C350.088 216.66 350.668 216.876 351.274 216.939C351.88 217.002 352.492 216.909 353.052 216.67C353.308 216.486 353.536 216.265 353.728 216.016C354.323 216.381 354.998 216.594 355.695 216.634C356.391 216.675 357.087 216.542 357.72 216.248C358.61 215.683 359.338 214.897 359.832 213.967C360.297 213.291 360.381 213.164 361.606 213.185C362.791 213.371 364.002 213.091 364.986 212.404C366.08 211.271 366.686 209.755 366.675 208.18C367.758 207.736 368.676 206.968 369.304 205.98C369.932 204.993 370.238 203.836 370.181 202.667C378.038 203.829 397.259 206.722 405.073 208.835V208.771ZM373.392 124.033C373.835 122.999 374.828 123.294 375.842 123.801C376.856 124.308 376.877 125.237 377.046 126.293C377.975 131.722 384.143 123.886 385.917 126.568C386.733 127.924 387.011 129.537 386.698 131.088C386.287 131.821 385.828 132.527 385.325 133.2C385.234 133.31 385.184 133.448 385.184 133.591C385.184 133.733 385.234 133.872 385.325 133.981C386.973 135.629 391.535 132.841 393.267 134.594C393.963 135.429 394.404 136.447 394.535 137.526C394.666 138.605 394.482 139.7 394.006 140.677C393.394 142.219 392.021 143.57 392.359 144.289C392.697 145.007 393.098 144.817 393.584 144.289C394.069 143.761 398.991 142.324 399.92 142.895C400.182 143.107 400.395 143.374 400.544 143.676C400.694 143.979 400.776 144.31 400.786 144.648C400.976 146.506 399.983 146.929 399.413 147.752C398.843 148.576 399.181 149.21 399.983 149.21C402.645 149.21 405.876 145.471 408.432 146.781C409.086 147.119 408.432 149.125 407.883 149.928C407.333 150.73 406.869 151.026 407.08 151.639C407.502 152.864 409.868 151.639 411.008 151.026C413.353 149.78 415.528 148.471 417.007 150.688C417.807 152.027 418.085 153.614 417.788 155.145C417.683 155.567 416.669 156.75 416.584 157.257C416.415 158.165 417.493 158.292 418.38 158.123C420.217 157.785 423.702 156.011 423.766 157.109C423.766 158.651 421.273 162.157 421.273 163.023C421.294 163.221 421.388 163.404 421.536 163.537C421.685 163.669 421.877 163.742 422.076 163.741C422.287 163.741 427.124 163.34 427.42 163.424C430.736 164.248 427.293 168.451 428.856 170.014C429.87 171.049 431.686 170.014 433.228 169.528C433.397 169.528 433.925 169.359 434.009 169.528C434.58 170.69 431.665 171.64 430.482 172.295C429.299 172.95 429.342 174.175 430.102 174.407C430.466 174.459 430.836 174.459 431.2 174.407C433.312 175.104 433.608 177.512 433.545 179.73C430.567 179.582 390.014 178.209 389.866 178.209C385.414 161.336 379.833 144.782 373.16 128.659C372.975 127.115 373.053 125.551 373.392 124.033ZM392.253 193.733C387.883 194.226 383.546 194.974 379.264 195.972C378.038 196.289 376.961 196.648 376.074 196.922C375.99 196.939 375.916 196.989 375.869 197.06C375.821 197.131 375.804 197.218 375.821 197.302C375.838 197.386 375.887 197.46 375.958 197.508C376.03 197.555 376.117 197.573 376.201 197.556L378.186 197.408C381.711 197.08 385.206 196.487 388.641 195.634C389.915 195.275 391.17 194.852 392.401 194.367C393.274 197.957 394.105 201.639 394.893 205.413C391.408 204.822 374.321 202.266 369.865 201.653C369.838 201.272 369.69 200.91 369.442 200.618C369.939 199.645 370.322 198.617 370.583 197.556C371.35 198.348 372.2 199.056 373.117 199.668C374.068 200.069 375.483 199.309 374.87 197.112C373.789 194.443 372.369 191.923 370.646 189.614C370.752 188.157 371.005 186.721 371.174 185.2C371.481 182.163 370.832 179.106 369.317 176.455C367.802 173.805 365.498 171.693 362.726 170.415C360.18 169.459 357.447 169.105 354.742 169.38C354.235 164.29 353.728 159.052 353.2 153.941C354.061 153.951 354.921 153.908 355.777 153.814C360.044 153.285 364.247 152.33 368.323 150.963C368.407 150.946 368.481 150.897 368.528 150.825C368.576 150.754 368.593 150.667 368.576 150.583C368.559 150.499 368.51 150.425 368.439 150.377C368.367 150.33 368.28 150.312 368.196 150.329C363.093 150.745 358.047 151.686 353.137 153.138C349.631 118.246 348.258 108.319 347.561 94.9286C348.372 92.8233 348.912 90.623 349.166 88.3811C352.401 93.1318 355.228 98.1484 357.614 103.377C357.762 103.673 357.91 103.631 359.494 104.074C374.237 130.687 385.03 163.403 392.253 193.775V193.733ZM358.459 102.596C355.903 97.1533 352.818 91.9749 349.25 87.135C349.305 86.3021 349.262 85.4657 349.124 84.6427C349.092 84.5405 349.034 84.4482 348.956 84.3743C348.879 84.3004 348.784 84.2474 348.68 84.2202C354.869 83.0375 370.984 80.165 377.32 80.693C405.242 82.9741 424.357 90.3876 439.142 113.895C443.852 121.351 442.183 134.467 438.656 141.099C438.322 141.755 437.895 142.36 437.389 142.895C435.065 140.782 423.259 128.11 421.062 125.871L420.154 118.204C420.136 118.085 420.092 117.972 420.025 117.872C419.958 117.772 419.87 117.688 419.768 117.626C419.665 117.564 419.55 117.524 419.431 117.511C419.311 117.498 419.191 117.511 419.077 117.549L412.74 119.999L389.803 110.6C386.867 102.701 387.078 102.891 386.55 102.786C386.022 102.68 386.276 102.617 380.552 108.446L358.459 102.596Z" fill="#C7D6D5"/>
</svg>
