<svg width="17" height="17" viewBox="0 0 17 17" fill="none" xmlns="http://www.w3.org/2000/svg">
<path d="M10.0938 1.59375C7.16565 1.59375 4.78125 3.97815 4.78125 6.90625C4.78125 8.17834 5.22742 9.3446 5.97656 10.2598L1.74316 14.4932L2.50684 15.2568L6.74023 11.0234C7.6554 11.7726 8.82166 12.2188 10.0938 12.2188C13.0219 12.2188 15.4062 9.83435 15.4062 6.90625C15.4062 3.97815 13.0219 1.59375 10.0938 1.59375ZM10.0938 2.65625C12.447 2.65625 14.3438 4.55298 14.3438 6.90625C14.3438 9.25952 12.447 11.1562 10.0938 11.1562C7.74048 11.1562 5.84375 9.25952 5.84375 6.90625C5.84375 4.55298 7.74048 2.65625 10.0938 2.65625Z" fill="#0C0F12"/>
</svg>
