<svg width="314" height="314" viewBox="0 0 314 314" fill="none" xmlns="http://www.w3.org/2000/svg">
<path d="M68.7817 115.489L69.4097 115.112C68.8871 115.054 68.3615 115.192 67.935 115.5C67.5085 115.807 67.2115 116.262 67.1018 116.777C67.0547 116.353 68.4677 115.693 68.7817 115.489ZM75.1088 119.728C76.0822 121.298 75.5327 121.722 74.0569 122.193C75.4856 122.382 76.2078 121.675 76.1921 120.937C76.1921 119.775 74.1982 117.326 73.0521 116.4C73.6762 117.546 74.3628 118.657 75.1088 119.728ZM69.08 117.986C68.7503 118.174 68.9544 118.441 69.4097 119.477C69.4263 119.526 69.4535 119.57 69.4894 119.607C69.5253 119.644 69.569 119.672 69.6172 119.69C69.6655 119.708 69.7171 119.714 69.7683 119.71C69.8195 119.705 69.869 119.689 69.9132 119.663C69.9574 119.636 69.9952 119.601 70.0238 119.558C70.0524 119.515 70.0711 119.466 70.0785 119.416C70.0859 119.365 70.0819 119.313 70.0667 119.264C70.0515 119.215 70.0255 119.169 69.9906 119.132L69.5353 118.111C69.5141 118.073 69.4854 118.039 69.4508 118.011C69.4163 117.984 69.3766 117.964 69.3342 117.952C69.2917 117.941 69.2474 117.937 69.2037 117.943C69.1601 117.949 69.118 117.963 69.08 117.986ZM75.5013 116.981C75.7054 117.373 76.2863 116.981 76.0979 116.651C75.9095 116.321 75.7996 115.976 75.6269 115.662C75.4542 115.348 74.8419 115.662 75.046 116.007C75.2501 116.353 75.36 116.667 75.5013 116.981ZM75.7054 124.03C74.602 124.571 73.3355 124.677 72.1572 124.328C72.3661 124.62 72.6473 124.853 72.9731 125.003C73.299 125.154 73.6584 125.217 74.0161 125.187C74.3738 125.157 74.7175 125.035 75.0137 124.832C75.3098 124.629 75.5482 124.353 75.7054 124.03ZM293.15 107.137L304.392 16.7833L268.878 12.3716L265.33 41.5736L263.948 41.4009L267.575 12.1989L232.564 7.85001C227.54 43.3163 228.639 33.1741 213.724 159.104L249.143 163.516C249.143 164.002 248.923 165.478 248.892 165.588L213.52 161.176C213.52 161.176 205.67 220.35 205.497 221.621C205.387 222.485 202.499 221.307 277.827 231.873L292.962 108.644L257.48 104.248L257.668 102.678L293.15 107.137ZM218.01 128.74C219.094 120.074 221.511 100.606 221.653 99.5223L256.585 103.871C255.502 112.6 253.068 132.131 252.943 133.089L218.01 128.74ZM241.45 225.483L206.518 221.135L210.176 191.728L245.108 196.077C245.093 196.25 241.419 225.719 241.45 225.53V225.483ZM280.135 199.908C269.789 198.621 247.479 195.732 246.176 195.559L249.834 166.153C296.243 171.931 279.052 169.89 283.966 170.502C282.883 179.278 280.261 198.888 280.135 199.955V199.908ZM287.812 139.416C286.729 148.145 284.327 167.676 284.201 168.822C273.855 167.55 251.341 164.646 250.038 164.489C251.121 155.76 253.555 136.229 253.696 135.083C264.027 136.417 286.509 139.306 287.812 139.463V139.416ZM256.695 102.929L221.762 98.596C222.861 89.8668 225.295 70.336 225.421 69.1899L260.353 73.5231C257.982 92.63 256.946 101.029 256.695 102.929ZM260.62 71.8589L225.64 67.51L229.22 38.308L264.231 42.39C263.619 47.3826 260.62 72.0787 260.62 71.8589ZM295.537 76.3334C285.206 75.046 262.896 72.1415 261.593 71.9845L265.236 42.7668L299.336 47.1C298.3 55.7821 295.631 75.2501 295.49 76.3334H295.537ZM32.3734 118.818C32.9318 117.824 33.6975 116.962 34.6185 116.29C33.5071 119.063 33.3595 122.129 34.1994 124.996C35.0393 127.863 36.818 130.365 39.25 132.1C39.6739 132.414 40.1449 131.833 39.9251 131.425C38.6637 128.699 38.2744 125.651 38.8104 122.696C40.2043 125.227 41.9368 127.556 43.96 129.619C44.3996 130.09 45.1218 129.368 44.6665 128.913C42.7511 126.746 43.0965 122.366 43.3006 119.681C43.7559 113.872 47.0529 111.831 48.0106 108.44C48.0446 108.313 48.0274 108.178 47.9629 108.063C47.8983 107.949 47.7914 107.864 47.6652 107.828C44.2015 107.439 40.7136 108.309 37.837 110.277C34.697 112.208 33.2212 115.207 31.557 118.315C31.5309 118.419 31.5385 118.528 31.5787 118.627C31.619 118.726 31.6898 118.81 31.7808 118.866C31.8719 118.922 31.9785 118.948 32.0851 118.939C32.1916 118.93 32.2927 118.888 32.3734 118.818Z" fill="#D9D9D9"/>
<path d="M209.862 40.506C208.951 37.6329 206.314 30.5836 202.703 29.9713C200.112 29.5317 199.908 32.7816 199.563 34.5243C196.423 48.8741 183.14 55.5466 172.967 64.3543C165.808 70.6343 162.479 78.5628 159.418 87.2449C157.848 87.0722 156.278 88.5166 155.21 89.6156C149.605 95.0164 144.754 101.03 139.573 106.76C134.643 112.224 127.39 117.028 127.986 125.051C119.901 132.728 111.925 140.625 103.62 149.15C98.4389 142.195 93.4777 137.987 83.9478 136.119C80.9536 135.507 77.8887 135.317 74.8418 135.554C74.151 135.224 73.4759 133.89 73.1462 133.215C72.882 132.5 72.5726 131.802 72.2199 131.126C73.6292 131.037 74.96 130.447 75.9722 129.462C79.2388 130.103 82.375 131.287 85.2509 132.963C82.7075 123.449 79.1122 99.2711 63.7419 100.794C61.905 100.967 60.2094 102.066 58.4196 102.097C58.033 102.093 57.6475 102.14 57.2735 102.238C46.2835 105.253 45.6084 118.347 50.0515 126.872C50.2829 127.387 50.6137 127.851 51.0249 128.238C52.3123 129.305 61.748 130.498 62.0149 131.66C63.1453 137.485 61.4654 139.322 57.5718 141.426C50.9464 144.927 45.5299 148.208 40.2861 153.86C29.877 165.321 28.9978 178.87 35.9686 192.875C37.9154 196.752 42.2486 205.434 46.7388 205.858C48.2907 205.864 49.8172 205.464 51.1662 204.697C51.3075 204.697 52.2338 204.022 52.2495 204.037C53.2386 204.587 56.0489 206.11 55.3895 207.036C54.9656 207.633 53.9451 207.036 53.5212 206.643C53.4666 206.602 53.4006 206.579 53.3321 206.577C53.2637 206.575 53.1964 206.594 53.1395 206.632C53.0825 206.67 53.0388 206.725 53.0144 206.789C52.9899 206.853 52.986 206.923 53.0031 206.989L53.5212 209.093C53.6468 209.626 54.1806 210.568 53.8509 211.102C53.5212 211.636 52.0768 209.187 51.9198 208.857C51.8678 208.766 51.7872 208.696 51.6905 208.656C51.5939 208.616 51.4868 208.61 51.386 208.637C50.6952 208.841 51.386 210.207 51.5744 210.615C51.5744 210.804 52.1867 212.186 51.9355 212.327C51.6843 212.468 51.3546 211.981 51.2604 211.872C50.6795 211.134 50.5382 209.36 49.8474 209.36C48.874 209.36 50.1928 212.076 49.2037 211.589C48.8426 211.416 48.6228 210.741 48.4815 210.396C48.0604 208.955 47.9113 207.448 48.0419 205.953C47.8403 207.039 47.7613 208.145 47.8064 209.25C47.5525 209.467 47.3211 209.709 47.1156 209.972C33.4409 225.185 24.2878 234.762 16.3279 245.627C14.6166 247.966 8.69771 254.01 9.73391 257.182C11.037 261.201 17.8037 257.182 19.7505 256.051C27.6005 251.687 34.4771 245.941 41.4479 240.351C63.4279 222.83 89.0189 200.944 113.448 178.038C120.789 176.039 127.612 172.477 133.45 167.598C136.765 164.746 139.808 161.592 142.54 158.178C142.967 157.766 143.268 157.243 143.41 156.668C143.551 156.093 143.528 155.49 143.341 154.928H144.911C145.643 154.95 146.371 154.802 147.036 154.494C147.701 154.186 148.285 153.727 148.742 153.154C148.93 152.73 148.742 152.227 147.972 152.164C148.271 152.164 148.867 151.505 149.024 151.301C149.809 150.296 149.228 149.009 147.941 149.527C147.344 149.778 147.69 149.762 147.941 148.993C147.994 148.835 148.005 148.666 147.974 148.502C147.943 148.339 147.871 148.186 147.764 148.058C147.656 147.93 147.518 147.832 147.362 147.773C147.207 147.715 147.038 147.697 146.873 147.721C145.708 147.953 144.57 148.311 143.482 148.789C144.951 147.44 146.321 145.987 147.58 144.44C148.6 143.137 150.532 143.545 152.07 142.87C156.592 141.017 159.92 136.182 163.264 132.822C168.806 127.201 175.29 122.177 180.377 116.164C181.304 115.097 183.517 112.93 183.517 111.172C183.517 111.172 188.557 109.068 188.949 108.895C211.102 98.6902 217.68 64.9038 209.862 40.506ZM60.7118 126.008C60.3661 126.217 59.9698 126.328 59.5657 126.328C59.1617 126.328 58.7653 126.217 58.4196 126.008C56.0018 124.799 56.0489 121.487 58.4196 122.334C58.922 122.507 59.5029 123.214 59.9896 122.821C60.4763 122.429 60.3036 121.518 60.5705 121.047C61.6695 119.085 66.1283 115.065 65.516 109.727C67.8736 109.296 70.3016 109.458 72.581 110.198C73.7308 110.838 74.6404 111.836 75.1715 113.04C74.8158 112.844 74.398 112.793 74.0056 112.898C73.6133 113.004 73.2771 113.257 73.0677 113.605C73.2247 113.605 75.1715 113.024 75.2657 113.228C76.6412 115.607 77.6171 118.195 78.1545 120.89C78.8139 126.432 74.8261 130.561 71.639 130.53C71.5799 130.525 71.5207 130.537 71.4676 130.563C71.4145 130.59 71.3695 130.63 71.3374 130.68C71.3052 130.73 71.2871 130.787 71.285 130.846C71.2828 130.906 71.2966 130.964 71.325 131.017L71.8431 132.006C69.8963 134.816 64.5426 135.146 62.8627 134.314C62.6272 131.111 61.0258 125.726 60.649 126.008H60.7118ZM54.7929 143.278C57.7916 141.504 61.7009 140.421 62.6429 136.794C64.4506 137.236 66.3246 137.337 68.1693 137.092C69.1468 137.023 70.0976 136.742 70.9566 136.271C71.8156 135.799 72.5626 135.148 73.1462 134.361C73.1539 134.282 73.1539 134.203 73.1462 134.125C73.4673 134.595 73.8472 135.023 74.2766 135.397C74.3957 135.495 74.5216 135.584 74.6534 135.664C74.8599 135.75 75.0813 135.794 75.305 135.794C75.5286 135.794 75.75 135.75 75.9565 135.664C75.6407 135.737 75.3096 135.703 75.0145 135.57C77.3118 135.475 79.6125 135.633 81.8754 136.041C82.4882 143.31 80.4591 150.556 76.1606 156.451C70.0485 151.018 62.8424 146.96 55.0284 144.55C54.2597 144.413 53.484 144.318 52.7048 144.267C53.3799 143.969 54.1021 143.702 54.7301 143.325L54.7929 143.278ZM57.0851 198.998C56.4885 199.657 52.3751 203.503 52.5792 204.131L52.2809 204.1C53.1081 203.077 53.6498 201.852 53.8509 200.552L63.475 189.97L65.045 190.174C63.0354 192.419 62.6586 192.812 57.0223 199.045L57.0851 198.998ZM97.3399 155.587C96.0525 151.725 92.0961 144.393 91.7664 144.88C91.4367 145.366 95.6757 151.709 96.9788 155.87C88.5008 164.677 67.6826 187.27 65.5788 189.546C61.9304 189.276 58.3205 188.624 54.8086 187.599C54.3726 183.583 53.45 179.634 52.0611 175.84C55.0127 173.595 59.9111 168.775 59.6756 168.571C59.4401 168.367 54.7144 173.564 51.8256 175.652C51.8065 175.676 51.7962 175.707 51.7962 175.738C51.7962 175.769 51.8065 175.8 51.8256 175.824C53.4225 180.519 54.3218 185.422 54.4946 190.378C54.5731 193.817 54.4946 200.583 52.0297 203.362C51.2814 204.018 50.4058 204.513 49.4577 204.816C48.5095 205.118 47.5091 205.222 46.519 205.12C44.0698 204.54 42.3899 201.588 41.0711 199.673C36.3196 193.016 33.4308 185.211 32.703 177.065C31.7139 163.28 40.3803 152.29 52.0768 144.785C54.3039 144.949 56.4735 145.569 58.451 146.607C65.0595 149.272 71.1211 153.13 76.3333 157.989C78.7684 154.924 80.5498 151.392 81.5678 147.612C82.5858 143.832 82.8187 139.883 82.2522 136.009C92.3473 137.579 97.5283 141.787 103.149 149.558C101.218 151.584 99.271 153.577 97.3399 155.587ZM159.041 88.2183C158.224 90.528 157.887 92.9802 158.052 95.4246C157.581 93.258 156.827 88.4067 159.057 88.2183H159.041ZM142.634 156.67C142.446 157.047 140.138 159.732 140.264 159.575C136.005 164.945 130.653 169.349 124.564 172.496C121.639 174.254 118.547 175.716 115.332 176.861C113.998 177.3 139.149 153.483 141.488 150.987C142.87 156.309 142.87 156.168 142.634 156.67ZM147.344 148.585C147.308 148.771 147.233 148.947 147.125 149.103C146.617 149.75 145.981 150.284 145.256 150.673C145.176 150.74 145.121 150.833 145.101 150.936C145.082 151.039 145.098 151.146 145.148 151.238C145.198 151.331 145.278 151.403 145.375 151.443C145.472 151.483 145.58 151.488 145.68 151.458C148.412 150.296 148.585 150.202 148.742 150.171C148.742 151.379 145.916 152.07 145.979 152.667C146.041 153.263 146.748 152.918 147.549 152.777C147.69 152.777 148.365 152.667 148.396 152.777C148.428 152.887 147.91 153.42 148.051 153.263C146.748 154.425 145.115 154.253 143.341 154.441L142.305 150.406C142.211 150.029 141.928 150.406 142.839 149.527C142.849 149.573 142.869 149.616 142.898 149.654C142.926 149.692 142.963 149.723 143.004 149.745C143.046 149.767 143.092 149.78 143.139 149.783C143.187 149.786 143.234 149.779 143.278 149.762C146.371 148.71 146.905 148.396 147.297 148.585H147.344ZM179.31 115.992C175.526 120.215 170.235 124.768 166.404 128.253C160.642 133.45 155.791 141.441 149.59 142.635C147.211 142.847 144.814 142.558 142.553 141.788C140.292 141.017 138.218 139.781 136.464 138.16C129.87 131.488 124.344 123.512 137.281 110.716C141.692 106.352 145.743 101.61 149.935 97.026C151.819 94.985 155.163 90.4791 156.859 89.176C156.617 90.252 156.548 91.3596 156.655 92.4573C157.612 106.446 175.667 117.342 181.508 113.433C180.814 114.332 180.064 115.186 179.263 115.992H179.31ZM173.312 111.988C175.589 112.71 176.813 112.192 179.137 111.988C180.106 111.902 181.07 111.765 182.026 111.58C180.44 114.312 176.813 113.621 173.265 111.988H173.312ZM210.082 66.9448C209.108 66.9448 208.92 65.4847 208.135 64.8724C207.812 64.6828 207.439 64.5962 207.066 64.6242C206.693 64.6523 206.337 64.7937 206.047 65.0294C204.885 65.8772 204.021 68.452 200.332 70.7442C198.84 71.6705 197.522 71.8746 196.407 70.4459C194.24 67.6984 196.203 64.0246 196.109 60.8532C196.139 60.029 195.946 59.2119 195.551 58.488C195.156 57.764 194.573 57.1601 193.864 56.7398C191.98 55.8606 189.154 56.9125 188.055 54.9971C186.956 53.0817 189.954 51.7001 191.006 50.7738C195.842 46.5191 200.018 40.977 200.756 34.5714C200.724 34.1055 200.796 33.6382 200.967 33.2037C201.138 32.7691 201.404 32.3782 201.745 32.0594C203.079 31.1959 204.634 32.813 205.34 34.2574C208.01 39.8233 209.77 45.7811 210.553 51.9042C210.757 53.6469 212.751 66.8506 210.035 66.9448H210.082Z" fill="#D9D9D9"/>
<path d="M154.99 276.116C153.46 275.373 151.848 274.814 150.186 274.452C149.181 274.201 147.454 274.153 146.952 273.102C146.261 271.657 146.732 269.381 146.685 267.811C146.308 253.272 141.002 239.786 133.403 227.556C133.451 226.564 133.572 225.578 133.764 224.604C133.607 219.094 128.74 216.283 125.27 212.782C120.294 207.563 115.683 202.008 111.47 196.156C110.842 195.308 104.405 188.588 104.625 187.694C103.055 189.264 75.9252 213.865 53.3329 232.187C53.3329 243.852 46.8017 252.362 50.5383 257.825C54.9657 264.31 63.8519 259.395 70.65 257.402C72.4084 283.024 70.65 282.082 69.8493 291.753C69.4254 296.636 68.2793 301.424 71.3251 305.789C71.4076 305.929 71.5272 306.043 71.6705 306.119C72.6366 306.074 73.5876 305.862 74.4808 305.491C74.1825 304.439 73.8371 303.387 73.6173 302.351C73.8057 303.12 79.0024 303.45 79.6618 303.512C81.012 303.638 89.8825 303.34 87.6845 300.263C86.6797 298.865 81.1062 297.123 80.698 296.934C87.135 285.614 91.845 270.794 94.2942 258.265C97.8187 258.053 101.179 256.703 103.871 254.419C104.593 253.743 112.098 244.685 112.224 244.779C122.02 251.373 132.414 259.992 136.731 270.982C139.416 277.827 136.935 279.209 142.854 283.919C143.419 284.358 145.884 283.621 145.413 282.71L144.66 281.25C145.068 282.003 150.155 280.433 150.83 280.198C152.237 279.735 153.574 279.08 154.802 278.251C156.215 277.231 155.854 276.587 154.99 276.116ZM87.9514 277.686C86.989 278.986 85.6355 279.943 84.0892 280.418C80.8707 281.501 74.7634 281.642 72.3927 278.581C72.4899 271.442 72.1859 264.303 71.4821 257.197C79.1437 255.094 84.466 259.081 93.5563 258.359C92.1984 264.927 90.3135 271.374 87.92 277.639L87.9514 277.686ZM109.429 227.446C100.009 229.801 103.934 235.594 93.9802 241.576C90.8402 243.46 88.077 244.81 84.3875 243.962C80.2113 243.005 76.7259 240.964 72.3456 242.314C68.5305 243.491 65.2335 246.113 61.1986 246.6C56.7398 247.118 53.9923 244.496 52.7206 240.775C52.8462 240.163 52.9718 239.551 53.0817 238.938C53.2232 240.131 53.6153 241.281 54.2322 242.312C54.849 243.343 55.6769 244.231 56.6613 244.92C60.3037 247.291 64.7625 244.81 68.4363 243.067C74.3709 240.226 76.616 240.618 81.3731 242.251C86.5384 244.009 88.2183 244.025 92.5672 241.482C94.2034 240.578 95.7537 239.527 97.1987 238.342C99.6793 236.159 100.606 233.019 102.662 230.492C106.195 226.08 112.255 226.363 117.153 225.185C123.072 223.756 126.73 219.69 125.6 213.52L126.573 214.462C126.786 216.906 126.142 219.347 124.753 221.369C123.364 223.391 121.316 224.868 118.959 225.546C115.866 226.473 112.585 226.598 109.429 227.383V227.446ZM140.374 262.19C138.32 263.43 135.911 263.949 133.529 263.666C127.805 256.018 120.734 249.479 112.663 244.37C114.212 242.678 116.045 241.27 118.08 240.21C123.637 237.478 130.436 236.238 133.167 228.357C138.129 236.646 143.231 246.788 144.833 256.35C144.06 258.75 142.486 260.812 140.374 262.19ZM143.639 50.6325C149.307 45.7969 157.314 38.5592 165.243 38.622C157.225 36.1008 148.597 36.3218 140.719 39.25C136.009 41.1968 123.637 48.984 127.264 55.7507C130.593 63.114 140.531 53.38 143.639 50.6325ZM140.342 40.2705C147.847 37.4445 154.943 38.2766 162.322 38.5592C154.912 38.9517 148.742 44.745 143.372 49.298C140.593 51.653 131.409 61.701 127.861 55.578C124.171 49.0782 135.852 41.9661 140.342 40.2705ZM148.082 66.6308V66.5366C142.65 68.9544 137.092 73.005 136.088 79.2536C135.742 81.4045 135.993 85.6749 139.228 84.9684C141.661 84.4346 142.776 81.2789 143.734 79.2536C145.555 75.3914 147.235 71.4036 148.679 67.4001H148.569C141.488 79.5362 141.645 83.5397 138.929 84.2148C136.59 84.78 136.15 81.64 136.26 80.07C137.14 73.79 143.514 70.0377 148.082 66.6308Z" fill="#D9D9D9"/>
</svg>
