<svg width="238" height="238" viewBox="0 0 238 238" fill="none" xmlns="http://www.w3.org/2000/svg">
<path fill-rule="evenodd" clip-rule="evenodd" d="M162.35 228.851C162.328 229.245 162.386 229.64 162.522 230.01L159.533 229.989C159.665 229.657 159.774 229.267 159.891 228.817C160.705 228.828 161.525 228.839 162.35 228.851ZM150.58 228.689C150.661 229.23 150.81 229.63 151.004 229.927L58.3707 229.26C57.1235 229.246 56.7737 229.199 56.9058 228.546C57.0664 227.421 57.6626 222.661 57.3663 222.542C57.2815 222.512 57.1614 222.818 57.0158 223.191C56.9472 223.365 56.8729 223.556 56.7939 223.732C56.3984 224.689 55.9301 225.613 55.3933 226.499C54.834 227.269 54.565 227.183 54.2592 226.079C54.1589 225.717 54.0416 225.286 53.9128 224.814V224.812C53.1909 222.162 52.1149 218.21 51.7221 217.964C51.6223 220.716 51.7018 223.474 51.9601 226.217C52.1455 228.246 50.0449 225.158 48.256 222.526C46.7839 220.362 45.5227 218.508 45.9197 220.07C47.0893 223.082 48.5308 225.981 50.2263 228.731C50.8723 229.745 50.5137 229.756 46.4956 229.872C45.7474 229.894 44.872 229.919 43.8527 229.956C31.9736 230.377 25.8953 230.757 22.7772 230.951C20.0012 231.124 19.5712 231.15 19.4826 230.931C19.151 230.107 35.0456 229.427 43.6563 229.06C46.6012 228.933 48.6942 228.844 48.9946 228.798C49.2695 228.756 49.2624 228.698 48.9697 228.247C47.1832 225.601 45.8557 222.674 45.0427 219.587C44.8606 218.42 45.8661 218.227 46.3052 218.703C47.2069 219.675 48.2792 221.223 49.1724 222.512C50.0686 223.807 50.7848 224.84 50.9677 224.772C51.0702 224.734 51.0305 223.874 50.9754 222.682C50.911 221.288 50.8256 219.44 50.9224 217.922C50.9998 216.725 52.022 216.695 52.3504 217.346C53.4105 219.938 54.2737 222.606 54.9327 225.328C55.07 225.744 55.8352 224.183 56.4011 223.029C56.6105 222.601 56.793 222.23 56.9058 222.035C58.2874 219.647 58.0684 225.053 57.8578 227.79C57.8525 227.856 57.8423 227.918 57.8329 227.974C57.8156 228.077 57.8012 228.162 57.8278 228.233C57.9525 228.561 58.9837 228.547 64.8776 228.461C67.2467 228.428 70.4016 228.382 74.599 228.343C75.1169 228.457 75.641 228.546 76.1695 228.607C81.8422 229.488 94.9322 228.931 95.5284 228.898C96.4467 228.843 96.6 228.714 96.5975 228.263C109.695 228.277 127.197 228.385 150.58 228.689ZM214.305 230.384L171.89 230.078C172.062 229.703 172.072 229.35 172.003 228.999C184.565 229.198 198.506 229.445 213.979 229.753C214.452 229.763 214.676 230.384 214.305 230.384Z" fill="#D9D9D9"/>
<path fill-rule="evenodd" clip-rule="evenodd" d="M171.658 223.747C173.205 223.063 173.769 222.438 173.193 220.963C173.133 220.745 173.016 220.547 172.856 220.39C172.694 220.232 172.494 220.12 172.275 220.067C171.912 219.994 171.668 219.883 171.69 219.65C171.757 218.9 171.383 218.21 170.789 217.113C170.67 216.892 170.54 216.654 170.404 216.396C169.967 215.559 169.59 215.346 169.372 215.222C169.219 215.137 169.144 215.094 169.178 214.913C169.379 213.791 164.569 211.361 162.922 212.446C161.564 212.307 160.192 212.438 158.885 212.832C156.855 213.407 156.279 214.333 155.923 214.903C155.697 215.266 155.56 215.486 155.196 215.383C154.915 215.308 154.623 215.291 154.336 215.335C154.049 215.38 153.774 215.484 153.53 215.641C153.255 215.799 153.066 215.538 152.79 215.158C152.326 214.52 151.618 213.547 149.853 213.673C149.409 213.732 148.984 213.886 148.605 214.121C148.224 214.357 147.899 214.671 147.649 215.043C147.399 215.414 147.23 215.833 147.155 216.274C147.079 216.714 147.097 217.167 147.209 217.6C147.517 218.373 149.526 218.478 150.227 218.461C150.749 218.448 149.526 219.28 148.381 219.31C147.891 219.323 147.855 219.58 148.088 219.954C149.408 221.582 151.198 222.763 153.213 223.339C153.467 223.421 153.546 223.49 153.378 223.663C152.729 224.214 152.207 224.897 151.845 225.667C151.482 226.437 151.288 227.275 151.276 228.125C151.379 229.946 152.121 230.017 152.873 230.091C152.996 230.103 153.12 230.115 153.24 230.134C153.458 230.17 153.788 230.071 153.811 229.824C153.727 228.279 154.11 226.744 154.911 225.421C155.076 225.141 155.462 225.183 155.231 225.711C154.786 226.735 154.041 228.885 154.652 229.813C155.032 230.201 155.506 230.484 156.027 230.634C156.548 230.784 157.1 230.797 157.627 230.67C157.898 230.661 158.158 230.57 158.374 230.407C158.589 230.244 158.748 230.017 158.829 229.76C158.982 229.406 159.324 228.024 159.389 227.765L159.398 227.724C159.45 227.522 159.493 227.522 159.571 227.534C160.743 227.726 161.539 227.837 162.077 227.914C162.541 227.979 162.812 228.017 162.965 228.055C163.136 228.098 163.131 228.207 163.122 228.415C163.119 228.46 163.118 228.509 163.117 228.563C163.11 229.313 163.164 230.235 163.806 230.635C164.043 230.767 164.306 230.847 164.576 230.867C164.847 230.887 165.118 230.849 165.373 230.754C165.709 230.604 165.678 230.455 165.617 230.173C165.602 230.097 165.583 230.012 165.569 229.913C165.398 228.697 165.569 227.546 165.688 227.784C165.788 227.98 165.849 228.299 165.919 228.666C166.203 230.145 166.637 232.414 170.391 230.691C170.628 230.583 170.833 230.416 170.986 230.205C171.02 230.12 171.061 230.047 171.103 229.973C171.214 229.783 171.323 229.591 171.271 229.183C171.245 228.975 171.159 228.786 171.074 228.595C170.991 228.412 170.908 228.228 170.878 228.024C170.697 227.601 170.587 227.151 170.552 226.691C170.528 226.246 170.651 226.154 171.001 226.056C172.551 225.687 173.957 224.866 175.038 223.696C175.056 223.663 175.064 223.626 175.063 223.589C175.061 223.551 175.049 223.515 175.029 223.483C175.009 223.452 174.98 223.427 174.945 223.411C174.912 223.395 174.874 223.388 174.837 223.392C173.849 223.766 172.808 223.981 171.753 224.025C171.515 224.016 171.524 223.822 171.662 223.762L171.658 223.747ZM169.218 215.781C169.543 216.091 171.556 219.668 170.896 220.066C169.932 220.533 168.905 220.854 167.846 221.018C167.715 221.031 167.583 220.993 167.479 220.912C166.972 219.851 166.606 218.729 166.391 217.574C166.375 217.515 166.358 217.461 166.344 217.411C166.254 217.107 166.207 216.952 166.538 216.794C167.404 216.393 167.952 216.061 168.311 215.845C168.475 215.746 168.6 215.67 168.697 215.623C168.951 215.501 169.022 215.574 169.137 215.698C169.161 215.724 169.187 215.753 169.218 215.781ZM163.292 215.306C163.37 214.668 163.413 214.027 163.423 213.385C163.163 211.409 169.288 214.627 168.567 215.025C168.155 215.253 167.809 215.448 167.516 215.615C166.124 216.401 165.899 216.529 165.316 216.328C164.631 216.089 164.172 215.97 163.868 215.89C163.282 215.739 163.266 215.734 163.292 215.306ZM165.459 217.044C165.782 217.143 165.8 217.288 165.853 217.718C165.906 218.156 165.997 218.889 166.483 220.171C166.695 220.731 166.811 221.11 166.701 221.242C166.495 221.48 161.25 222.357 159.614 220.885C159.346 220.647 159.355 220.398 159.464 219.956C159.56 219.565 159.734 219.027 159.972 218.291L160.067 217.997C160.257 217.408 160.69 217.24 161.244 217.026C161.663 216.864 162.152 216.675 162.656 216.258C162.8 216.137 162.886 216.168 163.438 216.369C163.825 216.51 164.438 216.732 165.459 217.044ZM161.924 212.927C161.986 212.925 162.045 212.924 162.099 212.923C162.73 212.908 162.834 212.904 162.792 213.698C162.717 215.106 162.627 215.459 162.316 215.684C159.544 217.703 157.662 216.459 156.354 215.595C156.295 215.555 156.237 215.517 156.18 215.48C157.437 213.367 159.484 213.149 161.924 212.927ZM158.82 219.772C158.646 219.693 158.47 219.23 158.257 218.673C158.067 218.176 157.848 217.602 157.577 217.162C157.422 216.908 157.763 216.974 157.815 216.988C158.391 217.093 158.958 217.249 159.508 217.452C159.539 217.478 159.512 217.562 159.48 217.668C159.465 217.718 159.448 217.772 159.435 217.829C159.32 218.502 159.113 219.155 158.82 219.772ZM155.456 224.679C155.002 224.403 154.627 224.014 154.369 223.55C154.419 223.503 154.455 223.469 154.483 223.442C154.524 223.402 154.549 223.377 154.575 223.356C154.616 223.323 154.658 223.293 154.769 223.219C154.911 223.125 155.163 222.957 155.657 222.613C155.832 222.492 155.888 222.586 155.982 222.744C156.009 222.792 156.04 222.844 156.079 222.899C156.164 223.017 156.236 223.105 156.293 223.173C156.381 223.278 156.434 223.342 156.44 223.408C156.448 223.507 156.354 223.614 156.122 223.881C155.966 224.06 155.747 224.311 155.456 224.679ZM166.436 225.476C166.062 226.029 166.003 226.433 165.961 226.713C165.921 226.983 165.898 227.138 165.629 227.202C163.745 227.52 161.815 227.43 159.969 226.939C159.955 226.935 159.941 226.932 159.928 226.928C159.841 226.907 159.78 226.893 159.747 226.854C159.672 226.771 159.728 226.572 159.904 225.932C159.943 225.788 159.99 225.62 160.042 225.426C160.162 224.98 160.281 225.004 160.908 225.125C161.571 225.253 162.803 225.492 165.205 225.4C165.53 225.388 165.796 225.36 165.999 225.34C166.412 225.296 166.568 225.279 166.436 225.476ZM160.292 224.056C157.031 223.421 156.656 222.123 156.13 220.304C155.966 219.732 155.786 219.11 155.498 218.441C155.349 218.091 154.974 217.869 154.605 217.65C154.426 217.545 154.249 217.439 154.099 217.321C152.831 216.324 154.118 215.385 155.541 216.074C157.111 216.835 157.477 217.988 157.827 219.091C158.168 220.162 158.493 221.185 159.888 221.757C161.722 222.507 164.82 222.47 168.048 221.67C168.884 221.463 169.579 221.24 170.157 221.056C171.778 220.537 172.476 220.314 172.749 221.541C172.798 221.695 172.808 221.858 172.778 222.017C172.749 222.175 172.681 222.324 172.581 222.45C171.931 223.01 171.155 223.402 170.32 223.595C167.045 224.441 163.631 224.598 160.293 224.056H160.292ZM148.386 215.616C148.411 215.039 149.034 215.101 148.927 215.702C148.839 216.193 148.361 216.208 148.386 215.616ZM150.402 215.271C150.017 215.292 150.017 216.212 150.374 216.205C150.515 216.202 150.643 216.031 150.675 215.784C150.708 215.536 150.578 215.26 150.402 215.271Z" fill="#D9D9D9"/>
<path fill-rule="evenodd" clip-rule="evenodd" d="M197.001 144.88C189.792 139.906 189.717 139.817 188.498 138.347C188.016 137.766 187.355 136.97 186.004 135.571C184.195 133.698 181.79 134.563 180.072 136.523C179.857 136.767 179.772 136.969 179.7 137.142C179.601 137.378 179.523 137.56 179.172 137.725C178.22 138.169 176.452 139.403 176.165 140.416C175.982 141.063 175.589 141.077 175.047 141.098C174.455 141.122 173.686 141.152 172.814 142.005C171.947 142.852 172.163 143.565 172.298 144.011C172.374 144.264 172.425 144.43 172.243 144.491C164.33 147.128 158.883 148.297 154.213 149.299C149.634 150.28 145.804 151.103 141.128 152.991C140.532 153.216 139.954 153.487 139.399 153.803C138.096 154.591 137.775 153.49 138.135 153.089C139.178 151.937 141.386 150.799 143.288 149.82V149.819C145.165 148.852 146.744 148.038 146.607 147.517C146.127 145.673 145.768 144.524 145.391 143.314C145.294 143.003 145.195 142.687 145.093 142.355L145.078 142.306C145.044 142.199 145.022 142.128 145.036 142.065C145.066 141.935 145.253 141.841 145.824 141.555C146.061 141.437 146.364 141.286 146.748 141.085C147.299 140.798 147.454 140.595 147.159 139.754C142.069 125.215 139.34 120.175 138.192 118.055C137.758 117.254 137.551 116.87 137.527 116.549C137.341 114.431 136.95 112.337 136.36 110.295C136.32 110.191 136.306 110.08 136.317 109.969C136.329 109.859 136.366 109.752 136.425 109.659C137.124 108.234 137.134 107.239 137.139 106.658C137.145 106.053 137.148 105.897 137.921 106.173C139.168 106.618 140.524 104.801 141.094 103.606C141.353 103.059 141.145 102.71 140.979 102.434C140.929 102.35 140.883 102.273 140.856 102.199C140.795 102.034 140.833 101.995 141.108 101.711L141.139 101.68C141.63 101.173 142.652 100.238 143.96 99.0403L143.963 99.0391L143.964 99.0372L143.966 99.0357C145.686 97.4624 147.898 95.4373 150.052 93.3378C154.494 89.0002 157.512 85.817 159.278 79.7991C163.41 65.7168 153.792 59.5956 140.164 50.9212C138.647 49.9557 137.081 48.9586 135.478 47.9155C132.88 46.2251 132.329 45.4433 131.441 44.1854C131.164 43.7918 130.854 43.3516 130.437 42.8223C128.826 40.7731 127.306 39.6093 122.909 38.5383C119.934 37.9327 116.872 37.8952 113.883 38.4276C111.301 39.1307 110.317 39.9434 109.815 40.358C109.297 40.7857 109.292 40.7898 108.577 39.8128C106.427 36.88 106.253 36.6246 105.773 35.919C105.693 35.8012 105.604 35.6707 105.496 35.5133C105.224 35.1162 105.767 34.3968 106.546 33.3639C108.02 31.4103 110.34 28.3349 109.598 24.1952C109.449 23.3609 109.838 22.9942 110.225 22.6289C110.641 22.2367 111.055 21.846 110.8 20.8799C110.569 19.9989 111.369 19.2142 112.138 18.4593C112.561 18.0446 112.974 17.639 113.202 17.2313C113.32 17.047 113.397 16.8394 113.427 16.6225C113.457 16.4057 113.439 16.185 113.375 15.9755C113.311 15.7662 113.203 15.5732 113.057 15.4099C112.911 15.2467 112.732 15.1169 112.531 15.0298C110.327 14.0957 109.961 13.9648 109.437 14.5265C109.186 14.7935 108.904 15.3354 108.614 15.8932C108.129 16.8265 107.62 17.8038 107.193 17.6109C106.692 17.3858 106.8 17.2432 107.133 16.8057C107.428 16.4177 107.898 15.7981 108.277 14.6835C108.515 13.9981 108.37 13.6947 107.791 13.396C105.53 12.2305 105.111 13.4749 104.703 14.6857C104.382 15.6382 104.068 16.5701 102.87 16.2912C102.413 16.1858 102.711 15.7979 103.067 15.3344C103.133 15.2489 103.201 15.1609 103.266 15.0715C106.316 10.9006 101.195 10.7114 100.831 12.4535C100.046 16.2198 98.3749 15.2869 98.801 14.5443C98.8155 14.519 98.8561 14.4654 98.9138 14.3893C99.3732 13.7833 100.921 11.7423 99.0985 10.9886C98.3845 10.6959 96.8993 10.7185 96.6447 11.6027C96.5128 12.4797 96.3042 13.3434 96.0211 14.1837C95.6915 15.0001 94.5253 14.7787 94.8906 14.054C95.2558 13.4601 95.5241 12.8117 95.6855 12.1334C95.9104 10.1889 93.3424 9.8724 93.1032 11.4646C93.0441 12.2473 92.9114 13.0225 92.707 13.7803C92.5475 14.2789 91.4194 14.1516 91.6003 13.4233C91.6354 13.2815 91.6815 13.1214 91.7312 12.95L91.7313 12.9494C92.117 11.6147 92.7009 9.59337 89.7677 10.1532C88.7412 10.3489 88.7712 11.5198 88.7972 12.5358C88.815 13.2312 88.831 13.8541 88.5051 14.0421C88.3213 14.162 88.1647 14.3189 88.0454 14.503C87.9261 14.687 87.8467 14.8941 87.8123 15.1106C87.7778 15.3272 87.7892 15.5487 87.8456 15.7606C87.902 15.9726 88.0022 16.1703 88.1398 16.3412C88.6463 16.8547 88.4239 17.3156 88.2095 17.7601C88.0501 18.0902 87.8952 18.4112 88.0469 18.7379C88.3374 19.3633 88.1649 19.7262 87.6526 20.8036C87.2602 21.6284 86.6688 22.8722 85.9335 24.9735C83.3488 32.3515 81.7685 42.3296 89.5749 43.5863C91.3651 43.8752 92.4048 43.8603 93.017 43.8515C93.8696 43.8393 93.8928 43.839 93.96 44.6882C93.9652 44.7546 93.6527 45.0691 93.1181 45.6072C89.819 48.9282 78.0605 60.7638 80.2858 75.3402C80.3486 75.7518 80.41 76.083 80.4602 76.3541C80.5721 76.9579 80.6287 77.2639 80.5242 77.4977C80.4169 77.7377 80.1399 77.9018 79.5784 78.2344C78.7205 78.7427 77.1985 79.6443 74.6035 81.8114C74.2629 82.0942 73.9346 81.7377 73.5095 81.2763C72.7465 80.4479 71.6721 79.2815 69.6567 80.869C69.3237 81.1316 68.9838 81.1422 68.6071 81.1539C68.1423 81.1684 67.6212 81.1846 66.9875 81.6782C65.5415 82.8046 65.9258 83.5668 66.217 84.1446C66.3432 84.3951 66.452 84.6109 66.3865 84.8067C66.3013 85.0152 66.2735 85.2427 66.306 85.4656C66.3384 85.6883 66.4299 85.8985 66.571 86.074C66.6368 86.1724 66.724 86.2563 66.8094 86.3384C66.9645 86.4877 67.1133 86.6308 67.1148 86.8428C67.0643 87.1848 67.1213 87.5339 67.278 87.842C67.4346 88.1501 67.6833 88.4019 67.9895 88.5623C68.3072 88.7168 68.5006 88.7535 68.6306 88.7783C68.8335 88.817 68.8829 88.8264 69.0105 89.2061C69.3675 90.2854 71.3798 90.2533 72.2294 89.7523C73.0066 89.2934 73.5022 88.942 73.8607 88.6876C74.4039 88.3023 74.633 88.1397 75.0509 88.1648C76.9185 88.2765 79.219 88.3693 81.0037 88.4412C82.51 88.502 83.6488 88.5478 83.8498 88.5778C84.5762 88.6869 84.7799 89.0424 85.7663 90.7639C86.2212 91.558 86.8428 92.6427 87.759 94.1279C88.4694 95.2797 89.2172 96.4425 90.0034 97.6652C90.9596 99.152 91.9727 100.728 93.0449 102.479C95.051 105.762 95.7776 107.017 96.183 107.717C96.4193 108.125 96.5464 108.345 96.7542 108.667C97.4522 109.751 97.9888 110.531 98.386 111.109C99.1076 112.159 99.3692 112.54 99.3039 112.852C99.2666 113.029 99.1238 113.184 98.8997 113.427C98.7066 113.637 98.453 113.913 98.1548 114.325C94.5053 119.615 91.2483 125.167 88.4099 130.933C81.7816 144.823 81.9303 145.166 83.8093 146.233C84.1128 146.406 83.6116 147.449 82.8209 149.096C80.7751 153.358 76.7917 161.653 79.8026 169.319C80.8466 171.979 84.1695 173.919 85.6092 174.759C85.7055 174.815 85.7934 174.866 85.8716 174.912C86.4273 175.243 85.2028 176.785 82.0636 174.484C80.8058 173.56 79.9383 173.413 79.9502 175.113C79.9679 177.71 80.0945 178.169 81.3387 182.689C81.595 183.621 81.8987 184.724 82.2588 186.054C82.4683 186.828 82.6861 187.62 82.9066 188.422L82.907 188.423C84.3257 193.582 85.8583 199.155 86.0477 203.001C86.1215 204.516 86.3262 211.508 85.9454 211.669C85.8372 211.714 85.7161 211.608 85.554 211.465C85.117 211.081 84.3814 210.434 82.7931 211.788C81.4674 212.916 80.1025 215.596 81.1842 216.962C81.2291 217.018 81.2878 217.074 81.3477 217.131C81.5166 217.292 81.6936 217.459 81.59 217.663C81.5116 217.819 81.3502 217.891 81.1686 217.974C81.1078 218.001 81.0449 218.029 80.9819 218.062C80.6145 218.248 80.9248 218.642 81.2873 219.103C81.6186 219.523 81.9935 219.999 81.9339 220.423C81.9312 220.49 81.9083 220.556 81.8683 220.611C81.8283 220.665 81.773 220.707 81.7092 220.731C81.6456 220.753 81.5763 220.758 81.5104 220.741C81.4445 220.726 81.3847 220.69 81.3389 220.64C81.0332 220.396 80.777 220.049 80.5318 219.718C80.0519 219.068 79.6145 218.477 78.9315 218.822C78.6601 218.96 78.6783 218.981 79.0495 219.415C79.2525 219.651 79.5612 220.011 79.9859 220.581C80.2239 220.903 80.5392 221.613 80.1215 221.795C79.8119 221.93 79.547 221.567 79.1755 221.059L79.1745 221.058C79.118 220.981 79.059 220.9 78.997 220.816C78.4127 220.035 77.6785 219.104 77.1715 219.368C76.9407 219.487 76.9835 219.613 77.0335 219.704C77.1052 219.835 77.2515 220.013 77.4236 220.221C77.8533 220.743 78.4438 221.458 78.4353 222.136C78.4353 222.359 78.0783 222.529 77.7546 222.216C77.1295 221.608 76.7955 221.107 76.5461 220.732C75.819 219.639 75.8121 219.629 71.4107 221.232C68.6737 222.227 68.5892 223.921 68.6737 225.146C68.6669 225.549 68.7482 225.949 68.9117 226.318C69.5042 226.956 70.2079 227.479 70.9883 227.865C74.3203 229.449 78.6888 229.637 81.5007 229.738C84.8565 229.857 89.8534 229.959 93.7577 229.738C94.1673 229.715 94.5281 229.696 94.8455 229.681C96.4417 229.6 96.9447 229.575 97.0767 229.232C97.2381 228.544 97.2381 227.828 97.0767 227.14C97.0318 226.934 96.9947 226.794 96.9666 226.688C96.8939 226.415 96.8821 226.371 96.9576 226.006C97.6756 222.637 97.4044 221.204 97.2228 220.245C97.0926 219.556 97.0083 219.111 97.3682 218.37C98.1048 216.855 98.5201 215.313 97.2492 214.205C97.0944 214.041 96.9941 213.833 96.9619 213.61C96.9298 213.386 96.9674 213.159 97.0695 212.958C98.7756 203.217 99.2094 202.181 100.422 199.285C101.114 197.632 102.06 195.373 103.641 190.544C107.134 179.871 104.376 173.819 102.768 170.293C102.149 168.934 101.7 167.948 101.847 167.22C102.214 165.41 104.205 163.159 108.357 158.781C108.636 158.485 108.881 158.222 109.098 157.989C110.048 156.969 110.471 156.516 110.949 156.448C111.332 156.393 111.75 156.587 112.505 156.937C112.955 157.145 113.524 157.41 114.277 157.71C114.826 157.925 115.304 158.113 115.721 158.277L115.724 158.28C117.91 159.141 118.398 159.335 118.652 159.168C118.726 159.121 118.779 159.042 118.848 158.942L118.849 158.941L118.88 158.897L118.902 158.865C119.186 158.466 119.48 158.043 119.722 157.692L119.724 157.689H119.725C120.032 157.244 120.26 156.916 120.288 156.897C120.539 156.729 120.755 156.583 120.942 156.456C122.075 155.691 122.108 155.669 122.22 155.933C134.301 184.619 141.196 183.005 177.959 152.677C178.213 152.466 178.276 152.708 178.401 153.183C178.617 154.007 179.018 155.54 180.934 156.639C181.244 156.869 181.604 157.028 181.983 157.104C182.363 157.179 182.754 157.169 183.13 157.074C183.506 156.98 183.856 156.804 184.155 156.558C184.455 156.311 184.695 156.003 184.861 155.652C185.102 155.157 185.274 154.742 185.414 154.403C185.833 153.391 185.966 153.069 186.805 153.368C186.973 153.429 187.158 153.496 187.362 153.568H187.363C189.068 154.181 192.048 155.251 196.801 156.759C204.193 159.108 207.352 152.024 197.016 144.893L197.001 144.88ZM66.5924 82.911C67.0327 81.959 68.2453 81.6115 68.4167 81.7817C68.5012 81.8674 68.1977 82.7634 67.6944 82.8206C67.3695 82.8586 67.2719 83.2561 67.6575 83.4025C67.7045 83.4203 67.7692 83.4269 67.8364 83.4336C67.9666 83.4467 68.1061 83.4608 68.1454 83.5596C68.1599 83.5958 68.1824 83.6437 68.2082 83.6984C68.3182 83.9315 68.488 84.2916 68.356 84.4342C68.0841 84.5608 67.7755 84.5846 67.4874 84.5012C67.1993 84.4179 66.9511 84.233 66.7888 83.9808C66.6813 83.8271 66.6081 83.6519 66.5742 83.4673C66.5403 83.2828 66.5465 83.093 66.5924 82.911ZM67.5444 86.1526C67.0613 86.0336 66.5639 85.241 67.0684 85.2006C67.5599 85.1542 67.8927 85.1058 68.1237 85.0722C68.4846 85.0197 68.597 85.0034 68.6761 85.0875C68.9617 85.3886 69.2711 86.0395 69.1295 86.0514C68.6097 86.1738 68.0734 86.2092 67.542 86.1561L67.5444 86.1526ZM68.782 88.1791C68.6259 88.1881 68.47 88.1597 68.3268 88.0967C68.1838 88.0336 68.0578 87.9374 67.9591 87.8162C67.8604 87.695 67.7918 87.5521 67.759 87.3992C67.7263 87.2463 67.7302 87.0879 67.7705 86.9368C67.8408 86.8181 68.0401 86.7922 68.1807 86.7737C68.1994 86.7714 68.2172 86.769 68.2334 86.7666L68.4361 86.7374C69.1715 86.6312 69.4883 86.5854 69.6864 86.7166C70.0804 86.9793 70.3331 86.876 70.6784 86.7348C70.9588 86.6202 71.3004 86.4805 71.8284 86.4917C72.2913 86.5012 72.5424 86.9046 72.2497 87.1522C71.2155 87.8183 70.0122 88.1746 68.782 88.1791ZM73.7455 87.9411C73.0836 88.4582 72.3645 88.8974 71.6023 89.2501C71.3078 89.367 70.9896 89.4114 70.6744 89.3795C70.3591 89.3476 70.0563 89.2404 69.7911 89.0669C69.4199 88.7748 69.8155 88.6704 70.4458 88.504C70.9406 88.3733 71.5797 88.2045 72.1057 87.8769C72.5559 87.5176 73.13 87.3511 73.7027 87.414C74.2168 87.5532 73.9895 87.7912 73.7503 87.9411H73.7455ZM82.4182 87.6496C80.2623 87.608 78.718 87.5927 77.6025 87.5816C74.7584 87.5534 74.7014 87.5528 74.3988 87.2152C74.2461 87.0414 74.0471 86.9146 73.8249 86.8499C73.6027 86.7852 73.3667 86.7852 73.1446 86.8499C73.0369 86.8563 72.9624 86.7071 72.8707 86.5235L72.8411 86.4643C72.6533 86.0897 72.2887 86.0725 71.9781 86.0577C71.8497 86.0517 71.7305 86.0461 71.6368 86.0157C71.4595 85.9586 71.3715 85.7646 71.4143 85.2363C71.444 84.8662 71.7618 84.9911 72.1009 85.1589C72.634 85.4243 74.1906 85.5921 74.2846 85.0709C74.3098 84.929 74.1207 84.892 73.8042 84.8299C73.2233 84.716 72.2131 84.518 71.3096 83.4334C70.2843 82.2015 70.4356 83.1973 70.6069 84.3234C70.6653 84.7083 70.7261 85.1082 70.7431 85.4398C70.7684 85.5789 70.7442 85.7224 70.6746 85.8454C70.605 85.9685 70.4945 86.0633 70.3623 86.1133C70.0898 86.2002 69.6733 85.5278 69.5555 85.3374C68.7427 84.0117 68.4179 83.2263 69.1759 82.2291C69.6435 81.5515 70.3082 81.0344 71.0799 80.7476C71.9762 80.4884 72.7688 81.3764 73.387 82.0692L73.3877 82.0699C73.5382 82.2385 73.6786 82.396 73.8074 82.5219L73.8459 82.5597C73.952 82.6642 74.0272 82.7382 74.1167 82.7657C74.3342 82.8326 74.6365 82.6241 75.6738 81.9083L75.6749 81.9076C76.1616 81.5718 76.8098 81.1245 77.6868 80.5417C78.0857 80.2767 78.4341 80.0407 78.7391 79.8341L78.7396 79.8337C80.863 78.3953 80.8792 78.3844 81.1747 79.9336C81.7948 82.4212 82.659 84.8415 83.7546 87.1593C83.964 87.6329 83.7129 87.6758 82.423 87.6508L82.4182 87.6496ZM137.545 119.724C137.566 119.614 137.581 119.507 137.594 119.412C137.685 118.754 137.701 118.645 139.1 121.88C140.409 124.894 143.576 132.611 144.63 135.724C144.641 135.912 144.602 135.924 144.242 136.036C143.234 136.347 139.719 137.431 127.795 145.316C126.612 146.098 126.649 146.033 127.633 144.308C128.616 142.585 130.545 139.204 133.15 133.353C136.607 125.601 136.827 124.192 137.214 121.706C137.303 121.134 137.401 120.503 137.55 119.725L137.545 119.724ZM133.514 112.108C133.157 112.45 133.028 112.413 132.823 112.354C132.658 112.307 132.442 112.245 132.02 112.356C131.49 112.498 131.202 112.317 130.919 112.139C130.598 111.937 130.281 111.738 129.623 112.023C128.947 112.316 128.694 112.056 128.411 111.764C128.111 111.457 127.777 111.114 126.879 111.35C126.798 111.371 126.717 111.396 126.637 111.421C126.521 111.457 126.404 111.493 126.284 111.517C124.889 111.798 125.771 109.871 126.542 108.185C127.08 107.011 127.564 105.953 127.188 105.84C126.85 105.738 126.449 106.608 126.114 107.334C125.883 107.835 125.684 108.267 125.558 108.266C125.428 108.174 125.326 108.049 125.261 107.905C125.195 107.76 125.169 107.601 125.184 107.443C125.203 107.177 125.28 106.918 125.407 106.684C125.669 106.271 125.876 105.91 126.056 105.596C126.645 104.566 126.941 104.047 127.944 103.901C130.989 103.46 131.596 103.274 132.091 102.463C132.277 102.16 132.355 102.189 133.988 102.921C134.096 102.969 134.182 103.057 134.226 103.167C134.372 103.806 135.114 104.364 135.689 104.797C135.905 104.96 136.098 105.105 136.226 105.231C136.643 105.625 136.687 109.061 133.518 112.105L133.514 112.108ZM133.203 80.5976C133.036 82.8347 133.08 85.117 133.125 87.4236C133.194 90.9868 133.265 94.6079 132.559 98.2096C132.49 98.5608 132.224 98.0761 131.131 96.0808C130.345 94.6474 129.134 92.434 127.26 89.1906C126.912 88.5891 127.047 88.2847 127.667 86.8917C127.939 86.2786 128.305 85.4549 128.765 84.3021C129.59 82.2393 129.942 80.922 130.155 80.1252C130.332 79.4624 130.413 79.1594 130.589 79.0867C130.738 79.0253 130.954 79.1272 131.351 79.3147L131.369 79.3232L131.606 79.4348C133.077 80.1262 133.237 80.2014 133.207 80.5953L133.203 80.5976ZM133.223 99.3271C134.025 99.5491 134.8 99.8592 135.534 100.252C135.606 100.34 135.472 100.521 135.333 100.71C135.271 100.793 135.209 100.878 135.161 100.957C135.121 101.026 135.083 101.091 135.048 101.151L134.964 101.297L134.963 101.298C134.659 101.821 134.58 101.959 134.38 102.02C134.234 102.064 134.075 101.984 133.9 101.897C133.825 101.859 133.746 101.82 133.666 101.789C133.512 101.73 133.37 101.677 133.241 101.628C131.935 101.139 131.837 101.102 132.742 99.4806C132.762 99.4372 132.791 99.3985 132.828 99.3668C132.864 99.3352 132.905 99.3112 132.95 99.2966C132.997 99.282 133.044 99.2768 133.092 99.2817C133.14 99.2866 133.186 99.3012 133.228 99.3247L133.223 99.3271ZM110.465 43.2816C113.559 39.9211 116.325 39.2975 120.893 39.4296C126.461 39.5923 128.299 41.7436 131.083 45.0036C131.274 45.2269 131.469 45.4555 131.67 45.689C134.059 48.4631 137.963 50.8467 142.093 53.3685C148.106 57.0401 154.6 61.0045 157.598 66.8936C159.991 71.5941 159.396 77.1109 157.717 81.3105C155.399 87.0943 150.891 91.3432 145.614 96.3164C143.977 97.8599 142.265 99.4733 140.521 101.224C140.387 101.358 140.297 101.444 140.058 101.256C139.373 100.605 138.606 100.047 137.776 99.596C137.364 99.4738 137.062 99.5496 136.782 99.62C136.492 99.6929 136.224 99.7601 135.88 99.596C135.044 99.2021 134.487 98.9536 134.118 98.7888C133.555 98.5374 133.429 98.481 133.411 98.4005C133.406 98.3773 133.41 98.3521 133.414 98.3196L133.416 98.3108C134.005 93.8001 134.056 90.0828 134.105 86.4717C134.164 82.1178 134.221 77.9182 135.217 72.6687C135.33 72.0737 134.826 71.9321 134.622 72.558C134.064 74.5546 133.669 76.5935 133.443 78.6544C133.365 78.9876 133.219 79.0471 132.836 78.8567C120.014 72.4789 114.731 66.2874 112.267 63.3991C111.209 62.1592 110.67 61.5279 110.277 61.7516C110.081 61.8647 110.187 62.3359 110.801 63.1213C114.894 68.3634 117.917 70.6974 119.464 71.8923C120.603 72.7722 120.942 73.0344 120.321 73.3851C118.492 74.2886 116.459 74.7002 114.423 74.5795C112.387 74.4585 110.417 73.8095 108.708 72.696C101.224 67.4362 103.542 50.7941 110.465 43.2816ZM91.987 57.6949C90.0116 55.7659 93.0461 49.5315 94.3992 47.994C94.506 48.1491 94.6223 48.3553 94.7466 48.5758C95.0679 49.1461 95.4434 49.812 95.8509 49.9373C96.2398 50.0565 96.0628 49.4408 95.7574 48.3783C95.4347 47.2556 94.9687 45.6343 94.8751 43.854C94.8697 43.7577 95.0795 43.7142 95.3801 43.6517C95.7968 43.5652 96.3884 43.4423 96.8232 43.0924C97.6478 42.4294 97.0266 42.5043 95.7473 42.6588C94.878 42.7637 93.7047 42.9055 92.4749 42.877C86.4702 42.7402 85.0898 40.6565 84.6364 36.213C84.6135 32.109 85.4557 28.0461 87.108 24.2892C87.3798 23.8975 87.7803 23.6133 88.2397 23.486C88.643 23.3232 89.0298 23.203 89.3407 23.1065C89.7636 22.975 90.0464 22.8872 90.0402 22.7946C90.0211 22.4864 89.7117 22.2317 88.8835 22.4673C88.7669 22.5004 88.6598 22.5342 88.563 22.5647C87.7542 22.8198 87.6695 22.8466 88.7526 20.3051C88.9425 19.8597 88.9993 19.8706 89.3031 19.9289C89.5837 19.9829 90.0749 20.0772 91.0767 19.8898C91.5551 19.8008 91.7462 20.0201 91.9669 20.2735C92.336 20.6971 92.7881 21.2158 94.8037 20.5479C95.5276 20.3082 95.7167 20.5825 95.9603 20.936C96.1364 21.1917 96.3411 21.4887 96.797 21.6629C97.7502 22.0469 98.8163 22.0406 99.7649 21.645C100.352 21.4086 100.679 21.6967 101.254 22.2034L101.255 22.2039C101.336 22.2757 101.423 22.3519 101.515 22.4316C102.567 23.3341 103.861 23.0592 104.713 22.8782C104.867 22.8456 105.006 22.816 105.127 22.797C105.597 22.7234 105.845 22.9145 106.247 23.2241C106.437 23.3703 106.662 23.5429 106.96 23.7264C107.797 24.2389 108.314 24.2024 108.616 24.1809C108.875 24.1626 108.975 24.1556 108.983 24.5153C109.055 27.7533 108.543 29.1016 106.666 31.879C106.478 32.1575 106.243 32.3182 106.19 32.0944C106.128 31.7347 105.982 31.3948 105.763 31.1029C105.543 30.8111 105.258 30.5758 104.929 30.4164C104.601 30.257 104.24 30.1782 103.875 30.1865C103.51 30.1948 103.152 30.29 102.831 30.4641C101.647 30.9973 101.271 32.3205 101.863 32.0421C102.385 31.5527 103.025 31.206 103.72 31.0353C105.267 30.7628 105.941 32.7953 104.672 34.0758C104.489 34.261 104.395 34.1174 104.239 33.8781C104.062 33.6082 103.806 33.2166 103.253 33.0369C102.42 32.7656 100.167 33.5974 100.863 35.4026C101.192 36.256 100.67 36.7222 100.129 37.2051C99.9094 37.4016 99.6862 37.6009 99.5161 37.8302C98.7498 38.862 99.9921 40.7541 102.661 37.9826C103.299 37.4102 103.805 36.7062 104.144 35.9191C104.374 35.3203 104.444 35.427 106.19 38.0882C106.598 38.711 107.098 39.4734 107.714 40.3994C107.875 40.641 108.008 40.8175 108.11 40.953C108.404 41.3417 108.443 41.3937 108.145 41.6787C106.366 43.1858 104.812 44.9394 103.53 46.8861C103.38 47.1199 102.841 47.7657 102.182 48.5563L102.182 48.557L102.181 48.5578C101.498 49.3775 100.684 50.3525 100.04 51.1856C99.5503 51.8182 99.0618 52.4878 98.5766 53.1527C96.1963 56.4146 93.8978 59.5643 91.987 57.6949ZM101.527 35.0218C101.408 34.5018 101.587 33.9758 102.536 33.72C103.41 33.482 103.743 34.0603 103.666 35.1373C103.541 36.8651 100.432 39.1547 100.109 38.6561C99.9291 38.3791 100.047 38.2622 100.409 37.904C100.622 37.693 100.92 37.3984 101.292 36.9377C101.496 36.6675 101.626 36.348 101.667 36.0116C101.709 35.675 101.66 35.3336 101.527 35.0218ZM76.1695 228.607C74.3794 228.399 72.6386 227.884 71.0228 227.085C69.1816 226.043 69.2053 225.719 69.2923 224.529L69.2997 224.428C69.3235 224.104 69.4508 224.032 69.7412 224.163C70.3487 224.435 70.8267 224.691 71.2711 224.929C73.1609 225.942 74.4439 226.63 82.4932 226.82C88.2089 226.956 91.593 226.757 93.601 226.639C96.2841 226.482 96.5104 226.469 96.5602 227.589C96.5657 227.714 96.5735 227.826 96.5804 227.928C96.6306 228.657 96.6427 228.831 95.5285 228.898C94.9323 228.931 81.8423 229.488 76.1695 228.607ZM98.2179 202.926C97.0431 207.436 96.6442 210.164 96.3814 211.959C96.1047 213.853 95.9786 214.713 95.2559 215.54C93.2841 217.801 90.4245 218.382 89.2203 217.601C86.8757 216.08 86.9599 213.587 87.0795 210.046C87.1542 207.835 87.2426 205.214 86.7629 202.167C86.6513 201.455 86.6987 201.463 87.8287 201.673C88.3604 201.772 89.1317 201.914 90.2389 202.048C92.2136 202.285 93.978 202.356 95.3428 202.412C97.2028 202.487 98.3208 202.531 98.2179 202.926ZM103.605 186.497C102.329 191.439 100.77 196.305 98.9342 201.067C98.718 201.669 98.6158 201.665 98.0526 201.642L97.9525 201.638C96.852 201.513 95.321 201.403 93.7381 201.288C90.2971 201.04 86.6102 200.773 86.5654 200.296C85.702 195.086 84.5095 189.937 82.9954 184.878C82.8108 184.257 82.9798 184.317 83.8352 184.615C84.6732 184.907 86.1698 185.429 88.6384 185.767C96.7905 186.885 100.721 186.337 102.451 186.096C103.54 185.943 103.756 185.914 103.605 186.497ZM118.488 158.07C118.068 158.752 110.382 154.87 106.833 153.077L106.826 153.073C106.21 152.763 105.719 152.515 105.414 152.365L105.311 152.315C105.067 152.197 104.933 152.132 104.875 152.025C104.804 151.895 104.846 151.702 104.942 151.274C105.076 150.673 105.313 149.606 105.484 147.592L105.485 147.574C105.563 146.656 105.709 144.93 105.047 145.569C103.546 147.015 102.588 148 101.945 148.663C101.03 149.603 100.749 149.894 100.441 149.925C100.304 149.939 100.162 149.902 99.9562 149.847C99.8821 149.828 99.7997 149.807 99.7066 149.784C94.2837 148.68 88.9632 147.121 83.801 145.126L83.7966 145.125C83.6271 145.055 83.5247 145.012 83.4859 144.937C83.4263 144.822 83.5162 144.629 83.7442 144.141C83.8956 143.817 84.1076 143.364 84.377 142.717C84.635 142.096 84.6416 142.098 86.0396 142.645C87.6073 143.259 90.9248 144.559 98.3083 146.431C98.909 146.584 99.011 146.513 100.654 145.362C101.289 144.918 102.154 144.312 103.367 143.496C103.863 143.163 107.392 140.819 107.625 140.694C107.649 140.681 107.672 140.668 107.695 140.656C108.206 140.365 108.402 140.255 109.341 148.051C109.394 148.499 109.41 148.793 109.422 149.02C109.452 149.565 109.461 149.726 109.919 150.684C110.199 151.27 118.594 154.362 120.109 154.92H120.11C120.258 154.975 120.34 155.005 120.342 155.006C119.789 156.065 119.17 157.088 118.488 158.07ZM120.102 153.841C118.167 153.133 116.497 152.556 115.125 152.082L115.124 152.081C112.314 151.111 110.751 150.571 110.718 150.211C110.59 148.855 109.901 144.747 109.218 141.747L109.206 141.692C108.64 139.209 108.622 139.13 102.088 143.207C100.814 144.002 100.078 144.586 99.5848 144.977C98.8413 145.567 98.6515 145.718 98.006 145.488C92.3347 143.477 89.0802 142.516 87.2563 141.977C85.6443 141.499 85.1499 141.354 85.0922 141.105C85.0667 140.996 85.1268 140.866 85.2134 140.679C85.2301 140.644 85.2477 140.606 85.2659 140.565C89.2914 131.233 94.075 122.248 99.5685 113.697C100.369 112.482 110.39 108.461 122.24 107.026C122.771 106.962 123.184 106.903 123.504 106.858L123.505 106.858C124.197 106.759 124.459 106.722 124.537 106.825C124.585 106.887 124.564 107 124.534 107.182C124.528 107.216 124.52 107.253 124.514 107.292C124.385 108.082 124.68 108.401 124.919 108.66C125.12 108.877 125.281 109.052 125.118 109.425C124.635 110.53 124.36 111.287 124.923 111.933C125.537 112.636 126.16 112.459 126.834 112.122C127.271 111.905 127.597 112.192 127.957 112.509C128.411 112.908 128.919 113.354 129.766 112.894C130.159 112.68 130.391 112.863 130.66 113.074C130.987 113.331 131.367 113.631 132.158 113.305C132.36 113.221 132.529 113.276 132.71 113.334C133.027 113.436 133.376 113.549 133.996 112.948C134.305 112.649 134.576 112.318 134.808 112.034C135.308 111.422 135.628 111.031 135.754 111.66L135.806 111.922L135.864 112.204L135.868 112.225L135.869 112.23C137.439 119.985 138.211 123.799 121.392 153.384C120.956 154.154 120.95 154.151 120.133 153.853L120.102 153.841ZM123.874 150.859C125.724 147.71 125.96 147.307 126.311 147.074C126.363 147.04 126.416 147.009 126.478 146.975L126.523 146.948C131.768 143.952 135.514 141.791 138.194 140.246L138.195 140.245C144.001 136.896 144.796 136.437 144.982 136.616C145.012 136.644 145.027 136.688 145.043 136.741C145.05 136.763 145.059 136.788 145.068 136.813C145.187 137.103 146.02 139.431 146.165 139.846C146.343 140.362 146.336 140.364 145.052 140.942C143.56 141.615 140.346 143.062 133.7 146.986C128.972 149.773 125.795 152.026 123.915 153.359C121.775 154.875 121.313 155.202 122.158 153.773C122.848 152.603 123.411 151.645 123.874 150.859ZM159.824 165.496C158.697 166.305 154.282 152.773 153.916 151.335L153.913 151.324C153.853 151.087 153.812 150.929 153.861 150.806C153.959 150.558 154.422 150.452 155.819 150.133C157.241 149.809 159.631 149.264 163.593 148.122C163.946 148.021 163.967 148.109 164.072 148.555C164.156 148.911 164.294 149.494 164.695 150.389C167.003 155.543 168.049 156.687 168.885 157.601C169.087 157.823 169.278 158.031 169.47 158.28C168.892 158.996 161.3 164.438 159.981 165.384H159.98L159.824 165.496ZM170.908 157.3L170.898 157.307C170.259 157.837 170.227 157.863 169.729 157.193C167.775 154.378 166.079 151.391 164.665 148.268C164.512 147.848 164.522 147.844 165.589 147.539C166.332 147.324 167.59 146.963 169.663 146.209C171.448 145.56 172.599 145.074 173.401 144.735C175.244 143.957 175.257 143.951 176.916 144.502C177.828 144.837 178.61 145.451 179.153 146.256C179.696 147.061 179.972 148.017 179.941 148.987C179.941 149.064 179.941 149.137 179.942 149.203C179.945 149.44 179.946 149.615 179.903 149.779C179.784 150.235 179.315 150.6 177.535 151.987C176.199 153.027 174.126 154.642 170.908 157.3ZM182.851 135.422C182.966 135.309 183.108 135.224 183.264 135.177C183.418 135.129 183.583 135.12 183.742 135.148C184.199 135.207 184.637 135.364 185.027 135.608C185.417 135.853 185.751 136.178 186.003 136.563C189.648 140.908 192.165 142.535 194.569 144.089C196.261 145.182 197.896 146.239 199.827 148.181C200.99 149.35 203.873 153.389 202.375 153.743C201.03 154.065 199.836 152.756 198.066 150.816C196.559 149.165 194.636 147.058 191.848 145.109C186.449 141.334 183.903 138.602 183.089 136.898C182.701 136.091 182.656 135.671 182.851 135.422ZM198.026 155.105C197.254 154.452 196.63 153.752 195.913 152.946C194.928 151.839 193.767 150.535 191.805 148.889C191.394 148.544 190.853 148.162 190.219 147.716C187.75 145.973 183.874 143.237 180.786 137.809C180.531 137.363 180.713 137.187 181.482 136.443L181.637 136.293C181.686 136.245 181.737 136.196 181.79 136.143C181.963 135.975 181.986 136.044 182.083 136.341C182.212 136.736 182.473 137.534 183.398 138.71C185.703 141.317 188.331 143.62 191.219 145.562C194.383 147.891 196.213 150.019 197.596 151.629C199.254 153.558 200.272 154.742 202.181 154.636C202.31 154.629 202.419 154.614 202.507 154.602C202.695 154.576 202.79 154.563 202.776 154.663C202.573 156.172 200.42 157.119 198.026 155.1V155.105ZM101.514 69.7339C103.628 77.551 111.127 82.0575 123.739 77.0167C124.519 76.7049 124.883 76.5883 124.855 76.9441L124.854 76.953C124.838 77.1629 124.829 77.2868 124.226 77.626C121.67 78.8879 118.916 79.7018 116.085 80.0322C104.482 81.3959 99.3876 73.217 100.079 62.626C100.425 58.641 101.329 54.7242 102.764 50.9902C102.796 50.9381 102.846 50.8991 102.904 50.8801C102.963 50.8611 103.026 50.8634 103.083 50.8863C103.14 50.9094 103.187 50.9518 103.215 51.006C103.244 51.0603 103.253 51.123 103.24 51.183C103.155 51.492 103.039 51.8769 102.903 52.3279C101.871 55.7519 99.6898 62.9855 101.514 69.7339ZM184.667 149.017C184.661 149.126 184.512 149.23 184.257 149.406C184.114 149.504 183.938 149.626 183.736 149.785C184.688 150.462 192.701 153.257 191.216 152.194C189.816 151.475 188.467 150.659 187.181 149.752C186.874 149.539 187.151 149.366 187.42 149.199C187.687 149.033 187.946 148.873 187.627 148.681C185.452 147.373 184.249 146.477 183.503 145.921C182.836 145.425 182.537 145.2 182.234 145.199C181.986 145.198 181.737 145.348 181.282 145.619C181.154 145.696 181.01 145.783 180.844 145.879C180.599 146.021 180.441 146.164 180.999 146.547C182.254 147.408 183.139 147.94 183.724 148.292C184.395 148.695 184.674 148.862 184.667 149.017ZM84.8054 222.693H84.8067C87.1118 221.471 87.6468 221.187 87.5519 221.774C87.504 222.073 87.4506 222.304 87.4096 222.481C87.2991 222.957 87.2772 223.051 87.6899 223.057C90.191 222.318 91.5691 221.717 92.3434 221.38C92.9058 221.135 93.1497 221.029 93.2737 221.109C93.3684 221.17 93.3931 221.34 93.4368 221.64L93.44 221.661L93.4615 221.808L93.4857 221.968C93.6183 222.85 93.6334 222.951 93.2115 223.055C91.2408 223.54 89.8174 223.891 88.7872 224.146L88.7334 224.159L88.7281 224.16L88.7269 224.161H88.7251H88.7221L88.7174 224.163C86.1697 224.792 86.0899 224.812 86.0192 224.795L86.0096 224.792C85.7935 224.735 85.8365 224.483 85.8791 224.232C85.9335 223.912 85.9873 223.596 85.5039 223.69C84.4296 223.983 83.3331 224.186 82.2254 224.298C82.1978 224.298 82.1712 224.289 82.15 224.271C82.1288 224.253 82.1144 224.228 82.1093 224.202C82.1043 224.175 82.1088 224.146 82.1222 224.122C82.1356 224.098 82.1569 224.079 82.1826 224.069C83.2415 223.522 84.1051 223.064 84.8054 222.693ZM135.559 102.732C135.535 102.816 135.529 102.904 135.541 102.991C135.562 103.15 135.643 103.295 135.767 103.396C135.891 103.498 136.048 103.549 136.209 103.54C136.368 103.53 136.518 103.461 136.629 103.345C136.741 103.229 136.804 103.076 136.806 102.916C136.807 102.829 136.791 102.742 136.757 102.661C136.724 102.58 136.674 102.507 136.611 102.447C136.548 102.386 136.473 102.339 136.391 102.309C136.307 102.279 136.221 102.266 136.132 102.271C136.046 102.276 135.96 102.299 135.883 102.339C135.804 102.379 135.735 102.434 135.68 102.502C135.624 102.569 135.583 102.648 135.559 102.732ZM136.871 101.626C136.799 101.634 136.725 101.627 136.656 101.605C136.586 101.583 136.522 101.547 136.467 101.499C136.412 101.451 136.368 101.392 136.337 101.326C136.305 101.26 136.288 101.188 136.286 101.115C136.284 101.042 136.297 100.97 136.324 100.902C136.351 100.834 136.392 100.773 136.444 100.722C136.497 100.671 136.558 100.631 136.626 100.605C136.695 100.579 136.768 100.567 136.84 100.571C136.913 100.563 136.987 100.57 137.056 100.592C137.126 100.614 137.19 100.65 137.245 100.698C137.3 100.746 137.344 100.805 137.375 100.871C137.407 100.937 137.424 101.009 137.426 101.082C137.428 101.155 137.415 101.227 137.388 101.295C137.361 101.363 137.32 101.424 137.268 101.475C137.215 101.526 137.153 101.566 137.086 101.592C137.017 101.618 136.944 101.63 136.871 101.626ZM137.339 104.996C137.496 105.16 137.713 105.256 137.94 105.261C138.057 105.263 138.173 105.243 138.282 105.199C138.39 105.156 138.489 105.091 138.571 105.008C138.653 104.926 138.718 104.827 138.761 104.719C138.804 104.61 138.825 104.494 138.822 104.378C138.825 104.267 138.805 104.156 138.764 104.053C138.722 103.95 138.66 103.856 138.58 103.778C138.502 103.7 138.408 103.639 138.304 103.599C138.199 103.559 138.089 103.54 137.978 103.545C137.751 103.54 137.531 103.625 137.365 103.782C137.201 103.94 137.106 104.156 137.101 104.384C137.096 104.611 137.182 104.831 137.339 104.996ZM138.586 102.859C138.493 102.863 138.402 102.848 138.315 102.815C138.229 102.783 138.15 102.733 138.083 102.669C138.016 102.605 137.964 102.528 137.927 102.443C137.891 102.358 137.872 102.267 137.872 102.174C137.872 102.082 137.891 101.99 137.927 101.905C137.964 101.82 138.016 101.743 138.083 101.68C138.15 101.616 138.229 101.566 138.315 101.533C138.402 101.5 138.493 101.485 138.586 101.489C138.679 101.485 138.771 101.5 138.858 101.533C138.943 101.566 139.023 101.616 139.09 101.68C139.156 101.743 139.209 101.82 139.245 101.905C139.281 101.99 139.3 102.082 139.3 102.174C139.3 102.267 139.281 102.358 139.245 102.443C139.209 102.528 139.156 102.605 139.09 102.669C139.023 102.733 138.943 102.783 138.858 102.815C138.771 102.848 138.679 102.863 138.586 102.859ZM139.637 103.033C139.57 103.074 139.513 103.128 139.468 103.192C139.393 103.312 139.366 103.455 139.392 103.594C139.418 103.733 139.497 103.856 139.61 103.94C139.724 104.023 139.865 104.06 140.006 104.043C140.146 104.026 140.275 103.956 140.365 103.848C140.446 103.732 140.484 103.591 140.471 103.45C140.457 103.31 140.394 103.178 140.293 103.079C140.232 103.03 140.162 102.993 140.087 102.972C140.012 102.95 139.933 102.945 139.856 102.955C139.779 102.966 139.704 102.992 139.637 103.033Z" fill="#D9D9D9"/>
<path d="M93.8613 35.3252C92.2798 35.7488 89.6487 36.3759 88.141 35.3383C87.7483 35.0669 87.5817 35.5156 88.0054 35.8583C89.3203 36.9233 92.0989 36.5199 93.1223 36.2665C93.5983 36.1475 92.6773 38.2895 89.1573 39.746C88.6908 39.9388 89.1347 40.3184 90.2152 39.9162C94.166 38.443 94.8217 35.0681 93.8613 35.3252Z" fill="#D9D9D9"/>
<path d="M90.3495 32.5833C91.8893 32.7916 92.407 32.688 92.5462 32.4096C92.6533 32.1942 92.3308 31.9455 91.7489 31.8265C89.0833 31.2791 89.2951 32.1335 91.098 26.6428C91.3681 25.8205 90.7957 25.7289 90.4625 26.5238C88.5561 31.0982 87.8826 32.2489 90.3495 32.5833Z" fill="#D9D9D9"/>
<path d="M101.286 24.7952C105.903 25.9781 108.94 26.8289 108.248 26.2803C107.276 25.508 100.899 23.2565 100.738 24.3311C100.696 24.6143 101.031 24.7298 101.286 24.7952Z" fill="#D9D9D9"/>
<path d="M100.845 26.7073C100.845 27.0262 100.782 26.9191 105.817 28.2876C110.414 29.5383 100.845 25.3471 100.845 26.7073Z" fill="#D9D9D9"/>
<path d="M93.4531 23.9251C94.0338 24.0441 95.6201 23.5967 96.4447 24.5415C96.7684 24.9116 97.2516 24.4071 96.6708 23.6954C95.2916 22.0056 92.2881 23.6883 93.4531 23.9251Z" fill="#D9D9D9"/>
<path d="M101.004 28.5664C100.279 29.1162 101.308 29.1947 103.437 29.4101C104.363 28.9175 101.251 28.3784 101.004 28.5664Z" fill="#D9D9D9"/>
<path d="M88.9145 26.9558C89.0001 26.5821 89.0001 26.0133 88.5444 26.0335C87.9375 26.0609 87.6995 27.1938 88.0481 27.5294C88.298 27.765 88.774 27.5746 88.9145 26.9558Z" fill="#D9D9D9"/>
<path d="M93.998 26.7429C93.3781 26.6679 93.0913 28.1709 93.7303 28.2625C94.3693 28.3541 94.7489 26.8333 93.998 26.7429Z" fill="#D9D9D9"/>
<path d="M17.2395 24.3082C15.1974 23.6144 15.0546 20.6549 25.2755 20.9226C26.0645 20.9429 26.0193 20.9048 25.7432 20.4347C24.9102 18.9972 24.8174 14.7501 32.9939 17.3514C36.3651 18.4224 35.9594 18.714 35.9891 16.4768C36.0593 11.2837 39.665 7.69581 43.5194 10.7446C44.788 11.8559 45.8203 13.2107 46.5551 14.7287C46.9252 15.3534 46.8955 15.069 48.358 13.5018C52.1029 9.49152 59.306 7.80767 60.5317 12.7878C61.1386 15.2511 59.1953 17.9571 60.0735 17.643C62.6118 16.7386 66.6566 15.8675 67.8597 18.2773C68.4547 19.4768 67.4241 20.6656 67.229 21.0214C67.7395 21.2772 69.9338 21.1797 71.632 22.4899C72.3626 23.0527 72.5304 23.9488 71.632 24.2903C68.6629 25.422 18.7615 24.827 17.2395 24.3082ZM65.0025 23.944C65.0025 23.8714 77.3785 24.42 68.0108 22.0531C65.0429 21.3034 65.5594 21.9793 66.6352 20.1491C67.2016 19.1852 67.1195 18.1928 65.8188 17.9048C62.5035 17.1717 59.6106 19.1448 59.0001 19.1721C57.7625 19.2281 58.6538 17.7072 59.2952 15.6307C60.8958 10.4423 56.0823 9.27018 51.2354 12.4248C46.9514 15.2201 47.4333 18.1071 45.7685 15.3106C44.5928 13.334 43.9324 11.9072 42.1128 10.9302C40.3862 10.0044 38.3667 10.5732 37.379 13.9326C36.3913 17.2919 37.9348 20.0135 35.0454 18.9913C31.1637 17.6192 29.4179 16.9909 27.1081 17.5633C26.3049 17.7608 25.8455 19.359 26.7285 20.3978C26.9023 20.6037 27.0962 20.7965 27.2593 21.0083C28.46 22.5779 20.3466 21.1523 17.5322 22.6648C14.2085 24.4474 23.7999 23.944 65.0025 23.944Z" fill="#D9D9D9"/>
<path d="M143.846 35.1552C144.767 31.7411 156.677 32.4075 157.367 32.2992C157.552 32.2719 157.525 32.166 157.428 32.0065C157.091 31.5081 156.859 30.9463 156.747 30.3555C156.634 29.7647 156.643 29.1571 156.773 28.5698C157.153 27.1418 158.544 26.0006 161.93 26.2088C166.651 26.4992 171.247 29.4563 171.314 28.2318C171.349 27.5892 171.406 26.9478 171.409 26.304C171.439 20.216 175.217 14.7301 180.403 17.2077C181.267 17.6206 181.117 17.7586 181.289 16.978C184.699 1.56274 206.684 2.75036 209 17.7087C210.054 24.5178 206.709 26.9466 207.866 26.805C208.104 26.7753 212.965 25.69 215.176 27.7665C216.216 28.7435 216.275 30.256 214.947 32.2885C214.815 32.4908 214.872 32.5539 215.144 32.5991C215.614 32.6765 219.916 33.0394 221.459 34.9672C222.275 35.9871 221.787 36.964 220.568 37.1735C213.656 38.3635 159.834 37.8399 147.662 37.2437C146.733 37.2032 143.321 37.0985 143.846 35.1552ZM190.753 31.9779C192.876 32.7697 195.171 32.9845 197.404 32.6003C199.637 32.2161 201.729 31.2468 203.465 29.7911C205.201 28.3354 206.521 26.4454 207.289 24.3138C208.056 22.182 208.245 19.8848 207.836 17.6563C205.419 4.61509 187.1 3.39653 183.007 15.9379C181.987 19.0952 182.224 22.5239 183.667 25.5112C185.11 28.4986 187.65 30.8146 190.757 31.9779H190.753ZM145.153 35.1053C144.069 36.1049 147.077 36.3905 153.202 36.5333C184.763 37.2473 216.391 36.8296 219.656 36.3357C220.901 36.1477 221.497 35.7621 219.278 34.7959C217.718 34.1222 216.073 33.6623 214.389 33.4286C213.012 33.1727 212.867 33.1656 213.598 32.2588C213.998 31.8667 214.294 31.3813 214.461 30.8463C214.627 30.3111 214.657 29.7431 214.55 29.1933C214 27.3048 210.139 27.0906 206.807 28.3092C205.955 28.621 201.657 34.8363 193.548 34.0343C187.928 33.4785 182.404 29.2362 181.088 21.7856C180.753 19.8816 181.254 19.2235 180.603 18.8177C178.333 17.4028 176.363 17.6456 174.8 19.4365C172.017 22.6269 172.848 27.7487 172.311 29.3385C171.612 31.4079 166.837 27.6214 162.033 27.2774C159.714 27.112 157.845 27.5476 157.886 29.8752C157.905 30.3954 158.043 30.9041 158.291 31.3619C158.539 31.8197 158.889 32.2142 159.314 32.5146C159.767 32.8978 159.064 33.2084 158.766 33.2203C154.977 33.2395 151.194 33.5178 147.443 34.0533C146.602 34.2005 145.813 34.5629 145.153 35.1053Z" fill="#D9D9D9"/>
</svg>
