<svg width="314" height="314" viewBox="0 0 314 314" fill="none" xmlns="http://www.w3.org/2000/svg">
<path d="M239.708 132.791C239.048 132.791 239.048 134.015 239.708 134.015C241.278 134.015 263.148 133.654 264.985 133.293C265.152 133.268 265.305 133.184 265.415 133.055C265.525 132.927 265.586 132.764 265.586 132.594C265.586 132.425 265.525 132.262 265.415 132.133C265.305 132.005 265.152 131.921 264.985 131.896C259.223 131.142 246.05 132.665 239.708 132.791ZM248.468 164.85C247.746 164.85 247.872 166.059 248.562 166.09C253.681 166.263 261.656 165.996 266.884 165.761C267.842 165.761 267.952 164.191 266.884 164.191C261.028 164.222 254.34 164.301 248.468 164.85ZM249.143 110.701C248.991 110.707 248.846 110.769 248.736 110.874C248.626 110.979 248.558 111.121 248.545 111.273C248.531 111.424 248.573 111.576 248.663 111.699C248.753 111.822 248.885 111.908 249.033 111.941C251.844 112.286 260.965 112.648 263.713 111.486C263.853 111.416 263.968 111.302 264.038 111.162C264.108 111.022 264.131 110.862 264.102 110.708C264.074 110.554 263.996 110.413 263.88 110.307C263.765 110.201 263.618 110.135 263.462 110.12C259.819 109.9 253.979 111.062 249.143 110.701ZM231.214 141.033C244.465 140.845 259.474 139.918 272.85 138.694C273.682 138.694 273.604 137.124 272.74 137.124C259.584 137.454 244.213 138.317 231.135 139.667C230.954 139.678 230.785 139.76 230.664 139.895C230.543 140.03 230.481 140.208 230.492 140.389C230.502 140.571 230.584 140.74 230.719 140.861C230.855 140.982 231.033 141.044 231.214 141.033ZM250.211 71.1053C253.9 70.8227 257.59 70.6029 261.201 70.1633C262.237 70.0534 261.97 68.5933 260.95 68.5933C257.276 68.8759 253.602 69.3469 249.96 69.7708C249.112 69.865 249.347 71.1681 250.211 71.1053ZM228.67 103.856C227.885 103.856 227.854 105.19 228.67 105.253C237.546 105.666 246.44 105.045 255.172 103.4C256.161 103.228 256.004 101.658 254.999 101.83C246.304 103.313 237.49 103.991 228.67 103.856ZM257.888 78.6256C259.254 78.9553 259.458 76.7259 258.202 76.9457C252.075 77.9392 245.864 78.3231 239.66 78.0918C238.828 78.0918 238.64 79.3007 239.488 79.3949C245.627 80.0112 251.822 79.7522 257.888 78.6256ZM223.882 140.295C222.657 139.824 217.005 140.609 215.42 140.782C214.65 140.782 214.619 142.022 215.42 142.007L221.841 141.802C224.808 141.693 224.793 140.656 223.882 140.295ZM230.366 208.229C229.047 207.915 219.674 208.622 218.136 208.716C217.319 208.716 217.476 209.972 218.293 209.956C219.957 209.956 229.079 209.956 230.523 209.501C231.167 209.281 230.947 208.355 230.366 208.229ZM218.12 201.588C222.532 201.792 233.459 201.981 237.871 200.929C237.974 200.928 238.075 200.905 238.169 200.863C238.263 200.82 238.347 200.759 238.416 200.682C238.484 200.605 238.536 200.514 238.568 200.416C238.599 200.318 238.61 200.214 238.599 200.112C238.588 200.009 238.555 199.91 238.504 199.821C238.452 199.732 238.382 199.654 238.299 199.594C238.215 199.533 238.12 199.491 238.02 199.469C237.919 199.448 237.815 199.447 237.714 199.469C231.261 199.469 225.279 200.552 218.308 200.269C217.476 200.238 217.257 201.541 218.12 201.588ZM233.349 173.673C234.291 173.501 234.213 172.103 233.223 172.103C226.253 172.81 224.793 172.983 217.649 173.265C216.958 173.265 216.88 174.458 217.649 174.506C222.897 174.854 228.167 174.575 233.349 173.673ZM243.02 163.798C234.479 164.112 225.609 165.557 216.691 165.871C216.532 165.895 216.387 165.976 216.282 166.098C216.177 166.221 216.119 166.376 216.119 166.538C216.119 166.699 216.177 166.855 216.282 166.977C216.387 167.1 216.532 167.18 216.691 167.205C224.086 167.205 235.987 166.86 243.193 165.258C243.343 165.192 243.468 165.079 243.55 164.936C243.631 164.793 243.665 164.628 243.645 164.464C243.626 164.301 243.555 164.148 243.442 164.028C243.33 163.908 243.182 163.828 243.02 163.798ZM272.112 204.383C271.987 204.383 263.367 205.089 261.892 205.042C261.752 205.067 261.624 205.137 261.527 205.24C261.43 205.344 261.369 205.476 261.353 205.617C261.337 205.758 261.367 205.901 261.439 206.024C261.51 206.146 261.62 206.242 261.75 206.298C263.509 206.628 270.919 206.753 272.442 205.466C272.519 205.381 272.572 205.278 272.597 205.167C272.622 205.056 272.618 204.94 272.585 204.831C272.551 204.721 272.49 204.623 272.408 204.544C272.325 204.466 272.223 204.41 272.112 204.383ZM274.891 170.141C264.011 170.847 251.859 171.256 241.026 172.182C240.179 172.182 240.336 173.454 241.152 173.501C247.008 173.673 267.842 172.606 275.033 171.695C275.135 171.687 275.235 171.659 275.327 171.612C275.418 171.565 275.499 171.5 275.565 171.421C275.631 171.342 275.68 171.25 275.71 171.152C275.74 171.053 275.75 170.95 275.739 170.847C275.719 170.642 275.619 170.452 275.46 170.32C275.302 170.188 275.097 170.123 274.891 170.141ZM234.024 134.439C234.232 134.439 234.432 134.356 234.579 134.209C234.726 134.062 234.809 133.862 234.809 133.654C234.809 133.446 234.726 133.246 234.579 133.099C234.432 132.952 234.232 132.869 234.024 132.869C227.257 133.042 220.428 133.089 213.614 133.607C213.468 133.64 213.337 133.721 213.243 133.838C213.149 133.955 213.098 134.101 213.098 134.251C213.098 134.401 213.149 134.546 213.243 134.663C213.337 134.78 213.468 134.862 213.614 134.894C220.459 135.02 227.257 134.659 234.024 134.439ZM260.793 197.82C258.406 197.82 249.803 198.432 247.762 198.793C247.102 198.903 247.008 199.987 247.762 200.018C249.975 200.128 258.532 199.578 261.012 199.359C261.97 199.39 261.766 197.82 260.793 197.82ZM256.208 206.628L236.473 207.884C235.578 207.884 235.798 209.25 236.677 209.202C240.508 209.03 252.833 208.543 256.287 208.072C257.056 207.978 257.072 206.628 256.208 206.628ZM242.078 70.1633C236.285 69.5039 218.104 70.6029 211.934 71.2309C211.086 71.3094 211.024 72.6282 211.934 72.5497C222.076 71.8903 231.952 71.6705 242.094 71.7019C242.271 71.6641 242.43 71.5662 242.543 71.4248C242.656 71.2835 242.717 71.1073 242.715 70.9262C242.713 70.7451 242.649 70.5702 242.533 70.4312C242.417 70.2921 242.256 70.1975 242.078 70.1633ZM243.758 112.538C244.747 112.396 244.386 110.968 243.397 110.968C233.292 112.119 223.125 112.643 212.955 112.538C212.807 112.561 212.673 112.637 212.576 112.75C212.479 112.864 212.426 113.008 212.426 113.158C212.426 113.307 212.479 113.452 212.576 113.565C212.673 113.679 212.807 113.754 212.955 113.778C223.239 114.273 233.547 113.858 243.758 112.538ZM233.098 79.6618C233.201 79.652 233.301 79.6218 233.393 79.573C233.485 79.5242 233.565 79.4577 233.631 79.3774C233.697 79.2971 233.746 79.2046 233.776 79.1052C233.805 79.0058 233.815 78.9015 233.804 78.7983C233.795 78.695 233.764 78.5947 233.716 78.5032C233.667 78.4116 233.6 78.3307 233.52 78.265C233.44 78.1993 233.347 78.1501 233.248 78.1204C233.148 78.0907 233.044 78.081 232.941 78.0918C226.017 78.9553 219.455 78.9867 212.625 79.5833C211.903 79.6618 211.824 80.8393 212.625 80.8707C219.47 80.9814 226.314 80.5773 233.098 79.6618ZM213.646 104.515C212.861 104.515 212.845 105.755 213.74 105.787C216.557 106.052 219.39 106.125 222.218 106.006C222.345 105.95 222.453 105.857 222.529 105.74C222.605 105.623 222.645 105.486 222.645 105.347C222.645 105.208 222.605 105.071 222.529 104.954C222.453 104.837 222.345 104.744 222.218 104.688C221.935 104.531 215.09 104.515 213.646 104.515ZM194.052 113.558C194.963 113.558 198.338 107.969 200.238 106.054C200.929 105.363 199.798 104.201 199.092 104.86C197.089 106.666 195.355 108.749 193.942 111.046L189.97 107.388C189.154 106.634 188.102 107.922 188.855 108.691C189.609 109.46 192.89 113.558 194.052 113.558ZM183.313 87.92C189.75 88.2968 196.438 88.1712 203.503 88.2183C204.006 88.2183 204.304 86.821 203.503 70.1476C203.503 68.9387 203.393 68.0438 203.378 67.7141C203.382 67.6655 203.375 67.6166 203.359 67.5706C203.343 67.5246 203.317 67.4825 203.284 67.4472C202.828 66.9605 199.861 66.9919 193.188 67.1646C181.963 67.4315 180.723 67.353 180.723 67.9967C180.676 68.1223 181.382 87.7316 183.313 87.92ZM183.753 86.7582C182.968 82.5663 182.403 73.7115 181.916 68.7503C186.485 69.0172 196.894 68.4991 202.137 68.3735C202.137 68.3735 202.42 82.3308 202.546 86.8367C196.391 86.6954 189.97 86.4599 183.69 86.6797L183.753 86.7582Z" fill="#D9D9D9"/>
<path d="M205.67 117.656C206.989 117.138 205.45 102.505 205.23 98.6588C205.22 98.5797 205.181 98.5072 205.12 98.4547C204.178 97.6383 184.255 98.7216 183.25 98.8001C182.246 98.8786 183.25 104.342 183.423 108.063C183.784 117.326 184.208 118.127 184.679 118.19C188.102 118.676 202.53 118.88 205.67 117.656ZM184.208 100.088C191.006 99.6479 197.898 99.6165 204.021 99.5851C204.178 103.259 204.43 113.605 204.744 116.4C198.345 117.062 191.906 117.245 185.48 116.949C185.747 114.61 184.444 102.741 184.208 100.088ZM196.988 139.73L200.63 136.433C200.736 136.254 200.783 136.045 200.764 135.837C200.744 135.63 200.66 135.434 200.522 135.277C200.385 135.12 200.201 135.011 199.998 134.965C199.794 134.919 199.582 134.938 199.39 135.02C197.899 135.939 196.545 137.065 195.371 138.364L192.105 135.35C191.928 135.185 191.693 135.098 191.452 135.107C191.21 135.115 190.982 135.22 190.818 135.397C190.653 135.574 190.566 135.809 190.575 136.05C190.584 136.292 190.688 136.52 190.865 136.684L194.005 139.824C191.179 142.807 189.939 144.676 190.221 145.523C190.504 146.371 191.524 145.994 191.791 145.618C192.89 144.267 194.13 142.729 195.465 141.3C196.788 142.744 198.256 144.049 199.845 145.194C200.009 145.236 200.182 145.234 200.344 145.186C200.507 145.139 200.654 145.049 200.77 144.925C200.886 144.801 200.966 144.649 201.002 144.483C201.038 144.318 201.029 144.145 200.976 143.985C199.794 142.435 198.458 141.01 196.988 139.73ZM197.82 72.4241C195.312 74.6173 193.263 77.2853 191.791 80.2741C190.609 78.8583 189.247 77.6023 187.741 76.5375C186.814 75.8938 185.621 77.1184 186.532 77.8092C188.323 79.392 189.996 81.1026 191.54 82.9274C191.948 83.3513 192.341 83.1315 192.686 82.6762C194.396 79.3452 196.505 76.2346 198.966 73.4132C199.72 72.5811 198.636 71.6548 197.82 72.4241ZM197.318 174.929C198.134 174.364 201.243 168.367 203.048 166.326C203.755 165.541 202.53 164.458 201.729 165.29C199.58 167.504 197.737 169.996 196.25 172.7L192.592 169.56C191.791 168.885 190.724 170.094 191.556 170.895C192.388 171.695 195.967 176.091 197.318 174.929ZM209.297 195.057C208.7 193.879 187.222 195.057 187.018 195.057C186.972 195.063 186.927 195.08 186.888 195.107C186.85 195.135 186.819 195.171 186.799 195.214C186.076 196.376 186.799 215.263 187.317 217.021C187.929 219.156 208.747 217.382 209.783 217.476C209.815 217.483 209.847 217.483 209.878 217.476C209.909 217.469 209.939 217.456 209.964 217.436C209.99 217.417 210.011 217.392 210.025 217.364C210.04 217.335 210.049 217.304 210.05 217.272C210.38 214.87 209.375 195.214 209.297 195.057ZM188.023 196.203C194.303 196.47 201.729 196.077 208.103 196.062C208.198 198.683 208.763 214.07 208.841 216.142C201.871 216.456 196.014 216.346 188.588 216.142C188.667 213.52 188.117 198.589 188.023 196.25V196.203Z" fill="#D9D9D9"/>
<path d="M195.606 206.377C196.721 206.377 202.42 206.769 202.875 206.518C202.995 206.45 203.098 206.355 203.175 206.24C203.252 206.126 203.302 205.995 203.32 205.858C203.339 205.721 203.325 205.582 203.28 205.451C203.236 205.321 203.162 205.202 203.064 205.105C202.232 204.226 196.972 204.414 196.093 204.587C194.9 204.807 194.68 205.262 194.711 205.607C194.753 205.817 194.864 206.007 195.026 206.146C195.188 206.285 195.393 206.367 195.606 206.377ZM197.726 160.297C192.576 160.391 187.16 160.58 186.265 160.642C185.919 160.642 185.558 160.941 185.511 164.206C185.511 168.116 186.186 180.503 187.756 180.613C190.896 180.848 207.13 180.911 209.218 180.754C209.548 180.754 209.815 180.754 209.218 172.59C208.888 168.383 208.151 160.737 208.151 160.737C208.088 160.423 208.056 160.14 197.726 160.297ZM206.973 161.679C207.35 167.535 207.554 173.532 208.182 179.42H188.212C187.599 173.752 187.191 167.912 186.751 161.914L206.973 161.679ZM189.97 151.458C196.344 151.458 207.005 150.594 207.099 150.547C208.104 150.029 207.099 135.852 206.769 129.792C206.769 128.709 201.227 128.693 196.627 128.866C194.617 128.866 184.632 129.399 184.663 130.828C185.197 151.85 185.072 150.83 185.464 151.05C186.933 151.433 188.456 151.571 189.97 151.458ZM186.657 149.888C186.296 143.702 186.171 137.14 185.919 131.048C192.439 130.469 198.985 130.249 205.529 130.389C205.529 132.539 205.953 146.842 206.22 149.229C203.896 149.386 189.091 149.495 186.704 149.904L186.657 149.888Z" fill="#D9D9D9"/>
<path d="M304.58 174.694C300.467 62.8 302.194 63.742 301.44 63.0826C300.372 62.0778 292.13 62.7372 290.105 62.8471L289.257 45.687C289.297 45.5835 289.312 45.4718 289.3 45.3613C289.288 45.2509 289.25 45.1449 289.188 45.0525C289.126 44.96 289.043 44.8838 288.946 44.8303C288.849 44.7767 288.74 44.7475 288.629 44.745C255.659 44.3368 221.731 46.5191 187.709 48.827C178.54 49.4707 169.01 50.0359 159.685 51.025C159.597 51.011 159.508 51.0165 159.423 51.0412C159.339 51.0658 159.26 51.109 159.194 51.1676C159.128 51.2262 159.076 51.2987 159.041 51.3799C159.007 51.4612 158.99 51.5491 158.994 51.6373C160.721 93.5563 165.745 161.318 174.427 236.348C174.521 237.211 181.68 236.458 188.117 236.034C188.202 237.881 188.534 239.708 189.106 241.466C190.048 242.659 306.511 235.437 306.37 230.476C305.867 211.84 305.192 192.969 304.58 174.694ZM295.757 223.647C254.466 229.927 217.335 231.685 175.871 235.265C167.66 164.128 164.285 115.332 160.171 52.124C172.92 51.3704 220.067 47.0372 288.173 46.1423C289.869 91.7822 296.18 218.623 295.709 223.647H295.757ZM98.6745 115.709C97.6069 115.709 97.6226 117.781 98.125 118.566C98.183 118.681 98.2734 118.777 98.385 118.841C98.4966 118.905 98.6245 118.935 98.753 118.928C99.7107 118.818 99.6636 115.819 98.6745 115.709ZM93.0696 124.784C93.7447 124.956 95.5659 125.066 95.9898 124.438C96.5864 123.559 94.9693 115.583 94.7652 115.018C94.7232 114.903 94.6416 114.806 94.535 114.745C94.4283 114.685 94.3036 114.664 94.1829 114.686C94.0623 114.709 93.9536 114.774 93.8762 114.869C93.7988 114.964 93.7578 115.084 93.7604 115.207C93.7604 116.635 94.4041 121.487 94.6553 123.512L93.0853 123.606C92.9705 123.655 92.8724 123.736 92.8029 123.84C92.7334 123.943 92.6956 124.065 92.6939 124.19C92.6922 124.315 92.7269 124.437 92.7936 124.542C92.8603 124.648 92.9562 124.732 93.0696 124.784ZM97.34 112.773C97.8047 112.646 98.2935 112.634 98.764 112.738C99.2344 112.842 99.6726 113.059 100.04 113.37C100.653 113.919 101.83 112.867 100.15 111.8C98.9414 110.983 96.1154 110.701 96.4137 112.145C96.4624 112.346 96.5842 112.522 96.7555 112.638C96.9268 112.754 97.1352 112.802 97.34 112.773Z" fill="#D9D9D9"/>
<path d="M143.372 169.843C133.277 159.889 115.112 148.192 98.7844 145.869C99.0548 144.935 99.0548 143.945 98.7844 143.011C100.027 141.972 101.183 140.833 102.238 139.604C104.484 136.967 104.436 134.392 101.234 135.695C104.374 128.756 104.374 113.715 103.243 105.269C108.503 108.55 117.373 105.394 116.29 98.9885C123.433 101.139 128.081 86.9466 119.006 84.3875C120.278 73.6487 106.525 72.0944 102.317 78.3587C99.9462 71.435 89.0504 75.0774 89.8354 80.5096C84.9213 75.2344 74.3081 77.0713 72.8323 83.6496C68.3892 79.6147 61.0573 81.326 61.701 87.2763C54.6674 84.0107 50.9465 92.4259 56.4101 95.1263C52.909 97.0103 53.0189 104.766 58.3883 104.766C58.3883 109.947 61.5283 121.816 69.2998 128.316C70.1319 135.585 68.6404 139.306 66.0499 146.041C40.4275 149.935 20.9752 169.921 12.246 194.711C2.29221 222.971 7.01791 249.661 36.5182 255.282C36.4568 259.053 36.015 262.809 35.1994 266.492C35.1847 266.631 35.2206 266.77 35.3005 266.885C35.3803 267 35.4989 267.082 35.6343 267.116C35.7698 267.15 35.9131 267.135 36.0379 267.072C36.1628 267.009 36.2608 266.904 36.3141 266.774C37.365 263.117 37.935 259.338 38.0097 255.533C45.1168 256.589 52.3772 255.481 58.8457 252.354C65.3143 249.226 70.6913 244.223 74.2767 237.996C78.8215 239.723 83.4604 241.19 88.1712 242.392C102.992 246.584 122.319 250.745 140.625 245.783C140.264 254.56 139.761 261.593 138.976 268.58C138.976 269.271 139.934 269.475 140.044 268.784C140.656 265.11 142.179 248.986 142.085 245.36C153.734 241.78 161.522 233.694 163.437 223.191C166.781 205.387 159.245 185.401 143.372 169.843ZM76.6945 102.223C77.1027 106.807 76.6945 110.073 75.2972 112.192C74.7791 112.961 73.9941 113.762 73.319 113.762C72.8009 113.197 69.4097 109.68 66.2069 111.737C64.1188 113.103 64.0246 115.756 66.0028 119.21C67.4167 121.308 68.4282 123.65 68.9858 126.118C62.9727 119.587 61.1358 113.464 59.7542 104.688C61.3502 104.4 62.8068 103.594 63.899 102.395C66.6465 106.477 73.3661 105.661 76.6945 102.223ZM66.9605 112.773C69.08 111.47 71.0425 113.04 72.8323 114.61C73.8842 115.536 75.6112 114.233 76.4276 113.04C78.5628 110.088 78.3744 105.19 78.0918 102.741C79.6157 104.192 81.6394 105.002 83.7438 105.002C85.8482 105.002 87.8719 104.192 89.3958 102.741C89.7098 107.262 99.1926 108.299 101.689 104.546C102.835 112.396 103.385 129.368 99.5851 136.48C96.4451 137.862 89.3016 141.017 85.7534 139.62C82.7076 138.411 81.169 133.764 77.6208 131.77C75.2344 130.451 73.1934 131.943 74.8576 134.612C79.0652 141.3 78.6884 143.843 75.36 150.72C72.4429 149.925 69.7148 148.553 67.3373 146.685C70.7913 141.74 71.7333 132.916 70.8698 127.044C70.1005 121.816 69.2998 122.13 67.2274 118.268C66.2697 116.682 65.4219 113.747 66.9605 112.773ZM93.4464 144.44C93.3212 144.498 93.2215 144.6 93.1663 144.727C93.111 144.853 93.104 144.995 93.1465 145.127C93.189 145.258 93.2781 145.369 93.3969 145.439C93.5158 145.51 93.6563 145.534 93.7918 145.508C95.1381 145.267 96.4143 144.731 97.5284 143.938C97.6188 145.402 97.2333 146.856 96.4294 148.082C96.1468 148.475 96.6492 149.652 97.6697 148.192C97.5912 152.525 95.3775 157.879 91.1228 159.983C88.2392 159.462 85.4949 158.349 83.0629 156.714C80.631 155.079 78.5642 152.958 76.9928 150.484C81.7028 142.415 77.558 136.354 76.1764 133.842C75.4071 132.398 75.7996 132.178 77.0556 132.995C80.0229 134.879 82.6291 140.138 85.5022 140.845C90.9187 142.148 97.5912 138.882 100.857 137.422C102.552 136.653 103.542 136.135 101.501 138.694C98.7687 142.069 97.2144 142.776 93.4464 144.44ZM27.004 211.448C26.9472 211.575 26.9383 211.719 26.979 211.853C27.0197 211.986 27.1072 212.101 27.2254 212.175C27.3437 212.25 27.4849 212.279 27.623 212.258C27.7611 212.237 27.8869 212.166 27.9774 212.06C41.7463 190.363 64.527 175.306 76.2549 152.086C78.0761 156.136 85.8633 161.349 90.6675 161.349C90.6675 165.258 90.275 169.905 89.8668 174.364C85.1568 173.281 72.4241 169.293 70.1319 164.081C69.865 163.437 68.8288 163.877 69.08 164.52C71.2309 170.345 84.5131 175.024 89.7255 176.013C88.6245 187.744 86.4435 199.348 83.21 210.678C80.8393 219.156 77.7935 229.408 73.3975 236.991C69.8929 243.226 64.5304 248.212 58.0576 251.254C51.5848 254.296 44.3241 255.243 37.2875 253.963C8.30531 248.876 3.94071 222.736 13.7846 195.12C22.9848 169.246 43.1279 151.034 66.3639 147.58C68.8897 149.442 71.6507 150.963 74.575 152.102C62.8 174.819 40.349 189.734 27.004 211.448ZM84.5602 211.338C99.8162 204.908 116.025 201.031 132.539 199.861C137.249 199.547 141.959 199.563 146.669 199.563C147.36 199.563 147.376 198.432 146.669 198.432C143.466 198.21 140.254 198.152 137.045 198.26C136.276 191.98 124.956 173.658 121.11 168.587C121.011 168.493 120.883 168.439 120.747 168.433C120.612 168.427 120.479 168.469 120.372 168.553C120.266 168.637 120.193 168.756 120.167 168.889C120.141 169.022 120.163 169.16 120.231 169.277C127.939 180.079 134.172 193.832 135.413 198.322C121.612 198.84 100.323 202.106 84.9998 209.611C86.4442 204.32 92.0334 182.497 92.159 160.941C96.4765 159.01 99.5537 152.023 99.1926 147.329C115.471 151.036 130.401 159.189 142.321 170.879C156.309 184.585 164.881 202.279 162.244 221.511C160.847 232.501 153.044 241.011 141.394 244.104C121.314 249.599 100.653 244.826 80.8236 238.671C78.904 238.025 76.9487 237.491 74.9675 237.07C78.9801 228.819 82.1924 220.202 84.5602 211.338Z" fill="#D9D9D9"/>
<path d="M83.7909 110.261C84.1967 109.662 84.7378 109.166 85.3706 108.814C86.0033 108.462 86.7099 108.264 87.4333 108.236C88.5794 108.236 88.5166 106.509 87.4333 106.666C86.5008 106.764 85.603 107.074 84.8085 107.572C84.014 108.07 83.3437 108.742 82.8489 109.539C82.4408 110.183 83.3513 110.889 83.7909 110.261ZM87.4961 114.61C86.8524 115.128 86.8996 117.75 87.873 117.75C88.0956 117.727 88.3038 117.629 88.4635 117.472C88.6232 117.315 88.7249 117.109 88.7521 116.887C89.1132 115.521 88.1869 114.123 87.4961 114.61ZM86.1145 127.578C86.0852 127.455 86.0187 127.345 85.924 127.261C85.8293 127.178 85.7112 127.126 85.5857 127.112C85.4603 127.098 85.3336 127.123 85.2231 127.184C85.1126 127.245 85.0237 127.339 84.9684 127.453C84.8114 127.672 84.5131 128.348 85.1725 129.713C85.6201 130.643 86.3927 131.377 87.3443 131.776C88.296 132.175 89.3608 132.212 90.3379 131.88C90.4702 131.827 90.5786 131.728 90.6425 131.601C90.7064 131.474 90.7214 131.327 90.6846 131.19C90.6478 131.052 90.5618 130.933 90.4429 130.855C90.324 130.777 90.1804 130.745 90.0395 130.765C87.8101 131.205 86.5227 129.792 86.1145 127.578Z" fill="#D9D9D9"/>
</svg>
