<svg width="42" height="42" viewBox="0 0 42 42" fill="none" xmlns="http://www.w3.org/2000/svg">
<path d="M19.6875 5.25C19.0005 5.25 18.2981 5.49097 17.8008 5.98828C17.3035 6.4856 17.0625 7.18799 17.0625 7.875V9.1875H9.1875V11.8125H10.5V32.8125C10.5 34.9709 12.2791 36.75 14.4375 36.75H30.1875C32.3459 36.75 34.125 34.9709 34.125 32.8125V11.8125H35.4375V9.1875H27.5625V7.875C27.5625 7.18799 27.3215 6.4856 26.8242 5.98828C26.3269 5.49097 25.6245 5.25 24.9375 5.25H19.6875ZM19.6875 7.875H24.9375V9.1875H19.6875V7.875ZM13.125 11.8125H31.5V32.8125C31.5 33.5405 30.9155 34.125 30.1875 34.125H14.4375C13.7095 34.125 13.125 33.5405 13.125 32.8125V11.8125ZM15.75 15.75V30.1875H18.375V15.75H15.75ZM21 15.75V30.1875H23.625V15.75H21ZM26.25 15.75V30.1875H28.875V15.75H26.25Z" fill="#0C0F12"/>
</svg>
