<svg width="536" height="536" viewBox="0 0 536 536" fill="none" xmlns="http://www.w3.org/2000/svg">
<path fill-rule="evenodd" clip-rule="evenodd" d="M234.071 229.033C233.696 229.757 232.597 237.073 236.912 237.073C237.666 237.075 238.395 236.805 238.966 236.313C239.537 235.821 239.912 235.139 240.021 234.393C240.932 226.193 235.572 226.219 234.071 229.033ZM272.931 228.926C273.173 231.767 273.494 234.286 276.335 234.286C277.089 234.288 277.818 234.018 278.389 233.525C278.96 233.033 279.334 232.352 279.444 231.606C279.502 229.882 279.312 228.158 278.881 226.487C277.327 223.62 272.529 224.317 272.931 228.926ZM254.171 254.815C255.002 254.815 262.211 254.467 263.9 253.153C264.409 252.778 264.355 252.055 264.355 251.385C264.195 243.782 263.46 236.203 262.158 228.712C262.158 228.31 261.809 228.229 261.595 228.283C261.381 228.337 261.273 228.712 261.3 229.355C261.3 231.553 261.113 232.303 261.89 244.604C262.399 252.644 262.185 250.393 262.345 251.733C259.832 252.654 257.252 253.379 254.627 253.904C252.885 254.279 254.118 254.815 254.171 254.815ZM262.64 273.361C260.652 274.427 258.459 275.057 256.208 275.21C256.095 275.21 255.985 275.255 255.905 275.335C255.825 275.416 255.779 275.525 255.779 275.639C255.779 275.752 255.825 275.861 255.905 275.942C255.985 276.022 256.095 276.067 256.208 276.067C257.467 276.52 258.812 276.683 260.143 276.544C261.474 276.405 262.756 275.968 263.895 275.265C265.033 274.562 265.998 273.611 266.719 272.483C267.439 271.355 267.895 270.08 268.054 268.751C268.068 268.696 268.071 268.64 268.063 268.584C268.055 268.528 268.037 268.474 268.008 268.426C267.979 268.377 267.942 268.335 267.896 268.301C267.851 268.267 267.8 268.242 267.746 268.228C267.691 268.214 267.634 268.211 267.579 268.219C267.523 268.227 267.469 268.246 267.421 268.274C267.372 268.303 267.33 268.341 267.296 268.386C267.262 268.431 267.237 268.482 267.223 268.537C266.138 270.513 264.559 272.175 262.64 273.361ZM142.523 66.6789C149.41 89.7001 173.771 88.5745 176.612 90.2897C176.612 90.5577 182.187 112.025 184.438 114.973C185.697 116.607 188.726 115.964 190.736 115.589C195.453 114.651 200.92 114.356 204.913 111.167C205.931 110.336 205.342 106.959 205.074 105.807C204.221 100.988 203.039 96.2334 201.536 91.5761C200.945 90.1711 200.444 88.7299 200.035 87.2613C201.885 85.623 203.896 84.1773 206.039 82.9465C209.575 80.5376 212.72 77.6 215.365 74.2365C220.482 66.7399 222.796 57.6804 221.899 48.6481C221.002 39.6158 216.952 31.1881 210.461 24.8441C190.602 5.36054 154.69 11.7121 143.032 36.2877C139.039 44.8101 139.816 57.7277 142.523 66.6789ZM203.68 109.881C200.116 112.748 194.863 113.123 190.28 114.061C189.047 114.329 186.126 115.053 185.349 114.061C183.833 111.872 182.742 109.418 182.133 106.825C189.075 105.847 195.865 103.992 202.34 101.305C203.216 104.079 203.668 106.971 203.68 109.881ZM202.045 100.206C195.198 101.482 188.473 103.347 181.945 105.78C181.253 102.67 180.358 99.6079 179.265 96.6145C186.19 95.8894 192.98 94.2119 199.446 91.6297C200.527 94.4627 201.422 97.3633 202.126 100.313L202.045 100.206ZM144.72 37.1185C155.949 13.9097 190.28 8.04054 209.04 26.3985C215.138 32.3792 218.952 40.3035 219.823 48.7999C220.694 57.2962 218.568 65.8298 213.811 72.9233C209.174 79.4625 199.794 83.9649 198.347 86.3233C197.838 87.1541 198.776 89.2713 199.365 90.7721C196.31 91.3617 192.96 92.0853 189.959 92.7553C189.155 89.0837 185.403 74.2633 184.009 70.7793C183.473 69.3857 182.991 69.4929 181.57 69.8949C173.745 69.8949 165.142 67.9117 162.381 60.5417C162.048 59.6778 161.814 58.7787 161.685 57.8617C161.309 54.0025 164.365 49.5001 167.741 49.8217C167.259 52.7697 167.741 58.3977 170.261 60.0861C172.78 61.7745 175.621 59.0945 175.621 56.6825C175.478 54.9432 174.912 53.2651 173.974 51.7939C173.035 50.3227 171.751 49.1029 170.234 48.2405C170.655 47.2838 171.28 46.4301 172.064 45.7387C172.848 45.0472 173.773 44.5346 174.775 44.2363C175.777 43.938 176.832 43.8612 177.866 44.0112C178.901 44.1612 179.89 44.5344 180.766 45.1049C178.649 49.2321 180.766 58.6925 184.518 56.4681C188.27 54.2437 187.037 48.7765 184.706 45.7481C183.58 44.2741 183.339 44.6761 183.902 44.2473C188.27 41.0581 193.228 44.7565 195.319 49.6073C198.32 56.2805 191.888 64.5081 187.815 67.0005C187.715 67.061 187.644 67.1584 187.616 67.2715C187.588 67.3846 187.607 67.504 187.667 67.6035C187.728 67.7031 187.825 67.7745 187.938 67.8021C188.051 67.8298 188.171 67.8114 188.27 67.7509C193.255 64.8297 199.553 56.2269 196.685 48.9909C193.818 41.7549 186.609 38.9677 182.053 43.2825C180.906 42.4954 179.596 41.9757 178.222 41.7617C176.847 41.5477 175.442 41.6449 174.11 42.0461C172.777 42.4473 171.552 43.1423 170.524 44.0798C169.496 45.0174 168.692 46.1736 168.17 47.4633C163.185 46.8201 158.978 52.6357 159.541 57.9153C159.843 60.2488 160.725 62.4694 162.106 64.3747C163.487 66.2799 165.323 67.8091 167.447 68.8229C169.966 70.0289 178.917 72.2265 182.455 71.2081C183.687 73.8881 188.163 89.6197 188.967 92.9161C177.068 95.5961 179.48 96.8557 178.89 95.1137C178.193 92.9429 177.765 89.7537 177.175 89.5393C162.381 86.1893 149.035 83.7237 144.05 66.1697C141.611 57.6741 140.968 45.0781 144.72 37.1185ZM169.591 50.3577C170.606 51.0783 171.455 52.0089 172.079 53.0863C172.703 54.1637 173.089 55.3628 173.209 56.6021C173.209 57.3257 171.574 59.2821 170.529 57.1381C169.729 54.9733 169.444 52.6517 169.698 50.3577H169.591ZM182.24 46.2573C184.384 48.3477 185.724 53.2253 183.393 54.6457C182.584 53.4232 182.061 52.0346 181.862 50.5827C181.662 49.1308 181.792 47.6526 182.24 46.2573ZM101.84 148.553C112.748 145.149 125.96 148.097 131.052 160.157C139.869 180.579 116.553 190.977 116.795 192.049C117.331 194.729 118.295 199.419 118.697 202.126C118.729 202.354 118.85 202.559 119.034 202.697C119.217 202.835 119.448 202.895 119.676 202.863C119.903 202.831 120.109 202.71 120.247 202.527C120.385 202.343 120.445 202.112 120.413 201.885C120.091 199.205 119.743 195.346 119.367 192.559C123.157 191.039 126.663 188.891 129.739 186.207C148.66 163.883 127.541 135.716 100.554 144.533C96.2805 145.779 92.501 148.324 89.7396 151.816C86.9783 155.307 85.3721 159.571 85.1439 164.017C84.2863 174.576 92.7015 183.688 106.289 182.509C106.494 182.472 106.679 182.365 106.813 182.206C106.947 182.047 107.02 181.846 107.02 181.638C107.02 181.43 106.947 181.228 106.813 181.069C106.679 180.91 106.494 180.803 106.289 180.767C94.2291 181.383 87.7703 172.727 88.9227 164.419C89.1897 160.769 90.5721 157.289 92.8827 154.451C95.1933 151.613 98.3203 149.554 101.84 148.553ZM302.009 78.6317C302.237 78.6922 302.479 78.6597 302.683 78.5416C302.886 78.4235 303.034 78.2294 303.095 78.0019C303.155 77.7745 303.123 77.5324 303.005 77.3288C302.887 77.1253 302.693 76.977 302.465 76.9165C290.861 73.6469 287.511 63.3825 291.263 55.8517C292.724 52.4883 295.184 49.6557 298.31 47.7381C301.436 45.8204 305.076 44.9105 308.736 45.1317C328.89 45.6409 337.734 64.1865 330.176 77.4257C325.165 86.4841 318.465 88.9229 309.889 90.0485C309.618 90.0866 309.367 90.2118 309.173 90.4052C308.98 90.5986 308.855 90.8497 308.817 91.1205C308.522 93.5861 307.879 98.4369 307.396 101.251C307.35 101.475 307.395 101.708 307.52 101.899C307.646 102.09 307.842 102.223 308.066 102.269C308.29 102.316 308.523 102.271 308.714 102.145C308.905 102.02 309.038 101.823 309.085 101.599C309.701 98.7049 310.532 95.3013 311.095 92.4337C315.166 92.2148 319.171 91.3087 322.94 89.7537C332.025 84.3937 337.546 75.9249 336.823 65.2049C335.134 40.0397 298.418 31.0349 287.859 54.4849C283.759 64.0257 288.743 75.6301 302.009 78.6317ZM450.91 204.377C450.603 199.41 448.831 194.644 445.818 190.683C442.92 187.421 439.384 184.788 435.43 182.944C431.475 181.101 427.185 180.086 422.824 179.963C418.384 179.757 413.991 180.936 410.25 183.336C406.51 185.737 403.609 189.241 401.947 193.363C397.739 203.091 402.804 214.427 416.017 217.643C416.134 217.696 416.262 217.723 416.391 217.721C416.521 217.72 416.648 217.69 416.764 217.633C416.88 217.577 416.983 217.496 417.065 217.396C417.146 217.296 417.205 217.18 417.237 217.055C417.269 216.929 417.273 216.799 417.249 216.672C417.225 216.545 417.173 216.425 417.098 216.32C417.022 216.215 416.925 216.128 416.812 216.065C416.699 216.002 416.574 215.965 416.445 215.955C404.921 212.471 401.491 202.555 405.27 194.89C406.731 191.527 409.192 188.694 412.317 186.776C415.443 184.859 419.083 183.949 422.743 184.17C426.46 184.273 430.117 185.129 433.494 186.686C436.87 188.243 439.896 190.469 442.388 193.229C444.898 196.505 446.39 200.447 446.676 204.565C448.579 228.203 423.119 228.283 422.877 230.159C422.556 232.839 421.966 237.556 421.457 240.289C421.411 240.513 421.456 240.746 421.581 240.937C421.707 241.128 421.903 241.262 422.127 241.308C422.351 241.354 422.584 241.309 422.775 241.184C422.966 241.058 423.099 240.862 423.145 240.638C423.789 237.77 424.593 234.34 425.155 231.472C429.234 231.243 433.246 230.337 437.028 228.792C445.979 223.539 451.634 215.205 450.91 204.377ZM130.623 222.441C131.776 217.67 128.319 212.659 124.888 213.061C122.663 212.82 120.423 212.757 118.188 212.873C112.373 214.267 109.639 221.878 115.106 225.603C121.377 229.784 129.498 226.889 130.623 222.441ZM126.469 221.905C125.518 222.699 124.352 223.193 123.119 223.325C115.83 224.343 114.275 217.965 119.18 215.875L124.942 214.803C127.434 215.017 127.997 220.35 126.469 221.771V221.905ZM305.172 111.489C298.927 109.211 292.174 116.259 296.596 122.209C301.018 128.158 309.781 128.158 312.301 124.192C314.82 120.225 313.292 114.222 309.915 113.472C309.621 113.338 307.289 112.266 305.172 111.489ZM308.549 122.209C307.35 122.617 306.066 122.708 304.821 122.473C303.577 122.238 302.414 121.685 301.447 120.869C300.655 120.3 300.004 119.557 299.544 118.698C298.767 116.527 301.554 114.303 303.591 114.169L309.38 114.999C311.631 116.205 310.505 121.458 308.549 122.289V122.209ZM423.896 252.671C423.36 252.43 420.599 251.277 419.179 250.741C412.908 248.463 406.181 255.512 410.603 261.461C415.025 267.411 423.762 267.411 426.308 263.445C428.854 259.478 427.299 253.421 423.896 252.671ZM422.529 261.542C421.33 261.947 420.046 262.037 418.803 261.802C417.559 261.567 416.396 261.016 415.427 260.202C414.642 259.615 413.993 258.865 413.524 258.004C412.774 255.86 415.534 253.636 417.571 253.502L423.36 254.333C425.611 255.458 424.486 260.684 422.529 261.542Z" fill="#C7D6D5"/>
<path fill-rule="evenodd" clip-rule="evenodd" d="M402.001 400.5C396.641 374.129 375.79 333.5 350.759 323.128L345.721 312.596C345.685 312.52 345.633 312.452 345.568 312.397C345.504 312.343 345.428 312.303 345.347 312.28C345.266 312.257 345.18 312.252 345.097 312.265C345.013 312.278 344.934 312.308 344.863 312.355L339.503 315.812C337.8 304.436 332.602 293.872 324.629 285.582C330.203 276.979 339.128 274.352 348.347 273.95C355.985 273.629 361.613 273.173 366.035 266.634C374.799 253.716 372.735 241.12 362.444 229.114C346.766 210.836 340.602 216.304 332.964 206.2C318.438 187.226 315.142 159.166 293.755 144.56C266.419 126.041 251.679 140.969 245.944 145.578C237.556 140.486 218.849 142.255 210.809 149.143C203.975 154.985 194.917 162.543 191.406 170.985C183.929 188.807 184.733 209.898 173.799 226.059C171.119 230.079 166.536 232.786 163.293 236.591C158.842 242.172 155.056 248.252 152.01 254.708C148.044 262.212 145.015 270.547 148.633 278.319C153.484 288.717 164.338 298.633 175.916 297.883C182.616 297.427 191.487 293.407 197.785 296.06C201.537 297.615 202.984 301.233 205.825 304.261C212.257 311.417 227.265 313.588 235.573 308.63C226.434 320.261 212.498 319.859 188.19 333.259C150.885 353.788 137.27 377.104 133.277 400.982C131.749 408.412 130.622 415.917 129.9 423.468C127.595 462.408 139.414 511.774 177.738 519.948C188.244 522.199 200.277 523.646 210.675 521.046C230.373 516.142 253.877 502.876 271.136 492.102C279.176 487.091 308.924 467.018 322.753 464.391C323.585 471.544 325.389 478.549 328.113 485.215C339.181 507.968 356.896 521.422 381.713 515.579C397.793 511.8 402.376 494.675 402.805 478.274C410.871 460.961 404.466 413.096 402.001 400.5ZM309.273 275.022C314.043 275.907 317.313 280.382 320.85 284.027C330.203 293.38 336.635 303.404 338.565 316.187C330.82 321.118 325.781 324.227 325.674 324.388C325.567 324.549 321.842 315.062 319.591 313.909C316.223 312.237 313.168 309.998 310.559 307.29C308.549 305.065 306.083 301.152 306.405 298.204C307.83 297.447 309.384 296.965 310.988 296.784V295.122C302.707 295.364 299.866 302.921 299.115 304.61C298.579 305.816 297.829 307.022 296.114 306.834C294.399 306.646 293.782 304.663 294.425 302.894C295.069 301.126 296.623 293.354 307.584 291.665C307.721 291.646 307.854 291.6 307.973 291.529C308.092 291.459 308.197 291.366 308.28 291.255C308.363 291.144 308.424 291.018 308.459 290.884C308.493 290.75 308.501 290.61 308.482 290.473C308.463 290.335 308.416 290.203 308.346 290.084C308.276 289.964 308.182 289.86 308.072 289.777C307.961 289.693 307.835 289.633 307.701 289.598C307.566 289.563 307.427 289.555 307.289 289.575C304.995 289.866 302.772 290.565 300.723 291.638C298.882 292.537 297.248 293.809 295.923 295.373C294.599 296.937 293.615 298.759 293.032 300.724C291.745 304.395 287.243 302.76 288.315 299.598C289.394 296.522 290.999 293.656 293.059 291.129C295.346 288.949 298.093 287.309 301.099 286.332C303.457 285.367 305.467 285.823 306.003 285.046C306.539 284.268 305.279 281.669 304.636 280.892C301.179 276.764 291.236 280.329 287.431 275.719C284.992 272.691 290.111 272.584 292.174 272.316C297.963 271.672 303.457 273.924 309.273 275.022ZM319.108 341.433C311.447 343.93 303.632 345.926 295.712 347.409C298.392 332.16 300.214 319.082 299.946 314.338C306.191 315.544 313.346 316.402 321.172 317.688C323.289 321.199 324.441 324.147 324.951 324.978L319.751 328.274C319.483 328.622 319.537 327.175 319.108 341.433ZM290.003 418.858C291.19 424.004 292.032 429.224 292.523 434.482C281.535 433.786 273.146 433.92 269.019 433.759C269.18 426.228 269.26 423.896 269.394 422.315C276.158 420.601 283.051 419.445 290.003 418.858ZM247.847 352.85C263.051 352.958 278.234 351.72 293.219 349.151C288.449 374.879 281.186 405.806 277.756 411.997C269.877 390.504 270.681 390.423 247.847 352.85ZM280.007 411.649C284.349 401.92 290.941 372.896 295.337 348.722C303.336 347.223 311.225 345.182 318.947 342.612C318.117 371.556 317.875 407.682 319.617 436.707C314.525 436.251 307.129 435.608 299.946 435.045C299.491 430.704 297.695 415.588 296.167 411.622C295.765 410.55 295.283 410.121 293.487 410.068C289.006 410.264 284.545 410.792 280.141 411.649H280.007ZM289.575 309.407C286.86 307.82 284.692 305.446 283.357 302.6C284.598 303.123 285.892 303.509 287.216 303.752C287.719 304.318 288.367 304.734 289.09 304.956C289.813 305.178 290.583 305.198 291.317 305.012C292.523 304.636 291.745 304.476 292.389 306.164C292.636 306.844 293.052 307.45 293.598 307.925C294.144 308.4 294.802 308.728 295.51 308.878C296.218 309.028 296.952 308.996 297.644 308.783C298.336 308.571 298.962 308.186 299.464 307.665C300.509 306.727 300.589 305.601 301.849 303.189C303.082 302.948 304.288 302.626 305.467 302.278C308.656 310.64 318.653 314.686 319.349 315.303C307.584 313.561 297.159 312.462 289.709 309.407H289.575ZM238.199 306.191C244.631 298.74 243.318 293.407 236.698 288.128C223.298 277.622 224.96 280.436 219.332 268.698C212.712 249.643 218.421 219.627 223.325 200.09C224.665 194.73 233.804 188.994 240.45 189.852C249.669 191.031 245.81 195.882 253.689 198.642C255.057 199.042 256.472 199.259 257.897 199.286C257.981 199.312 258.07 199.321 258.158 199.314C258.247 199.306 258.332 199.28 258.411 199.239C258.489 199.198 258.559 199.142 258.615 199.074C258.672 199.006 258.715 198.928 258.741 198.843C258.768 198.759 258.777 198.67 258.769 198.582C258.761 198.494 258.736 198.408 258.695 198.33C258.654 198.251 258.598 198.182 258.53 198.125C258.462 198.068 258.383 198.026 258.299 197.999C254.119 195.492 250.266 192.476 246.829 189.021C248.463 182.348 252.617 178.703 260.416 178.65C265.776 178.65 270.011 182.723 273.816 186.207C278.426 190.415 283.384 201.778 283.009 208.022C282.161 215.258 283.857 222.563 287.806 228.685C290.486 233.348 295.524 237.395 298.526 241.335C300.187 243.532 299.223 253.341 298.258 257.656C296.998 261.435 294.318 268.644 293.702 270.279C282.499 270.681 282.982 276.684 288.342 279.257C283.33 285.26 271.083 291.933 279.846 300.348C281.722 304.288 284.724 309.675 288.744 311.31C291.596 312.466 294.547 313.363 297.561 313.99C298.151 318.144 296.221 331.892 293.273 347.892C277.892 350.45 262.312 351.625 246.721 351.402C237.047 335.564 227.425 320.556 224.987 318.144C230.401 315.391 235.002 311.27 238.333 306.191H238.199ZM219.921 320.314C225.281 318.304 222.601 318.653 223.888 319.644C225.174 320.636 234.018 334.652 244.283 351.295C232.115 351.108 218.421 350.196 213.248 349.607C214.803 348.374 210.783 327.202 209.228 324.522C213.114 322.968 216.705 321.601 220.055 320.314H219.921ZM207.245 325.353C209.449 333.244 210.946 341.316 211.721 349.473C200.157 347.815 188.813 344.876 177.899 340.709C187.251 334.727 197.117 329.588 207.379 325.353H207.245ZM209.684 519.117C199.634 521.636 187.869 520.162 177.738 517.991C161.899 514.588 150.938 504.002 143.809 490.441C132.473 469.001 129.096 437.136 132.553 414.811C133.25 410.336 134.135 405.914 134.885 401.411C139.146 375.871 154.663 356.628 176.318 342.076C197.57 349.875 211.855 352.608 245.247 352.796C268.376 390.316 268.885 394.068 275.505 412.426C273.468 412.801 264.034 414.704 262.426 416.017C261.783 416.526 261.783 417.545 262.426 433.652C238.038 434.134 214.186 437.94 191.755 452.412C189.075 433.089 192.157 427.246 198.401 416.178C208.21 398.785 206.441 395.569 200.25 385.68C199.23 384.345 198.499 382.811 198.106 381.177C198.106 380.534 195.426 379.65 199.205 386.296C204.565 396.051 206.012 398.356 196.525 415.106C189.584 427.38 186.743 433.678 190.924 452.974C189.048 454.234 186.904 455.654 184.84 457.316C181.688 459.536 178.729 462.019 175.996 464.74C175.943 464.843 175.933 464.963 175.968 465.073C176.003 465.184 176.081 465.276 176.184 465.329C176.287 465.382 176.407 465.393 176.517 465.357C176.628 465.322 176.72 465.245 176.773 465.142C177.604 463.668 191.46 454.422 195.185 452.519C215.982 442.04 238.976 432.982 276.63 435.474C276.156 451.407 277.805 467.332 281.535 482.83C262.185 495.05 234.688 512.899 209.818 519.117H209.684ZM283.196 481.758C279.753 466.644 278.231 451.156 278.667 435.662C319.349 438.342 306.593 437.484 319.725 438.342C320.207 446.167 320.931 454.663 322.003 462.462C311.497 464.418 292.603 475.942 283.33 481.758H283.196ZM380.587 513.65C356.923 519.251 340.119 506.333 329.453 484.464C317.661 460.344 319.617 355.583 320.287 328.89L344.783 313.722C377.854 385.144 381.82 391.897 389.244 415.562C398.838 445.712 411.488 506.521 380.721 513.65H380.587ZM402.188 472.646C401.567 458.295 399.356 444.057 395.595 430.194C387.1 397.15 377.907 380.588 352.474 327.122L353.225 326.72C375.683 338.726 394.711 376.005 399.696 400.902C402.429 413.9 407.655 456.405 402.322 472.646H402.188Z" fill="#C7D6D5"/>
</svg>
