<svg width="569" height="265" viewBox="0 0 569 265" fill="none" xmlns="http://www.w3.org/2000/svg">
<mask id="mask0_3_27" style="mask-type:alpha" maskUnits="userSpaceOnUse" x="0" y="0" width="569" height="265">
<rect x="0.5" y="0.5" width="567.431" height="264" rx="14.5" fill="white" stroke="black"/>
</mask>
<g mask="url(#mask0_3_27)">
<rect x="0.5" y="0.5" width="567.431" height="264" rx="14.5" fill="#C7D6D5" stroke="#0C0F12"/>
<path fill-rule="evenodd" clip-rule="evenodd" d="M465.959 160.347C466.316 161.082 467.674 161.304 468.565 161.46C475.824 162.752 507.288 163.42 510.316 160.814C512.966 158.588 511.496 122.203 508.913 120.733C505.573 118.751 469.144 118.373 466.605 120.399C464.757 121.935 463.599 155.203 465.959 160.347ZM467.162 120.867C469.188 119.174 504.772 120.444 507.978 122.002C509.693 126.589 510.806 155.403 509.136 159.501C506.419 161.371 473.129 161.304 467.318 159.501C465.046 154.045 465.893 121.935 467.162 120.867ZM377.402 116.97C376.519 118.48 375.326 119.787 373.903 120.804C372.479 121.821 370.856 122.526 369.14 122.871C369.088 122.857 369.033 122.856 368.98 122.867C368.927 122.878 368.877 122.901 368.834 122.934C368.791 122.968 368.756 123.01 368.732 123.059C368.708 123.108 368.696 123.162 368.696 123.216C368.696 123.27 368.708 123.324 368.732 123.373C368.756 123.421 368.791 123.464 368.834 123.497C368.877 123.531 368.927 123.554 368.98 123.565C369.033 123.576 369.088 123.574 369.14 123.561C373.06 124.585 378.159 121.023 378.159 117.103C378.177 117.003 378.154 116.9 378.095 116.816C378.037 116.733 377.947 116.676 377.847 116.658C377.747 116.64 377.643 116.663 377.56 116.722C377.476 116.78 377.419 116.869 377.402 116.97ZM359.209 97.0405V99.2672C359.209 99.5625 359.327 99.8457 359.535 100.054C359.744 100.263 360.027 100.381 360.323 100.381C360.616 100.375 360.896 100.256 361.104 100.048C361.311 99.8406 361.43 99.5607 361.436 99.2672V97.0405C361.436 96.7452 361.319 96.462 361.11 96.2532C360.901 96.0444 360.618 95.9271 360.323 95.9271C360.027 95.9271 359.744 96.0444 359.535 96.2532C359.327 96.462 359.209 96.7452 359.209 97.0405ZM381.41 99.1559C381.41 99.4512 381.527 99.7344 381.736 99.9431C381.945 100.152 382.228 100.269 382.523 100.269C382.819 100.269 383.102 100.152 383.311 99.9431C383.519 99.7344 383.637 99.4512 383.637 99.1559V96.3947C383.637 96.0994 383.519 95.8162 383.311 95.6074C383.102 95.3986 382.819 95.2813 382.523 95.2813C382.228 95.2813 381.945 95.3986 381.736 95.6074C381.527 95.8162 381.41 96.0994 381.41 96.3947C381.321 97.3522 381.41 98.4656 381.41 99.1559Z" fill="#0C0F12"/>
<path fill-rule="evenodd" clip-rule="evenodd" d="M510.517 260.238C510.371 259.99 510.164 259.783 509.916 259.637C508.001 258.702 497.579 259.169 495.419 259.259C495.798 200.851 465.024 164.422 420.356 153.978C412.161 152.063 412.139 151.929 411.917 152.063L410.402 147.899C414.678 147.765 418.174 144.47 422.093 145.138C425.054 145.628 426.546 148.255 429.463 149.369C434.407 151.239 443.202 148.367 445.897 143.668C447.277 141.219 446.053 138.68 446.921 136.988C448.48 135.63 452.911 133.447 454.18 131.866C456.785 128.615 456.897 121.334 455.717 117.393C453.586 112.933 450.684 108.884 447.144 105.435C443.292 101.724 439.878 97.5853 436.967 93.0989C433.382 85.951 433.249 76.0643 430.287 68.6047C427.023 61.8693 421.97 56.1612 415.68 52.1045C409.536 47.7652 402.13 45.5807 394.615 45.8919C387.6 46.3372 384.862 49.3211 381.588 50.3454C378.315 51.3697 377.625 50.3454 372.303 52.6834C370.19 53.9709 368.308 55.6044 366.736 57.5155C366.068 58.228 366.112 58.2726 364.977 58.3171C363.754 58.2251 362.526 58.2251 361.303 58.3171C359.218 58.7798 357.224 59.5849 355.402 60.6997C342.999 68.1371 346.339 83.1008 341.663 94.1009C338.478 101.583 329.616 108.775 328.859 116.591C328.591 120.185 329.364 123.78 331.086 126.945C336.497 136.454 344.268 128.994 348.298 134.806C349.568 136.632 350.525 138.413 352.886 138.769C355.892 139.17 359.989 136.788 362.438 135.028C362.953 135.629 363.536 136.167 364.175 136.632C366.346 138.095 368.677 139.305 371.123 140.239L365.467 148.144C354.867 146.942 338.59 150.371 328.102 153.6C327.723 150.927 324.428 128.86 321.934 127.792C318.482 126.277 282.253 130.486 280.049 132.869C278.423 134.605 281.34 167.673 284.502 172.616C284.97 173.373 286.573 173.395 287.464 173.418C282.253 176.98 277.221 180.588 275.417 181.901C274.014 177.047 266.644 151.373 263.927 147.164C263.148 145.94 262.435 145.962 258.85 147.164C256.807 136.969 254.22 126.889 251.101 116.97C252.27 115.047 253.205 112.991 253.884 110.846C254.714 107.448 254.836 103.916 254.241 100.469C256.957 101.382 273.19 105.836 275.818 104.544C276.524 104.041 277.047 103.322 277.31 102.496C280.182 96.2163 285.103 74.7728 285.482 67.9812C285.638 67.1116 285.488 66.2147 285.059 65.4427C282.454 62.7261 247.405 52.6389 244.443 53.975C242.639 54.7989 237.763 70.8091 237.251 72.7019C232.998 86.9753 235.157 83.8356 232.797 84.6595C230.081 85.617 227.742 91.3397 226.785 93.9896C225.827 96.6394 224.825 100.202 225.961 102.295C225.5 103.147 225.314 104.12 225.43 105.081C225.546 106.043 225.957 106.944 226.607 107.662C225.899 108.451 225.437 109.43 225.279 110.479C225.12 111.528 225.273 112.599 225.716 113.563C226.362 115.589 230.392 116.925 232.396 117.504C230.814 121.768 229.498 126.126 228.455 130.553C226.679 137.422 225.259 144.379 224.202 151.395C223.543 154.804 223.326 158.285 223.556 161.749L219.904 163.397C219.764 163.462 219.645 163.565 219.562 163.696C219.479 163.826 219.435 163.977 219.437 164.132C219.437 164.132 220.127 191.12 229.012 213.543C239.745 240.688 257.403 249.773 284.279 239.619C284.522 241.749 285.046 243.839 285.838 245.831C286.239 246.544 287.597 246.677 288.51 246.767C296.415 247.025 304.329 246.78 312.203 246.032L318.883 288.34C317.079 293.55 296.616 352.915 296.905 358.438C296.905 359.017 297.128 359.462 298.085 359.907C303.986 362.646 359.9 369.95 362.015 363.849C362.55 362.357 363.841 352.849 364.086 351.045L395.55 347.571L425.544 349.553C425.867 352.556 426.403 355.533 427.147 358.46C427.415 359.128 427.726 359.484 428.506 359.418C431.467 359.128 447.255 356.278 451.619 355.454C468.364 352.292 467.986 352.025 467.496 350.377C466.316 346.48 455.36 316.085 451.085 301.901C457.339 302.568 463.647 302.568 469.901 301.901C469.969 302.142 470.096 302.362 470.271 302.541C470.446 302.72 470.663 302.852 470.903 302.925C474.978 304.417 511.385 302.346 514.369 299.362C517.063 296.98 512.543 263.623 510.517 260.238ZM244.488 54.9325C244.732 54.5539 244.643 54.398 246.603 54.6875C254.775 55.8454 281.496 64.4629 283.812 66.4893C284.257 71.5885 277.644 99.5787 275.038 102.963C273.146 103.609 260.587 100.403 258.65 99.8904C243.909 96.0382 244.488 95.4369 241.125 94.6576C239.388 94.0564 239.21 94.0341 239.255 93.7892C239.26 93.734 239.286 93.683 239.327 93.6459C239.368 93.6089 239.422 93.5885 239.477 93.5887C241.481 93.5887 246.848 93.4329 248.162 91.8742C248.452 91.5572 248.668 91.1801 248.795 90.7698C248.923 90.3595 248.958 89.9261 248.898 89.5006C248.839 89.0752 248.686 88.6681 248.451 88.3085C248.216 87.949 247.904 87.6458 247.538 87.4207C244.676 86.2741 241.685 85.4815 238.631 85.0603C237.718 84.8822 236.605 84.5704 235.491 84.4368C237.028 77.4894 242.105 58.6289 244.488 54.9325ZM225.36 161.015V157.563C225.56 153.332 227.587 142.221 228.188 139.17C229.168 134.227 229.39 133.113 232.24 122.381C232.24 122.091 233.955 117.304 233.955 117.304C233.986 117.22 233.998 117.132 233.992 117.043C233.986 116.955 233.961 116.869 233.919 116.791C233.877 116.713 233.818 116.645 233.748 116.591C233.677 116.538 233.596 116.5 233.51 116.48C233.265 116.48 227.475 115.055 226.829 113.206C226.184 111.358 226.05 109.131 227.676 108.152C227.735 108.108 227.784 108.051 227.818 107.986C227.851 107.92 227.869 107.847 227.869 107.773C227.869 107.699 227.851 107.626 227.818 107.561C227.784 107.495 227.735 107.438 227.676 107.395C226.964 106.81 226.485 105.991 226.326 105.084C226.167 104.177 226.337 103.243 226.807 102.451C227.319 101.405 224.58 101.917 227.831 94.4126C228.655 92.5644 231.439 86.8862 233.332 86.2628C235.007 86.0992 236.699 86.2889 238.297 86.8194C241.088 87.259 243.832 87.9598 246.492 88.9126C246.661 89.0035 246.807 89.1322 246.918 89.2888C247.029 89.4453 247.103 89.6255 247.133 89.8151C247.163 90.0048 247.149 90.1989 247.092 90.3822C247.035 90.5656 246.936 90.7332 246.803 90.8721C245.825 91.4265 244.753 91.7964 243.641 91.9632C236.627 93.3438 237.874 91.8074 236.961 94.19C234.282 94.0328 231.603 94.5136 229.145 95.5928C228.188 95.7932 228.589 96.4167 229.279 96.3054C232.262 95.3277 235.453 95.1662 238.52 95.8378C240.299 96.1629 242.039 96.678 243.708 97.3742C245.222 97.9893 246.566 98.9591 247.627 100.202C247.817 100.673 247.887 101.184 247.833 101.689C247.779 102.193 247.601 102.677 247.316 103.097C246.781 103.921 244.198 103.364 243.218 103.097C241.882 102.696 240.479 102.362 239.166 101.939C237.317 101.36 237.518 101.204 236.939 101.249C234.897 101.538 232.899 102.084 230.993 102.874C230.94 102.88 230.888 102.899 230.842 102.928C230.796 102.957 230.758 102.997 230.73 103.043C230.701 103.089 230.684 103.141 230.679 103.195C230.674 103.249 230.682 103.304 230.701 103.355C230.72 103.405 230.751 103.451 230.79 103.488C230.83 103.525 230.877 103.553 230.929 103.569C230.981 103.585 231.036 103.589 231.089 103.58C231.143 103.572 231.194 103.551 231.238 103.52C232.944 103.039 234.687 102.704 236.449 102.518C237.451 102.518 236.805 102.518 239.322 103.52C240.457 103.943 241.548 104.277 242.751 104.678C243.524 104.943 244.322 105.13 245.133 105.235C246.558 106.571 247.583 109.688 245.668 110.245C244.915 110.375 244.141 110.282 243.441 109.978C238.342 108.308 241.793 107.105 230.726 109.376C230.636 109.388 230.553 109.433 230.495 109.503C230.437 109.574 230.408 109.664 230.415 109.755C230.415 110.334 230.793 109.978 236.917 109.755C237.657 109.681 238.403 109.681 239.143 109.755C241.058 110.735 243.909 112.405 246.113 111.759C248.807 110.891 248.718 107.907 246.981 105.725C246.358 104.967 246.291 105.19 246.826 105.101C247.216 105.059 247.594 104.936 247.935 104.74C248.276 104.545 248.573 104.281 248.807 103.965C249.335 103.238 249.63 102.368 249.654 101.47C249.677 100.572 249.429 99.6873 248.941 98.9329L252.682 100.046C253.423 103.495 253.362 107.068 252.504 110.49C252.265 111.325 251.952 112.137 251.569 112.917C249.943 116.346 249.342 116.457 249.542 117.103C252.637 127.164 255.186 137.385 257.18 147.721C248.785 150.66 233.398 157.43 225.36 161.015ZM401.562 315.751C411.093 316.152 431.579 316.887 440.976 316.597C440.33 319.403 439.929 321.184 439.818 321.585C435.342 321.585 406.416 316.575 401.562 315.751ZM444.583 314.615C438.615 316.018 361.147 312.99 354.511 310.162C355.201 305.174 361.703 277.139 363.017 271.417C368.862 273.206 374.942 274.106 381.054 274.089C383.281 275.247 386.955 277.251 389.159 278.297C388.914 280.19 388.313 284.666 389.649 286.002C390.985 287.338 421.736 298.627 448.702 301.789C447.615 306.151 446.238 310.436 444.583 314.615ZM362.305 261.018C361.279 260.706 360.331 260.183 359.521 259.481C358.942 258.858 359.143 256.965 359.521 256.074C359.728 255.641 360.096 255.306 360.546 255.139C361.089 254.903 361.669 254.76 362.26 254.716C362.437 254.712 362.608 254.654 362.751 254.55C362.894 254.446 363.002 254.3 363.06 254.133C363.118 253.966 363.124 253.785 363.076 253.615C363.029 253.444 362.931 253.293 362.795 253.18C361.492 252.082 360.585 250.588 360.212 248.926C360.212 247.702 360.679 246.433 362.639 245.319C364.865 245.497 371.546 251.02 374.641 247.835C377.736 244.651 374.084 237.192 377.536 236.568C380.987 235.945 382.724 246.321 383.325 247.457C385.329 251.354 390.718 254.137 393.791 257.344C391.935 263.981 390.448 270.716 389.337 277.518C384.884 275.135 381.588 273.064 381.254 273.064C376.6 272.909 364.108 271.617 360.857 268.299C360.279 267.853 359.883 267.211 359.744 266.493C359.605 265.776 359.731 265.033 360.1 264.402C360.337 263.984 360.657 263.618 361.039 263.327C361.422 263.036 361.86 262.826 362.327 262.71C362.518 262.663 362.687 262.553 362.807 262.398C362.928 262.243 362.992 262.051 362.989 261.855C362.986 261.659 362.917 261.469 362.793 261.317C362.669 261.165 362.497 261.059 362.305 261.018ZM387.111 186.867C382.974 186.471 378.818 186.308 374.663 186.377C374.129 186.377 373.683 186.644 373.527 187.157C373.149 188.582 366.847 234.898 366.535 237.169C365.199 214.902 363.819 191.454 362.795 174.264C370.544 186.622 371.212 187.847 372.436 186.978C376.566 183.583 380.471 179.923 384.127 176.023C384.795 178.495 385.864 182.525 387.111 186.867ZM407.485 179.051C405.971 176.824 404.479 174.598 403.923 173.774L411.115 155.67L407.485 179.051ZM412.674 153.488C421.096 155.225 429.308 157.86 437.168 161.349C436.834 162.395 432.536 175.533 427.392 191.209C425.032 190.92 411.516 189.272 407.352 188.827L412.674 153.488ZM403.566 176.246L407.084 181.545L405.971 188.671L402.52 188.225C403.032 183.393 403.388 178.806 403.566 176.246ZM465.047 199.738C465.019 202.637 464.736 205.528 464.201 208.377C456.563 206.418 389.939 190.029 383.169 193.881C379.785 195.841 368.651 241.534 367.582 245.653L366.78 245.252C370.299 220.513 374.975 188.07 374.975 187.98C382.568 187.112 455.717 195.396 465.047 199.738ZM426.19 246.299C421.202 245.965 401.406 244.985 397.242 247.746C396.596 248.192 396.329 248.281 394.036 256.52C391.074 253.38 386.109 250.418 384.438 246.922C383.681 245.386 382.457 234.163 377.268 235.032C370.276 236.212 379.206 250.619 368.874 246.165C369.542 243.337 380.497 196.175 383.548 194.438C390.005 190.764 460.437 208.689 469.344 211.205C468.832 216.639 462.285 245.631 461.083 250.931C449.551 248.715 437.901 247.168 426.19 246.299ZM391.898 90.5381C393.145 91.3843 393.1 93.4106 392.878 94.8803C391.319 104.834 381.343 110.868 374.418 101.338C372.837 99.1111 371.612 92.03 372.681 90.4713C373.394 89.5583 379.139 89.5138 380.297 89.5138C382.434 89.5361 390.785 89.8701 391.809 90.5381H391.898ZM365.378 92.1414C365.378 96.3276 363.975 103.275 360.256 105.279C354.266 108.397 348.187 103.453 348.031 97.0179C347.803 94.6686 347.915 92.2986 348.365 89.9814L348.588 89.8701C348.232 89.2466 363.886 89.0462 365.288 90.449C365.336 91.0121 365.336 91.5783 365.288 92.1414H365.378ZM373.127 140.618C376.979 141.731 383.191 141.197 386.175 138.146C386.238 138.08 386.273 137.992 386.273 137.901C386.273 137.81 386.238 137.722 386.175 137.656C385.663 137.033 386.175 138.235 380.386 139.103C374.596 139.972 371.1 139.103 365.244 135.296C362.552 132.823 360.536 129.703 359.388 126.233C356.99 120.36 355.489 114.159 354.934 107.84C357.03 108.183 359.181 107.831 361.058 106.838C362.88 105.772 364.291 104.126 365.066 102.162C364.314 104.515 363.697 106.909 363.218 109.332C363.113 109.642 363.098 109.975 363.172 110.294C363.247 110.613 363.409 110.904 363.641 111.135C365.18 112.077 366.993 112.469 368.784 112.249C368.837 112.262 368.892 112.264 368.945 112.253C368.998 112.242 369.048 112.218 369.091 112.185C369.134 112.152 369.169 112.109 369.193 112.06C369.217 112.012 369.229 111.958 369.229 111.904C369.229 111.849 369.217 111.796 369.193 111.747C369.169 111.698 369.134 111.656 369.091 111.622C369.048 111.589 368.998 111.566 368.945 111.555C368.892 111.544 368.837 111.545 368.784 111.559C367.463 111.412 366.189 110.987 365.044 110.312C364.531 109.955 364.754 110.178 364.91 109.443C365.066 108.708 367.961 98.0868 368.116 97.4188C368.807 97.4188 371.434 97.0625 371.434 96.4167C371.434 95.771 369.341 95.5928 368.562 95.6374C368.562 95.3479 368.695 95.1029 368.762 94.8803C368.798 94.7917 368.796 94.6926 368.759 94.6049C368.721 94.5173 368.65 94.4481 368.562 94.4126C368.473 94.3772 368.374 94.3784 368.286 94.416C368.199 94.4536 368.13 94.5245 368.094 94.6131C367.315 96.1272 367.849 95.5705 366.803 95.8378C367.204 93.7789 367.204 91.6618 366.803 89.6029C365.533 87.6433 357.896 88.0887 355.402 88.2446C356.671 80.785 361.614 77.1108 364.643 71.1432C365.491 69.758 366.622 68.5669 367.961 67.6472C368.629 67.469 369.942 69.1391 370.744 69.5399C371.546 69.9407 372.303 72.1452 372.971 72.9023C375.071 75.2939 377.492 77.3845 380.163 79.1149C382.39 80.6959 385.864 80.9408 387.378 82.9672C388.017 84.6903 388.327 86.5183 388.291 88.3559C385.418 88.1778 373.438 87.9996 372.013 90.0482C370.722 91.696 371.278 99.2224 373.171 102.117C377.936 109.332 385.262 109.777 390.985 103.275C391.6 102.508 392.124 101.671 392.544 100.781C396.819 107.461 400.182 111.447 400.337 119.285C400.516 129.217 397.71 145.672 408.465 147.743L410.313 152.842C401.406 175.243 401.874 173.841 401.874 174.063C401.874 174.286 401.451 180.744 400.671 188.136C396.396 187.691 392.41 187.312 388.87 187.023C388.602 186.11 385.285 174.308 385.351 174.063C385.685 172.95 384.015 170.768 382.724 168.83C377.881 161.818 372.592 155.124 366.892 148.79L373.127 140.618ZM365.288 149.391C365.667 149.97 381.7 167.606 383.659 174.086C380.057 178.079 376.164 181.8 372.013 185.219C370.521 183.26 366.491 176.802 362.661 170.768C361.971 159.122 361.503 151.016 361.392 149.324C362.639 149.235 364.041 149.302 365.199 149.391H365.288ZM285.771 171.658C283.233 167.205 279.715 138.257 280.539 133.804C280.539 133.403 280.539 133.269 282.409 132.757C290.381 130.686 318.349 128.304 321.288 129.306C323.515 133.648 328.391 161.994 327.233 166.359C324.962 168.185 292.318 172.794 285.682 171.658H285.771ZM287.33 244.918C284.769 239.886 282.877 207.62 284.146 206.396C286.039 204.57 321.577 203.011 324.94 204.325C327.167 209.001 330.329 237.726 329.015 241.623C325.986 243.894 292.585 246.121 287.241 244.918H287.33ZM338.167 207.598C339.77 207.175 350.948 204.325 352.284 203.523C353.242 202.966 354.333 204.77 335.606 153.377C337.833 151.328 357.294 148.701 360.367 149.658C360.367 150.883 363.284 202.855 365.578 244.562C364.487 244.028 362.906 243.204 361.904 243.76C357.718 245.987 357.45 249.684 360.546 253.291C359.967 253.433 359.431 253.708 358.978 254.095C358.526 254.481 358.17 254.969 357.94 255.518C357.583 256.353 357.432 257.262 357.497 258.169C357.563 259.075 357.845 259.953 358.319 260.728C358.838 261.225 359.432 261.638 360.078 261.953C359.413 262.399 358.888 263.024 358.564 263.757C358.272 264.388 358.098 265.067 358.052 265.761L338.167 207.598ZM393.59 346.168L364.509 349.397C364.643 348.328 367.916 322.52 368.963 313.769C375.019 314.304 382.323 314.771 390.139 315.194C391.43 331.249 393.702 342.338 393.501 346.168H393.59ZM395.127 345.99C395.439 340.913 391.252 315.462 391.23 315.239L393.457 315.35C401.028 316.753 420.534 320.205 422.649 320.561C423.362 327.731 425.143 344.432 425.566 347.861C392.366 345.723 395.951 345.901 395.016 345.99H395.127ZM513.278 298.338C511.051 300.119 478.34 303.103 471.593 301.633C468.988 296.579 467.14 264.336 468.409 263.111C470.324 261.263 505.863 259.748 509.181 261.04C511.274 265.694 514.503 294.53 513.189 298.338H513.278Z" fill="#0C0F12"/>
<path fill-rule="evenodd" clip-rule="evenodd" d="M287.375 281.972C287.197 281.17 286.952 280.012 286.306 279.745C284.079 278.409 269.405 278.142 266.8 278.097C266.221 267.476 265.196 255.206 263.526 251.911C262.435 249.684 190.467 249.461 187.995 249.439C188.173 237.459 188.195 219.2 187.995 207.131C191.135 207.131 206.811 207.131 208.971 205.349C211.732 203.123 209.884 173.396 208.637 167.495C208.459 166.693 208.192 165.535 207.568 165.268C204.317 163.331 167.843 162.863 165.26 164.934C163.902 166.07 163.39 179.987 163.323 181.746C158.223 181.746 126.693 181.1 115.425 181.367V163.175C118.342 163.175 135.466 163.642 137.693 161.772C140.387 159.545 139.497 123.16 136.936 121.691C134.375 120.221 118.387 119.753 115.626 119.687C115.626 116.525 115.381 108.553 115.359 108.352C125.668 107.974 152.835 108.842 164.035 108.842C164.035 112.338 163.835 124.786 165.305 127.97C165.661 128.727 167.019 128.95 167.91 129.106C174.991 130.353 206.566 131.087 209.661 128.46C212.756 125.832 210.597 92.5425 208.793 88.9574C208.673 88.6997 208.489 88.4773 208.258 88.3117C204.896 86.3299 168.466 86.0849 165.95 87.9777C164.503 89.2024 164.013 105.146 163.968 107.061C152.59 107.061 125.824 106.192 115.225 106.571C115.225 102.273 115.002 97.9312 115.002 93.6559C118.164 93.6559 137.27 93.3664 139.652 91.2733C142.035 89.1801 139.652 55.4449 137.737 51.7931C137.618 51.5343 137.424 51.3171 137.181 51.1696C133.796 49.2768 97.3665 49.8558 94.8726 51.9489C92.9798 53.5967 92.6458 86.8866 95.1843 92.0303C95.3592 92.3176 95.626 92.5373 95.9414 92.6538C98.4799 93.7227 110.326 93.7449 113.11 93.7449C113.11 103.698 113.555 111.782 113.644 119.731C111.417 119.731 96.2309 119.397 94.5386 120.755C92.8462 122.114 90.7976 155.381 93.158 160.837C93.492 161.572 94.8503 161.839 95.741 161.995C101.642 162.847 107.593 163.316 113.555 163.398V196.264C111.44 196.264 96.9435 195.997 95.3179 197.311C93.6924 198.625 91.5547 231.937 93.9151 237.392C94.2491 238.149 95.6074 238.394 96.4981 238.572C103.713 239.953 135.154 241.155 138.25 238.572C141.345 235.989 139.741 202.611 138.049 199.07C137.929 198.807 137.745 198.577 137.515 198.402C135.088 196.932 118.209 196.442 115.247 196.376V183.505C126.782 183.216 157.021 183.861 163.122 183.884C163.122 187.647 162.766 201.831 164.369 205.283C164.515 205.582 164.77 205.813 165.082 205.928C167.954 207.242 182.896 207.509 185.946 207.532C186.236 219.645 186.214 237.949 185.946 249.84C156.019 249.684 124.978 249.996 118.721 251.265C118.053 251.398 116.962 251.621 116.917 252.556C116.917 252.556 115.715 271.795 115.158 278.409C113.176 278.409 100.15 278.409 98.6358 279.745C97.1216 281.081 95.4515 314.438 97.901 319.826C98.235 320.561 99.5933 320.806 100.484 320.962C107.587 322.209 139.14 322.944 142.235 320.316C145.331 317.689 143.148 284.332 141.367 280.814C141.456 280.601 141.485 280.368 141.45 280.14C141.414 279.912 141.316 279.698 141.167 279.522C138.606 277.986 120.324 277.852 117.296 277.83C117.83 271.15 118.988 252.556 118.988 252.556C126.604 250.33 253.283 250.597 262.146 252.846C263.504 256.097 264.372 267.253 265.085 277.919C262.858 277.919 245.935 277.785 244.176 279.255C242.417 280.725 241.081 314.148 243.441 319.337C243.597 319.636 243.859 319.866 244.176 319.982C248.117 321.764 284.569 322.565 287.775 319.826C288.327 319.159 288.647 318.331 288.688 317.466C289.735 310.697 288.822 288.652 287.375 281.972ZM166.418 88.2449C168.4 86.5971 203.939 87.7773 207.234 89.3805C208.061 92.895 208.538 96.4827 208.659 100.091C194.386 98.6438 175.102 99.7571 165.26 100.091C165.305 98.7551 165.661 88.7793 166.418 88.1781V88.2449ZM165.238 101.316C181.448 101.828 200.688 100.982 208.726 101.071C208.971 105.012 209.839 123.472 208.392 126.879C206.744 128.015 193.762 128.215 191.781 128.237C186.993 128.237 171.205 128.237 166.574 126.901C164.971 123.004 165.126 105.703 165.238 101.249V101.316ZM95.4515 52.1271C97.4333 50.3902 133.039 50.7242 136.29 52.1271C137.021 54.609 137.483 57.1621 137.671 59.7425C123.286 59.3184 108.891 60.0631 94.6276 61.9693C94.6499 61.1677 94.8058 52.706 95.4515 52.1271ZM96.6317 90.7611C94.828 86.7307 94.5831 67.9815 94.6276 62.7264C96.4981 62.5037 136.936 60.4996 137.76 60.4996C138.25 64.9531 139.986 85.7287 138.428 89.6255C135.444 91.7854 101.931 92.2085 96.6317 90.7611ZM95.0953 120.889C97.1216 119.263 132.638 121.023 135.911 122.67C136.64 125.993 137.043 129.379 137.114 132.78C137.337 132.78 105.628 131.533 93.8037 131.911C93.8705 130.598 94.405 121.423 95.0953 120.889ZM137.069 236.68C134.62 238.283 101.775 238.083 95.2734 236.012C93.6701 232.026 94.16 213.744 94.3827 209.09C94.6054 209.09 125.045 211.451 137.782 209.959C138.005 214.034 138.606 233.206 137.069 236.657V236.68ZM136.535 199.137C137.26 202.468 137.67 205.86 137.76 209.268C137.982 209.268 106.34 208.022 94.4272 208.378C94.5265 204.798 94.9062 201.232 95.5629 197.712C95.7187 197.266 95.5629 197.177 97.5669 196.955C105.539 196.064 133.685 197.689 136.535 199.115V199.137ZM94.6276 159.523C93.0466 155.537 93.5365 137.389 93.7592 132.624C94.0264 132.624 124.377 134.984 137.158 133.492C137.381 137.59 138.005 156.65 136.446 160.213C133.44 162.173 99.9941 161.238 94.6276 159.523ZM141.656 292.348C141.924 296.49 142.77 314.905 141.322 318.401C138.962 320.049 105.984 320.383 99.5042 318.401C97.901 314.527 98.0568 297.091 98.1682 292.437C112.531 292.994 125.579 292.348 141.656 292.348ZM140.165 280.903C140.988 284.411 141.473 287.99 141.612 291.591C127.45 290.166 107.498 291.302 98.1904 291.725C98.1904 290.322 98.6135 280.368 99.3483 279.767C101.352 278.119 136.869 279.3 140.165 280.903ZM165.661 165.223C167.709 163.509 203.248 164.8 206.477 166.359C207.324 170.014 207.816 173.743 207.947 177.493C198.283 176.981 174.234 175.444 164.525 176.647C164.636 175.377 165.015 165.825 165.661 165.223ZM165.883 203.813C164.258 199.916 164.436 182.102 164.57 177.448C167.709 177.137 190.422 178.562 200.977 178.473C203.671 178.473 206.098 178.361 208.058 178.294C208.303 182.258 209.127 200.361 207.702 203.791C204.785 205.862 171.294 205.528 165.883 203.813ZM244.554 279.767C246.558 278.119 282.075 279.3 285.393 280.903C286.209 284.419 286.686 288.006 286.818 291.613C272.79 290.188 252.482 291.324 243.419 291.613C243.441 290.433 243.82 280.435 244.554 279.834V279.767ZM286.551 318.401C284.124 320.049 251.146 320.383 244.733 318.401C243.107 314.549 243.263 297.047 243.396 292.415C258.382 292.994 269.628 292.415 286.863 292.415C287.13 296.512 287.976 314.994 286.551 318.468V318.401Z" fill="#0C0F12"/>
</g>
</svg>
