<svg width="314" height="314" viewBox="0 0 314 314" fill="none" xmlns="http://www.w3.org/2000/svg">
<path d="M110.088 132.618C109.902 132.74 109.772 132.93 109.725 133.147C109.678 133.365 109.718 133.592 109.837 133.78C109.9 133.868 109.981 133.942 110.074 133.997C110.168 134.053 110.271 134.088 110.379 134.102C110.487 134.115 110.596 134.106 110.7 134.075C110.804 134.044 110.9 133.991 110.983 133.921C111.127 133.795 111.224 133.624 111.258 133.436C111.292 133.248 111.262 133.053 111.172 132.885C111.122 132.792 111.053 132.711 110.97 132.647C110.887 132.583 110.791 132.537 110.689 132.512C110.587 132.486 110.481 132.483 110.377 132.501C110.274 132.52 110.175 132.559 110.088 132.618ZM198.385 41.7306C201.389 43.6146 204.372 45.5248 207.334 47.4611C206.614 48.1109 205.927 48.7974 205.277 49.5178C204.32 48.8741 203.362 48.2461 202.389 47.6338C202.354 47.6205 202.316 47.62 202.281 47.6323C202.246 47.6445 202.216 47.6688 202.197 47.7008C202.178 47.7328 202.171 47.7705 202.178 47.8071C202.184 47.8436 202.203 47.8768 202.232 47.9007L205.026 49.7847C204.068 50.868 203.174 52.0141 202.341 53.1602C202.247 53.3015 202.467 53.4271 202.561 53.3015C203.428 52.154 204.356 51.0534 205.34 50.0045C206.785 51.0093 208.198 52.0298 209.611 53.0503C208.566 54.3092 207.606 55.6362 206.737 57.0224L204.351 54.95C204.21 54.8401 204.021 54.95 204.147 55.1384C204.932 55.8763 205.717 56.6142 206.518 57.3364C205.75 58.5943 205.052 59.8942 204.43 61.23C204.43 61.3713 204.571 61.4969 204.649 61.3556C205.28 60.0663 205.982 58.8135 206.753 57.6033C208.245 59.0006 209.752 60.3979 211.275 61.7638C209.841 63.996 208.617 66.3558 207.617 68.8131C207.617 68.923 207.758 68.9701 207.805 68.8131C208.811 66.3975 210.046 64.0842 211.495 61.9051C212.939 63.2082 214.415 64.4956 215.891 65.7516C213.714 68.21 211.896 70.9638 210.49 73.9313C210.49 74.0255 210.584 74.1197 210.647 74.0255C212.252 71.1963 214.129 68.5304 216.252 66.0656L217.822 67.4001C217.994 67.5414 218.246 67.3059 218.073 67.1332L216.503 65.6731C216.927 65.2021 219.643 62.5331 220.663 61.7638L223.395 64.0717C223.536 64.1973 223.741 63.9932 223.599 63.8676C222.751 63.0669 221.888 62.2976 221.009 61.4969C222.202 60.5706 223.458 59.7071 224.73 58.8907L226.033 59.7385C226.158 59.817 226.284 59.6129 226.158 59.5187L225.012 58.7023C225.86 58.1685 226.739 57.6504 227.618 57.1323C227.775 57.0538 227.618 56.8497 227.493 56.9282C226.505 57.3949 225.546 57.9191 224.62 58.4982C222.657 57.1166 220.695 55.7507 218.701 54.4162C220.357 53.2886 222.187 52.44 224.117 51.9042C224.159 51.8917 224.194 51.8632 224.215 51.8249C224.235 51.7866 224.24 51.7417 224.227 51.7001C224.215 51.6585 224.186 51.6235 224.148 51.6029C224.11 51.5823 224.065 51.5777 224.023 51.5902C221.968 52.0732 220.024 52.9415 218.293 54.1493C216.409 52.8776 214.493 51.6216 212.578 50.3813C213.613 49.4183 214.878 48.7371 216.252 48.4031C216.393 48.4031 216.362 48.1205 216.252 48.1362C214.746 48.3895 213.351 49.0897 212.248 50.1458L207.852 47.3669L208.245 46.9744C208.37 46.8645 208.245 46.6918 208.072 46.8017C207.903 46.9292 207.74 47.0655 207.585 47.2099C204.555 45.2945 201.494 43.4105 198.432 41.5579C198.385 41.4637 198.259 41.6521 198.385 41.7306ZM206.989 57.2265C207.711 56.1118 209.72 53.5213 209.925 53.2701C211.62 54.5261 213.284 55.7978 214.933 57.0852C213.712 58.3697 212.604 59.7563 211.62 61.23C210.097 59.8641 208.543 58.5453 206.989 57.2265ZM216.252 65.3905C214.807 64.0403 213.347 62.7215 211.856 61.4184C212.865 59.9614 214 58.5955 215.247 57.3364C216.974 58.7023 218.685 60.0839 220.381 61.4969C218.904 62.6836 217.523 63.9856 216.252 65.3905ZM224.416 58.6552C223.131 59.432 221.898 60.2921 220.726 61.23C219.062 59.7699 217.366 58.3569 215.624 56.9753C216.481 56.1535 217.4 55.3977 218.371 54.7145L224.416 58.6552ZM217.963 54.4319C217.018 55.1171 216.131 55.8785 215.31 56.7084C213.645 55.4053 211.95 54.1336 210.239 52.909C210.875 52.1314 211.562 51.3971 212.295 50.711L217.963 54.4319ZM211.95 50.4755C211.234 51.175 210.558 51.9141 209.925 52.6892C208.496 51.6687 207.051 50.6796 205.607 49.7219C206.266 49.0154 206.942 48.3403 207.617 47.6495L211.95 50.4755Z" fill="#D9D9D9"/>
<path d="M201.761 277.576C199.516 277.042 196.171 277.984 194.178 277.686C193.314 277.643 192.49 277.31 191.841 276.74C191.191 276.17 190.753 275.396 190.598 274.546C190.213 269.602 189.35 264.707 188.023 259.929L187.348 260.086C187.191 259.505 187.458 255.69 182.638 231.732C180.801 222.485 179.278 213.096 173.077 205.607C173.846 204.383 174.647 203.158 175.322 201.918C175.652 201.352 176.295 200.615 176.295 199.908C176.295 198.762 173.312 193.314 172.386 191.964C170.502 189.216 169.843 189.248 168.006 190.849L153.389 175.589C155.044 171.319 156.146 166.856 156.67 162.307C165.29 162.621 290.466 161.537 294.924 161.459C297.358 161.459 300.247 161.459 302.335 159.889C302.72 159.608 303.027 159.235 303.23 158.805C303.433 158.374 303.525 157.899 303.497 157.424C303.685 155.634 304.266 58.6709 304.172 57.4149C304.015 55.107 303.544 52.7049 301.157 52.0612C294.972 50.4912 238.467 51.2134 234.087 51.3233C232.643 50.711 231.355 50.1301 230.382 49.6277C211.228 39.6111 209.579 38.9203 204.398 35.9687C201.164 34.1161 197.773 31.0546 194.005 30.458C192.664 30.1362 191.251 30.3586 190.074 31.0766C188.897 31.7945 188.052 32.9495 187.725 34.2888C186.908 37.994 188.29 42.6098 189.216 46.158C189.593 47.6024 190.096 49.298 190.786 51.1349C171.946 52.1711 161.49 51.2762 152.007 51.7786C152.002 50.4153 151.61 49.0815 150.877 47.9321C146.716 41.2439 136.292 46.5191 136.276 46.5034C135.148 45.316 133.765 44.4017 132.23 43.8304C130.695 43.259 129.051 43.0456 127.421 43.2064C123.739 43.525 120.197 44.767 117.122 46.8174C111.784 50.8052 109.272 58.5139 112.239 64.684C112.239 64.684 109.193 69.1428 108.848 71.7961C108.11 77.3382 112.6 81.954 118.472 78.7983C118.158 79.6147 118.818 79.9601 118.629 80.5253C118.535 80.8079 118.221 80.9492 118.064 81.2004C117.295 82.3936 120.403 83.6653 117.86 85.3923C117.254 85.6885 116.718 86.1115 116.29 86.6326C116.155 86.8164 116.073 87.0337 116.054 87.2609C116.035 87.488 116.078 87.716 116.18 87.92C116.478 88.6108 116.949 88.3753 117.342 88.5009C118.582 88.862 117.342 91.1856 118.347 91.9392C118.77 92.2532 119.446 92.159 119.744 92.5829C120.042 93.0068 119.65 93.6976 119.194 94.0587C118.221 94.8437 117.907 95.299 118.708 96.2096L121.769 99.6322C121.314 100.433 119.822 99.8206 119.414 100.888C119.338 101.122 119.328 101.372 119.387 101.61C119.445 101.849 119.569 102.066 119.744 102.238C120.4 102.777 121.236 103.047 122.083 102.992V102.238L124.03 101.124C125.6 102.019 123.716 104.892 125.207 105.598C125.207 106.038 124.564 106.022 124.171 106.242C123.418 106.681 123.889 108.204 125.521 107.812C126.187 107.646 126.77 107.248 127.168 106.689C127.565 106.131 127.75 105.449 127.688 104.766C128.818 104.892 128.599 106.619 129.494 107.419V107.655C128.205 107.573 126.916 107.81 125.741 108.346C123.717 108.918 121.725 109.599 119.775 110.387C109.272 114.626 109.005 116.667 100.935 125.992C99.2195 127.972 97.6456 130.071 96.2252 132.272C96.131 132.429 95.974 132.272 99.7577 135.538C98.5895 136.679 97.5808 137.973 96.759 139.385C80.0699 139.086 16.0139 138.788 14.0357 138.835C10.5974 138.835 8.80763 139.808 8.44653 143.419C8.10113 146.779 7.66153 184.428 7.94413 193.314C8.08543 197.804 8.36803 202.31 8.44653 206.8C8.52503 211.291 8.06973 217.79 10.7073 220.35C12.7483 222.281 16.3593 221.825 18.9027 221.919C27.051 221.919 35.1208 221.919 43.2534 221.511C42.2441 224.073 41.5687 226.753 41.2438 229.487C39.1022 236.97 38.9561 244.883 40.8199 252.44C35.1993 250.179 24.1465 246.317 23.3615 247.573C25.6494 255 29.7751 261.728 35.3563 267.135C27.9199 265.963 20.3036 266.904 13.3763 269.852C22.0741 275.174 35.5918 284.06 46.1265 279.366C33.1583 282.82 23.7383 275.237 13.7845 269.946C20.8511 267.056 28.5922 266.228 36.1099 267.559C36.9986 267.925 37.8592 268.355 38.6847 268.847C38.7789 268.847 38.9045 268.674 38.5277 268.423C30.6777 264.215 26.894 255.298 23.7383 247.558C33.3467 249.128 43.1906 252.958 50.2556 259.113C48.2146 256.114 41.0554 252.629 41.2752 252.535C39.297 242.706 40.553 236.74 41.4008 230.79C42.2015 234.479 45.9224 233.004 45.9224 233.004C47.7803 229.872 50.4346 227.288 53.6154 225.515L55.782 227.32C59.9746 234.213 62.9984 241.751 64.731 249.63C63.6872 251.244 62.8088 252.958 62.1091 254.748C61.9364 255.549 62.3446 255.125 62.4231 254.968C65.2491 249.049 70.5714 241.89 74.3708 239.692C78.0032 241.923 81.8605 243.765 85.8789 245.187C84.4031 251.592 80.2583 263.572 80.2583 263.572C80.2583 263.572 80.6822 263.886 90.4476 262.206C88.8311 265.222 86.5978 267.864 83.8928 269.961C81.1879 272.057 78.0719 273.56 74.7476 274.373C74.5121 274.373 74.5121 274.75 74.7476 274.734C80.1705 274.732 85.5861 275.131 90.95 275.927C91.0913 275.927 91.1384 275.692 90.95 275.676C86.0678 274.771 81.1102 274.335 76.1449 274.373C82.158 272.411 89.3486 268.47 91.0442 261.986C88.3438 260.965 84.2304 262.52 80.8392 262.959C83.4922 257.375 85.3017 251.428 86.2086 245.312C88.6278 246.085 91.1321 246.559 93.6661 246.725C98.2755 247.274 102.929 246.161 106.791 243.585C110.57 241.068 113.77 237.777 116.18 233.93C117.954 234.479 120.592 236.254 122.79 235.359C124.75 234.234 126.23 232.43 126.95 230.288C127.543 228.961 127.621 227.461 127.17 226.08C130.09 222.563 131.692 214.195 132.225 211.777C132.946 208.918 134.287 206.253 136.154 203.971C138.021 201.689 140.368 199.846 143.027 198.574C144.864 198.103 143.828 199.28 143.828 199.28C140.785 200.662 138.147 202.8 136.166 205.491C134.184 208.181 132.925 211.335 132.508 214.65L142.383 223.081C141.473 224.51 140.405 225.593 141.284 227.524C142.559 229.835 144.415 231.772 146.669 233.145C147.297 233.569 147.91 234.103 148.679 233.883C149.448 233.663 151.646 231.167 151.945 230.853C153.104 232.088 154.394 233.193 155.791 234.15C156.607 234.809 157.926 235.531 158.256 236.426C158.443 237.254 158.574 238.093 158.648 238.938C160.47 247.966 166.969 259.348 172.433 266.947C171.004 267.811 170.423 268.25 170.423 268.25L184.553 290.34C198.118 288.425 203.676 282.098 204.131 280.339C204.273 279.633 203.268 277.89 201.761 277.576ZM303.01 156.906C302.822 158.962 302.335 159.716 300.043 160.375C296.589 161.365 163.249 161.836 156.812 161.726C157.392 157.706 157.848 154.472 158.146 150.641C159.575 151.693 160.862 152.996 162.212 154.143C162.231 154.163 162.255 154.179 162.28 154.19C162.306 154.202 162.334 154.207 162.361 154.207C162.389 154.207 162.417 154.202 162.443 154.19C162.468 154.179 162.492 154.163 162.511 154.143C163.217 153.499 163.892 152.839 164.567 152.164C167.507 154.354 170.748 156.105 174.191 157.361C175.567 157.874 177.031 158.107 178.498 158.045C179.965 157.983 181.405 157.628 182.732 157C189.083 153.84 194.135 148.566 197.019 142.085C211.385 141.787 225.766 141.802 240.116 140.939C240.149 140.941 240.183 140.936 240.215 140.925C240.246 140.913 240.275 140.894 240.299 140.87C240.322 140.847 240.341 140.818 240.353 140.786C240.364 140.755 240.369 140.721 240.367 140.688C240.1 133.701 240.163 126.369 239.598 119.383C260.95 118.692 282.16 117.954 303.512 117.514C303.512 126.338 303.418 152.62 303.01 156.906ZM149.448 104.562C149.326 104.549 149.203 104.561 149.085 104.597C148.968 104.633 148.859 104.692 148.765 104.772C148.671 104.851 148.594 104.948 148.539 105.058C148.484 105.167 148.451 105.287 148.443 105.41C148.443 105.991 148.349 106.556 148.271 107.372C147.34 108.437 146.485 109.565 145.712 110.748C144.788 112.67 144.042 114.672 143.482 116.729C143.153 115.85 141.598 111.156 141.551 111.093C139.67 109.15 137.633 107.365 135.46 105.755C135.573 105.646 135.659 105.512 135.711 105.363C136.61 103.517 136.917 101.439 136.59 99.4124C136.276 98.0622 135.397 96.3666 136.857 95.3932C136.984 95.2881 137.148 95.2373 137.312 95.2519C138.223 95.3775 137.877 97.1516 137.877 97.7482C137.877 101.343 137.767 102.207 138.348 102.866C138.462 103.017 138.618 103.13 138.797 103.189C138.975 103.248 139.168 103.252 139.349 103.199C139.53 103.146 139.69 103.039 139.809 102.893C139.927 102.747 139.998 102.568 140.013 102.38C140.342 100.904 139.4 99.3653 139.667 97.8738C139.887 96.6492 140.907 95.3775 140.279 94.2942C140.103 94.0778 139.945 93.8467 139.808 93.6034C139.337 92.4887 141.033 91.4211 140.75 90.2593C140.562 89.4272 139.447 88.9876 139.463 88.1398C139.525 87.7793 139.664 87.4364 139.871 87.135C140.325 86.3047 140.437 85.3307 140.185 84.4189C140.028 84.0178 139.937 83.5934 139.918 83.1629C139.918 82.739 140.311 82.2994 140.735 82.3936C140.936 82.4701 141.122 82.5818 141.284 82.7233C141.441 82.8014 141.613 82.8436 141.788 82.8469C141.963 82.8502 142.136 82.8144 142.296 82.7422C142.455 82.6701 142.596 82.5633 142.709 82.4296C142.822 82.296 142.904 82.1389 142.948 81.9697C142.958 81.501 142.889 81.034 142.744 80.5881C142.644 79.9401 142.793 79.2781 143.161 78.7356C143.53 78.1932 144.09 77.8107 144.73 77.6653C145.369 77.5198 146.04 77.6223 146.607 77.9521C147.174 78.2818 147.594 78.8143 147.784 79.442C148.004 80.1799 147.894 81.012 148.334 81.64C148.773 82.268 149.307 82.3936 149.778 82.8018C150.636 83.9131 151.025 85.3165 150.861 86.7111C150.861 88.0927 151.395 89.7569 152.73 90.118C153.436 89.3016 152.73 88.0613 152.73 86.978C152.869 85.7797 153.425 84.6685 154.3 83.838C154.535 83.5554 154.818 83.2257 155.242 83.3042C155.376 83.3391 155.501 83.4039 155.607 83.4935C155.713 83.5832 155.797 83.6956 155.854 83.8223C155.995 84.3733 155.995 84.9512 155.854 85.5022C155.634 88.1398 157.895 89.961 157.691 92.5986C157.62 93.7632 157.344 94.9061 156.874 95.9741C154.519 100.543 153.734 102.364 152.384 103.557C151.575 104.264 150.521 104.625 149.448 104.562ZM151.929 109.9C150.798 112.145 150.061 114.61 148.789 116.808C147.988 114.814 146.041 110.858 146.026 110.842C146.528 110.292 148.255 108.173 148.977 107.294C149.459 107.252 149.941 107.359 150.36 107.6C150.778 107.842 151.112 108.206 151.317 108.644C151.433 109.1 151.641 109.528 151.929 109.9ZM141.3 111.25C140.072 113.225 138.971 115.275 138.003 117.389C136.574 115.819 131.723 109.539 130.153 107.639C130.702 107.749 130.954 107.262 131.173 106.933C131.554 106.374 132.105 105.952 132.744 105.732C133.384 105.511 134.077 105.503 134.722 105.708H134.941C136.339 107.184 140.311 110.355 141.3 111.25ZM157.283 108.456C157.588 108.601 157.923 108.674 158.261 108.671C158.599 108.667 158.932 108.587 159.235 108.435C159.537 108.284 159.802 108.066 160.007 107.797C160.213 107.529 160.355 107.217 160.423 106.886C160.48 105.985 160.754 105.113 161.223 104.342C163.092 102.05 168.791 105.237 167.283 97.4185C167.137 97.0027 167.129 96.5508 167.259 96.1297C167.389 95.7085 167.65 95.3402 168.006 95.0792C169.576 93.415 171.146 91.0129 170.251 88.7992C169.979 88.3491 169.773 87.8628 169.638 87.3548C169.513 86.193 170.737 85.2039 170.565 84.0578C169.537 83.5765 168.717 82.7402 168.257 81.7028C167.896 80.4468 168.649 79.1594 168.963 77.8877C169.277 76.616 168.696 74.7477 167.393 74.9047C167.393 75.1321 167.329 75.3548 167.208 75.5479C167.088 75.741 166.917 75.8968 166.713 75.9978C166.509 76.0989 166.281 76.1412 166.055 76.1201C165.828 76.0989 165.612 76.0151 165.431 75.8781C164.3 75.0303 165.18 73.9156 165.431 72.9579C165.47 72.2039 165.293 71.4544 164.92 70.7979C164.548 70.1414 163.995 69.6052 163.327 69.2527C161.976 68.5736 160.697 67.7582 159.512 66.8192C159.659 66.574 159.858 66.3631 160.093 66.2006C160.329 66.0382 160.596 65.9279 160.878 65.8772C161.066 64.9352 159.92 64.3072 158.978 64.1188C155.73 63.4334 152.351 63.7341 149.276 64.9823C148.672 65.3146 147.985 65.4672 147.297 65.4219C146.622 65.2806 146.057 64.4485 146.481 63.8519C146.654 63.6007 147.015 63.4123 147.156 63.1768C152.211 63.1768 151.332 62.7529 171.287 62.9099C179.341 62.9099 187.379 63.114 195.434 63.1297C196.522 65.8845 197.749 68.583 199.107 71.2152C202.46 77.2562 206.693 82.7644 211.667 87.5589C206.957 86.9937 191.901 87.292 188.259 87.1821C188.196 87.1821 188.136 87.2069 188.092 87.2511C188.048 87.2952 188.023 87.3551 188.023 87.4176C188.149 96.5864 188.337 105.959 188.934 115.112C188.707 115.478 188.573 115.894 188.543 116.324C188.513 116.753 188.588 117.183 188.761 117.577L176.06 129.274C173.501 126.134 163.704 114.657 153.75 109.523C154.943 108.785 155.147 107.466 157.204 108.456H157.283ZM213.803 94.3256C208.465 98.9414 198.621 108.079 196.093 111.077C195.729 110.853 195.321 110.708 194.897 110.652C194.473 110.595 194.041 110.629 193.631 110.75C193.221 110.872 192.841 111.078 192.516 111.357C192.19 111.635 191.928 111.978 191.744 112.365C191.226 112.504 190.759 112.789 190.399 113.188C190.04 113.586 189.804 114.08 189.719 114.61C189.524 114.669 189.343 114.765 189.185 114.893C188.635 106.352 188.212 88.2026 188.337 87.7316C188.337 87.8886 207.962 87.7316 211.887 88.0613C212.531 88.6736 212.892 89.019 213.551 89.6313C213.52 91.1385 213.724 92.8184 213.724 94.357L213.803 94.3256ZM216.44 92.1119C215.906 92.5201 215.168 93.1324 214.289 93.9017C214.289 92.4416 214.164 91.0914 214.101 89.9296C214.697 90.4634 215.294 90.9815 215.906 91.4996C216.001 91.7351 216.173 91.9392 216.362 92.1433L216.44 92.1119ZM214.729 87.0722C212.845 78.7041 218.136 72.2985 224.337 66.0028C226.783 63.2091 229.605 60.768 232.721 58.7494C236.049 56.8654 240.744 55.3582 244.575 56.3787C246.279 56.9326 247.812 57.9151 249.027 59.232C250.242 60.5488 251.099 62.1559 251.514 63.899C253.618 71.3094 249.206 78.6099 244.37 83.8851C239.048 89.6784 230.476 95.7229 222.202 94.3727C220.394 93.9783 218.731 93.0901 217.398 91.8067C216.064 90.5234 215.113 88.8953 214.65 87.1036L214.729 87.0722ZM214.619 119.838C214.623 119.906 214.653 119.97 214.702 120.017C214.752 120.063 214.818 120.089 214.886 120.089C223.029 119.869 231.182 119.624 239.346 119.351C239.346 124.736 240.194 138.317 239.943 139.526C239.692 140.735 237.792 140.562 236.536 140.625C233.961 140.75 208.119 141.41 197.286 141.598C200.536 133.905 199.641 125.898 198.589 116.698C198.604 115.285 198.326 113.885 197.773 112.585C198.197 111.753 199.343 111.36 198.778 109.602C202.687 106.195 209.469 99.8991 213.755 95.8171C213.755 103.855 214.195 111.894 214.54 119.869L214.619 119.838ZM176.625 130.31C176.986 129.949 185.888 121.549 188.997 118.582L189.311 123.685C186.325 127.823 183.906 132.343 182.12 137.124C180.475 135.271 178.615 133.621 176.578 132.21C176.676 131.581 176.692 130.943 176.625 130.31ZM189.687 123.151L189.373 118.237L190.127 117.499C190.551 118.001 190.771 119.163 191.147 119.555C191.257 119.697 191.744 120.136 191.932 120.058C192.121 119.979 190.975 121.298 189.687 123.135V123.151ZM182.418 138.16C182.56 138.301 182.842 138.16 182.717 137.924C182.591 137.689 182.418 137.501 182.214 137.249C184.897 131.094 188.33 125.293 192.435 119.979C192.451 119.953 192.461 119.924 192.465 119.893C192.469 119.862 192.467 119.831 192.458 119.801C192.449 119.772 192.434 119.744 192.414 119.721C192.394 119.697 192.369 119.679 192.341 119.665C191.987 119.48 191.678 119.222 191.431 118.908C191.185 118.594 191.008 118.231 190.912 117.844C190.708 117.279 190.724 116.588 190.017 116.494C189.577 116.494 188.918 117.028 188.949 117.043C188.981 117.059 188.949 114.045 192.294 115.207C192.576 115.316 192.686 114.877 192.403 114.767C191.624 114.484 190.779 114.429 189.97 114.61C190.22 113.933 190.712 113.374 191.352 113.04C191.712 112.918 192.098 112.894 192.471 112.971C192.844 113.049 193.189 113.224 193.471 113.48C193.516 113.514 193.572 113.53 193.629 113.526C193.686 113.522 193.739 113.498 193.779 113.458C193.819 113.418 193.843 113.364 193.847 113.308C193.851 113.251 193.835 113.195 193.801 113.15C193.576 112.887 193.288 112.686 192.964 112.565C192.64 112.444 192.29 112.408 191.948 112.459C193.33 110.355 196.171 111.03 197.412 112.961C197.925 114.005 198.178 115.158 198.15 116.321C198.791 120.846 199.1 125.411 199.076 129.98C199.155 134.545 198.137 139.062 196.109 143.153C193.582 148.158 189.739 152.381 184.993 155.367C183.466 156.477 181.696 157.204 179.83 157.488C177.964 157.772 176.058 157.605 174.27 157C170.911 155.766 167.74 154.07 164.85 151.96C167.538 149.273 169.909 146.286 171.915 143.058C173.951 139.783 175.501 136.229 176.515 132.508C178.556 134.361 180.55 136.197 182.418 138.16ZM196.548 111.376C197.019 111.015 197.647 110.497 198.385 109.806C198.494 110.346 198.393 110.907 198.103 111.376C197.854 111.614 197.652 111.896 197.506 112.208C197.239 111.913 196.927 111.664 196.58 111.47L196.548 111.376ZM176.264 130.624C176.264 133.952 174.239 137.862 172.731 140.672C170.174 145.232 166.946 149.381 163.154 152.981C162.762 153.436 162.683 153.719 162.338 153.656C161.993 153.593 159.402 150.955 158.209 150.249C158.209 149.307 158.35 148.334 158.413 147.329C164.379 141.802 170.722 135.852 176.264 130.624ZM303.544 116.965C288.032 117.279 218.136 119.697 216.299 119.555C215.153 119.461 215.043 119.351 214.996 118.111C214.996 117.248 214.635 104.578 214.274 95.3304C215.42 94.2314 216.362 93.3208 216.943 92.7399C218.285 94.0804 220.015 94.9646 221.888 95.2676C229.926 96.4294 238.2 91.3269 243.664 85.8476C249.944 79.5676 255.094 70.8541 251.954 62.5488C261.169 62.8 295.238 62.0935 303.764 61.6382C303.795 69.5981 303.591 106.462 303.544 116.965ZM299.682 52.2339C303.952 53.1916 303.748 56.9439 303.748 61.1515C295.191 61.4027 260.808 61.9679 251.812 62.2348C250.866 59.7503 249.077 57.6775 246.757 56.3787C246.16 56.0647 239.849 53.7725 234.856 51.6687C253.618 51.339 296.196 51.4489 299.682 52.2339ZM188.51 39.8937C188.196 37.7585 187.662 34.9796 188.855 33.0171C190.048 31.0546 192.937 30.6307 195.135 31.3215C197.898 32.185 198.574 33.3782 206.125 37.6015C210.521 40.0193 226.394 48.3246 230.806 50.6325C234.19 52.4834 237.718 54.0585 241.356 55.3425C239.289 55.4713 237.255 55.9216 235.327 56.677C231.445 58.3602 227.981 60.8798 225.185 64.056C221.813 67.2262 218.82 70.7772 216.267 74.6378C212.578 80.7294 213.049 86.8995 215.137 90.4791C201.651 78.2959 197.412 69.0957 191.681 52.2339C190.246 48.227 189.185 44.096 188.51 39.8937ZM190.959 51.81C192.137 55.3111 193.612 59.2361 195.041 62.8C168.351 62.8 153.923 62.329 147.03 63.0983C146.952 62.8314 146.575 62.7058 146.293 62.643C148.946 59.8641 151.882 56.1118 152.007 52.2967C158.664 52.5322 180.707 52.3752 190.959 51.81ZM117.609 47.1C120.17 45.4775 123.041 44.4079 126.04 43.96C127.76 43.5712 129.551 43.622 131.246 44.1077C132.942 44.5933 134.488 45.4982 135.742 46.7389C135.742 46.7389 120.89 51.81 112.475 64.4799C110.654 57.9801 111.815 51.2291 117.609 47.1ZM120.89 75.36C120.663 75.8235 120.336 76.2309 119.932 76.5532C119.587 76.9457 119.351 77.558 119.697 77.9505C119.698 77.9166 119.691 77.8829 119.675 77.8529C119.659 77.8229 119.636 77.7977 119.607 77.7801C119.578 77.7624 119.545 77.7528 119.511 77.7524C119.477 77.752 119.443 77.7608 119.414 77.7778C115.756 80.07 111.187 79.9601 109.68 75.36C108.518 71.8432 110.23 68.3421 112.286 65.5475C122.083 52.2025 137.846 45.1375 145.037 45.1375C149.605 45.216 151.96 49.4864 151.112 53.6626C150.422 57.1951 147.972 59.9426 145.586 62.4232C144.016 62.5959 142.587 64.1188 139.95 66.4738C139.975 66.1515 139.943 65.8274 139.856 65.5161C142.415 63.3809 144.817 60.0525 144.895 56.6613C144.895 55.3268 144.691 53.2073 143.467 52.3752C142.242 51.5431 139.73 52.1083 138.16 52.3438C133.316 53.2931 128.771 55.3931 124.909 58.4668C121.769 60.8532 117.828 63.7577 116.824 67.8868C116.133 70.65 117.923 74.4965 121.157 73.633C120.89 74.3866 121.141 74.8419 120.89 75.36ZM128.536 71.1367C126.558 71.435 126.401 69.3783 124.862 69.1585C124.638 69.1214 124.408 69.1726 124.22 69.3014C124.033 69.4302 123.903 69.6266 123.857 69.8493C123.857 70.3203 124.14 70.5244 124.391 70.807C124.536 71.0148 124.628 71.2545 124.66 71.5057C124.693 71.757 124.663 72.0122 124.575 72.2498C124.488 72.4873 124.343 72.7 124.156 72.8698C123.968 73.0396 123.741 73.1614 123.496 73.2248L122.743 72.22C122.193 72.3701 121.719 72.7164 121.408 73.1934C120.836 73.2858 120.251 73.2453 119.698 73.075C119.145 72.9046 118.638 72.609 118.217 72.2112C117.797 71.8133 117.473 71.3239 117.272 70.7809C117.072 70.2378 116.999 69.6558 117.059 69.08C117.41 66.6883 118.594 64.4974 120.403 62.8942C129.713 53.5527 141.426 50.9308 143.733 53.3172C144.911 54.5418 145.57 60.1624 139.667 65.2335C139.611 65.1359 139.532 65.0531 139.437 64.9921C139.343 64.9311 139.235 64.8937 139.122 64.883C139.01 64.8722 138.897 64.8884 138.793 64.9303C138.688 64.9721 138.595 65.0384 138.521 65.1236C138.081 65.7202 139.259 66.3953 137.469 66.9919C137.108 67.1175 136.292 67.2117 136.056 66.9919C135.632 66.4738 136.982 65.6103 136.433 65.2492C136.009 64.6212 134.863 64.9352 134.533 65.5789C134.24 66.2835 134.014 67.0142 133.858 67.7612C133.434 68.9073 132.288 69.2056 131.943 68.7032C131.032 67.3687 132.257 67.4158 132.21 66.6622C132.21 65.5789 130.231 65.7359 130.326 67.7298C130.326 68.6247 130.687 69.5196 130.074 70.3674C129.708 70.8223 129.178 71.1154 128.599 71.1838L128.536 71.1367ZM96.7276 132.367C96.7276 132.21 97.2457 131.566 97.3399 131.425C98.9388 129.13 100.674 126.933 102.537 124.846C109.319 116.996 110.057 115.081 118.456 111.439C120.277 110.643 122.137 109.941 124.03 109.335C125.427 108.895 128.426 107.529 129.839 108.094C130.436 109.366 130.891 109.821 137.767 117.671C137.767 117.671 137.767 117.781 137.877 117.671C137.987 117.562 140.358 113.495 141.378 111.501C141.567 113.446 142.224 115.315 143.294 116.949C143.307 116.969 143.324 116.985 143.345 116.996C143.365 117.007 143.388 117.012 143.412 117.012C143.435 117.012 143.458 117.007 143.478 116.996C143.499 116.985 143.516 116.969 143.529 116.949C144.518 115.111 145.297 113.168 145.853 111.156C146.716 113.166 147.847 115.034 148.648 117.075C148.648 117.075 148.993 117.185 149.056 117.075C150.029 114.704 151.426 112.443 152.196 109.978C152.357 110.047 152.531 110.083 152.706 110.083C152.881 110.083 153.055 110.047 153.216 109.978C163.531 116.839 166.09 118.661 175.73 129.713C170.376 134.659 164.285 140.279 158.46 145.633C158.617 143.223 158.617 140.805 158.46 138.395C158.46 138.238 157.801 135.962 157.769 138.27C157.769 139.997 157.769 142.98 157.597 146.434C150.265 153.248 143.467 159.528 139.683 163.264C138.933 163.134 138.162 163.188 137.438 163.421C137.143 163.546 136.821 163.594 136.503 163.561C136.185 163.528 135.88 163.415 135.617 163.233C135.036 162.966 121.487 156.812 119.1 155.524C118.252 155.053 115.709 154.158 115.74 152.996C115.74 152.588 117.53 149.856 117.86 149.228C119.634 150.437 119.587 150.484 119.744 150.343C124.277 146.392 128.049 141.646 130.875 136.339C130.88 136.33 130.884 136.319 130.885 136.309C130.886 136.298 130.885 136.288 130.882 136.277C130.879 136.267 130.874 136.258 130.868 136.249C130.861 136.241 130.853 136.234 130.844 136.229C130.834 136.224 130.824 136.22 130.814 136.219C130.803 136.218 130.792 136.219 130.782 136.222C130.772 136.225 130.763 136.23 130.754 136.236C130.746 136.243 130.739 136.251 130.734 136.26C129.038 139.102 120.074 149.982 119.571 149.966C119.069 149.951 108.393 142.116 107.906 141.724C109.88 139.735 111.706 137.604 113.37 135.35C113.496 133.672 113.496 131.987 113.37 130.31C113.366 130.265 113.347 130.224 113.315 130.192C113.283 130.16 113.242 130.141 113.197 130.137C111.501 130.137 109.539 129.619 108.393 130.985C106.493 133.23 104.515 135.334 102.647 137.595C102.176 137.077 96.8061 132.492 96.7904 132.335L96.7276 132.367ZM107.592 141.473C106.022 140.248 104.452 139.008 102.882 137.705C104.546 136.135 108.346 131.236 108.927 130.781C110.133 130.371 111.418 130.253 112.679 130.436C113.307 130.608 113.166 133.419 113.056 134.47C112.946 135.522 108.895 140.06 107.655 141.441L107.592 141.473ZM100.072 135.695C105.659 140.427 111.491 144.86 117.546 148.977C115.646 152.745 114.531 153.153 114.94 153.42C121.675 157.926 129.556 160.093 136.417 164.41C136.747 164.63 137.265 163.578 139.259 163.672L138.113 164.787C138.072 164.67 138.072 164.543 138.113 164.426C138.113 164.332 138.113 164.285 137.987 164.332C137.265 164.944 138.804 166.09 140.515 164.834C140.791 165.101 141.001 165.429 141.127 165.792C141.188 166.065 141.186 166.349 141.121 166.621C141.055 166.893 140.929 167.146 140.75 167.362C140.382 167.766 139.904 168.055 139.375 168.194C138.846 168.334 138.287 168.317 137.767 168.147C137.767 168.147 137.61 168.257 137.767 168.304C138.298 168.564 138.895 168.656 139.479 168.566C140.063 168.476 140.605 168.209 141.033 167.802C141.19 168.165 141.238 168.566 141.171 168.957C141.104 169.347 140.925 169.709 140.656 170C139.761 170.989 138.552 170.659 137.422 170.439C137.396 170.432 137.368 170.435 137.343 170.447C137.319 170.459 137.3 170.48 137.291 170.506C137.281 170.531 137.281 170.559 137.291 170.585C137.3 170.61 137.319 170.631 137.344 170.643C138.045 171.066 138.882 171.206 139.683 171.036C139.683 172.778 136.354 172.606 135.397 172.355C134.454 171.994 133.586 171.462 132.838 170.785C132.477 170.471 131.974 169.623 131.566 169.45C131.158 169.277 128.426 169.811 120.419 169.67C107.561 169.434 105.394 167.692 100.307 162.369C92.4415 154.08 93.305 143.105 100.135 135.664L100.072 135.695ZM9.41993 141.3C10.9899 138.317 16.4849 139.353 19.2167 139.353C27.3807 139.353 78.7825 139.526 96.6648 139.903C95.2227 142.536 94.4264 145.474 94.3412 148.475C79.5832 148.129 22.7649 148.161 8.63493 148.381C8.69773 146.01 8.39943 143.168 9.41993 141.3ZM50.2399 208.967C48.1989 210.239 45.3415 215.812 43.3947 221.087C14.3183 221.543 13.7374 221.857 11.6336 220.569C8.65063 218.764 8.85473 212.437 8.87043 209.014C8.88613 205.591 8.71343 202.09 8.57213 198.636C7.88133 182.026 8.66633 148.679 8.66633 148.616C15.6214 148.962 79.5361 148.616 94.3569 148.962C94.3569 156.168 98.5959 162.008 104.232 166.389C103.997 166.844 102.442 168.728 102.348 168.932C103.489 170.236 104.75 171.43 106.116 172.496L92.7869 204.791C92.441 204.522 92.0087 204.39 91.5718 204.419C91.1349 204.448 90.7238 204.636 90.4162 204.948C88.8462 206.392 88.595 209.658 88.2025 211.542C87.7158 214.038 87.7943 214.807 90.4162 217.822C90.4162 217.822 87.2762 222.045 87.2762 222.124C87.2762 222.202 73.4445 217.963 71.9216 217.68C72.0943 216.613 72.1885 215.969 72.1885 215.969C72.1885 215.969 53.7881 206.753 50.2399 208.967ZM111.972 196.674C111.972 196.799 115.379 197.004 123.323 193.534C123.323 194.319 117.043 210.411 117.043 210.411C117.043 210.411 115.678 213.363 111.831 211.448C108.678 209.687 105.674 207.671 102.851 205.419C102.851 205.419 100.763 204.069 102.631 200.175C104.499 196.281 108.55 186.579 108.785 186.202C109.123 189.871 110.202 193.434 111.957 196.674H111.972ZM109.178 185.684C109.602 185.197 110.183 184.852 110.748 185.354L121.141 190.221C121.702 190.441 122.193 190.808 122.563 191.283C122.933 191.758 123.168 192.324 123.245 192.922C121.581 193.707 114.249 196.407 112.255 196.156C110.651 192.877 109.606 189.354 109.162 185.731L109.178 185.684ZM62.9255 225.797C62.4716 227.327 61.8169 228.789 60.9787 230.146C60.806 230.413 60.3036 230.256 60.4292 229.911C60.963 228.435 61.8736 227.053 62.5487 225.64C62.559 225.616 62.5741 225.593 62.5931 225.574C62.6121 225.555 62.6346 225.54 62.6594 225.53C62.6842 225.52 62.7108 225.515 62.7376 225.515C62.7644 225.515 62.7909 225.52 62.8156 225.53C62.8404 225.541 62.8628 225.556 62.8818 225.575C62.9007 225.594 62.9157 225.616 62.9259 225.641C62.9361 225.666 62.9413 225.693 62.9412 225.719C62.9412 225.746 62.9358 225.773 62.9255 225.797ZM60.3978 224.227C60.0995 224.934 59.2831 227.65 58.9377 228.168C58.9106 228.217 58.8679 228.256 58.8163 228.278C58.7648 228.3 58.7073 228.304 58.6532 228.289C58.599 228.275 58.5513 228.243 58.5175 228.198C58.4837 228.153 58.4658 228.099 58.4667 228.042C58.8187 226.647 59.3462 225.302 60.0367 224.039C60.178 223.866 60.492 224.07 60.3978 224.29V224.227ZM55.8919 226.315C56.234 225.047 56.6642 223.803 57.1793 222.595C57.1939 222.54 57.2294 222.494 57.278 222.466C57.3266 222.438 57.3843 222.431 57.4384 222.445C57.4925 222.46 57.5386 222.495 57.5666 222.544C57.5946 222.593 57.6021 222.65 57.5875 222.704C57.2941 224.005 56.857 225.269 56.2844 226.472C56.2559 226.501 56.2205 226.523 56.1814 226.534C56.1423 226.545 56.1011 226.546 56.0616 226.536C56.022 226.527 55.9857 226.507 55.9559 226.48C55.9262 226.452 55.9042 226.417 55.8919 226.378V226.315ZM65.0136 249.159C63.6986 241.639 60.8675 234.465 56.6926 228.074L65.9556 235.83C65.9556 235.83 66.1597 235.484 66.4737 234.856C68.868 236.519 71.3581 238.039 73.9312 239.409C70.9168 240.728 67.1331 246.192 65.0136 249.222V249.159ZM106.242 243.099C101.359 246.239 98.6116 246.506 92.677 246.003C87.7876 245.43 83.0629 243.882 78.7825 241.45C76.6369 240.351 74.5069 239.195 72.3926 237.981C70.4615 236.866 68.6089 235.563 66.6464 234.511C69.2136 229.385 70.9719 223.893 71.8588 218.23C73.0049 218.654 85.2823 222.029 87.4646 222.657C87.7001 222.657 87.5745 222.799 90.7145 218.214C95.9269 224.102 102.285 227.242 109.413 230.774C111.47 231.763 113.527 232.768 115.693 233.679C113.232 237.459 110.014 240.688 106.242 243.162V243.099ZM124.893 232.878C122.601 235.83 120.89 235.202 117.185 233.71C112.632 231.889 108.251 229.612 103.918 227.43C99.6317 225.334 95.6965 222.585 92.2531 219.282C90.5575 217.555 87.9513 215.31 88.3909 212.719C88.6107 211.416 89.851 206.769 89.9609 206.612C90.2749 205.356 91.2326 204.932 92.834 205.356C92.834 205.45 125.945 225.97 126.919 226.41C127.547 228.623 126.306 231.104 124.893 232.941V232.878ZM102.725 169.01C103.31 168.219 103.835 167.385 104.295 166.514C108.189 169.497 113.872 169.654 118.582 169.874C126.699 170.157 128.583 169.481 130.687 169.67C131.582 169.748 131.283 169.764 132.163 170.612C130.828 171.444 126.385 175.165 125.883 176.327C125.875 176.346 125.874 176.368 125.878 176.388C125.883 176.409 125.893 176.428 125.908 176.443C125.923 176.458 125.942 176.468 125.962 176.472C125.983 176.477 126.004 176.475 126.024 176.468C127.154 176.264 131.582 172.386 132.634 171.114C133.541 171.879 134.617 172.417 135.774 172.684C136.982 172.951 140.075 172.684 139.871 170.8C140.211 170.695 140.523 170.513 140.782 170.269C141.041 170.025 141.241 169.725 141.367 169.392C141.493 169.059 141.541 168.701 141.507 168.347C141.474 167.992 141.36 167.65 141.174 167.346C141.708 166.734 141.802 164.881 140.625 164.426C140.389 164.065 140.232 164.693 139.228 164.928C139.056 164.954 138.881 164.954 138.709 164.928C142.289 162.008 149.511 155.508 157.549 148.067C157.157 156.56 155.979 167.849 152.934 175.196C145.931 177.888 138.449 179.112 130.954 178.792C122.334 178.478 108.33 175.29 102.725 169.01ZM149.464 232.69C147.753 233.993 145.979 232.203 144.66 230.994C143.341 229.785 141.52 227.603 141.52 225.703C141.52 224.243 168.116 191.666 168.587 191.289C169.968 190.19 170.157 189.97 171.617 191.54C172.653 192.717 175.856 198.024 175.84 199.39C175.84 204.963 150.61 231.826 149.464 232.69ZM159.119 238.813C159.091 237.821 158.949 236.836 158.696 235.877C158.051 235.195 157.317 234.603 156.513 234.118C155.069 232.957 153.703 231.716 152.337 230.46C158.931 223.521 167.692 214.022 172.888 206C179.734 215.781 179.859 220.868 182.12 232.407C183.941 241.717 185.652 250.886 186.657 260.322C184.852 260.887 174.003 266.005 172.888 266.68C167.425 258.83 161.003 248.154 159.119 238.813ZM184.459 270.04C185.072 269.695 187.379 268.282 187.992 268.062C188.149 268.062 188.321 268.219 188.212 268.36C187.268 269.419 186.016 270.155 184.632 270.464C184.58 270.472 184.526 270.462 184.48 270.436C184.435 270.41 184.399 270.369 184.379 270.32C184.359 270.271 184.356 270.217 184.371 270.166C184.385 270.115 184.416 270.071 184.459 270.04ZM185.276 272.568C186.421 271.986 187.595 271.462 188.792 270.998C189.028 270.998 189.248 271.249 189.044 271.422C187.95 272.148 186.739 272.679 185.464 272.992C185.26 273.054 185.009 272.63 185.26 272.521L185.276 272.568ZM189.703 274.75C188.712 275.648 187.596 276.399 186.39 276.979C186.139 277.058 185.919 276.712 186.123 276.54C187.176 275.747 188.283 275.028 189.436 274.389C189.625 274.279 189.829 274.546 189.703 274.75Z" fill="#D9D9D9"/>
<path d="M273.463 84.4817L275.378 85.094C275.174 83.5309 274.389 82.1018 273.18 81.0905C273.578 80.913 273.953 80.6862 274.295 80.4154C274.668 80.8486 275.108 81.2196 275.598 81.5144C275.739 81.5144 276.037 81.6714 275.975 81.2789C275.466 80.7687 274.871 80.3539 274.216 80.0543C274.075 80.0543 272.992 80.6195 272.74 80.7294C272.214 80.329 271.645 79.9869 271.045 79.7089C271.045 79.4577 271.123 78.3273 271.045 78.0604C271.386 77.9258 271.696 77.7228 271.955 77.4638C272.929 76.6945 270.668 77.872 270.652 77.8877C270.568 78.4066 270.532 78.9321 270.542 79.4577C269.589 79.0578 268.585 78.7884 267.559 78.657C267.638 78.5 268.077 76.459 267.732 76.1921C267.732 76.1136 266.821 75.2658 266.272 74.7477C265.864 74.8419 267.355 76.2078 267.559 76.3177C267.354 77.0542 267.243 77.8139 267.23 78.5785C266.42 78.5105 265.604 78.5688 264.812 78.7512C264.639 77.1812 263.038 76.8515 261.672 77.5737C261.672 77.5737 259.678 70.9169 259.223 69.5353C259.113 69.237 259.066 69.2841 259.128 69.5353C259.427 70.8855 261.311 77.6051 261.405 77.6993C261.247 77.7855 261.104 77.8969 260.981 78.029C259.26 75.5647 256.891 73.6247 254.136 72.4241C252.472 71.7647 252.142 71.749 253.79 72.6282C256.516 74.0715 258.907 76.0721 260.808 78.5C260.18 79.6147 260.306 81.7342 261.515 82.1424C261.362 82.8011 261.288 83.4757 261.295 84.152C260.616 84.0187 259.917 84.0187 259.238 84.152C259.144 83.9636 257.825 82.1424 257.935 82.582C257.935 82.8489 258.971 84.3875 259.38 84.4346C260.021 84.5071 260.666 84.5385 261.311 84.5288C261.377 85.5903 261.55 86.6424 261.829 87.6688C261.241 87.5404 260.641 87.472 260.039 87.4647C259.716 87.7087 259.417 87.982 259.144 88.2811C258.296 89.3016 259.458 88.9405 260.196 87.8415C262.912 88.391 261.389 87.4804 262.677 89.7412C262.276 90.2397 261.909 90.7642 261.578 91.3112C261.691 91.9273 261.938 92.5112 262.3 93.0225C262.473 93.4935 263.053 93.2894 262.567 92.4416C262.382 92.0949 262.161 91.7686 261.907 91.4682C262.358 91.136 262.715 90.6924 262.944 90.1808C263.437 90.9765 264.134 91.6269 264.961 92.0654C265.789 92.504 266.718 92.7151 267.654 92.6771L267.292 91.3897C268.225 91.6807 269.221 91.6972 270.163 91.437C271.105 91.1768 271.951 90.651 272.602 89.9225C273.253 89.194 273.68 88.2935 273.832 87.3287C273.985 86.3638 273.857 85.3755 273.463 84.4817ZM261.625 81.7813C261.311 81.5466 261.064 81.2345 260.908 80.8757C260.751 80.5169 260.691 80.1236 260.732 79.7343C260.773 79.3449 260.915 78.973 261.143 78.6548C261.371 78.3366 261.677 78.0831 262.033 77.9191C262.462 77.7713 262.914 77.7021 263.367 77.715C263.657 77.7994 263.92 77.9583 264.13 78.1759C264.339 78.3935 264.488 78.6623 264.561 78.9553C263.876 79.147 263.249 79.5054 262.737 79.9986C262.225 80.4918 261.842 81.1043 261.625 81.7813ZM264.561 81.5615L266.821 82.2994C266.389 82.862 265.79 83.274 265.11 83.4769L264.561 81.5615ZM265.189 83.7752C266.029 83.6002 266.784 83.1398 267.324 82.4721L268.894 83.0059C268.687 83.728 268.268 84.3714 267.692 84.8529C267.115 85.3343 266.407 85.6316 265.66 85.7063L265.189 83.7752ZM265.864 86.1302C266.674 86.0479 267.441 85.7261 268.067 85.206C268.694 84.6859 269.151 83.991 269.381 83.21L271.626 83.9479C271.516 85.2351 270.954 86.442 270.041 87.3556C269.127 88.2691 267.92 88.8304 266.633 88.9405L265.864 86.1302ZM272.144 89.7569C271.517 90.384 270.731 90.828 269.871 91.041C269.01 91.2541 268.108 91.2281 267.261 90.9658L266.743 89.1446C267.84 89.1396 268.908 88.7939 269.799 88.1555C270.691 87.517 271.362 86.6173 271.72 85.5807C271.947 85.0822 272.1 84.5533 272.175 84.0107L272.819 84.2148C273.267 85.1037 273.439 86.1064 273.313 87.0939C273.188 88.0815 272.769 89.0088 272.112 89.7569H272.144ZM73.6644 207.585L73.9156 208.731C74.7252 208.139 75.285 207.266 75.4856 206.282C75.6824 206.448 75.9052 206.581 76.145 206.675C75.6269 207.68 76.4904 209.014 76.5218 206.549C76.3962 206.157 76.302 206.267 75.5641 205.733C75.6031 205.357 75.6031 204.978 75.5641 204.602C75.8153 204.508 75.4542 204.602 76.5061 204.1C76.8986 204.602 78.7669 204.508 76.5061 203.692C76.1403 203.785 75.7909 203.933 75.4699 204.131C75.38 203.511 75.2111 202.904 74.9675 202.326C75.2815 202.2 76.0822 202.153 76.459 201.541C76.459 201.337 76.8829 200.63 76.6788 200.128C76.3177 200.379 76.5532 200.458 76.1921 201.462C75.703 201.547 75.2374 201.734 74.8262 202.012C74.6026 201.579 74.3228 201.178 73.9941 200.819C74.1642 200.672 74.2945 200.484 74.3728 200.274C74.4511 200.063 74.475 199.836 74.4421 199.613C74.4092 199.391 74.3207 199.18 74.1847 199.001C74.0487 198.822 73.8698 198.681 73.6644 198.589C74.8576 197.129 77.1812 195.01 78.1232 193.581C76.3363 194.966 74.751 196.594 73.4132 198.417H73.1934C74.0098 196.847 74.6221 193.188 73.7115 191.744C73.8918 193.994 73.5756 196.256 72.7852 198.369C71.9531 198.369 70.7285 199.233 70.9483 200.049C69.2527 200.552 70.4302 200.991 69.2213 199.374C69.551 199.06 70.0534 196.909 68.9701 199.28C68.7974 199.61 69.1742 200.096 69.5196 200.756C69.0014 201.113 68.5178 201.518 68.0752 201.965C67.9316 201.611 67.7691 201.265 67.5885 200.929C67.5885 200.929 65.6103 200.348 66.5523 201.038C66.8007 201.13 67.0588 201.194 67.3216 201.227C67.439 201.594 67.586 201.951 67.7612 202.294C67.5317 202.554 67.3316 202.839 67.1646 203.142C66.7018 203.018 66.2143 203.018 65.7516 203.142C65.3591 204.43 64.6212 204.053 65.2335 204.477C65.5702 204.223 65.822 203.872 65.9557 203.472C66.2658 203.61 66.6099 203.654 66.9448 203.598C66.6742 204.138 66.5493 204.739 66.5823 205.342C66.6154 205.945 66.8052 206.529 67.1332 207.036L67.6984 206.455C68.2008 208.936 72.22 209.878 73.6644 207.585ZM73.79 199.233C73.9263 199.432 73.9993 199.667 73.9993 199.908C73.9993 200.149 73.9263 200.384 73.79 200.583C73.4685 200.277 73.0786 200.052 72.6527 199.926C72.2267 199.8 71.777 199.778 71.3408 199.861C71.3906 199.601 71.5134 199.36 71.695 199.167C71.8765 198.973 72.1093 198.836 72.3661 198.77C72.6229 198.704 72.8932 198.713 73.1453 198.795C73.3974 198.877 73.621 199.029 73.79 199.233ZM72.5968 202.907C72.1661 202.829 71.7614 202.646 71.4193 202.373L72.2828 201.478L72.5968 202.907ZM71.1995 202.593C71.6147 203.036 72.1685 203.324 72.7695 203.409L72.9736 204.335C72.5112 204.461 72.0215 204.443 71.5699 204.283C71.1183 204.123 70.7261 203.829 70.4459 203.441L71.1995 202.593ZM70.0691 203.77C70.4002 204.214 70.8577 204.548 71.3816 204.727C71.9055 204.906 72.4713 204.923 73.005 204.775L73.3033 206.157C72.5504 206.514 71.6957 206.595 70.889 206.386C70.0824 206.176 69.3752 205.689 68.8916 205.011L70.0691 203.77ZM70.179 208.355C69.6235 208.212 69.1177 207.92 68.7164 207.511C68.315 207.101 68.0336 206.589 67.9025 206.031L68.6718 205.215C69.1506 205.983 69.8931 206.55 70.7601 206.81C71.6271 207.07 72.5591 207.005 73.3818 206.628V206.895C73.0466 207.407 72.5749 207.815 72.02 208.073C71.4652 208.331 70.8492 208.428 70.2418 208.355H70.179ZM53.6626 101.94C53.6265 102.375 53.7171 102.811 53.9232 103.195C54.1294 103.58 54.4423 103.896 54.8244 104.107C54.3572 104.644 53.9903 105.261 53.7411 105.928C52.3909 113.181 56.8811 114.516 56.8811 114.516L57.0538 108.848C57.462 112.318 60.288 116.07 62.6744 111.69C66.1441 113.26 66.7564 108.754 64.7625 106.634C65.3591 106.448 65.895 106.106 66.3147 105.643C66.7344 105.18 67.0224 104.613 67.149 104.001C67.2756 103.389 67.236 102.754 67.0345 102.163C66.8329 101.571 66.4767 101.044 66.0028 100.637C68.0124 99.4438 68.8131 94.9693 65.2335 95.5188C63.6635 88.8934 58.5924 95.8328 57.6347 99.6479L59.2047 90.2279C59.2047 90.2279 54.4947 90.6518 54.3691 98.0779C54.4898 98.7949 54.7342 99.4855 55.0913 100.119C54.823 100.185 54.5739 100.314 54.364 100.494C54.1541 100.674 53.9892 100.9 53.8824 101.155C49.9307 99.7037 46.6026 96.9302 44.4624 93.3051C45.9539 97.5598 49.7219 99.9619 53.7411 101.626C50.5069 101.438 45.4201 101.265 43.3477 103.793C46.5505 101.752 49.9103 101.783 53.6626 101.94ZM65.5004 108.801C66.1127 110.826 64.684 112.129 62.8157 111.36C63.3181 108.503 59.5658 104.389 57.7289 102.961C60.7747 103.73 64.1816 105.52 65.5004 108.801ZM59.8798 103.306C59.1745 103.046 58.4501 102.841 57.7132 102.694C58.4552 102.749 59.2005 102.749 59.9426 102.694C59.9112 102.835 60.0525 102.851 59.8798 103.306ZM60.2566 102.709C60.7833 102.671 61.3074 102.602 61.8266 102.505C61.895 102.767 61.8948 103.041 61.8261 103.303C61.7573 103.564 61.6223 103.803 61.4341 103.997C61.0168 103.778 60.5869 103.584 60.1467 103.416C60.2277 103.319 60.2808 103.202 60.3001 103.078C60.3195 102.953 60.3044 102.826 60.2566 102.709ZM62.1406 102.442C62.7639 102.311 63.3736 102.122 63.9618 101.877C64.2758 103.133 64.6212 104.311 63.3966 105.206C62.8982 104.814 62.3736 104.458 61.8266 104.138C62.0659 103.935 62.2278 103.655 62.285 103.346C62.3422 103.037 62.2912 102.718 62.1406 102.442ZM66.8506 103.243C66.822 103.93 66.5926 104.594 66.1908 105.152C65.789 105.71 65.2323 106.138 64.5898 106.383C64.2869 106.018 63.9505 105.681 63.585 105.378C64.7782 104.923 64.8724 102.929 64.2287 101.752C64.7859 101.511 65.3128 101.205 65.7987 100.841C66.3753 101.524 66.7456 102.357 66.8663 103.243H66.8506ZM64.1816 101.234C62.2311 102.183 60.0659 102.606 57.9016 102.458C60.0839 101.595 64.8253 98.6902 65.2806 95.8171C69.5039 95.927 66.6936 100.48 64.1973 101.234H64.1816ZM57.305 102.223C61.4812 85.8319 71.435 96.6649 57.4463 102.442H57.305V102.223ZM57.305 102.851C57.7132 102.976 65.155 110.308 61.3085 112.883C56.8811 114.845 57.2265 104.672 57.305 102.851ZM55.3582 100.354C55.8073 101.059 56.3758 101.681 57.0381 102.191C57.0188 102.253 57.0188 102.318 57.0381 102.38C56.3558 102.726 55.7352 103.182 55.2012 103.73C53.6155 103.51 53.7568 100.668 55.3582 100.354ZM249.63 89.3487C249.623 88.1519 249.502 86.9586 249.269 85.7848C249.269 85.5807 248.923 85.6278 248.923 85.7848C248.896 86.9617 248.975 88.1387 249.159 89.3016C249.237 89.49 249.63 89.6156 249.63 89.3487ZM243.695 97.1202C243.675 95.9182 243.549 94.7204 243.319 93.5406C243.319 93.3365 242.973 93.3993 242.973 93.5406C242.954 94.7226 243.033 95.9041 243.209 97.0731C243.35 97.34 243.633 97.34 243.695 97.1202ZM294.893 96.8062C294.872 95.6043 294.746 94.4065 294.516 93.2266C294.516 93.0382 294.171 93.0853 294.171 93.2266C294.149 94.4092 294.233 95.5914 294.422 96.7591C294.501 97.0103 294.846 97.0731 294.893 96.8062ZM298.3 96.8062C298.279 95.6043 298.153 94.4065 297.923 93.2266C297.923 93.0382 297.578 93.0853 297.578 93.2266C297.551 94.4088 297.63 95.591 297.813 96.7591C297.923 97.0103 298.3 97.0731 298.3 96.8062ZM284.39 94.4355C284.371 95.6175 284.449 96.799 284.625 97.968C284.704 98.1721 285.049 98.2192 285.112 97.968C285.093 96.766 284.967 95.568 284.735 94.3884C284.704 94.2 284.39 94.2 284.39 94.4355ZM284.484 90.0395C284.473 88.837 284.347 87.6383 284.107 86.4599C284.107 86.2558 283.762 86.3029 283.762 86.4599C283.74 87.6425 283.825 88.8247 284.013 89.9924C284.076 90.2279 284.421 90.2907 284.484 90.0395ZM279.743 90.0395C279.731 88.837 279.605 87.6383 279.366 86.4599C279.366 86.2558 279.02 86.3029 279.02 86.4599C278.999 87.6425 279.083 88.8247 279.272 89.9924C279.35 90.2279 279.695 90.2907 279.743 90.0395ZM298.174 88.6736C298.162 87.4763 298.036 86.283 297.798 85.1097C297.798 84.9056 297.452 84.9527 297.452 85.1097C297.43 86.2923 297.514 87.4745 297.703 88.6422C297.782 88.8777 298.127 88.9405 298.174 88.6736ZM294.595 80.7294C294.583 79.5321 294.457 78.3388 294.218 77.1655C294.218 76.9614 293.873 77.0085 293.873 77.1655C293.851 78.3429 293.935 79.5199 294.124 80.6823C294.202 80.9335 294.548 80.9963 294.595 80.7294ZM289.21 77.2126C289.175 78.3897 289.254 79.5674 289.445 80.7294C289.445 80.9335 289.869 80.9963 289.916 80.7294C289.902 79.533 289.782 78.3403 289.555 77.1655C289.552 77.1428 289.544 77.121 289.533 77.1012C289.521 77.0814 289.506 77.0641 289.488 77.0503C289.47 77.0364 289.449 77.0263 289.427 77.0205C289.405 77.0146 289.381 77.0132 289.359 77.0163C289.336 77.0194 289.314 77.027 289.295 77.0385C289.275 77.05 289.257 77.0653 289.244 77.0836C289.23 77.1018 289.22 77.1226 289.214 77.1447C289.208 77.1668 289.207 77.1899 289.21 77.2126ZM279.083 81.7656C279.068 80.5641 278.948 79.3662 278.722 78.186C278.722 77.9819 278.377 78.0447 278.377 78.186C278.342 79.3683 278.421 80.5512 278.612 81.7185C278.691 81.9697 279.036 82.0168 279.083 81.7656ZM284.327 72.6439C284.313 71.4475 284.192 70.2548 283.966 69.08C283.966 69.0342 283.948 68.9903 283.915 68.9579C283.883 68.9255 283.839 68.9073 283.793 68.9073C283.747 68.9073 283.703 68.9255 283.671 68.9579C283.639 68.9903 283.62 69.0342 283.62 69.08C283.593 70.2569 283.672 71.4339 283.856 72.5968C283.934 72.848 284.28 72.9108 284.327 72.6439ZM273.604 72.6439C273.568 71.4457 273.427 70.253 273.18 69.08C273.18 68.8759 272.835 68.923 272.835 69.08C272.815 70.2568 272.894 71.4331 273.07 72.5968C273.18 72.848 273.541 72.9108 273.604 72.6439ZM222.312 112.914C222.29 114.097 222.374 115.279 222.563 116.447C222.642 116.651 222.987 116.714 223.034 116.447C223.022 115.25 222.896 114.056 222.657 112.883C222.626 112.679 222.312 112.726 222.312 112.914ZM232.062 112.145C232.04 113.328 232.124 114.51 232.313 115.678C232.391 115.882 232.737 115.944 232.784 115.678C232.748 114.474 232.607 113.276 232.36 112.098C232.339 112.078 232.313 112.062 232.286 112.053C232.258 112.044 232.228 112.042 232.199 112.047C232.17 112.051 232.143 112.063 232.119 112.08C232.095 112.097 232.075 112.119 232.062 112.145ZM238.153 111.878C238.131 113.061 238.215 114.243 238.404 115.411C238.483 115.615 238.828 115.662 238.875 115.411C238.863 114.208 238.737 113.01 238.499 111.831C238.467 111.627 238.153 111.69 238.153 111.878ZM231.701 103.039C231.701 102.835 231.355 102.898 231.355 103.039C231.333 104.222 231.417 105.404 231.606 106.572C231.606 106.776 232.03 106.823 232.077 106.572C232.062 105.385 231.936 104.202 231.701 103.039ZM227.524 106.619C227.518 105.417 227.397 104.218 227.163 103.039C227.163 102.835 226.818 102.898 226.818 103.039C226.791 104.221 226.87 105.403 227.053 106.572C227.132 106.76 227.477 106.87 227.524 106.619ZM243.947 105.849C243.964 105.897 243.997 105.939 244.039 105.968C244.081 105.997 244.131 106.013 244.182 106.013C244.233 106.013 244.283 105.997 244.325 105.968C244.368 105.939 244.4 105.897 244.418 105.849C244.405 104.652 244.279 103.459 244.041 102.285C244.041 102.081 243.695 102.128 243.695 102.285C243.671 103.479 243.755 104.671 243.947 105.849ZM257.857 105.849C257.842 104.653 257.721 103.46 257.496 102.285C257.496 102.24 257.477 102.196 257.445 102.163C257.413 102.131 257.369 102.113 257.323 102.113C257.277 102.113 257.233 102.131 257.201 102.163C257.168 102.196 257.15 102.24 257.15 102.285C257.116 103.463 257.195 104.64 257.386 105.802C257.48 106.053 257.81 106.116 257.857 105.849ZM257.715 110.842C257.681 112.024 257.759 113.207 257.951 114.374C257.951 114.579 258.375 114.626 258.422 114.374C258.408 113.173 258.287 111.975 258.061 110.795C258.014 110.591 257.715 110.654 257.715 110.842ZM250.305 111.674C250.278 112.856 250.357 114.038 250.541 115.207C250.541 115.411 250.964 115.458 251.012 115.207C250.998 114.005 250.877 112.807 250.65 111.627C250.619 111.47 250.305 111.47 250.305 111.674ZM270.715 110.842C270.688 112.024 270.767 113.206 270.951 114.374C270.951 114.579 271.374 114.626 271.422 114.374C271.408 113.173 271.287 111.975 271.06 110.795C271.013 110.591 270.715 110.654 270.715 110.842ZM270.778 105.849C270.763 104.653 270.643 103.46 270.417 102.285C270.417 102.081 270.071 102.128 270.071 102.285C270.045 103.462 270.124 104.639 270.307 105.802C270.385 106.053 270.731 106.116 270.778 105.849ZM279.177 101.485C279.15 102.667 279.229 103.849 279.413 105.017C279.491 105.221 279.837 105.284 279.9 105.017C279.879 103.815 279.753 102.618 279.523 101.438C279.46 101.249 279.177 101.296 279.177 101.485ZM285.159 101.862C285.141 103.038 285.219 104.215 285.395 105.378C285.473 105.582 285.818 105.645 285.866 105.378C285.859 104.182 285.738 102.988 285.504 101.814C285.473 101.61 285.159 101.657 285.159 101.862ZM280.245 110.465C280.223 111.643 280.307 112.82 280.496 113.982C280.496 114.186 280.92 114.249 280.967 113.982C280.947 112.785 280.821 111.593 280.59 110.418C280.559 110.214 280.245 110.261 280.245 110.465ZM290.057 110.151C290.036 111.334 290.12 112.516 290.309 113.684C290.387 113.888 290.733 113.935 290.78 113.684C290.769 112.481 290.642 111.283 290.403 110.104C290.45 109.9 290.057 109.9 290.057 110.151ZM295.066 109.9C295.039 111.077 295.118 112.254 295.301 113.417C295.301 113.621 295.725 113.684 295.772 113.417C295.765 112.22 295.644 111.027 295.411 109.853C295.38 109.696 295.066 109.743 295.066 109.9ZM295.16 104.892C295.146 103.69 295.025 102.492 294.799 101.312C294.787 101.273 294.763 101.239 294.731 101.215C294.698 101.191 294.659 101.177 294.618 101.177C294.578 101.177 294.538 101.191 294.506 101.215C294.473 101.239 294.449 101.273 294.438 101.312C294.416 102.495 294.501 103.677 294.689 104.845C294.799 105.08 295.16 105.19 295.16 104.892ZM298.127 285.834C305.569 279.648 305.977 269.255 306.15 260.165C304.58 259.866 295.458 264.058 294.783 264.074C297.269 261.156 298.961 257.647 299.697 253.885C300.608 251.012 303.418 234.935 300.953 236.929C294.375 241.011 288.566 244.936 282.113 249.489C282.113 247.997 281.187 233.6 278.973 228.89C277.513 227.87 275.931 227.037 274.263 226.41C274.436 226.143 278.612 222.516 277.984 222.657C277.04 217.754 275.829 212.906 274.357 208.135C263.65 217.319 259.05 233.93 257.48 248.06C256.962 246.49 253.806 234.935 251.106 232.172C245.689 240.979 243.868 252.786 244.951 263.101C241.592 261.531 216.864 263.917 223.348 266.617C229.55 272.097 235.908 276.995 240.1 283.887C238.153 283.887 230.806 283.746 224.855 283.793C222.44 283.642 220.017 283.642 217.602 283.793C225.363 284.401 233.154 284.538 240.932 284.201C236.882 276.885 228.796 270.841 222.595 265.471C229.838 263.233 237.47 262.538 244.998 263.43C245.218 263.776 244.998 266.115 245.705 265.832C244.203 254.479 246.116 242.936 251.2 232.674C253.696 236.646 257.7 249.473 258.406 255.627C259.238 254.214 257.794 250.917 257.621 248.892C260.133 234.621 262.504 221.621 273.07 209.454C274.938 207.632 274.64 210.349 275.833 214.022C276.592 216.841 277.205 219.697 277.67 222.579C277.843 222.579 275.425 224.745 274.185 225.876C272.615 227.289 279.115 228.576 278.973 229.832C280.376 236.359 281.331 242.973 281.831 249.63C278.926 251.954 274.342 255.235 273.086 258.108C280.936 249.442 291.8 243.287 301.44 236.897C301.77 246.6 299.87 258.689 293.998 264.372C281.893 270.652 306.464 259.898 305.663 260.432H305.757C305.852 269.852 303.983 281.878 297.358 285.818C297.138 285.96 279.429 286.085 285.661 286.399C289.979 286.289 303.983 286.164 304.093 285.724C302.57 285.206 300.011 285.85 298.127 285.834Z" fill="#D9D9D9"/>
<path d="M268.674 284.939C274.436 262.551 282.364 258.422 292.664 248.217C279.648 258.343 270.527 271.343 268.674 284.939ZM268.47 227.132C267.795 235.892 264.702 244.402 265.016 253.461C264.812 261.829 267.104 269.773 267.151 277.607C267.905 269.428 264.922 261.012 265.393 252.691C264.937 244.229 268.737 234.872 268.47 227.132ZM250.776 249.41C251.906 255.298 257.7 277.262 260.196 282.38C261.107 283.715 259.301 279.02 258.971 277.67C256.13 269.051 252.377 253.115 250.776 249.41ZM233.836 267.402C239.613 272.222 248.468 278.063 252.817 284.814C248.688 277.45 240.602 272.191 233.836 267.402ZM151.756 270.338C147.847 266.068 149.024 264.733 145.979 269.349C145.837 268.988 134.219 263.258 136.559 265.911C148.679 277.183 140.012 267.968 137.186 265.911C149.244 269.742 143.718 271.971 148.365 266.774C149.307 267.167 151.364 271.814 151.929 270.354C152.353 269.632 152.761 268.784 153.263 269.035C153.75 270.166 154.833 269.773 156.042 269.836C157.612 269.616 160.281 270.338 161.113 269.647C158.694 269.729 156.273 269.603 153.876 269.271C152.965 266.319 152.494 269.663 151.756 270.338ZM63.7105 273.777C66.0184 268.878 76.9613 251.561 78.2801 247.997C73.0363 255.125 65.4218 267.669 63.7105 273.777ZM56.5199 260.07C53.1915 251.797 52.4222 241.23 49.4706 233.679C51.8099 242.204 52.7519 252.346 56.5199 260.07ZM50.0986 268.47C44.6821 263.556 38.7946 258.563 33.1426 253.775C38.4085 259.102 44.0773 264.015 50.0986 268.47ZM67.3529 157.879C67.3529 157.659 26.0462 157.094 18.9341 156.576C18.7928 156.576 18.6672 156.717 18.6515 156.859C18.5102 162.118 19.044 199.013 19.201 199.013C27.1452 199.139 59.0633 198.401 66.9918 197.804C67.2587 197.82 67.2744 199.939 67.3529 157.879ZM66.6621 197.333C58.8121 197.443 27.5848 197.836 19.7348 198.668C19.1539 186.108 18.7928 158.02 19.201 157.11C19.4051 157.251 65.83 158.507 66.772 158.319C66.7249 171.318 66.6307 184.334 66.6621 197.333ZM74.6534 166.122C74.6389 164.925 74.5181 163.733 74.2923 162.558C74.2923 162.512 74.2741 162.468 74.2417 162.436C74.2093 162.403 74.1654 162.385 74.1196 162.385C74.0738 162.385 74.0299 162.403 73.9975 162.436C73.9651 162.468 73.9469 162.512 73.9469 162.558C73.9121 163.74 73.9909 164.923 74.1824 166.09C74.2609 166.326 74.6063 166.42 74.6534 166.122ZM23.9267 208.622C23.8997 209.804 23.9785 210.986 24.1622 212.154C24.1622 212.358 24.5861 212.405 24.6489 212.154C24.6298 210.952 24.5037 209.754 24.2721 208.574C24.2407 208.37 23.9267 208.417 23.9267 208.622ZM32.0122 208.622C31.9774 209.804 32.0562 210.987 32.2477 212.154C32.3262 212.358 32.6716 212.405 32.7187 212.154C32.705 210.953 32.5842 209.755 32.3576 208.574C32.3262 208.37 32.0122 208.417 32.0122 208.622ZM34.0061 208.386C33.9764 209.564 34.0605 210.741 34.2573 211.903C34.2573 212.107 34.6812 212.17 34.7283 211.903C34.7162 210.706 34.5901 209.512 34.3515 208.339C34.3201 208.135 34.0061 208.182 34.0061 208.386ZM91.2326 191.132C91.2215 189.929 91.0954 188.731 90.8558 187.552C90.8558 187.348 90.5104 187.411 90.5104 187.552C90.4891 188.735 90.5732 189.917 90.7616 191.085C90.8401 191.336 91.1855 191.383 91.2326 191.132ZM94.7337 185.134C94.7216 183.937 94.5955 182.744 94.3569 181.57C94.3569 181.366 94.0115 181.413 94.0115 181.57C93.9895 182.748 94.0736 183.925 94.2627 185.087C94.3412 185.338 94.6866 185.401 94.7337 185.134ZM78.0603 165.98C80.4781 166.42 80.6037 163.594 78.9552 162.416C77.9033 161.694 76.8357 163.39 76.7101 163.986C76.6353 164.429 76.7339 164.883 76.9854 165.254C77.2369 165.626 77.6219 165.886 78.0603 165.98ZM77.2282 163.72C78.1545 161.679 79.6774 163.72 79.5047 164.536C79.4636 164.699 79.3893 164.852 79.2866 164.985C79.1838 165.118 79.0548 165.228 78.9075 165.309C78.7602 165.39 78.5979 165.44 78.4305 165.456C78.2631 165.471 78.0944 165.452 77.9347 165.399C77.7766 165.337 77.6325 165.244 77.5109 165.126C77.3893 165.007 77.2928 164.865 77.2269 164.709C77.1611 164.552 77.1272 164.384 77.1275 164.214C77.1277 164.044 77.1619 163.876 77.2282 163.72ZM94.1999 191.069C94.4289 191.107 94.6631 191.099 94.8891 191.047C95.1151 190.994 95.3284 190.897 95.5167 190.761C95.7049 190.625 95.8645 190.453 95.9861 190.256C96.1077 190.058 96.189 189.838 96.2252 189.609C96.3194 188.777 94.1214 185.276 92.8654 188.997C92.8078 189.221 92.7971 189.454 92.834 189.683C92.871 189.911 92.9547 190.13 93.08 190.324C93.2053 190.519 93.3695 190.685 93.5622 190.814C93.7549 190.942 93.972 191.029 94.1999 191.069ZM93.3678 188.792C94.1214 186.908 95.8327 188.792 95.6443 189.609C95.6075 189.774 95.5359 189.93 95.4342 190.066C95.3325 190.201 95.2031 190.314 95.0545 190.396C94.906 190.477 94.7417 190.526 94.5727 190.54C94.4037 190.553 94.2338 190.53 94.0743 190.472C93.7689 190.332 93.5306 190.077 93.4103 189.764C93.29 189.45 93.2973 189.101 93.4306 188.792H93.3678ZM27.0196 209.783C26.9621 210.009 26.952 210.243 26.9898 210.473C27.0277 210.702 27.1128 210.921 27.2398 211.116C27.3667 211.311 27.5326 211.477 27.7271 211.604C27.9217 211.732 28.1405 211.817 28.3698 211.856C28.5978 211.894 28.8312 211.886 29.0562 211.833C29.2812 211.78 29.4934 211.682 29.6804 211.547C29.8674 211.411 30.0255 211.239 30.1455 211.041C30.2656 210.844 30.345 210.624 30.3794 210.396C30.4893 209.548 28.4012 206.549 27.0196 209.783ZM29.8299 210.38C29.7909 210.544 29.7179 210.698 29.6157 210.833C29.5134 210.967 29.3842 211.078 29.2363 211.16C29.0884 211.241 28.9251 211.291 28.757 211.305C28.5888 211.319 28.4195 211.298 28.2599 211.243C28.099 211.185 27.9518 211.094 27.8273 210.976C27.7028 210.859 27.6037 210.717 27.5361 210.559C27.4684 210.402 27.4337 210.233 27.434 210.061C27.4342 209.89 27.4695 209.721 27.5377 209.564C28.4012 207.821 29.9869 209.532 29.8299 210.38Z" fill="#D9D9D9"/>
<path d="M59.8954 164.85C54.1021 164.771 30.8818 164.081 25.167 164.567V164.677C30.8661 165.321 54.1021 165.274 59.8954 165.352C59.962 165.352 60.0259 165.326 60.073 165.279C60.1201 165.232 60.1466 165.168 60.1466 165.101C60.1466 165.035 60.1201 164.971 60.073 164.924C60.0259 164.876 59.962 164.85 59.8954 164.85ZM60.4606 172.103C54.6673 172.025 31.4313 171.334 25.7322 171.836V171.931C31.4156 172.574 54.6673 172.527 60.4606 172.606C60.5272 172.606 60.5911 172.579 60.6382 172.532C60.6853 172.485 60.7118 172.421 60.7118 172.355C60.7118 172.288 60.6853 172.224 60.6382 172.177C60.5911 172.13 60.5272 172.103 60.4606 172.103ZM60.9316 180.346C55.154 180.267 31.918 179.577 26.2032 180.079V180.173C31.9023 180.833 55.154 180.77 60.9316 180.848C60.9982 180.848 61.0621 180.822 61.1092 180.775C61.1563 180.728 61.1828 180.664 61.1828 180.597C61.1828 180.53 61.1563 180.467 61.1092 180.419C61.0621 180.372 60.9982 180.346 60.9316 180.346ZM60.9316 188.604C55.154 188.604 31.918 187.835 26.2032 188.337V188.431C31.8866 189.075 55.154 189.028 60.9316 189.106C60.9982 189.106 61.0621 189.08 61.1092 189.033C61.1563 188.986 61.1828 188.922 61.1828 188.855C61.1828 188.789 61.1563 188.725 61.1092 188.678C61.0621 188.631 60.9982 188.604 60.9316 188.604ZM144.974 96.9318C144.951 96.9224 144.926 96.921 144.902 96.9277C144.878 96.9344 144.858 96.9489 144.843 96.9688C144.829 96.9887 144.821 97.0129 144.822 97.0375C144.823 97.0621 144.832 97.0857 144.848 97.1045C145.58 97.8808 146.384 98.5853 147.25 99.2083C147.376 99.2083 147.533 99.2083 147.439 99.0199C146.687 98.2456 145.861 97.5463 144.974 96.9318ZM147.234 86.9152C147.234 86.9152 147.391 86.9152 147.344 86.8053C146.716 86.0742 145.992 85.4301 145.193 84.8899C145.084 84.8899 144.974 84.8899 145.052 85.0626C145.697 85.7711 146.431 86.3937 147.234 86.9152ZM153.86 87.92C154.379 87.8368 154.875 87.6499 155.32 87.3705C155.414 87.3705 155.32 87.1507 155.32 87.1664C154.768 87.2146 154.233 87.3805 153.75 87.6531C153.64 87.7473 153.75 87.92 153.86 87.92ZM145.821 88.4067C145.676 88.997 145.639 89.6087 145.712 90.2122C145.712 90.3221 145.9 90.3692 145.963 90.2122C146.083 89.6058 146.083 88.9817 145.963 88.3753C145.939 88.3625 145.912 88.3587 145.886 88.3644C145.86 88.3702 145.837 88.3852 145.821 88.4067ZM154.77 89.6156C154.623 90.1285 154.623 90.6726 154.77 91.1856C154.781 91.1987 154.794 91.2092 154.809 91.2165C154.824 91.2237 154.84 91.2275 154.857 91.2275C154.873 91.2275 154.89 91.2237 154.905 91.2165C154.92 91.2092 154.933 91.1987 154.943 91.1856C155.091 90.6726 155.091 90.1285 154.943 89.6156C154.918 89.5965 154.888 89.5861 154.857 89.5861C154.826 89.5861 154.795 89.5965 154.77 89.6156ZM150.61 90.7617C150.61 91.3269 151.348 94.9065 150.123 94.4355C149.919 94.4355 149.809 94.7181 150.029 94.7809C150.249 94.8437 151.191 94.9536 151.316 94.357C151.24 93.1362 151.041 91.9263 150.72 90.746C150.72 90.746 150.61 90.6832 150.61 90.7617ZM93.462 47.3826C94.4354 52.6892 97.9051 46.5819 98.4703 44.3368C100.04 48.2147 104.876 47.8693 105.614 44.0856C106.901 45.1846 111.172 45.4829 110.324 42.5941C111.894 42.3743 112.318 40.1449 111.533 38.5906H112.475C112.106 37.5195 111.421 36.5856 110.51 35.9127C109.599 35.2398 108.504 34.8596 107.372 34.8226C105.66 34.5799 103.918 34.9707 102.474 35.9216C102.356 35.5673 102.15 35.2488 101.876 34.9961C101.601 34.7434 101.267 34.5648 100.904 34.4772C100.912 34.3151 100.912 34.1526 100.904 33.9905C100.81 32.185 100.747 26.0149 104.53 23.9896C105.457 23.6128 105.19 23.5186 104.295 23.8954C100.731 25.4654 100.354 30.6307 100.605 34.1946C99.9511 31.6792 98.8905 29.2875 97.4655 27.1139C96.8689 26.3132 95.3931 24.9787 95.2989 25.1985C95.2047 25.4183 96.7119 26.4388 97.2457 27.2238C98.5586 29.5059 99.5218 31.9721 100.103 34.54C99.6541 34.6898 99.2424 34.934 98.8958 35.2563C98.5491 35.5786 98.2755 35.9714 98.0935 36.4083C95.0948 35.3093 89.5841 37.209 89.5213 41.7777L94.4511 40.3961C91.6722 42.1545 88.2025 48.3874 93.462 47.3826ZM98.0621 44.6665C97.4498 46.5191 94.7494 51.5902 93.6033 47.3355C96.0839 46.4563 97.7481 43.9757 99.0669 41.6207C99.0512 41.6992 98.1406 44.4624 98.0621 44.6665ZM102.772 41.291C103.126 41.8178 103.519 42.3164 103.95 42.7825C102.756 44.6037 100.417 44.0699 98.9413 42.9866C99.1297 42.4685 99.3181 41.9347 99.4908 41.4166C99.7086 41.6435 99.9721 41.8218 100.264 41.9397C100.555 42.0576 100.869 42.1124 101.183 42.1005C101.498 42.0887 101.806 42.0104 102.088 41.8709C102.37 41.7313 102.619 41.5337 102.819 41.291H102.772ZM99.6321 41.1811C99.7682 40.707 99.8731 40.2245 99.9461 39.7367C100.218 40.0106 100.581 40.1747 100.966 40.1979C101.351 40.2211 101.732 40.1016 102.034 39.8623C102.227 40.256 102.442 40.6386 102.678 41.0084C102.487 41.3278 102.195 41.574 101.848 41.7078C101.5 41.8416 101.118 41.8551 100.762 41.7463C100.361 41.5879 99.9729 41.3989 99.6007 41.1811H99.6321ZM101.296 46.6761C100.684 46.4606 100.128 46.1124 99.6662 45.6564C99.2048 45.2003 98.85 44.6478 98.6273 44.0385C98.7058 43.8501 98.8 43.5675 98.9727 43.1279C99.2931 43.5246 99.7003 43.8423 100.163 44.0567C100.626 44.271 101.131 44.3761 101.641 44.364C102.151 44.3519 102.651 44.2228 103.103 43.9867C103.555 43.7506 103.947 43.4138 104.248 43.0023C104.576 43.3162 104.928 43.6048 105.3 43.8658C105.246 44.3276 105.095 44.7728 104.857 45.1718C104.618 45.5708 104.297 45.9146 103.916 46.1803C103.534 46.446 103.101 46.6276 102.644 46.7131C102.187 46.7986 101.717 46.786 101.265 46.6761H101.296ZM105.849 43.7559C103.447 42.7197 101.626 38.5906 101.61 38.5749H101.704C102.697 39.8044 103.943 40.8055 105.357 41.51C106.771 42.2144 108.321 42.6056 109.9 42.6569C110.842 45.7027 106.524 44.0542 105.818 43.7559H105.849ZM110.905 38.5749C113.542 43.6146 106.195 43.175 101.877 38.5749H110.905ZM100.276 34.854C101.296 34.7284 101.846 35.3564 102.128 36.1571C101.407 36.7828 100.92 37.6355 100.747 38.5749H101.422L101.814 39.4855C101.328 40.1135 100.558 39.9251 99.9461 39.5797C100.04 39.3128 100.119 39.0302 100.213 38.7476L100.747 38.6063C100.276 37.6553 99.4713 36.9116 98.486 36.5182C98.9099 35.7489 99.2553 34.9796 100.276 34.854ZM99.8048 38.8575C98.6273 41.9975 96.1781 47.1942 92.3316 47.1314C88.8776 46.5348 93.6661 40.9299 94.9692 40.2234L99.8048 38.8575ZM227.65 112.255C227.25 112.171 226.835 112.212 226.46 112.374C226.085 112.535 225.769 112.809 225.555 113.157C225.342 113.505 225.241 113.91 225.268 114.318C225.294 114.725 225.446 115.115 225.702 115.432C225.958 115.75 226.307 115.981 226.699 116.093C227.092 116.205 227.51 116.193 227.895 116.058C228.28 115.923 228.615 115.672 228.852 115.34C229.089 115.008 229.218 114.61 229.22 114.202C229.26 113.737 229.119 113.275 228.827 112.913C228.534 112.55 228.112 112.314 227.65 112.255ZM227.65 115.615C227.358 115.66 227.06 115.614 226.795 115.484C226.53 115.355 226.311 115.147 226.168 114.889C226.024 114.631 225.963 114.336 225.993 114.042C226.023 113.749 226.141 113.471 226.333 113.247C226.525 113.023 226.781 112.863 227.067 112.789C227.353 112.715 227.654 112.73 227.931 112.832C228.207 112.935 228.446 113.119 228.615 113.361C228.784 113.603 228.874 113.891 228.874 114.186C228.9 114.538 228.786 114.885 228.557 115.153C228.327 115.421 228.001 115.587 227.65 115.615ZM244.653 111.47C244.253 111.386 243.838 111.427 243.463 111.589C243.088 111.75 242.772 112.024 242.558 112.372C242.345 112.72 242.244 113.125 242.271 113.533C242.297 113.94 242.449 114.33 242.705 114.647C242.961 114.965 243.31 115.196 243.702 115.308C244.095 115.42 244.513 115.408 244.898 115.273C245.283 115.138 245.618 114.887 245.855 114.555C246.092 114.223 246.221 113.825 246.223 113.417C246.263 112.952 246.122 112.49 245.83 112.128C245.537 111.765 245.115 111.529 244.653 111.47ZM244.653 114.83C244.361 114.875 244.063 114.829 243.798 114.699C243.533 114.57 243.314 114.362 243.171 114.104C243.027 113.846 242.966 113.551 242.996 113.257C243.026 112.964 243.145 112.686 243.337 112.462C243.529 112.238 243.785 112.078 244.07 112.004C244.356 111.93 244.657 111.945 244.934 112.047C245.211 112.15 245.449 112.334 245.618 112.576C245.787 112.818 245.877 113.106 245.878 113.401C245.895 113.75 245.775 114.092 245.543 114.353C245.311 114.614 244.986 114.774 244.637 114.798L244.653 114.83ZM264.247 110.465C263.847 110.381 263.431 110.422 263.056 110.584C262.681 110.745 262.365 111.019 262.152 111.367C261.939 111.715 261.838 112.121 261.864 112.528C261.891 112.935 262.042 113.325 262.299 113.643C262.555 113.96 262.903 114.191 263.296 114.303C263.689 114.415 264.106 114.403 264.492 114.268C264.877 114.133 265.211 113.882 265.448 113.55C265.686 113.218 265.814 112.82 265.817 112.412C265.857 111.948 265.716 111.486 265.423 111.123C265.131 110.76 264.709 110.524 264.247 110.465ZM264.247 113.825C263.955 113.87 263.657 113.824 263.392 113.695C263.127 113.565 262.908 113.357 262.764 113.099C262.621 112.841 262.56 112.546 262.59 112.252C262.619 111.959 262.738 111.681 262.93 111.457C263.122 111.233 263.378 111.074 263.664 110.999C263.949 110.925 264.251 110.94 264.527 111.043C264.804 111.145 265.043 111.329 265.212 111.571C265.38 111.813 265.471 112.101 265.471 112.396C265.484 112.572 265.462 112.748 265.407 112.915C265.351 113.081 265.263 113.236 265.148 113.368C265.033 113.501 264.892 113.61 264.735 113.688C264.578 113.767 264.406 113.813 264.231 113.825H264.247ZM249.74 102.725C249.34 102.641 248.924 102.682 248.549 102.844C248.174 103.005 247.859 103.279 247.645 103.627C247.432 103.975 247.331 104.38 247.358 104.788C247.384 105.195 247.535 105.585 247.792 105.903C248.048 106.22 248.396 106.451 248.789 106.563C249.182 106.675 249.599 106.663 249.985 106.528C250.37 106.393 250.704 106.142 250.942 105.81C251.179 105.478 251.307 105.08 251.31 104.672C251.35 104.207 251.209 103.745 250.916 103.383C250.624 103.02 250.202 102.784 249.74 102.725ZM249.74 106.069C249.391 106.041 249.068 105.877 248.839 105.613C248.61 105.349 248.493 105.005 248.515 104.656C248.487 104.479 248.497 104.298 248.546 104.125C248.594 103.952 248.679 103.792 248.796 103.655C248.912 103.518 249.057 103.409 249.22 103.333C249.383 103.258 249.56 103.219 249.74 103.219C249.919 103.219 250.097 103.258 250.26 103.333C250.423 103.409 250.567 103.518 250.684 103.655C250.8 103.792 250.886 103.952 250.934 104.125C250.983 104.298 250.993 104.479 250.964 104.656C250.986 105.008 250.868 105.354 250.635 105.618C250.403 105.883 250.075 106.045 249.724 106.069H249.74ZM249.63 97.0417C250.029 97.1259 250.445 97.0845 250.82 96.9231C251.195 96.7616 251.511 96.4881 251.725 96.14C251.938 95.7919 252.038 95.3863 252.012 94.9789C251.986 94.5714 251.834 94.1821 251.578 93.8642C251.322 93.5464 250.973 93.3157 250.581 93.2037C250.188 93.0917 249.77 93.104 249.385 93.2388C248.999 93.3736 248.665 93.6244 248.428 93.9567C248.191 94.289 248.062 94.6866 248.06 95.0949C248.02 95.5593 248.161 96.0213 248.453 96.3841C248.746 96.747 249.167 96.9826 249.63 97.0417ZM249.63 93.6662C249.978 93.6943 250.302 93.8581 250.531 94.1224C250.76 94.3866 250.876 94.7302 250.854 95.0792C250.883 95.2564 250.873 95.4377 250.824 95.6106C250.776 95.7835 250.69 95.9437 250.574 96.0804C250.457 96.217 250.313 96.3267 250.15 96.402C249.987 96.4772 249.809 96.5162 249.63 96.5162C249.45 96.5162 249.273 96.4772 249.11 96.402C248.947 96.3267 248.802 96.217 248.686 96.0804C248.569 95.9437 248.484 95.7835 248.436 95.6106C248.387 95.4377 248.377 95.2564 248.405 95.0792C248.384 94.7302 248.5 94.3866 248.729 94.1224C248.958 93.8581 249.281 93.6943 249.63 93.6662ZM237.604 102.961C237.147 103.043 236.734 103.283 236.437 103.639C236.139 103.995 235.977 104.444 235.977 104.907C235.977 105.371 236.139 105.82 236.437 106.176C236.734 106.532 237.147 106.772 237.604 106.854C238.06 106.772 238.473 106.532 238.77 106.176C239.068 105.82 239.231 105.371 239.231 104.907C239.231 104.444 239.068 103.995 238.77 103.639C238.473 103.283 238.06 103.043 237.604 102.961ZM237.604 106.32C237.252 106.292 236.926 106.126 236.697 105.859C236.467 105.591 236.353 105.243 236.379 104.892C236.351 104.714 236.361 104.533 236.409 104.36C236.458 104.187 236.543 104.027 236.66 103.89C236.776 103.754 236.921 103.644 237.084 103.569C237.247 103.494 237.424 103.455 237.604 103.455C237.783 103.455 237.961 103.494 238.124 103.569C238.287 103.644 238.431 103.754 238.548 103.89C238.664 104.027 238.75 104.187 238.798 104.36C238.846 104.533 238.857 104.714 238.828 104.892C238.841 105.067 238.819 105.243 238.764 105.41C238.708 105.577 238.62 105.731 238.505 105.864C238.39 105.997 238.249 106.105 238.092 106.184C237.935 106.262 237.763 106.308 237.588 106.32H237.604ZM221.213 103.384C220.816 103.304 220.405 103.347 220.034 103.509C219.663 103.671 219.352 103.944 219.142 104.29C218.932 104.636 218.835 105.039 218.863 105.443C218.89 105.846 219.042 106.231 219.298 106.545C219.553 106.859 219.899 107.087 220.288 107.196C220.678 107.306 221.092 107.293 221.473 107.158C221.855 107.023 222.186 106.774 222.42 106.444C222.654 106.114 222.781 105.72 222.783 105.316C222.823 104.853 222.681 104.393 222.388 104.032C222.096 103.672 221.674 103.44 221.213 103.384ZM221.213 106.729C220.861 106.701 220.535 106.535 220.306 106.267C220.076 105.999 219.962 105.651 219.988 105.3C220.024 105.065 220.127 104.846 220.284 104.668C220.441 104.49 220.646 104.361 220.874 104.296C221.102 104.23 221.344 104.232 221.571 104.301C221.799 104.369 222.001 104.501 222.156 104.681C222.31 104.861 222.41 105.082 222.443 105.317C222.475 105.552 222.44 105.792 222.341 106.007C222.241 106.223 222.082 106.405 221.883 106.533C221.683 106.661 221.45 106.729 221.213 106.729ZM264.137 105.991C264.533 106.071 264.944 106.028 265.314 105.867C265.684 105.705 265.995 105.433 266.205 105.088C266.415 104.743 266.514 104.342 266.487 103.938C266.461 103.535 266.31 103.15 266.057 102.836C265.803 102.521 265.459 102.293 265.07 102.181C264.682 102.07 264.269 102.081 263.887 102.213C263.505 102.345 263.174 102.592 262.937 102.92C262.701 103.247 262.572 103.64 262.567 104.044C262.526 104.508 262.667 104.97 262.96 105.333C263.253 105.696 263.674 105.932 264.137 105.991ZM264.137 102.615C264.488 102.643 264.814 102.809 265.044 103.077C265.273 103.345 265.387 103.692 265.361 104.044C265.39 104.221 265.379 104.402 265.331 104.575C265.283 104.748 265.197 104.908 265.081 105.045C264.964 105.182 264.82 105.291 264.657 105.367C264.494 105.442 264.316 105.481 264.137 105.481C263.957 105.481 263.78 105.442 263.617 105.367C263.454 105.291 263.309 105.182 263.193 105.045C263.076 104.908 262.991 104.748 262.942 104.575C262.894 104.402 262.884 104.221 262.912 104.044C262.886 103.695 262.998 103.349 263.224 103.082C263.45 102.815 263.772 102.647 264.121 102.615H264.137ZM276.634 103.981C276.579 103.67 276.437 103.38 276.222 103.148C276.008 102.915 275.732 102.749 275.426 102.669C275.12 102.59 274.797 102.6 274.497 102.698C274.196 102.796 273.93 102.979 273.731 103.225C273.531 103.47 273.407 103.768 273.372 104.082C273.337 104.396 273.393 104.714 273.533 104.997C273.674 105.28 273.893 105.517 274.164 105.68C274.435 105.842 274.748 105.923 275.064 105.912C275.523 105.853 275.943 105.62 276.235 105.26C276.527 104.901 276.67 104.443 276.634 103.981ZM273.761 103.981C273.797 103.747 273.899 103.527 274.056 103.349C274.213 103.171 274.418 103.042 274.646 102.977C274.874 102.912 275.117 102.913 275.344 102.982C275.571 103.05 275.774 103.182 275.928 103.362C276.083 103.542 276.182 103.763 276.215 103.998C276.248 104.233 276.213 104.473 276.113 104.688C276.014 104.904 275.855 105.086 275.655 105.214C275.455 105.342 275.223 105.41 274.985 105.41C274.81 105.396 274.639 105.348 274.482 105.267C274.326 105.187 274.186 105.077 274.072 104.942C273.959 104.808 273.873 104.653 273.819 104.485C273.766 104.317 273.746 104.141 273.761 103.965V103.981ZM290.246 101.626C289.846 101.542 289.43 101.583 289.055 101.745C288.68 101.906 288.365 102.18 288.151 102.528C287.938 102.876 287.837 103.281 287.864 103.689C287.89 104.096 288.041 104.486 288.298 104.804C288.554 105.121 288.902 105.352 289.295 105.464C289.688 105.576 290.105 105.564 290.491 105.429C290.876 105.294 291.21 105.043 291.448 104.711C291.685 104.379 291.813 103.981 291.816 103.573C291.856 103.108 291.715 102.646 291.422 102.284C291.13 101.921 290.708 101.685 290.246 101.626ZM290.246 104.986C289.893 104.958 289.565 104.792 289.334 104.525C289.102 104.258 288.984 103.91 289.005 103.557C288.986 103.384 289.003 103.208 289.056 103.042C289.109 102.875 289.197 102.722 289.313 102.592C289.429 102.461 289.572 102.357 289.731 102.286C289.891 102.214 290.063 102.178 290.238 102.178C290.413 102.178 290.585 102.214 290.745 102.286C290.904 102.357 291.047 102.461 291.163 102.592C291.279 102.722 291.367 102.875 291.42 103.042C291.473 103.208 291.49 103.384 291.47 103.557C291.483 103.733 291.461 103.909 291.406 104.076C291.35 104.242 291.262 104.397 291.147 104.529C291.032 104.662 290.892 104.771 290.734 104.849C290.577 104.927 290.405 104.974 290.23 104.986H290.246ZM279.554 93.9331C279.154 93.8487 278.737 93.8904 278.362 94.0525C277.986 94.2146 277.67 94.489 277.457 94.8381C277.244 95.1872 277.145 95.5937 277.172 96.0018C277.2 96.4098 277.353 96.7993 277.611 97.1166C277.869 97.434 278.219 97.6635 278.613 97.7737C279.007 97.8839 279.425 97.8694 279.81 97.732C280.195 97.5947 280.529 97.3414 280.764 97.0069C280.999 96.6724 281.125 96.2732 281.124 95.8642C281.16 95.4024 281.017 94.9443 280.725 94.5849C280.433 94.2255 280.014 93.9921 279.554 93.9331ZM279.554 97.2772C279.206 97.2491 278.882 97.0853 278.653 96.821C278.424 96.5568 278.308 96.2132 278.329 95.8642C278.301 95.6869 278.311 95.5056 278.36 95.3328C278.408 95.1599 278.494 94.9996 278.61 94.863C278.727 94.7264 278.871 94.6166 279.034 94.5414C279.197 94.4661 279.375 94.4272 279.554 94.4272C279.734 94.4272 279.911 94.4661 280.074 94.5414C280.237 94.6166 280.382 94.7264 280.498 94.863C280.615 94.9996 280.7 95.1599 280.748 95.3328C280.797 95.5056 280.807 95.6869 280.779 95.8642C280.798 96.0433 280.781 96.2244 280.729 96.3967C280.676 96.5691 280.589 96.729 280.474 96.8669C280.358 97.0048 280.215 97.1178 280.054 97.1991C279.894 97.2804 279.718 97.3283 279.538 97.34L279.554 97.2772ZM290.167 97.4499C290.567 97.5341 290.983 97.4927 291.358 97.3313C291.733 97.1698 292.049 96.8963 292.262 96.5482C292.475 96.2001 292.576 95.7945 292.55 95.3871C292.523 94.9796 292.372 94.5903 292.115 94.2724C291.859 93.9546 291.511 93.7239 291.118 93.6119C290.725 93.4999 290.308 93.5122 289.922 93.647C289.537 93.7818 289.203 94.0326 288.965 94.3649C288.728 94.6972 288.6 95.0948 288.597 95.5031C288.557 95.9675 288.698 96.4295 288.991 96.7923C289.283 97.1552 289.705 97.3908 290.167 97.4499ZM290.167 94.0744C290.516 94.1025 290.839 94.2663 291.068 94.5306C291.297 94.7948 291.414 95.1384 291.392 95.4874C291.42 95.6646 291.41 95.8459 291.362 96.0188C291.313 96.1917 291.228 96.3519 291.111 96.4886C290.995 96.6252 290.85 96.7349 290.687 96.8102C290.524 96.8854 290.347 96.9244 290.167 96.9244C289.988 96.9244 289.81 96.8854 289.647 96.8102C289.484 96.7349 289.34 96.6252 289.223 96.4886C289.107 96.3519 289.021 96.1917 288.973 96.0188C288.925 95.8459 288.914 95.6646 288.943 95.4874C288.921 95.1409 289.035 94.7995 289.26 94.5357C289.486 94.2718 289.806 94.1064 290.152 94.0744H290.167ZM291.141 85.6435C290.744 85.5626 290.332 85.6062 289.962 85.7683C289.591 85.9305 289.279 86.2033 289.07 86.5493C288.86 86.8954 288.762 87.2978 288.79 87.7015C288.818 88.1052 288.97 88.4904 289.225 88.8043C289.481 89.1183 289.827 89.3457 290.216 89.4554C290.606 89.5651 291.02 89.5517 291.401 89.417C291.783 89.2824 292.113 89.0331 292.348 88.7033C292.582 88.3734 292.709 87.9792 292.711 87.5746C292.751 87.1119 292.609 86.6518 292.316 86.2915C292.023 85.9312 291.602 85.6988 291.141 85.6435ZM291.141 88.9876C290.789 88.9595 290.463 88.7935 290.234 88.5258C290.004 88.2581 289.89 87.9105 289.916 87.5589C289.896 87.3854 289.914 87.2096 289.967 87.0432C290.02 86.8768 290.107 86.7235 290.224 86.5933C290.34 86.463 290.482 86.3588 290.642 86.2875C290.801 86.2161 290.974 86.1793 291.149 86.1793C291.323 86.1793 291.496 86.2161 291.655 86.2875C291.815 86.3588 291.957 86.463 292.073 86.5933C292.19 86.7235 292.277 86.8768 292.33 87.0432C292.383 87.2096 292.401 87.3854 292.381 87.5589C292.403 87.9146 292.283 88.2644 292.047 88.532C291.812 88.7996 291.48 88.9634 291.125 88.9876H291.141ZM285.614 79.6932C285.56 79.3817 285.417 79.0924 285.203 78.8598C284.989 78.6272 284.712 78.4612 284.406 78.3814C284.1 78.3017 283.778 78.3117 283.477 78.4101C283.177 78.5086 282.911 78.6914 282.711 78.9367C282.512 79.1821 282.387 79.4797 282.352 79.7939C282.317 80.1082 282.373 80.4259 282.514 80.7092C282.654 80.9925 282.873 81.2294 283.144 81.3916C283.416 81.5539 283.728 81.6346 284.044 81.6243C284.504 81.5653 284.923 81.3319 285.215 80.9725C285.507 80.613 285.65 80.155 285.614 79.6932ZM282.741 79.6932C282.777 79.4586 282.88 79.2393 283.037 79.0613C283.194 78.8833 283.398 78.7541 283.627 78.6889C283.855 78.6238 284.097 78.6255 284.324 78.6938C284.551 78.7621 284.754 78.8942 284.909 79.0744C285.063 79.2546 285.163 79.4753 285.196 79.7104C285.228 79.9454 285.193 80.1849 285.094 80.4005C284.994 80.616 284.835 80.7985 284.635 80.9264C284.436 81.0543 284.203 81.1221 283.966 81.1219C283.79 81.108 283.619 81.0596 283.463 80.9794C283.306 80.8992 283.167 80.7888 283.053 80.6545C282.939 80.5203 282.853 80.3648 282.799 80.1971C282.746 80.0295 282.726 79.8529 282.741 79.6775V79.6932ZM280.182 70.65C280.115 70.3647 279.968 70.104 279.76 69.8974C279.552 69.6909 279.291 69.5467 279.005 69.4813C278.719 69.4158 278.421 69.4317 278.143 69.5272C277.866 69.6226 277.621 69.7938 277.436 70.0213C277.251 70.2487 277.134 70.5235 277.097 70.8144C277.06 71.1052 277.105 71.4006 277.228 71.667C277.35 71.9335 277.545 72.1603 277.789 72.3219C278.034 72.4834 278.319 72.5732 278.612 72.5811C279.072 72.5221 279.491 72.2887 279.783 71.9293C280.075 71.5698 280.218 71.1118 280.182 70.65ZM277.325 70.65C277.361 70.4154 277.463 70.1961 277.62 70.0181C277.777 69.8401 277.982 69.7109 278.21 69.6457C278.438 69.5806 278.68 69.5823 278.908 69.6506C279.135 69.7189 279.338 69.851 279.492 70.0312C279.647 70.2114 279.746 70.4321 279.779 70.6671C279.812 70.9022 279.776 71.1417 279.677 71.3572C279.578 71.5728 279.419 71.7553 279.219 71.8832C279.019 72.0111 278.787 72.0789 278.549 72.0787C278.198 72.0506 277.872 71.8846 277.642 71.6169C277.413 71.3492 277.299 71.0016 277.325 70.65ZM275.974 58.8279C276.381 58.8155 276.776 58.6836 277.108 58.4485C277.441 58.2134 277.697 57.8856 277.844 57.506C277.991 57.1264 278.023 56.7118 277.936 56.3141C277.849 55.9163 277.647 55.5529 277.355 55.2693C277.063 54.9857 276.694 54.7945 276.293 54.7195C275.893 54.6445 275.48 54.689 275.105 54.8476C274.73 55.0061 274.41 55.2716 274.185 55.6109C273.96 55.9502 273.839 56.3483 273.839 56.7555C273.843 57.0318 273.902 57.3045 274.011 57.5582C274.121 57.8119 274.279 58.0415 274.478 58.234C274.676 58.4264 274.91 58.5779 275.167 58.6798C275.424 58.7817 275.698 58.832 275.974 58.8279ZM275.974 55.2169C276.285 55.2169 276.589 55.309 276.847 55.4815C277.105 55.654 277.306 55.8992 277.425 56.1861C277.544 56.4729 277.575 56.7886 277.514 57.0932C277.454 57.3977 277.304 57.6775 277.085 57.897C276.865 58.1166 276.585 58.2661 276.281 58.3267C275.976 58.3873 275.661 58.3562 275.374 58.2374C275.087 58.1185 274.842 57.9173 274.669 57.6591C274.497 57.4009 274.404 57.0974 274.404 56.7869C274.404 56.3759 274.565 55.9812 274.853 55.6877C275.141 55.3941 275.532 55.2251 275.943 55.2169H275.974ZM285.159 58.9378C285.566 58.9254 285.96 58.7935 286.293 58.5584C286.625 58.3233 286.881 57.9955 287.028 57.6159C287.176 57.2363 287.208 56.8217 287.121 56.424C287.034 56.0262 286.832 55.6628 286.54 55.3792C286.247 55.0956 285.878 54.9044 285.478 54.8294C285.078 54.7544 284.664 54.7989 284.289 54.9575C283.914 55.116 283.594 55.3815 283.369 55.7208C283.144 56.0601 283.024 56.4582 283.024 56.8654C283.026 57.1423 283.083 57.416 283.192 57.6707C283.3 57.9253 283.459 58.1557 283.658 58.3486C283.856 58.5415 284.091 58.6929 284.349 58.794C284.607 58.8952 284.882 58.944 285.159 58.9378ZM285.159 55.3268C285.47 55.3268 285.773 55.4189 286.031 55.5914C286.289 55.7639 286.491 56.0091 286.609 56.296C286.728 56.5829 286.759 56.8985 286.699 57.2031C286.638 57.5076 286.489 57.7874 286.269 58.0069C286.05 58.2265 285.77 58.376 285.465 58.4366C285.161 58.4972 284.845 58.4661 284.558 58.3473C284.271 58.2284 284.026 58.0272 283.854 57.769C283.681 57.5108 283.589 57.2073 283.589 56.8968C283.589 56.4831 283.752 56.0861 284.043 55.7921C284.334 55.4982 284.73 55.3309 285.143 55.3268H285.159ZM294.438 58.4668C294.845 58.4544 295.239 58.3225 295.571 58.0874C295.904 57.8523 296.16 57.5245 296.307 57.1449C296.454 56.7653 296.486 56.3507 296.4 55.953C296.313 55.5552 296.11 55.1918 295.818 54.9082C295.526 54.6246 295.157 54.4334 294.757 54.3584C294.356 54.2834 293.943 54.3279 293.568 54.4865C293.193 54.645 292.873 54.9105 292.648 55.2498C292.423 55.5891 292.303 55.9872 292.302 56.3944C292.307 56.6707 292.365 56.9434 292.475 57.1971C292.584 57.4508 292.743 57.6804 292.941 57.8729C293.139 58.0653 293.373 58.2168 293.63 58.3187C293.887 58.4206 294.161 58.4709 294.438 58.4668ZM294.438 54.8558C294.748 54.8558 295.052 54.9479 295.31 55.1204C295.568 55.2929 295.769 55.5381 295.888 55.825C296.007 56.1119 296.038 56.4275 295.978 56.7321C295.917 57.0366 295.767 57.3164 295.548 57.5359C295.328 57.7555 295.049 57.905 294.744 57.9656C294.439 58.0262 294.124 57.9951 293.837 57.8763C293.55 57.7574 293.305 57.5562 293.132 57.298C292.96 57.0398 292.868 56.7363 292.868 56.4258C292.868 56.0121 293.031 55.6151 293.322 55.3211C293.613 55.0272 294.008 54.8599 294.422 54.8558H294.438ZM290.45 70.8541C290.393 70.5439 290.248 70.2566 290.032 70.0264C289.816 69.7962 289.539 69.6326 289.234 69.5552C288.928 69.4777 288.606 69.4896 288.307 69.5894C288.008 69.6892 287.744 69.8728 287.546 70.1183C287.348 70.3639 287.224 70.661 287.19 70.9746C287.156 71.2882 287.212 71.6049 287.353 71.8874C287.493 72.1698 287.712 72.406 287.982 72.5679C288.253 72.7298 288.565 72.8107 288.88 72.8009C289.341 72.7382 289.76 72.5016 290.052 72.1396C290.344 71.7776 290.486 71.3177 290.45 70.8541ZM287.577 70.8541C287.601 70.6184 287.692 70.3947 287.84 70.2093C287.988 70.0239 288.185 69.8847 288.409 69.808C288.633 69.7314 288.875 69.7205 289.105 69.7768C289.335 69.8331 289.544 69.9541 289.708 70.1255C289.871 70.2969 289.982 70.5116 290.028 70.7441C290.073 70.9766 290.051 71.2173 289.964 71.4376C289.877 71.6579 289.728 71.8487 289.536 71.9874C289.344 72.126 289.116 72.2067 288.88 72.22C288.703 72.2159 288.529 72.1769 288.368 72.105C288.206 72.0332 288.061 71.93 287.94 71.8015C287.818 71.673 287.724 71.5216 287.662 71.3563C287.599 71.191 287.57 71.0149 287.577 70.8384V70.8541ZM295.725 68.6561C295.326 68.5718 294.91 68.6133 294.535 68.7747C294.16 68.9362 293.844 69.2097 293.63 69.5578C293.417 69.9059 293.317 70.3115 293.343 70.7189C293.369 71.1264 293.521 71.5157 293.777 71.8335C294.033 72.1514 294.382 72.3821 294.774 72.4941C295.167 72.606 295.585 72.5938 295.97 72.459C296.355 72.3242 296.69 72.0734 296.927 71.7411C297.164 71.4088 297.293 71.0112 297.295 70.6029C297.335 70.1385 297.194 69.6765 296.902 69.3136C296.609 68.9508 296.187 68.7151 295.725 68.6561ZM295.725 72.0159C295.434 72.0575 295.136 72.009 294.873 71.8769C294.61 71.7449 294.393 71.5355 294.253 71.277C294.112 71.0184 294.053 70.7229 294.085 70.4302C294.117 70.1375 294.237 69.8614 294.43 69.6391C294.623 69.4167 294.88 69.2587 295.165 69.1861C295.45 69.1136 295.751 69.13 296.027 69.2331C296.303 69.3362 296.54 69.5212 296.708 69.7632C296.876 70.0052 296.966 70.2927 296.965 70.5872C296.978 70.7638 296.956 70.9411 296.899 71.1089C296.843 71.2767 296.754 71.4316 296.637 71.5646C296.52 71.6976 296.378 71.806 296.218 71.8834C296.059 71.9609 295.886 72.0059 295.709 72.0159H295.725ZM299.32 105.049C299.72 105.133 300.136 105.091 300.511 104.93C300.886 104.769 301.202 104.495 301.415 104.147C301.628 103.799 301.729 103.393 301.703 102.986C301.676 102.578 301.525 102.189 301.268 101.871C301.012 101.553 300.664 101.323 300.271 101.211C299.878 101.099 299.461 101.111 299.075 101.246C298.69 101.381 298.356 101.631 298.118 101.964C297.881 102.296 297.753 102.694 297.75 103.102C297.71 103.566 297.851 104.028 298.144 104.391C298.436 104.754 298.858 104.99 299.32 105.049ZM299.32 101.673C299.672 101.697 299.999 101.859 300.232 102.124C300.464 102.389 300.582 102.735 300.561 103.086C300.58 103.26 300.563 103.435 300.51 103.602C300.457 103.768 300.37 103.922 300.253 104.052C300.137 104.182 299.994 104.286 299.835 104.358C299.676 104.429 299.503 104.466 299.328 104.466C299.154 104.466 298.981 104.429 298.822 104.358C298.662 104.286 298.52 104.182 298.403 104.052C298.287 103.922 298.199 103.768 298.146 103.602C298.093 103.435 298.076 103.26 298.096 103.086C298.074 102.74 298.188 102.398 298.414 102.134C298.639 101.871 298.959 101.705 299.305 101.673H299.32ZM275.802 110.387C275.402 110.302 274.986 110.344 274.611 110.505C274.236 110.667 273.921 110.94 273.707 111.288C273.494 111.636 273.393 112.042 273.42 112.45C273.446 112.857 273.597 113.246 273.854 113.564C274.11 113.882 274.458 114.113 274.851 114.225C275.244 114.337 275.661 114.324 276.047 114.19C276.432 114.055 276.766 113.804 277.004 113.472C277.241 113.139 277.369 112.742 277.372 112.333C277.412 111.869 277.271 111.407 276.978 111.044C276.686 110.681 276.264 110.446 275.802 110.387ZM275.802 113.746C275.45 113.718 275.124 113.552 274.895 113.285C274.665 113.017 274.551 112.669 274.577 112.318C274.549 112.141 274.559 111.959 274.607 111.786C274.656 111.614 274.741 111.453 274.858 111.317C274.974 111.18 275.119 111.07 275.282 110.995C275.445 110.92 275.622 110.881 275.802 110.881C275.981 110.881 276.159 110.92 276.322 110.995C276.485 111.07 276.629 111.18 276.746 111.317C276.862 111.453 276.948 111.614 276.996 111.786C277.045 111.959 277.055 112.141 277.026 112.318C277.039 112.493 277.017 112.669 276.962 112.836C276.906 113.003 276.818 113.157 276.703 113.29C276.588 113.423 276.448 113.531 276.29 113.61C276.133 113.688 275.961 113.735 275.786 113.746H275.802ZM285.473 110.245C285.073 110.161 284.658 110.203 284.283 110.364C283.908 110.525 283.592 110.799 283.378 111.147C283.165 111.495 283.064 111.901 283.091 112.308C283.117 112.716 283.269 113.105 283.525 113.423C283.781 113.741 284.13 113.971 284.522 114.083C284.915 114.195 285.333 114.183 285.718 114.048C286.103 113.913 286.438 113.663 286.675 113.33C286.912 112.998 287.041 112.6 287.043 112.192C287.083 111.728 286.942 111.266 286.65 110.903C286.357 110.54 285.935 110.304 285.473 110.245ZM285.473 113.605C285.181 113.65 284.883 113.605 284.618 113.475C284.353 113.345 284.134 113.137 283.991 112.88C283.847 112.622 283.786 112.326 283.816 112.033C283.846 111.739 283.965 111.462 284.157 111.238C284.349 111.014 284.604 110.854 284.89 110.78C285.176 110.705 285.477 110.72 285.754 110.823C286.031 110.925 286.269 111.11 286.438 111.352C286.607 111.594 286.697 111.881 286.698 112.176C286.71 112.352 286.688 112.528 286.633 112.695C286.578 112.862 286.49 113.016 286.374 113.149C286.259 113.281 286.119 113.39 285.961 113.468C285.804 113.547 285.633 113.593 285.457 113.605H285.473ZM299.87 109.743C299.474 109.662 299.063 109.706 298.693 109.867C298.322 110.029 298.011 110.301 297.801 110.646C297.591 110.991 297.493 111.392 297.519 111.795C297.546 112.198 297.696 112.583 297.95 112.898C298.203 113.212 298.548 113.441 298.936 113.552C299.324 113.664 299.738 113.653 300.119 113.52C300.501 113.388 300.833 113.142 301.069 112.814C301.306 112.486 301.435 112.094 301.44 111.69C301.48 111.225 301.339 110.763 301.047 110.401C300.754 110.038 300.332 109.802 299.87 109.743ZM299.87 113.04C299.578 113.085 299.28 113.039 299.015 112.91C298.75 112.78 298.531 112.572 298.388 112.314C298.244 112.056 298.183 111.761 298.213 111.467C298.243 111.174 298.361 110.896 298.553 110.672C298.745 110.448 299.001 110.289 299.287 110.214C299.573 110.14 299.874 110.155 300.151 110.258C300.427 110.36 300.666 110.544 300.835 110.786C301.004 111.028 301.094 111.316 301.094 111.611C301.116 111.962 301.001 112.307 300.772 112.574C300.543 112.841 300.22 113.008 299.87 113.04ZM113.872 194.476C114.068 194.476 114.26 194.417 114.423 194.308C114.586 194.199 114.713 194.043 114.787 193.862C114.862 193.68 114.88 193.48 114.841 193.288C114.801 193.096 114.706 192.919 114.566 192.782C114.426 192.644 114.248 192.551 114.055 192.515C113.862 192.478 113.663 192.5 113.482 192.578C113.302 192.655 113.149 192.784 113.042 192.949C112.935 193.113 112.88 193.306 112.883 193.502C112.883 193.632 112.909 193.76 112.958 193.879C113.008 193.998 113.081 194.106 113.174 194.196C113.266 194.287 113.375 194.358 113.495 194.406C113.615 194.454 113.743 194.478 113.872 194.476Z" fill="#D9D9D9"/>
<path d="M114.123 56.5514C114.123 56.7804 114.214 57 114.376 57.162C114.538 57.3239 114.758 57.4149 114.987 57.4149C115.216 57.4149 115.435 57.3239 115.597 57.162C115.759 57 115.85 56.7804 115.85 56.5514C115.85 56.3224 115.759 56.1027 115.597 55.9408C115.435 55.7789 115.216 55.6879 114.987 55.6879C114.758 55.6879 114.538 55.7789 114.376 55.9408C114.214 56.1027 114.123 56.3224 114.123 56.5514Z" fill="#D9D9D9"/>
<path d="M116.588 56.1589C116.588 56.3796 116.676 56.5912 116.832 56.7473C116.988 56.9033 117.2 56.991 117.42 56.991C117.641 56.991 117.853 56.9033 118.009 56.7473C118.165 56.5912 118.252 56.3796 118.252 56.1589C118.252 55.9382 118.165 55.7265 118.009 55.5705C117.853 55.4144 117.641 55.3268 117.42 55.3268C117.2 55.3268 116.988 55.4144 116.832 55.5705C116.676 55.7265 116.588 55.9382 116.588 56.1589Z" fill="#D9D9D9"/>
<path d="M116.996 53.8981C117.238 53.8981 117.469 53.8022 117.64 53.6314C117.811 53.4606 117.907 53.229 117.907 52.9875C117.907 52.746 117.811 52.5144 117.64 52.3436C117.469 52.1728 117.238 52.0769 116.996 52.0769C116.877 52.0769 116.758 52.1005 116.648 52.1462C116.537 52.192 116.437 52.2591 116.352 52.3436C116.268 52.4282 116.201 52.5286 116.155 52.639C116.109 52.7495 116.086 52.8679 116.086 52.9875C116.086 53.1071 116.109 53.2255 116.155 53.336C116.201 53.4465 116.268 53.5468 116.352 53.6314C116.437 53.716 116.537 53.783 116.648 53.8288C116.758 53.8746 116.877 53.8981 116.996 53.8981ZM144.22 134.643C144.011 134.643 143.807 134.705 143.634 134.822C143.461 134.938 143.326 135.103 143.247 135.296C143.168 135.489 143.148 135.702 143.19 135.906C143.232 136.111 143.333 136.298 143.482 136.444C143.631 136.591 143.82 136.69 144.025 136.729C144.23 136.767 144.442 136.744 144.634 136.662C144.826 136.58 144.989 136.443 145.102 136.268C145.216 136.093 145.275 135.888 145.272 135.679C145.268 135.403 145.155 135.14 144.958 134.946C144.762 134.752 144.496 134.643 144.22 134.643ZM143.639 127.437C143.639 127.633 143.698 127.825 143.807 127.988C143.916 128.151 144.072 128.278 144.253 128.352C144.435 128.426 144.635 128.445 144.827 128.406C145.019 128.366 145.196 128.27 145.333 128.131C145.471 127.991 145.564 127.813 145.6 127.62C145.637 127.427 145.615 127.228 145.538 127.047C145.46 126.867 145.331 126.714 145.166 126.607C145.002 126.5 144.809 126.445 144.613 126.448C144.353 126.452 144.105 126.558 143.923 126.743C143.741 126.928 143.639 127.177 143.639 127.437ZM144.079 122.083C144.263 122.086 144.443 122.035 144.598 121.935C144.752 121.835 144.873 121.691 144.946 121.522C145.018 121.353 145.039 121.167 145.005 120.986C144.971 120.805 144.884 120.639 144.755 120.508C144.626 120.377 144.461 120.287 144.281 120.25C144.101 120.213 143.914 120.23 143.744 120.3C143.574 120.369 143.428 120.488 143.325 120.641C143.223 120.793 143.168 120.973 143.168 121.157C143.168 121.4 143.264 121.633 143.434 121.806C143.604 121.98 143.836 122.079 144.079 122.083Z" fill="#D9D9D9"/>
</svg>
