<svg width="483" height="483" viewBox="0 0 483 483" fill="none" xmlns="http://www.w3.org/2000/svg">
<path d="M263.988 158.343C261.984 159.372 265.287 163.06 266.051 160.191C266.171 159.309 264.889 157.879 263.988 158.343Z" fill="#C7D6D5"/>
<path d="M275.617 155.119C275.737 154.238 274.457 152.815 273.554 153.274C271.554 154.317 274.853 157.988 275.617 155.119Z" fill="#C7D6D5"/>
<path d="M160.996 302.884C160.684 302.957 160.414 303.151 160.245 303.423C160.076 303.695 160.022 304.023 160.095 304.335C160.168 304.647 160.362 304.917 160.634 305.086C160.906 305.255 161.234 305.309 161.546 305.236C179.549 301.054 198.224 300.656 216.388 304.068C234.552 307.48 251.81 314.628 267.067 325.058C267.325 325.059 267.576 324.976 267.784 324.824C267.992 324.671 268.145 324.456 268.222 324.21C268.299 323.964 268.294 323.699 268.21 323.456C268.126 323.212 267.966 323.002 267.753 322.856C252.322 312.293 234.859 305.062 216.478 301.623C198.097 298.185 179.202 298.614 160.996 302.884Z" fill="#C7D6D5"/>
<path d="M275.035 315.253C247.354 297.942 216.418 286.307 183.595 291.134C183.287 291.186 183.01 291.355 182.824 291.606C182.638 291.857 182.556 292.171 182.597 292.481C182.637 292.792 182.796 293.074 183.04 293.269C183.285 293.464 183.595 293.557 183.907 293.528C204.142 290.875 224.72 293.538 243.613 301.256C254.033 305.874 264.107 311.238 273.757 317.303C274.029 317.473 274.357 317.527 274.669 317.455C274.981 317.382 275.251 317.189 275.421 316.917C275.59 316.645 275.645 316.317 275.572 316.005C275.5 315.693 275.306 315.422 275.035 315.253Z" fill="#C7D6D5"/>
<path d="M205.207 282.329C204.887 282.341 204.584 282.479 204.366 282.714C204.148 282.948 204.032 283.26 204.043 283.58C204.055 283.9 204.193 284.203 204.428 284.421C204.662 284.64 204.974 284.756 205.294 284.744C233.138 283.756 260.387 292.954 281.937 310.614C283.113 311.618 284.709 309.73 283.47 308.747C261.422 290.791 233.627 281.409 205.207 282.329Z" fill="#C7D6D5"/>
<path d="M198.566 273.536C198.246 273.56 197.948 273.709 197.738 273.952C197.528 274.195 197.423 274.512 197.447 274.832C197.47 275.152 197.62 275.45 197.863 275.66C198.106 275.87 198.422 275.975 198.742 275.951C232.381 273.46 265.685 284.04 291.72 305.487C292.886 306.494 294.497 304.605 293.251 303.622C266.72 281.814 232.819 271.043 198.566 273.536Z" fill="#C7D6D5"/>
<path d="M210.305 268.117C226.58 265.88 243.15 267.371 258.764 272.478C274.378 277.585 288.626 286.175 300.433 297.597C301.52 298.696 303.271 296.945 302.111 295.863C290.025 284.208 275.456 275.442 259.498 270.223C243.54 265.004 226.607 263.466 209.97 265.727C209.658 265.778 209.38 265.949 209.193 266.203C209.006 266.457 208.927 266.774 208.97 267.086C209.014 267.398 209.178 267.681 209.428 267.873C209.677 268.066 209.992 268.154 210.305 268.117Z" fill="#C7D6D5"/>
<path d="M86.5437 273.655C79.987 275.239 79.4871 284.426 86.8939 284.522C96.8895 284.578 97.1093 271.1 86.5437 273.655ZM91.6152 279.919C90.9048 280.776 89.97 281.417 88.9155 281.771C87.861 282.126 86.7286 282.179 85.6453 281.926C82.3513 280.719 83.8824 276.814 87.2827 275.954C89.9247 274.684 93.4458 277.258 91.6128 279.919H91.6152Z" fill="#C7D6D5"/>
<path d="M369.686 304.562C368.338 304.562 367.725 304.562 364.216 326.809C362.525 337.474 360.946 348.74 360.668 350.812C360.815 353.299 365.645 352.13 367.37 352.502C407.504 352.009 408.475 307.549 369.686 304.562ZM390.781 341.118C383.816 348.817 372.204 350.696 363.23 349.899C364.65 339.514 368.835 311.404 370.352 307.004C389.184 307.943 404.305 326.167 390.781 341.118Z" fill="#C7D6D5"/>
<path d="M470.401 133.66C465.923 130.295 460.62 133.152 456.604 129.581C456.202 129.191 455.723 128.89 455.198 128.697C454.673 128.504 454.113 128.424 453.555 128.461C452.997 128.498 452.452 128.653 451.957 128.914C451.463 129.175 451.028 129.537 450.682 129.977C449.301 131.68 448.501 133.78 448.398 135.971C434.171 150.627 417.317 161.951 390.921 168.344C396.443 162.679 400.954 156.11 404.259 148.922C412.228 129.484 379.932 114.629 365.86 111.099C365.237 108.464 367.145 104.257 367.92 101.557C368.802 97.9997 366.23 96.244 364.346 97.21C359.707 98.7411 357.48 103.856 354.787 107.38C349.525 114.383 353.495 116.496 359.675 119.657C359.491 119.897 359.409 120.199 359.447 120.498C359.484 120.797 359.638 121.07 359.876 121.256C363.068 124.429 378.713 136.867 372.608 141.6C369.304 144.153 359.405 151.801 353.657 156.691C342.444 156.15 337.552 156.124 330.309 157.372C330.222 157.388 330.142 157.432 330.083 157.498C330.024 157.564 329.988 157.648 329.982 157.736C329.975 157.824 329.999 157.912 330.048 157.986C330.097 158.06 330.169 158.115 330.253 158.143C351.614 168.445 355.454 196.041 348.549 215.741C353.29 215.412 361.602 215.943 365.539 214.11C380.415 212.635 401.445 208.556 412.52 202.26C423.856 196.087 433.68 187.474 441.283 177.044C448.886 166.614 454.079 154.626 456.488 141.945C460.809 140.335 465.241 139.044 469.751 138.081C471.842 137.753 473.374 134.71 470.401 133.66ZM375.353 116.858C388.366 121.952 407.9 134.459 402.059 147.92C398.306 156.098 392.937 163.432 386.277 169.481C383.912 170.056 380.797 170.669 378.382 171.206C385.426 164.189 391.833 156.562 397.528 148.413C399.125 146.362 400.137 143.917 400.455 141.337C399.219 132.896 391.278 130.489 384.716 126.002C381.323 124.112 378.054 122.006 374.931 119.696C375.213 118.777 375.355 117.82 375.353 116.858ZM362.102 118.249L356.917 115.409C355.608 114.704 354.261 113.591 354.925 111.975C356.483 109.12 358.26 106.39 360.238 103.808C361.395 101.755 363.259 100.193 365.483 99.4149C365.657 99.5018 365.778 100.197 365.628 100.832C364.416 104.049 363.577 107.394 363.129 110.802C362.988 111.502 363.024 112.227 363.235 112.91C363.446 113.593 363.825 114.212 364.336 114.711C364.037 116.119 363.245 117.374 362.102 118.249ZM365.339 122.908C364.498 122.138 363.701 121.341 362.892 120.648C364.055 119.936 365.027 118.951 365.721 117.778C366.416 116.604 366.813 115.279 366.877 113.917C368.78 114.494 370.784 115.163 372.791 115.892C373.793 120.336 369.538 125.043 365.339 122.908ZM350.778 158.906C352.092 158.788 353.65 159.544 354.833 158.872C360.465 154.042 370.719 146.121 374.02 143.568C380.708 138.188 372.465 130.303 368.099 125.755C369.323 125.704 370.511 125.329 371.543 124.667C372.574 124.005 373.411 123.082 373.967 121.99C380.56 127.839 396.026 132.314 398.047 141.209C397.752 143.327 396.896 145.328 395.569 147.005C389.682 155.443 383.022 163.315 375.677 170.52C374.484 169.071 371.591 165.576 370.038 167.742C369.976 167.888 369.942 168.045 369.941 168.204C369.939 168.363 369.968 168.521 370.028 168.668C370.087 168.815 370.175 168.95 370.286 169.063C370.397 169.177 370.529 169.267 370.676 169.329C372.135 170.019 373.347 171.14 374.148 172.541C374.962 175.567 380.229 172.998 382.391 172.821C407.913 167.73 430.911 157.199 444.611 142.875C446.194 143.241 447.627 144.084 448.716 145.29C434.973 179.644 406.253 199.654 369.813 200.427C371.05 184.527 366.046 166.653 350.778 158.906ZM438.117 177.501C422.122 200.152 396.864 208.392 368.364 211.372C369.125 208.592 369.551 205.732 369.635 202.852C406.799 202.147 436.151 181.967 450.47 147.278C454.776 152.716 442.186 171.744 438.117 177.501ZM453.295 145.442C453.189 145.872 453.054 146.295 452.94 146.722C451.503 144.111 449.223 142.063 446.473 140.914C447.596 139.799 449.153 137.388 450.772 138.002C451.489 138.249 452.14 138.657 452.675 139.194C453.21 139.732 453.615 140.385 453.858 141.103C454.102 141.821 454.178 142.586 454.08 143.338C453.983 144.09 453.714 144.81 453.295 145.442ZM455.937 139.485C454.839 137.862 453.328 136.562 451.559 135.72C449.907 135.756 452.01 132.034 452.539 131.501C454.145 128.685 458.746 136.449 467.029 136.28C463.276 137.144 459.573 138.214 455.937 139.485Z" fill="#C7D6D5"/>
<path d="M271.465 151.828C272.603 151.511 273.899 150.705 274.926 151.253C275.223 151.372 275.556 151.367 275.85 151.241C276.145 151.115 276.377 150.877 276.495 150.579C276.614 150.282 276.61 149.949 276.484 149.655C276.357 149.36 276.119 149.128 275.822 149.009C274.392 148.314 269.581 148.649 270.429 151.243C270.537 151.422 270.689 151.569 270.87 151.672C271.052 151.774 271.257 151.828 271.465 151.828Z" fill="#C7D6D5"/>
<path d="M262.619 158.244C262.875 157.352 263.403 156.562 264.128 155.984C264.384 155.792 264.554 155.505 264.599 155.188C264.644 154.871 264.562 154.549 264.37 154.293C264.178 154.037 263.892 153.868 263.574 153.822C263.257 153.777 262.935 153.86 262.679 154.052C261.513 154.965 260.672 156.229 260.279 157.657C260.217 157.962 260.274 158.279 260.44 158.542C260.606 158.805 260.867 158.994 261.168 159.07C261.47 159.145 261.789 159.102 262.059 158.948C262.329 158.794 262.53 158.542 262.619 158.244Z" fill="#C7D6D5"/>
<path d="M274.764 164.427C273.641 165.518 275.38 167.257 276.471 166.134C276.954 165.651 277.365 165.187 277.78 164.712C277.169 165.772 276.491 167.194 278.307 167.465C280.678 166.786 280.722 163.255 279.251 161.596C277.382 159.995 276.1 163.507 274.764 164.427Z" fill="#C7D6D5"/>
<path d="M269.881 163.797C271.306 164.468 274.356 162.154 272.615 160.688C271.837 160.077 270.924 160.93 270.574 161.476C269.9 160.72 271.467 155.489 269.224 155.578C268.904 155.578 268.597 155.706 268.37 155.932C268.144 156.158 268.016 156.466 268.016 156.786C268.173 158.732 267.244 163.186 269.881 163.797Z" fill="#C7D6D5"/>
<path d="M420.299 309.561C412.385 293.54 392.527 284.049 369.263 280.209C378.904 271.527 382.746 267.934 382.983 267.46C383.97 263.546 383.289 250.007 385.202 246.404C385.3 246.147 385.315 245.866 385.243 245.6C385.171 245.335 385.018 245.099 384.803 244.926C371.503 235.854 356.955 228.761 341.616 223.87C355.08 202.647 349.368 164.553 321.463 157.373C326.723 149.864 321.236 138.393 312.023 139.149C305.937 139.24 299.87 139.836 293.884 140.929C295.407 139.644 294.608 136.823 293.516 135.79C298.414 133.034 292.203 124.357 287.479 124.792C287.72 121.073 285.127 114.277 280.768 117.238C279.491 115.358 277.875 113.732 276.003 112.444C273.564 110.995 270.431 110.659 269.084 113.287C267.07 111.995 264.803 111.15 262.435 110.807C259.364 110.763 256.639 112.739 257.011 115.494C253.746 114.77 250.153 115.115 248.375 118.392C247.518 120.36 249.46 121.479 246.405 121.334C242.123 121.722 239.401 127.557 243.748 130.296C239.003 131.38 235.296 139.975 241.758 141.33C239.474 144.469 237.909 149.15 240.514 152.311C206.958 157.928 180.212 162.606 154.922 167.61C142.714 173.111 133.578 180.356 121.878 186.447C121.603 186.589 121.394 186.831 121.293 187.123C121.192 187.415 121.207 187.735 121.334 188.017C123.116 191.939 155.656 194.779 162.16 195.317C192.064 190.985 221.713 185.046 250.979 177.526C240.744 185.713 226.121 193.363 224.851 207.967C192.838 204.328 162.976 208.964 137.691 225.077C94.9093 250.471 50.5602 275.93 10.9397 307.371C12.0578 314.734 14.5622 322.163 14.9365 329.089C14.9603 329.357 15.0729 329.609 15.2565 329.806C15.4402 330.003 15.6843 330.133 15.9501 330.175C16.2159 330.217 16.4882 330.169 16.7238 330.039C16.9593 329.909 17.1445 329.704 17.2501 329.456C45.8678 321.088 78.2168 320.875 107.846 327.439C131.955 331.671 124 342.99 131.311 344.586C131.748 344.695 139.891 345.704 140.005 345.571C141.533 345.441 142.222 343.7 142.178 342.504C143.047 331.395 149.602 331.132 160.199 331.637C209.607 334.844 227.396 342.963 268.355 369.069C268.508 369.169 268.683 369.232 268.865 369.252C269.047 369.271 269.232 369.248 269.403 369.183C269.575 369.119 269.728 369.014 269.852 368.879C269.976 368.744 270.066 368.582 270.115 368.405C294.466 346.67 330.285 315.087 346.226 300.785C340.095 325.93 334.492 351.367 328.167 382.724C328.134 382.886 328.136 383.053 328.171 383.215C328.205 383.377 328.273 383.53 328.37 383.664C328.466 383.799 328.589 383.912 328.731 383.997C328.873 384.082 329.031 384.137 329.196 384.158C354.285 387.365 386.728 388.155 406.567 372.187C425.477 357.987 432.043 330.197 420.299 309.561ZM312.078 141.564C320.632 141.501 323.53 150.951 318.881 156.728C315.581 155.952 312.204 155.547 308.813 155.52C309.369 153.069 309.244 150.512 308.452 148.127C307.66 145.741 306.232 143.617 304.321 141.984C306.871 141.743 309.463 141.586 312.078 141.564ZM305.145 189.664C304.468 186.577 307.195 186.116 307.869 189.224C309.153 198.687 308.111 208.319 304.836 217.289C292.703 215.686 280.363 217.096 268.905 221.394C265.108 219.297 261.157 217.492 257.086 215.994C263.232 211.565 271.055 205.347 277.08 201.287C283.276 208.742 291.87 213.813 301.392 215.632C301.664 215.623 301.927 215.525 302.139 215.354C302.352 215.183 302.503 214.948 302.57 214.683C305.337 206.651 306.218 198.091 305.145 189.664ZM292.802 154.627C293.747 152.934 294.219 151.018 294.169 149.08C294.118 147.142 293.547 145.253 292.514 143.612C295.077 143.209 297.895 142.615 300.725 142.405C303.034 143.64 304.846 145.632 305.858 148.047C306.869 150.462 307.018 153.151 306.28 155.663C302.104 156.008 293.876 156.829 291.065 157.112C290.003 156.341 292.579 155.791 292.802 154.627ZM261.303 150.253C264.87 151.76 268.219 148.606 269.598 145.303C270.853 145.811 272.243 145.883 273.544 145.507C274.845 145.131 275.981 144.328 276.771 143.228C277.211 143.621 277.754 143.88 278.336 143.975C278.919 144.069 279.516 143.995 280.058 143.762C280.758 144.931 282.374 147.061 283.615 148.664C283.534 149.652 283.714 150.643 284.139 151.538C284.414 152.084 284.857 152.528 285.403 152.804C285.948 153.08 286.568 153.173 287.171 153.07C287.774 152.968 288.328 152.674 288.751 152.233C289.175 151.792 289.446 151.227 289.524 150.62C289.505 150.294 290.442 150.311 290.756 149.637C291.285 148.965 291.543 148.119 291.481 147.266C292.034 149.579 291.833 153.883 289.054 154.545C288.112 154.598 287.221 155.752 287.781 156.629C289.871 160.181 292.469 163.408 295.492 166.209C296.323 173.169 285.59 182.09 281.188 173.541C282.804 172.08 283.383 173.971 284.656 175.055C285.38 175.78 286.61 174.572 285.878 173.833C284.94 173.057 284.118 172.152 283.434 171.145C283.192 170.662 282.709 170.662 282.212 170.904C279.552 172.892 276.223 173.768 272.929 173.348C271.063 172.887 269.311 172.052 267.778 170.893C266.245 169.734 264.963 168.276 264.01 166.608C263.817 165.441 263.491 163.495 261.923 162.744C260.086 161.423 259.586 158.377 258.651 156.288C259.94 154.48 260.842 152.426 261.303 150.253ZM273.911 175.087C268.014 178.671 259.18 173.49 258.765 166.84C258.803 166.308 259.044 165.812 259.437 165.453C259.83 165.094 260.345 164.899 260.878 164.908C261.457 165.299 261.566 166.811 261.723 167.499C262.136 169.148 264.121 171.783 265.628 171.165C267.81 173.45 270.761 174.847 273.911 175.087ZM134.143 189.577C130.977 189.149 127.847 188.493 124.776 187.613C128.033 186.58 131.274 181.817 134.559 184.341C135.167 185.244 133.694 185.667 133.689 186.502C133.484 187.893 135.247 187.618 135.752 188.512C135.589 188.807 135.358 189.059 135.078 189.248C134.799 189.436 134.478 189.556 134.143 189.596V189.577ZM161.916 192.851C153.69 192.17 144.786 191.161 137.606 190.118C137.833 189.808 137.992 189.453 138.073 189.078C138.153 188.703 138.155 188.315 138.076 187.939C137.998 187.563 137.841 187.208 137.617 186.896C137.392 186.585 137.105 186.324 136.773 186.131C136.979 185.718 137.092 185.266 137.105 184.805C137.118 184.344 137.031 183.886 136.849 183.463C136.667 183.039 136.395 182.66 136.051 182.353C135.708 182.045 135.302 181.817 134.861 181.682C141.523 177.318 148.46 173.39 155.63 169.921C158.274 170.034 160.815 170.984 162.884 172.635C164.954 174.285 166.446 176.55 167.145 179.103C167.844 181.656 167.714 184.365 166.774 186.84C165.833 189.314 164.132 191.426 161.913 192.871L161.916 192.851ZM166.263 192.267C167.812 190.519 168.928 188.432 169.522 186.174C170.115 183.915 170.17 181.549 169.68 179.265C169.19 176.982 168.171 174.846 166.703 173.029C165.236 171.213 163.362 169.767 161.232 168.808C186.131 164.038 212.901 159.31 246.376 153.772C246.46 156.11 248.421 159.066 250.993 157.807C251.718 157.324 251.732 156.665 252.408 157.704C252.694 158.059 253.052 158.351 253.457 158.559C253.863 158.768 254.308 158.889 254.764 158.914C255.22 158.939 255.675 158.868 256.102 158.705C256.528 158.542 256.915 158.291 257.238 157.969C257.857 159.601 258.587 161.188 259.424 162.72C255.463 164.007 255.886 168.849 257.859 171.798C256.926 172.42 256.049 173.123 255.239 173.899C225.934 181.621 196.233 187.76 166.268 192.286L166.263 192.267ZM131.187 341.562C131.036 341.61 130.877 341.627 130.719 341.613C130.561 341.599 130.407 341.554 130.267 341.481C130.126 341.408 130.001 341.307 129.899 341.186C129.798 341.064 129.721 340.924 129.673 340.773C127.958 335.301 124.582 330.499 120.014 327.034C115.446 323.569 109.912 321.612 104.18 321.436C103.86 321.436 103.553 321.309 103.327 321.082C103.1 320.856 102.973 320.548 102.973 320.228C102.973 319.908 103.1 319.601 103.327 319.374C103.553 319.148 103.86 319.021 104.18 319.021C110.429 319.186 116.468 321.304 121.451 325.077C126.434 328.85 130.111 334.089 131.965 340.058C132.059 340.36 132.03 340.688 131.884 340.969C131.739 341.251 131.488 341.464 131.187 341.562ZM131.832 330.936C115.302 305.096 46.858 301.437 18.3996 304.54C54.4049 277.063 93.9891 253.7 132.31 231.066C159.305 212.821 190.27 206.076 224.817 210.396C225.377 217.574 230.963 218.262 237.51 218.504C247.532 218.504 259.327 207.31 263.725 197.049C266.837 191.164 269.353 184.984 271.238 178.601C272.465 178.429 273.65 178.033 274.735 177.434C268.557 190.279 266.251 206.465 254.154 215.12C253.039 215.929 253.985 217.238 254.901 217.719C259.1 219.354 262.689 220.858 266.229 222.653C261.527 224.669 256.651 228.449 252.08 229.992C226.691 214.241 191.533 214.374 162.068 219.607C135.134 232.39 112.365 250.007 86.336 264.442C69.7619 274.051 52.625 283.986 36.2465 294.743C36.0252 294.888 35.858 295.103 35.7705 295.353C35.6831 295.603 35.6804 295.875 35.7628 296.127C35.8452 296.379 36.0081 296.596 36.2264 296.746C36.4447 296.896 36.7064 296.971 36.971 296.957C60.0282 295.431 83.1674 298.231 105.195 305.214C114.918 308.238 126.836 313.015 132.82 323.189C132.038 325.692 131.704 328.313 131.832 330.932V330.936ZM147.74 261.37C123.754 267.243 127.191 258.793 132.141 239.326C146.209 231.578 157.417 220.419 174.8 220.006C201.041 218.074 228.275 218.156 249.964 231.557C239.698 237.379 229.437 243.54 219.27 250.031C217.437 250.826 215.72 253.137 213.761 252.782C191.517 253.356 169.392 256.233 147.74 261.365V261.37ZM211.013 255.311C203.311 260.329 195.378 265.758 186.846 271.849C184.115 271.489 178.408 273.59 176.635 271.547C174.283 268.224 174.945 262.749 174.633 258.781C186.688 256.978 198.83 255.818 211.008 255.306L211.013 255.311ZM105.936 302.915C85.0633 296.331 63.2055 293.423 41.3373 294.32C70.3922 275.831 100.459 259.544 129.243 241.12C122.819 262.804 125.621 269.646 148.351 263.708C156.299 261.901 164.278 260.372 172.286 259.119C172.204 262.119 172.374 265.12 172.793 268.091C173.462 274.249 177.739 275.676 183.086 274.532C170.042 284.121 157.595 294.495 145.813 305.598C140.869 309.658 136.817 314.695 133.909 320.392C127.142 310.462 114.804 305.702 105.931 302.91L105.936 302.915ZM193.516 331.156C193.424 331.463 193.215 331.721 192.933 331.873C192.651 332.025 192.321 332.059 192.014 331.968C192.318 331.593 133.991 317.147 139.157 341.628C139.191 341.782 139.195 341.943 139.167 342.099C139.139 342.255 139.081 342.404 138.996 342.538C138.91 342.672 138.8 342.788 138.67 342.878C138.54 342.969 138.393 343.034 138.238 343.068C138.083 343.102 137.923 343.106 137.767 343.078C137.61 343.05 137.461 342.992 137.327 342.907C137.194 342.822 137.078 342.711 136.987 342.581C136.896 342.451 136.832 342.304 136.797 342.149C134.259 331.898 144.284 324.575 157.05 324.974C169.091 324.905 181.085 326.477 192.702 329.647C192.854 329.692 192.996 329.767 193.119 329.868C193.241 329.968 193.343 330.092 193.419 330.231C193.494 330.371 193.541 330.524 193.556 330.682C193.572 330.84 193.557 330.999 193.511 331.151L193.516 331.156ZM229.002 329.079C228.9 329.383 228.682 329.633 228.395 329.776C228.109 329.919 227.777 329.942 227.473 329.84C227.232 329.755 202.577 321.518 184.438 318.989C165.162 316.304 145.412 320.438 139.476 328.393C138.589 329.666 136.563 328.193 137.544 326.944C144.972 316.98 167.41 314.171 184.776 316.591C203.13 319.151 228.005 327.459 228.246 327.543C228.549 327.647 228.798 327.867 228.938 328.154C229.079 328.441 229.1 328.772 228.997 329.074L229.002 329.079ZM265.952 335.979C257.962 329.315 248.777 324.234 238.887 321.006C221.047 314.613 202.212 311.446 183.262 311.653C169.844 312.35 140.736 313.585 134.199 328.864C134.622 320.216 140.661 313.452 147.46 307.371C179.432 276.724 228.162 245.547 266.413 225.237C275.696 220.286 288.353 218.361 304.005 219.506C303.102 220.836 302.293 225.258 300.711 224.686C292.115 223.53 283.415 223.363 274.781 224.189C274.622 224.202 274.468 224.247 274.327 224.32C274.185 224.393 274.06 224.494 273.957 224.616C273.855 224.737 273.777 224.878 273.729 225.03C273.681 225.182 273.664 225.341 273.677 225.5C273.705 225.82 273.858 226.116 274.104 226.323C274.226 226.426 274.367 226.503 274.519 226.551C274.67 226.599 274.83 226.617 274.989 226.604C283.361 225.805 291.798 225.957 300.136 227.058C298.648 229.48 296.974 231.782 295.127 233.943C294.95 233.709 294.691 233.55 294.403 233.496C285.572 232.015 276.578 231.764 267.678 232.75C267.52 232.767 267.366 232.815 267.226 232.892C267.086 232.969 266.963 233.072 266.863 233.196C266.763 233.321 266.689 233.464 266.644 233.617C266.599 233.77 266.585 233.93 266.602 234.089C266.62 234.247 266.668 234.401 266.745 234.541C266.821 234.681 266.925 234.804 267.049 234.904C267.174 235.004 267.316 235.078 267.469 235.123C267.623 235.168 267.783 235.182 267.942 235.165C276.511 234.217 285.17 234.445 293.678 235.843C291.761 237.845 289.372 241.676 286.675 242.081C285.97 241.7 259.091 235.911 266.251 241.275C272.448 241.693 278.599 242.633 284.639 244.083C281.862 246.469 277.336 245.805 274.595 248.032C273.204 248.599 272.306 250.229 273.078 251.241C270.422 250.816 251.082 247.136 250.959 250.333C250.959 250.654 251.087 250.961 251.313 251.187C251.539 251.414 251.847 251.541 252.167 251.541C255.273 251.886 275.404 251.524 271.199 255.282C270.154 256.772 269.799 260.126 272.204 260.336C272.798 260.109 272.255 261.971 272.859 262.599C256.982 256.503 239.913 254.152 222.979 255.728C222.659 255.758 222.364 255.915 222.159 256.162C221.953 256.41 221.855 256.729 221.885 257.049C221.915 257.37 222.071 257.665 222.319 257.87C222.567 258.075 222.886 258.174 223.206 258.143C256.813 254.678 289.51 268.347 312.759 291.869C312.995 291.869 313.226 291.801 313.424 291.671C313.621 291.542 313.776 291.358 313.87 291.141C313.964 290.925 313.992 290.685 313.951 290.453C313.911 290.22 313.803 290.005 313.641 289.833C302.901 278.473 289.854 269.542 275.377 263.64C275.998 263.34 276.514 262.862 276.86 262.266C276.878 262.673 277.013 263.067 277.249 263.399C277.485 263.731 277.812 263.988 278.191 264.139C278.57 264.289 278.984 264.327 279.384 264.248C279.783 264.168 280.152 263.975 280.444 263.691C282.374 261.491 284.556 259.526 286.945 257.837C299.15 262.632 310.163 270.031 319.214 279.519C319.322 279.639 319.453 279.738 319.599 279.807C319.745 279.876 319.904 279.916 320.066 279.922C320.227 279.929 320.389 279.903 320.54 279.847C320.692 279.79 320.83 279.703 320.948 279.592C321.065 279.48 321.159 279.347 321.224 279.198C321.288 279.05 321.322 278.89 321.324 278.728C321.326 278.566 321.295 278.406 321.233 278.256C321.172 278.107 321.08 277.971 320.965 277.857C312.457 268.951 302.254 261.834 290.957 256.926C296.79 256.462 302.499 254.991 307.83 252.579C317.183 257.294 325.805 263.336 333.429 270.518C333.543 270.632 333.679 270.722 333.829 270.783C333.979 270.844 334.139 270.874 334.301 270.872C334.462 270.87 334.622 270.835 334.77 270.77C334.917 270.705 335.051 270.611 335.162 270.493C335.273 270.376 335.359 270.237 335.415 270.086C335.471 269.934 335.497 269.773 335.49 269.612C335.483 269.45 335.443 269.292 335.374 269.146C335.305 269 335.207 268.87 335.086 268.762C327.765 261.873 319.544 256.006 310.648 251.323C314.644 249.49 318.478 247.322 322.11 244.844C331.169 249.289 339.514 255.061 346.869 261.969C347.984 263.06 349.687 261.268 348.523 260.211C341.31 253.444 333.168 247.742 324.344 243.277C327.223 241.139 329.92 238.769 332.41 236.189C340.813 239.935 348.734 244.68 356.002 250.321C356.129 250.417 356.274 250.488 356.428 250.528C356.582 250.569 356.742 250.578 356.9 250.557C357.058 250.535 357.21 250.482 357.347 250.402C357.485 250.322 357.605 250.215 357.701 250.088C357.797 249.961 357.868 249.817 357.908 249.663C357.948 249.509 357.958 249.348 357.936 249.19C357.915 249.033 357.862 248.881 357.782 248.743C357.702 248.606 357.595 248.485 357.468 248.389C350.275 242.812 342.459 238.086 334.178 234.307C336.483 231.731 338.565 228.963 340.401 226.034C354.933 230.61 368.752 237.199 381.456 245.61C374.61 249.404 344.024 274.107 332.028 282.851C327.133 286.44 266.203 335.708 265.952 335.974V335.979ZM281.596 254.337C279.299 252.852 275.725 258.96 274.972 260.561C275.653 257.873 277.17 255.47 279.304 253.7C279.538 253.502 279.689 253.224 279.727 252.92C279.765 252.616 279.688 252.309 279.51 252.06C279.333 251.81 279.069 251.636 278.769 251.572C278.47 251.508 278.158 251.559 277.894 251.715C278.553 251.318 279.245 250.98 279.963 250.705C280.207 250.611 280.413 250.441 280.551 250.22C280.69 249.999 280.753 249.739 280.731 249.479C280.71 249.22 280.605 248.974 280.432 248.779C280.259 248.583 280.028 248.449 279.773 248.396C284.028 246.438 287.501 250.57 288.162 254.33C284.732 256.029 281.723 258.47 279.352 261.476C279.682 259.462 280.492 257.556 281.714 255.922C281.89 255.687 281.974 255.396 281.951 255.103C281.928 254.811 281.799 254.537 281.589 254.333L281.596 254.337ZM270.035 365.29L269.166 352.93C275.862 346.888 283.059 341.426 290.681 336.604C290.952 336.432 291.142 336.16 291.212 335.847C291.281 335.535 291.224 335.207 291.052 334.937C290.88 334.667 290.608 334.476 290.295 334.406C289.982 334.337 289.655 334.394 289.384 334.566C282.183 339.133 275.352 344.258 268.953 349.894L268.637 345.39L327.691 297.184C327.814 297.084 327.916 296.96 327.991 296.821C328.066 296.681 328.113 296.528 328.129 296.37C328.145 296.212 328.13 296.052 328.084 295.9C328.038 295.748 327.963 295.607 327.863 295.484C327.762 295.361 327.639 295.259 327.499 295.184C327.359 295.109 327.206 295.062 327.048 295.046C326.89 295.03 326.731 295.046 326.579 295.091C326.427 295.137 326.285 295.212 326.162 295.313L268.429 342.446L268.101 337.773C299.141 313.763 300.525 309.001 354.771 268.627C361.158 263.659 375.38 252.072 382.256 247.858C381.543 251.969 381.174 256.132 381.152 260.305L350.354 285.283C350.16 285.44 350.02 285.654 349.953 285.894C349.885 286.134 349.894 286.389 349.977 286.624C350.06 286.859 350.214 287.062 350.418 287.206C350.622 287.35 350.865 287.428 351.114 287.428C351.761 287.428 349.445 289.118 381.06 263.5C381.012 264.886 380.966 266.024 380.925 266.226C378.628 269.052 291.708 346.047 270.035 365.285V365.29ZM415.556 335.568L423.658 335.993C422.901 346.193 418.858 355.872 412.136 363.58C410.364 362.116 405.616 356.335 403.848 358.39C403.677 358.66 403.619 358.988 403.689 359.3C403.759 359.613 403.95 359.885 404.22 360.056C406.52 361.563 408.628 363.343 410.499 365.357C403.799 372.228 395.41 377.215 386.173 379.818L384.043 372.153C383.95 371.853 383.744 371.601 383.468 371.45C383.192 371.299 382.868 371.262 382.565 371.346C382.263 371.431 382.005 371.63 381.846 371.901C381.688 372.173 381.641 372.495 381.717 372.8L383.866 380.528C374.769 382.91 365.366 383.912 355.971 383.501L357.195 375.329C357.228 375.02 357.139 374.71 356.949 374.464C356.759 374.218 356.481 374.055 356.173 374.009C355.866 373.963 355.552 374.037 355.298 374.216C355.044 374.396 354.869 374.666 354.809 374.971L353.534 383.472C345.938 383.36 338.353 382.847 330.811 381.934C337.286 349.897 343.017 324.032 349.356 298.23C356.36 291.379 362.989 286.046 367.582 281.714C368.186 283.018 370.159 282.598 371.328 283.023C371.038 284.904 368.71 291.898 371.395 292.308C371.716 292.308 372.023 292.181 372.249 291.955C372.476 291.728 372.603 291.421 372.603 291.101C372.621 288.524 372.993 285.962 373.709 283.486C380.804 284.86 387.724 287.015 394.345 289.91L390.153 296.827C390.071 296.963 390.016 297.113 389.992 297.27C389.968 297.427 389.975 297.587 390.013 297.741C390.051 297.895 390.119 298.04 390.213 298.168C390.307 298.296 390.425 298.404 390.561 298.486C390.697 298.568 390.847 298.623 391.004 298.647C391.161 298.671 391.321 298.663 391.475 298.626C391.629 298.588 391.774 298.52 391.902 298.426C392.03 298.332 392.138 298.214 392.22 298.078L396.545 290.944C405.681 295.552 412.4 300.937 417.044 308.709L410.924 311.766C410.777 311.834 410.646 311.93 410.537 312.05C410.428 312.17 410.344 312.31 410.291 312.463C410.237 312.615 410.215 312.777 410.225 312.939C410.236 313.1 410.278 313.258 410.35 313.402C410.423 313.547 410.523 313.676 410.646 313.781C410.769 313.886 410.912 313.965 411.066 314.014C411.221 314.062 411.383 314.08 411.544 314.064C411.705 314.049 411.861 314.002 412.004 313.925L418.237 310.812C421.996 317.797 423.89 325.633 423.733 333.564L415.684 333.141C415.363 333.124 415.048 333.236 414.809 333.451C414.57 333.666 414.426 333.967 414.409 334.288C414.392 334.61 414.503 334.924 414.718 335.163C414.934 335.403 415.235 335.546 415.556 335.563V335.568Z" fill="#C7D6D5"/>
</svg>
